<svg width="470" height="417" viewBox="0 0 470 417" fill="none" xmlns="http://www.w3.org/2000/svg">
<path d="M327.629 169.42L327.63 169.426C329.368 176.551 331.02 183.506 332.238 188.986C332.847 191.725 333.348 194.1 333.697 195.945C334.042 197.764 334.252 199.131 334.252 199.812C334.252 200.544 333.964 201.628 333.516 202.889C333.059 204.177 332.404 205.734 331.606 207.45C330.01 210.883 327.827 214.986 325.471 218.913L325.465 218.923C321.552 225.183 318.871 229.057 315.43 232.565C311.995 236.067 307.821 239.182 300.96 243.959L300.954 243.963C296.618 246.911 292.719 249.727 289.906 251.869C288.498 252.941 287.368 253.84 286.594 254.5C286.205 254.831 285.916 255.093 285.728 255.283C285.702 255.309 285.678 255.333 285.658 255.355C285.67 255.388 285.684 255.425 285.699 255.465C285.786 255.69 285.918 256 286.093 256.389C286.441 257.167 286.948 258.234 287.576 259.512C288.832 262.067 290.566 265.449 292.474 269.004C294.389 272.572 296.13 275.968 297.394 278.562C298.026 279.858 298.541 280.958 298.899 281.783C299.078 282.194 299.221 282.544 299.321 282.818C299.37 282.955 299.412 283.081 299.442 283.192C299.468 283.286 299.502 283.424 299.502 283.56C299.502 284.052 299.11 284.323 298.914 284.435C298.671 284.574 298.357 284.683 298.016 284.773C297.323 284.958 296.355 285.108 295.204 285.229C292.893 285.471 289.741 285.602 286.34 285.602H282.916C276.776 285.602 270.824 283.487 266.061 279.614L257.434 272.598L257.433 272.597C251.79 267.996 247.691 264.935 244.798 263.156C243.349 262.265 242.234 261.716 241.398 261.449C240.542 261.176 240.127 261.246 239.94 261.355C239.212 261.81 238.395 262.218 237.619 262.515C236.854 262.808 236.071 263.014 235.431 263.014C235.225 263.014 235.028 262.932 234.914 262.881C234.771 262.817 234.607 262.729 234.43 262.625C234.074 262.415 233.618 262.114 233.079 261.737C231.998 260.981 230.549 259.892 228.84 258.553C225.42 255.874 220.937 252.175 216.238 248.085L206.561 239.691C201.94 235.683 196.028 233.477 189.911 233.477L181.916 233.477L181.91 233.477L176.895 233.427C168.674 233.347 160.948 229.485 155.949 222.959L151.17 216.719C151.169 216.718 151.169 216.718 151.168 216.717C144.168 207.729 140.495 202.959 139.172 197.713C137.847 192.459 138.892 186.777 140.966 176.061C142.178 169.481 142.931 165.896 144.839 162.506C146.736 159.136 149.763 155.984 155.386 150.188L155.388 150.185C171.659 133.564 189.869 124.992 214.498 121.848C231.335 119.678 240.498 118.664 250.043 119.871C259.577 121.076 269.467 124.494 287.777 131.089C287.777 131.089 287.777 131.09 287.777 131.09L307.577 138.213C315.933 141.22 322.249 148.182 324.429 156.79L327.629 169.42ZM0.651562 208.5V390.938C0.651562 404.972 12.0284 416.348 26.0625 416.348H234.562H443.062C457.097 416.348 468.473 404.972 468.473 390.938V208.5V26.0625C468.473 12.0284 457.097 0.651581 443.062 0.651581H234.562H26.0625C12.0284 0.651581 0.651562 12.0284 0.651562 26.0625V208.5Z" stroke="url(#paint0_linear_105_20)" stroke-width="1.30312"/>
<path d="M226.744 134.656C210.238 136.394 205.546 137.61 193.731 143.517V143.517C190.073 145.301 191.214 150.789 195.28 150.965L199.813 151.162C217.361 151.857 220.141 151.684 222.053 148.904C223.964 146.471 227.091 145.95 238.038 145.95C251.938 145.95 257.845 144.907 256.281 142.475C255.239 140.737 264.448 142.475 267.228 144.734C269.834 146.819 270.008 156.722 267.401 159.329C266.011 160.719 260.278 161.066 250.026 160.371C236.821 159.502 234.041 159.85 231.088 162.456C227.96 165.236 227.96 165.757 230.566 169.58C232.999 173.402 234.215 173.75 249.505 173.75H259.007C263.338 173.75 267.337 171.429 269.486 167.669V167.669V167.669C271.75 163.896 275.827 161.587 280.227 161.587H292.248C311.013 161.587 311.186 161.587 310.665 157.591C310.144 154.29 305.974 152.379 279.738 142.996C266.349 138.255 254.416 134.185 249.689 132.853C248.307 132.463 246.874 132.437 245.445 132.578C241.906 132.928 234.57 133.743 226.744 134.656Z" fill="url(#paint1_linear_105_20)"/>
<path d="M160.371 168.885C157.244 172.881 156.027 175.661 157.591 175.314C158.286 175.14 169.58 175.14 182.437 175.314L193.072 175.392C201.115 175.451 208.517 179.791 212.496 186.781V186.781V186.781C216.585 193.776 224.079 198.075 232.181 198.075H243.771H262.452C266.155 198.075 269.572 200.066 271.397 203.288V203.288V203.288C273.223 206.509 276.64 208.5 280.342 208.5H293.29C311.707 208.5 312.402 208.326 315.182 204.156V204.156C316.385 202.278 315.036 199.813 312.805 199.813H308.927C304.062 199.813 297.286 200.681 294.159 201.898C286.34 204.678 282.517 202.245 281.822 194.079C281.301 188.693 281.996 187.303 285.645 185.565C289.12 184.175 291.205 184.175 294.506 185.565C296.939 186.781 303.02 187.65 307.885 187.65C315.182 187.65 316.399 187.129 315.53 184.87C315.009 183.306 314.487 181.048 314.487 179.658C314.487 177.746 311.012 177.225 297.46 177.225H287.178C282.914 177.225 278.992 179.559 276.957 183.306V183.306V183.306C274.923 187.054 271.001 189.388 266.737 189.388H247.42H234.005C225.971 189.388 218.555 185.076 214.581 178.094V178.094V178.094C210.721 171.125 203.383 166.8 195.416 166.8H185.217C168.711 166.8 161.587 167.495 160.371 168.885Z" fill="url(#paint2_linear_105_20)"/>
<path d="M152.9 190.604C152.9 192.515 161.935 205.025 163.325 205.025C164.02 205.025 165.758 203.461 166.974 201.55C168.711 199.118 172.36 197.901 180.179 197.033C190.604 195.99 191.125 195.99 193.036 200.508C196.511 207.979 192.863 213.713 184.349 213.713C180.526 213.713 176.704 214.755 175.488 216.319C173.576 218.578 175.314 218.925 189.735 218.925C208.153 218.925 207.458 218.578 225.528 234.91C230.74 239.428 235.431 243.25 236.126 243.25C236.995 243.25 240.47 240.818 244.119 238.038C253.675 230.393 255.413 231.088 255.413 242.034C255.413 251.069 255.586 251.416 263.405 257.15L266.473 259.351C267.717 260.243 269.32 258.859 268.618 257.498V257.498C267.054 254.544 265.838 251.416 265.838 250.548C265.838 249.679 274.178 243.076 284.255 236.126L286.853 234.313C291.88 230.803 289.515 222.913 283.386 222.748V222.748L270.202 222.388C266.501 222.287 263.099 220.333 261.146 217.188V217.188C258.193 212.149 257.671 211.975 245.335 211.975C238.211 211.975 232.999 212.67 233.52 213.539C234.041 214.408 237.69 214.755 241.513 214.234C249.853 213.018 253.675 215.624 253.675 222.4C253.675 230.045 250.374 231.435 236.648 230.045L234.17 229.833C228.119 229.314 222.725 225.809 219.794 220.489V220.489C216.84 214.929 214.06 211.975 211.975 211.975C209.716 211.975 206.589 208.326 202.419 200.681V200.681C198.445 193.699 191.029 189.388 182.995 189.388H174.445C162.63 189.388 152.9 189.909 152.9 190.604Z" fill="url(#paint3_linear_105_20)"/>
<defs>
<linearGradient id="paint0_linear_105_20" x1="234.562" y1="417" x2="234.562" y2="0" gradientUnits="userSpaceOnUse">
<stop stop-color="#56B1F6"/>
<stop offset="0.520833" stop-color="#A870E7"/>
<stop offset="1" stop-color="#F613D6"/>
</linearGradient>
<linearGradient id="paint1_linear_105_20" x1="179.819" y1="173.316" x2="334.239" y2="173.316" gradientUnits="userSpaceOnUse">
<stop stop-color="#56B1F6"/>
<stop offset="0.479167" stop-color="#A870E7"/>
<stop offset="1" stop-color="#F613D6"/>
</linearGradient>
<linearGradient id="paint2_linear_105_20" x1="183.728" y1="197.423" x2="340.103" y2="198.727" gradientUnits="userSpaceOnUse">
<stop stop-color="#56B1F6"/>
<stop offset="0.505208" stop-color="#A870E7"/>
<stop offset="1" stop-color="#F613D6"/>
</linearGradient>
<linearGradient id="paint3_linear_105_20" x1="152.453" y1="263.231" x2="341.406" y2="263.231" gradientUnits="userSpaceOnUse">
<stop stop-color="#56B1F6"/>
<stop offset="0.520833" stop-color="#A870E7"/>
<stop offset="1" stop-color="#F613D6"/>
</linearGradient>
</defs>
</svg>
