<svg width="324" height="223" viewBox="0 0 324 223" fill="none" xmlns="http://www.w3.org/2000/svg">
<path d="M92.696 111.333C92.696 184.667 93.096 222.667 94.0293 222.667C94.9627 222.667 95.3627 184.667 95.3627 111.333C95.3627 38.0001 94.9627 6.97672e-05 94.0293 6.97672e-05C93.096 6.97672e-05 92.696 38.0001 92.696 111.333Z" fill="url(#paint0_linear_113_5)"/>
<path d="M112.296 56.9333C111.763 57.3333 111.363 73.2 111.363 92C111.363 125.467 111.496 126.4 114.429 130.8C119.629 138.667 124.163 140 145.763 140C163.763 140 164.696 139.867 164.696 137.333C164.696 134.8 163.763 134.667 144.829 134.667C125.629 134.667 124.696 134.533 121.096 131.467L117.363 128.267L116.963 92.1333C116.563 64 116.163 56 114.829 56C113.896 56 112.696 56.4 112.296 56.9333Z" fill="url(#paint1_linear_113_5)"/>
<path d="M29.896 82.6668C25.096 83.3335 18.696 84.9335 15.896 86.4002C8.02932 90.5335 1.22932 98.4002 0.295988 104.533C-0.370679 109.067 0.0293213 110.533 4.42932 116.133C9.09599 122.267 9.62932 122.533 16.1627 122.667C21.896 122.667 23.6293 123.333 28.296 127.333C31.3627 129.867 34.8293 132 36.0293 132C37.2293 132 40.8293 134.133 43.896 136.667C47.2293 139.333 51.096 141.333 53.2293 141.333C57.2293 141.333 57.496 140.267 54.696 136.533C51.496 132.4 52.4293 130.267 58.5627 126.267C61.896 124.267 66.0293 120 67.896 116.8L71.2293 111.067L68.696 101.467C67.3627 96.1335 65.896 91.4668 65.496 91.0668C64.696 90.2668 40.296 81.3335 39.3627 81.4668C38.9627 81.6002 34.696 82.1335 29.896 82.6668ZM64.4293 95.0668C64.8293 96.9335 63.7627 97.3335 57.496 97.3335C51.496 97.3335 49.896 97.8668 48.696 100C47.496 102.133 45.896 102.667 40.0293 102.667C34.0293 102.667 32.696 102.267 32.0293 100C30.696 95.7335 32.4293 94.6668 40.1627 94.6668C45.496 94.6668 47.3627 94.2668 46.9627 92.9335C46.4293 91.3335 32.9627 91.3335 31.096 93.0668C29.496 94.5335 12.5627 93.2002 13.496 91.7335C14.9627 89.3335 23.896 86.2668 32.0293 85.3335C38.9627 84.6668 41.7627 85.0668 52.0293 88.6668C60.0293 91.4668 64.1627 93.6002 64.4293 95.0668ZM27.7627 101.333C30.0293 105.2 30.5627 105.333 39.2293 105.333C45.7627 105.333 48.8293 104.8 50.0293 103.333C51.096 102 54.1627 101.333 58.8293 101.333C65.096 101.333 66.0293 101.733 66.0293 103.867C66.0293 106 64.9627 106.533 60.0293 106.933C51.6293 107.467 51.896 109.867 60.296 110.4C65.7627 110.667 67.096 111.2 66.4293 112.8C65.3627 115.467 49.6293 115.467 47.3627 112.667C46.1627 111.2 43.096 110.667 36.5627 110.667C27.7627 110.667 27.3627 110.533 25.3627 106.667C23.3627 102.8 22.9627 102.667 14.0293 102.667C7.09599 102.667 4.69599 102.267 4.69599 100.933C4.69599 97.8668 6.16265 97.3335 16.0293 97.3335C25.096 97.3335 25.496 97.4668 27.7627 101.333ZM23.3627 110C24.9627 112.533 26.8293 114.667 27.496 114.667C28.1627 114.667 29.496 116.133 30.296 118C31.496 120.533 32.8293 121.333 36.296 121.333C39.3627 121.333 40.696 120.667 40.696 119.333C40.696 118 39.3627 117.333 36.696 117.333C34.5627 117.333 32.696 116.667 32.696 116C32.696 113.867 44.4293 114.4 45.6293 116.533C46.296 117.867 49.496 118.667 54.696 118.933L62.696 119.333L55.096 124.667C47.6293 129.867 47.6293 130 49.496 133.6C51.7627 138.133 51.096 138.267 46.0293 134.4C43.096 132.267 42.0293 130.4 42.0293 127.6C42.0293 123.733 41.896 123.733 39.6293 125.733C36.0293 128.933 33.7627 128.533 29.3627 124C26.0293 120.533 24.5627 120 18.696 120C14.8293 120 11.3627 119.6 10.9627 119.067C9.49599 117.733 12.696 114.667 15.496 114.667C16.9627 114.667 18.0293 113.733 18.0293 112.667C18.0293 110.133 15.7627 110.133 11.096 112.533C7.89599 114.267 7.36266 114.133 5.49599 112.133C4.29599 110.8 3.36265 108.8 3.36265 107.6C3.36265 105.733 4.82932 105.333 11.896 105.333C20.296 105.333 20.5627 105.467 23.3627 110Z" fill="url(#paint2_linear_113_5)"/>
<path d="M174.029 106.533C174.029 127.6 174.163 129.2 177.096 133.467C178.696 135.867 181.496 138.267 183.363 138.8C189.363 140.533 204.696 140 209.363 138.133C216.963 134.933 218.029 131.067 218.029 106C218.029 84.9334 217.896 84.0001 215.363 84.0001C212.829 84.0001 212.696 84.9334 212.696 107.067C212.696 135.6 213.229 134.667 195.896 134.667C189.363 134.667 183.363 134.133 182.429 133.6C179.096 131.467 178.029 124.4 178.029 104.533C178.029 87.2001 177.763 84.0001 176.029 84.0001C174.296 84.0001 174.029 87.3334 174.029 106.533Z" fill="url(#paint3_linear_113_5)"/>
<path d="M241.096 84.9333C239.496 85.2 236.696 87.0667 234.829 88.9333C231.363 92.2667 231.363 92.6667 231.363 111.867C231.363 130 231.629 131.733 234.163 134.533C238.296 138.933 242.296 140 255.496 140C266.296 140 267.496 139.733 267.096 137.6C266.696 135.6 264.829 135.333 253.363 134.933C235.363 134.533 235.363 134.533 235.363 112C235.363 89.0667 235.496 88.8 253.896 88.2667C264.429 87.8667 267.363 87.3333 267.363 85.8667C267.363 84.4 264.963 84 255.763 84.1333C249.229 84.2667 242.696 84.6667 241.096 84.9333Z" fill="url(#paint4_linear_113_5)"/>
<path d="M279.629 108L280.029 132L283.763 135.6C287.363 139.2 287.763 139.333 302.696 139.333H318.029V148.267C318.029 156.267 317.629 157.467 314.563 159.867C311.496 162.267 309.096 162.667 296.563 162.667C284.563 162.667 282.029 163.067 282.029 164.667C282.029 166.267 284.696 166.667 297.763 166.667C323.363 166.667 323.363 166.8 323.363 118.667C323.363 84.9334 323.229 84.0001 320.696 84.0001C318.163 84.0001 318.029 84.9334 318.029 109.333V134.667H303.496C292.029 134.667 288.429 134.267 286.829 132.533C285.096 130.8 284.696 126.533 284.696 107.2C284.696 84.5334 284.563 84.0001 281.896 84.0001C279.229 84.0001 279.096 84.4001 279.629 108Z" fill="url(#paint5_linear_113_5)"/>
<defs>
<linearGradient id="paint0_linear_113_5" x1="94.0293" y1="222.667" x2="94.0293" y2="7.62939e-05" gradientUnits="userSpaceOnUse">
<stop stop-color="#56B1F6"/>
<stop offset="0.510417" stop-color="#A870E7"/>
<stop offset="1" stop-color="#F613D6"/>
</linearGradient>
<linearGradient id="paint1_linear_113_5" x1="138.029" y1="140" x2="138.029" y2="56" gradientUnits="userSpaceOnUse">
<stop stop-color="#56B1F6"/>
<stop offset="0.510417" stop-color="#A870E7"/>
<stop offset="1" stop-color="#F613D6"/>
</linearGradient>
<linearGradient id="paint2_linear_113_5" x1="35.635" y1="141.333" x2="35.635" y2="81.4654" gradientUnits="userSpaceOnUse">
<stop stop-color="#56B1F6"/>
<stop offset="0.510417" stop-color="#A870E7"/>
<stop offset="1" stop-color="#F613D6"/>
</linearGradient>
<linearGradient id="paint3_linear_113_5" x1="196.029" y1="139.854" x2="196.029" y2="84.0001" gradientUnits="userSpaceOnUse">
<stop stop-color="#56B1F6"/>
<stop offset="0.510417" stop-color="#A870E7"/>
<stop offset="1" stop-color="#F613D6"/>
</linearGradient>
<linearGradient id="paint4_linear_113_5" x1="249.363" y1="140" x2="249.363" y2="84.1093" gradientUnits="userSpaceOnUse">
<stop stop-color="#56B1F6"/>
<stop offset="0.510417" stop-color="#A870E7"/>
<stop offset="1" stop-color="#F613D6"/>
</linearGradient>
<linearGradient id="paint5_linear_113_5" x1="301.371" y1="166.667" x2="301.371" y2="84.0001" gradientUnits="userSpaceOnUse">
<stop stop-color="#56B1F6"/>
<stop offset="0.510417" stop-color="#A870E7"/>
<stop offset="1" stop-color="#F613D6"/>
</linearGradient>
</defs>
</svg>
