<svg xmlns="http://www.w3.org/2000/svg" xmlns:xlink="http://www.w3.org/1999/xlink" width="50" zoomAndPan="magnify" viewBox="0 0 37.5 37.499999" height="50" preserveAspectRatio="xMidYMid meet" version="1.0"><defs><g/></defs><g fill="#8c52ff" fill-opacity="1"><g transform="translate(3.150314, 22.537146)"><g><path d="M 5.449219 -1.878906 L 0 -1.878906 L 0 -0.113281 C 0 -0.0625 0.0625 0 0.140625 0 L 5.449219 0 C 5.539062 0 5.589844 -0.0625 5.589844 -0.113281 L 5.589844 -1.753906 C 5.589844 -1.816406 5.539062 -1.878906 5.449219 -1.878906 Z M 1.929688 -3.8125 L 1.929688 -9.980469 C 1.929688 -10.03125 1.878906 -10.09375 1.804688 -10.09375 L 0.140625 -10.09375 C 0.0625 -10.09375 0 -10.03125 0 -9.980469 L 0 -3.8125 Z M 1.929688 -3.8125 "/></g></g></g><g fill="#8c52ff" fill-opacity="1"><g transform="translate(9.822046, 22.537146)"><g><path d="M 7.445312 -10.09375 L 5.804688 -10.09375 C 5.714844 -10.09375 5.664062 -10.03125 5.664062 -9.980469 L 5.664062 -3.367188 C 5.664062 -2.347656 4.730469 -1.855469 3.785156 -1.855469 C 2.851562 -1.855469 2.019531 -2.386719 1.90625 -3.382812 L 1.90625 -8.265625 L 0 -8.265625 L 0 -3.367188 C 0 -1.285156 1.703125 0 3.785156 0 C 5.929688 0 7.570312 -1.238281 7.570312 -3.367188 L 7.570312 -9.980469 C 7.570312 -10.03125 7.507812 -10.09375 7.445312 -10.09375 Z M 7.445312 -10.09375 "/></g></g></g><g fill="#8c52ff" fill-opacity="1"><g transform="translate(18.561875, 22.537146)"><g><path d="M 5.765625 -1.855469 C 4.542969 -1.804688 1.941406 -1.929688 1.941406 -5.046875 C 1.941406 -7.445312 3.570312 -8.367188 5.765625 -8.253906 L 5.765625 -6.019531 L 7.695312 -6.019531 L 7.695312 -9.980469 C 7.695312 -10.03125 7.644531 -10.09375 7.558594 -10.09375 L 5.917969 -10.09375 C 3.445312 -10.09375 0 -9.527344 0 -5.046875 C 0 -0.730469 3.40625 0 5.917969 0 L 7.558594 0 C 7.644531 0 7.695312 -0.0625 7.695312 -0.113281 L 7.695312 -1.855469 Z M 5.765625 -1.855469 "/></g></g></g><g fill="#8c52ff" fill-opacity="1"><g transform="translate(27.440419, 22.537146)"><g><path d="M 5.726562 -8.164062 L 4.667969 -6.6875 L 2.269531 -10.054688 C 2.246094 -10.082031 2.183594 -10.09375 2.144531 -10.09375 L 0.152344 -10.09375 C 0.0117188 -10.09375 -0.0390625 -9.992188 0.0234375 -9.90625 C 1.25 -8.1875 2.5 -6.472656 3.710938 -4.746094 L 3.710938 -0.113281 C 3.710938 -0.0625 3.761719 0 3.847656 0 L 5.5 0 C 5.578125 0 5.640625 -0.0625 5.640625 -0.113281 L 5.640625 -4.746094 L 8.074219 -8.164062 Z M 5.726562 -8.164062 "/></g></g></g></svg>