<svg xmlns="http://www.w3.org/2000/svg" xmlns:xlink="http://www.w3.org/1999/xlink" width="200" zoomAndPan="magnify" viewBox="0 0 150 30.000001" height="40" preserveAspectRatio="xMidYMid meet" version="1.0"><defs><g/></defs><g fill="#8c52ff" fill-opacity="1"><g transform="translate(7.717753, 17.369012)"><g><path d="M 14.421875 0 L 14.421875 -1.671875 L 3.546875 -1.671875 L 3.546875 -13.453125 L 1.875 -13.453125 L 1.875 0 Z M 14.421875 0 "/></g></g></g><g fill="#8c52ff" fill-opacity="1"><g transform="translate(23.74893, 17.369012)"><g><path d="M 13.359375 0 C 14.515625 0 15.5 -0.40625 16.3125 -1.21875 C 17.125 -2.039062 17.53125 -3.023438 17.53125 -4.171875 L 17.53125 -13.453125 L 15.859375 -13.453125 L 15.859375 -4.171875 C 15.859375 -3.484375 15.613281 -2.894531 15.125 -2.40625 C 14.644531 -1.914062 14.054688 -1.671875 13.359375 -1.671875 L 5.578125 -1.671875 C 4.890625 -1.671875 4.300781 -1.914062 3.8125 -2.40625 C 3.320312 -2.894531 3.078125 -3.484375 3.078125 -4.171875 L 3.078125 -13.453125 L 1.40625 -13.453125 L 1.40625 -4.171875 C 1.40625 -3.023438 1.8125 -2.039062 2.625 -1.21875 C 3.445312 -0.40625 4.429688 0 5.578125 0 Z M 13.359375 0 "/></g></g></g><g fill="#8c52ff" fill-opacity="1"><g transform="translate(43.641604, 17.369012)"><g><path d="M 13.359375 0 C 14.515625 0 15.5 -0.40625 16.3125 -1.21875 C 17.125 -2.039062 17.53125 -3.023438 17.53125 -4.171875 L 15.859375 -4.171875 C 15.859375 -3.484375 15.613281 -2.894531 15.125 -2.40625 C 14.644531 -1.914062 14.054688 -1.671875 13.359375 -1.671875 L 5.578125 -1.671875 C 4.890625 -1.671875 4.300781 -1.914062 3.8125 -2.40625 C 3.320312 -2.894531 3.078125 -3.484375 3.078125 -4.171875 L 3.078125 -9.28125 C 3.078125 -9.96875 3.320312 -10.554688 3.8125 -11.046875 C 4.300781 -11.535156 4.890625 -11.78125 5.578125 -11.78125 L 13.359375 -11.78125 C 14.054688 -11.78125 14.644531 -11.535156 15.125 -11.046875 C 15.613281 -10.554688 15.859375 -9.96875 15.859375 -9.28125 L 17.53125 -9.28125 C 17.53125 -10.4375 17.125 -11.421875 16.3125 -12.234375 C 15.5 -13.046875 14.515625 -13.453125 13.359375 -13.453125 L 5.578125 -13.453125 C 4.429688 -13.453125 3.445312 -13.046875 2.625 -12.234375 C 1.8125 -11.421875 1.40625 -10.4375 1.40625 -9.28125 L 1.40625 -4.171875 C 1.40625 -3.023438 1.8125 -2.039062 2.625 -1.21875 C 3.445312 -0.40625 4.429688 0 5.578125 0 Z M 13.359375 0 "/></g></g></g><g fill="#8c52ff" fill-opacity="1"><g transform="translate(63.534279, 17.369012)"><g><path d="M 10.015625 0 L 8.359375 0 L 8.359375 -6.34375 L 0.28125 -13.453125 L 2.8125 -13.453125 L 9.171875 -7.828125 L 15.5625 -13.453125 L 18.09375 -13.453125 L 10.015625 -6.34375 Z M 10.015625 0 "/></g></g></g><g fill="#6121a0" fill-opacity="1"><g transform="translate(9.681644, 24.133681)"><g><path d="M 0.90625 0 L 0.25 0 L 0.25 -2.53125 L 0.90625 -2.53125 Z M 0.90625 0 "/></g></g></g><g fill="#6121a0" fill-opacity="1"><g transform="translate(11.014383, 24.133681)"><g><path d="M 2.59375 0 L 2.03125 0 L 0.859375 -1.5625 L 0.859375 0 L 0.25 0 L 0.25 -2.53125 L 0.828125 -2.53125 L 2 -0.96875 L 2 -2.53125 L 2.59375 -2.53125 Z M 2.59375 0 "/></g></g></g><g fill="#6121a0" fill-opacity="1"><g transform="translate(14.041718, 24.133681)"><g><path d="M 2.1875 -2.015625 L 1.421875 -2.015625 L 1.421875 0 L 0.78125 0 L 0.78125 -2.015625 L 0.03125 -2.015625 L 0.03125 -2.546875 L 2.1875 -2.546875 Z M 2.1875 -2.015625 "/></g></g></g><g fill="#6121a0" fill-opacity="1"><g transform="translate(16.435389, 24.133681)"><g><path d="M 2.234375 -2.03125 L 0.90625 -2.03125 L 0.90625 -1.53125 L 2.109375 -1.53125 L 2.109375 -1.015625 L 0.90625 -1.015625 L 0.90625 -0.5 L 2.28125 -0.5 L 2.28125 0 L 0.25 0 L 0.25 -2.53125 L 2.234375 -2.53125 Z M 2.234375 -2.03125 "/></g></g></g><g fill="#6121a0" fill-opacity="1"><g transform="translate(19.057177, 24.133681)"><g><path d="M 0.90625 -0.546875 L 1.96875 -0.546875 L 1.96875 0 L 0.25 0 L 0.25 -2.53125 L 0.90625 -2.53125 Z M 0.90625 -0.546875 "/></g></g></g><g fill="#6121a0" fill-opacity="1"><g transform="translate(21.266181, 24.133681)"><g><path d="M 0.90625 0 L 0.25 0 L 0.25 -2.53125 L 0.90625 -2.53125 Z M 0.90625 0 "/></g></g></g><g fill="#6121a0" fill-opacity="1"><g transform="translate(22.598919, 24.133681)"><g><path d="M 1.9375 -1.296875 L 2.5 -1.296875 L 2.5 -0.296875 C 2.363281 -0.203125 2.195312 -0.125 2 -0.0625 C 1.800781 0 1.613281 0.03125 1.4375 0.03125 C 1.050781 0.03125 0.726562 -0.09375 0.46875 -0.34375 C 0.21875 -0.59375 0.09375 -0.898438 0.09375 -1.265625 C 0.09375 -1.628906 0.222656 -1.9375 0.484375 -2.1875 C 0.753906 -2.4375 1.085938 -2.5625 1.484375 -2.5625 C 1.671875 -2.5625 1.859375 -2.523438 2.046875 -2.453125 C 2.234375 -2.390625 2.390625 -2.300781 2.515625 -2.1875 L 2.15625 -1.75 C 2.0625 -1.832031 1.953125 -1.894531 1.828125 -1.9375 C 1.710938 -1.988281 1.597656 -2.015625 1.484375 -2.015625 C 1.273438 -2.015625 1.097656 -1.941406 0.953125 -1.796875 C 0.816406 -1.660156 0.75 -1.484375 0.75 -1.265625 C 0.75 -1.054688 0.816406 -0.878906 0.953125 -0.734375 C 1.097656 -0.585938 1.273438 -0.515625 1.484375 -0.515625 C 1.617188 -0.515625 1.769531 -0.554688 1.9375 -0.640625 Z M 1.9375 -1.296875 "/></g></g></g><g fill="#6121a0" fill-opacity="1"><g transform="translate(25.470552, 24.133681)"><g><path d="M 1.90625 -2.796875 L 1.46875 -2.796875 L 1.25 -3.109375 L 1.046875 -2.796875 L 0.59375 -2.796875 L 1 -3.34375 L 1.5 -3.34375 Z M 2.234375 -2.03125 L 0.90625 -2.03125 L 0.90625 -1.53125 L 2.109375 -1.53125 L 2.109375 -1.015625 L 0.90625 -1.015625 L 0.90625 -0.5 L 2.28125 -0.5 L 2.28125 0 L 0.25 0 L 0.25 -2.53125 L 2.234375 -2.53125 Z M 2.234375 -2.03125 "/></g></g></g><g fill="#6121a0" fill-opacity="1"><g transform="translate(28.092342, 24.133681)"><g><path d="M 2.59375 0 L 2.03125 0 L 0.859375 -1.5625 L 0.859375 0 L 0.25 0 L 0.25 -2.53125 L 0.828125 -2.53125 L 2 -0.96875 L 2 -2.53125 L 2.59375 -2.53125 Z M 2.59375 0 "/></g></g></g><g fill="#6121a0" fill-opacity="1"><g transform="translate(31.119678, 24.133681)"><g><path d="M 1.4375 -2.5625 C 1.625 -2.5625 1.804688 -2.519531 1.984375 -2.4375 C 2.171875 -2.363281 2.332031 -2.257812 2.46875 -2.125 L 2.09375 -1.6875 C 2.007812 -1.789062 1.910156 -1.867188 1.796875 -1.921875 C 1.679688 -1.984375 1.566406 -2.015625 1.453125 -2.015625 C 1.253906 -2.015625 1.085938 -1.941406 0.953125 -1.796875 C 0.816406 -1.660156 0.75 -1.488281 0.75 -1.28125 C 0.75 -1.070312 0.816406 -0.894531 0.953125 -0.75 C 1.085938 -0.601562 1.253906 -0.53125 1.453125 -0.53125 C 1.554688 -0.53125 1.664062 -0.554688 1.78125 -0.609375 C 1.894531 -0.671875 2 -0.742188 2.09375 -0.828125 L 2.46875 -0.4375 C 2.332031 -0.289062 2.171875 -0.175781 1.984375 -0.09375 C 1.796875 -0.0078125 1.609375 0.03125 1.421875 0.03125 C 1.035156 0.03125 0.71875 -0.09375 0.46875 -0.34375 C 0.21875 -0.59375 0.09375 -0.90625 0.09375 -1.28125 C 0.09375 -1.644531 0.21875 -1.945312 0.46875 -2.1875 C 0.726562 -2.4375 1.050781 -2.5625 1.4375 -2.5625 Z M 1.4375 -2.5625 "/></g></g></g><g fill="#6121a0" fill-opacity="1"><g transform="translate(33.806646, 24.133681)"><g><path d="M 0.90625 0 L 0.25 0 L 0.25 -2.53125 L 0.90625 -2.53125 Z M 0.90625 0 "/></g></g></g><g fill="#6121a0" fill-opacity="1"><g transform="translate(35.139385, 24.133681)"><g><path d="M 1.9375 -0.46875 L 0.828125 -0.46875 L 0.640625 0 L -0.015625 0 L 1.078125 -2.53125 L 1.734375 -2.53125 L 2.8125 0 L 2.125 0 Z M 1.75 -0.953125 L 1.390625 -1.890625 L 1.015625 -0.953125 Z M 1.75 -0.953125 "/></g></g></g><g fill="#6121a0" fill-opacity="1"><g transform="translate(38.108786, 24.133681)"><g/></g></g><g fill="#6121a0" fill-opacity="1"><g transform="translate(39.130124, 24.133681)"><g><path d="M 1.9375 -0.46875 L 0.828125 -0.46875 L 0.640625 0 L -0.015625 0 L 1.078125 -2.53125 L 1.734375 -2.53125 L 2.8125 0 L 2.125 0 Z M 1.75 -0.953125 L 1.390625 -1.890625 L 1.015625 -0.953125 Z M 1.75 -0.953125 "/></g></g></g><g fill="#6121a0" fill-opacity="1"><g transform="translate(42.099523, 24.133681)"><g><path d="M 1.78125 0 L 1.40625 -0.71875 L 0.90625 -0.71875 L 0.90625 0 L 0.25 0 L 0.25 -2.53125 L 1.390625 -2.53125 C 1.722656 -2.53125 1.976562 -2.453125 2.15625 -2.296875 C 2.34375 -2.148438 2.4375 -1.9375 2.4375 -1.65625 C 2.4375 -1.257812 2.285156 -0.988281 1.984375 -0.84375 L 2.515625 0 Z M 0.90625 -1.21875 L 1.390625 -1.21875 C 1.523438 -1.21875 1.628906 -1.253906 1.703125 -1.328125 C 1.785156 -1.398438 1.828125 -1.5 1.828125 -1.625 C 1.828125 -1.757812 1.785156 -1.859375 1.703125 -1.921875 C 1.628906 -1.992188 1.523438 -2.03125 1.390625 -2.03125 L 0.90625 -2.03125 Z M 0.90625 -1.21875 "/></g></g></g><g fill="#6121a0" fill-opacity="1"><g transform="translate(44.90236, 24.133681)"><g><path d="M 2.1875 -2.015625 L 1.421875 -2.015625 L 1.421875 0 L 0.78125 0 L 0.78125 -2.015625 L 0.03125 -2.015625 L 0.03125 -2.546875 L 2.1875 -2.546875 Z M 2.1875 -2.015625 "/></g></g></g><g fill="#6121a0" fill-opacity="1"><g transform="translate(47.296029, 24.133681)"><g><path d="M 0.90625 0 L 0.25 0 L 0.25 -2.53125 L 0.90625 -2.53125 Z M 0.90625 0 "/></g></g></g><g fill="#6121a0" fill-opacity="1"><g transform="translate(48.628767, 24.133681)"><g><path d="M 2.140625 -2.03125 L 0.90625 -2.03125 L 0.90625 -1.4375 L 2.03125 -1.4375 L 2.03125 -0.9375 L 0.90625 -0.9375 L 0.90625 0 L 0.25 0 L 0.25 -2.53125 L 2.140625 -2.53125 Z M 2.140625 -2.03125 "/></g></g></g><g fill="#6121a0" fill-opacity="1"><g transform="translate(50.997093, 24.133681)"><g><path d="M 0.90625 0 L 0.25 0 L 0.25 -2.53125 L 0.90625 -2.53125 Z M 0.90625 0 "/></g></g></g><g fill="#6121a0" fill-opacity="1"><g transform="translate(52.329831, 24.133681)"><g><path d="M 1.4375 -2.5625 C 1.625 -2.5625 1.804688 -2.519531 1.984375 -2.4375 C 2.171875 -2.363281 2.332031 -2.257812 2.46875 -2.125 L 2.09375 -1.6875 C 2.007812 -1.789062 1.910156 -1.867188 1.796875 -1.921875 C 1.679688 -1.984375 1.566406 -2.015625 1.453125 -2.015625 C 1.253906 -2.015625 1.085938 -1.941406 0.953125 -1.796875 C 0.816406 -1.660156 0.75 -1.488281 0.75 -1.28125 C 0.75 -1.070312 0.816406 -0.894531 0.953125 -0.75 C 1.085938 -0.601562 1.253906 -0.53125 1.453125 -0.53125 C 1.554688 -0.53125 1.664062 -0.554688 1.78125 -0.609375 C 1.894531 -0.671875 2 -0.742188 2.09375 -0.828125 L 2.46875 -0.4375 C 2.332031 -0.289062 2.171875 -0.175781 1.984375 -0.09375 C 1.796875 -0.0078125 1.609375 0.03125 1.421875 0.03125 C 1.035156 0.03125 0.71875 -0.09375 0.46875 -0.34375 C 0.21875 -0.59375 0.09375 -0.90625 0.09375 -1.28125 C 0.09375 -1.644531 0.21875 -1.945312 0.46875 -2.1875 C 0.726562 -2.4375 1.050781 -2.5625 1.4375 -2.5625 Z M 1.4375 -2.5625 "/></g></g></g><g fill="#6121a0" fill-opacity="1"><g transform="translate(55.016796, 24.133681)"><g><path d="M 0.90625 0 L 0.25 0 L 0.25 -2.53125 L 0.90625 -2.53125 Z M 0.90625 0 "/></g></g></g><g fill="#6121a0" fill-opacity="1"><g transform="translate(56.349534, 24.133681)"><g><path d="M 1.9375 -0.46875 L 0.828125 -0.46875 L 0.640625 0 L -0.015625 0 L 1.078125 -2.53125 L 1.734375 -2.53125 L 2.8125 0 L 2.125 0 Z M 1.75 -0.953125 L 1.390625 -1.890625 L 1.015625 -0.953125 Z M 1.75 -0.953125 "/></g></g></g><g fill="#6121a0" fill-opacity="1"><g transform="translate(59.318933, 24.133681)"><g><path d="M 0.90625 -0.546875 L 1.96875 -0.546875 L 1.96875 0 L 0.25 0 L 0.25 -2.53125 L 0.90625 -2.53125 Z M 0.90625 -0.546875 "/></g></g></g></svg>