<svg xmlns="http://www.w3.org/2000/svg" viewBox="0 0 500 500"><g id="freepik--Mountains--inject-58"><g id="freepik--mountains--inject-58"><path d="M348.78,125.39c-4.86.62-32.23,26.32-32.23,26.32s-23.5-18.22-27.57-18.44c-2.49-.14-22.32,16.93-42.76,35.16-24.69-25.66-59-60.49-62.58-60-5.72.73-35,31.74-35,31.74s-9-7.57-13.8-7.83c-4.63-.25-84.74,64.87-120.17,93.92V377.06H485V229C452.52,203.45,352.75,124.88,348.78,125.39Z" style="fill:#e0e0e0"></path><path d="M177.19,120.61c-3.87,5,3.77,1.13,7.43,2.26s-13.54,13.59-10.49,16.55c1.7,1.65,12.7-2.77,10.63,1.25-.66,1.29-12,10.57-6.7,11.28,3.15.42,7.47-1.29,5.65,3.4a24.92,24.92,0,0,1-5.3,8.27l-29.8-23.48s28-29.61,34.6-31.64l.43-.1C184.84,108.81,181.05,115.57,177.19,120.61Z" style="fill:#ebebeb"></path><path d="M185.93,127.3c-3.61.3-9.49,4-12,1.64s-8-6.4-10.37-4c8.14-8,17.13-16.14,20-16.51,1.91-.25,12.38,9.36,25.46,22.26-5.49-3.36-9.25.74-12.53,1.65S189.55,127,185.93,127.3Z" style="fill:#fafafa"></path><path d="M138.76,180.88c4.54-5.57-.63-6.72-3.76-5.57-4.5,1.66-10.31,3.19-10.19,1.15.23-3.75,16-16.55,15.62-18.34s-13.91,2.08-13.75.07,15-13.22,14.58-14.85-11.06.8-9.94-1.65c1-2.26,6-8.4,4.07-9.3-.2,0-.4-.07-.58-.08-4.6-.25-120.17,93.93-120.17,93.93v80.35S136.62,183.51,138.76,180.88Z" style="fill:#ebebeb"></path><path d="M148.61,140.14l11.09,8.74c-3.35-2.64-6.39,1.64-11.09,1.47s-7.34-4.39-11.85-3.06c-3.71,1.08-5.16,2.75-7.77,3.19-4.78.79-3.45-1.93-6.16-2.53-1.83-.4-11.17,1.07-15,2.73,13.61-10.48,24.76-18.49,27-18.37a7.63,7.63,0,0,1,1.7.34,19.37,19.37,0,0,1,3.24,1.39l.9.5a55.41,55.41,0,0,1,5.72,3.84c1.36,1,2.24,1.76,2.24,1.76Z" style="fill:#fafafa"></path><path d="M343.29,135.76c-3.28,4.28,3.21,1,6.32,1.93s-10.87,9.42-8.27,11.94c1.44,1.4,8.43-2,6.67,1.45s-13.16,13.67-13.16,13.67l-18.3-13s26.25-24.52,31.87-26.24l.36-.08C349.8,125.74,346.58,131.48,343.29,135.76Z" style="fill:#ebebeb"></path><path d="M287.17,142.64c-1,2.07,6.93-1.39,7.3,0s-10.68,13.16-10.83,14.87,9.78-3.83,10.12-2.31-13.08,12.41-13.27,15.59c-.11,1.74,4.83.43,8.66-1,2.66-1,7.05,0,3.19,4.74-2.26,2.78-92.79,56.69-93.55,58.61l27.08-42.36S238.35,175,250.73,164C266.81,149.59,286,133.11,289,133.27a3.31,3.31,0,0,1,.54.1C291.05,134.25,288,140.74,287.17,142.64Z" style="fill:#ebebeb"></path><path d="M289,133.27c2.56.14,12.74,7.34,20,12.71-2.06.43-5.59,2.72-8.25,2.62-4-.15-7-4-9.91-2.34s-6.15,5.81-9.82,6.44c-5.89,1-6.79-1.54-9.94-.79a69.73,69.73,0,0,1-8,1.2C275.35,142.41,286.72,133.15,289,133.27Z" style="fill:#fafafa"></path><path d="M350.73,141.45c-3.07.26-8.07,3.36-10.16,1.4s-4.76-3.46-7.28-2.69-6.27,2-6.27,2l0,0c8.29-7.38,18.94-16.43,21.8-16.79,1.59-.21,11.8,7.09,24.85,17-6.52-1.34-8,4.38-12.2,3.4C357,144.77,353.8,141.2,350.73,141.45Z" style="fill:#fafafa"></path></g></g><g id="freepik--Plants--inject-58"><g id="freepik--Shrubbery--inject-58"><g id="freepik--shrubbery--inject-58"><path d="M214.29,357.31a7.7,7.7,0,0,0-6.71-6.82,6.37,6.37,0,0,0,3.44-8.1,7.07,7.07,0,0,0-5.82-4.1c1.79-3.38-1.19-8.73-5.68-7.52-.07-7.58-10.53-9.56-13.65-4.25a4.37,4.37,0,0,0-6.27-.92c.1-3.72-5.6-4-7.94-2.34,3.33-3.07,5.11-7.48,1.53-11.18-2.6-2.67-6.3-3.92-9.14-.95,2.34-6.52-6-10-9.9-5-3.9-6.29-15.58-1.69-12.41,5.78-5-1.68-11.06,5.5-6.13,9.21a3.33,3.33,0,0,0-3.8,3.49,6.21,6.21,0,0,0-7.71-3.95,4.29,4.29,0,0,0-1.12-8.21c5.21-10.27-10.91-19.82-18.21-12.8-1-7.87-15.69-6.06-14.63,1.4A6.41,6.41,0,0,0,86.83,300a9.92,9.92,0,0,0-6.3,1.89,7.7,7.7,0,0,0-.86.75A6,6,0,0,0,78.08,309c-5.63-1.58-10.33,5.94-6.55,10.78-3.7-.08-6.51,6-3.3,10.23-2.35-.62-7.21,2.94-7.75,5.41-.83-5-9.86-7-11.78-.74-5-3.63-11.63-.94-11.23,5.57-6.6-.43-9.33,6-8.67,11.4-8.19-1.39-13,10.07-9,17.06-4.88.21-8,4-8.88,8.36H205.12c2.36,0,6.9-2.34,6.33-8.19a4.47,4.47,0,0,0-2.69-3.76A7.69,7.69,0,0,0,214.29,357.31Z" style="fill:#455a64"></path><path d="M94.49,317.31a6.58,6.58,0,0,1,10,3.59,6.62,6.62,0,0,1,9.39,6.43,7.87,7.87,0,0,0-13.06-1.85,4.87,4.87,0,0,1,.33-1.09,6.49,6.49,0,0,1,1.52-2.24,8.26,8.26,0,0,0-.48-.87A7.87,7.87,0,0,0,93.61,318,5.58,5.58,0,0,1,94.49,317.31Z" style="fill:#37474f"></path><path d="M164,324a5.11,5.11,0,0,0-6.86-2.27,5,5,0,0,0-1.2.86,5.1,5.1,0,0,0-8.74.71,6.07,6.07,0,0,1,9.45,3.76,4,4,0,0,0,.2-.86,5.16,5.16,0,0,0-.16-2.08,5.93,5.93,0,0,1,.65-.4,6.07,6.07,0,0,1,7,1.09A3.69,3.69,0,0,0,164,324Z" style="fill:#37474f"></path><path d="M86.35,334.8c-3.27-4.26-9,.7-7.39,5-.46-1.2-3.81-1.66-4.9-1.74-3.77-.27-7.76,1.56-8.33,5.71a7.5,7.5,0,0,0-6.62-1.31,5.54,5.54,0,0,0-3.88,5.25c-2.55-1.53-5.66-2.46-8.5-1.6s-5.08,4-4.2,6.82a7.09,7.09,0,0,0-9.73,7.87,7.18,7.18,0,0,0-7.22,10.38c.39.77.92,1.7.43,2.41a2.33,2.33,0,0,1-.8.62,8.5,8.5,0,0,0-2.9,2.88H11c.88-4.37,4-8.15,8.88-8.36-4-7,.78-18.45,9-17.06-.66-5.4,2.07-11.83,8.67-11.4-.4-6.51,6.24-9.2,11.23-5.57,1.92-6.25,10.95-4.24,11.78.74.54-2.47,5.4-6,7.75-5.41-3.21-4.25-.4-10.31,3.3-10.23-3.78-4.84.92-12.36,6.55-10.78a6,6,0,0,1,1.59-6.33,7.7,7.7,0,0,1,.86-.75,9.92,9.92,0,0,1,6.3-1.89c-2.11,1.38-4.23,3.41-3.71,6.22.47,2.51,3.24,3.67,4.9,5.11-4.94.33-8.22,4.32-5.91,9.2-4.77-.64-7,5.33-5.81,8.31,1.4-.68,3.82-.28,5.45.51C84,330.42,84.88,331.92,86.35,334.8Z" style="fill:#37474f"></path></g></g><g id="freepik--shrubbery--inject-58"><g id="freepik--shrubbery--inject-58"><path d="M478.86,368.7c4.05-7-.78-18.45-9-17.06.66-5.4-2.07-11.83-8.67-11.4.4-6.51-6.24-9.2-11.23-5.57-1.92-6.25-10.95-4.24-11.78.74-.54-2.47-5.4-6-7.75-5.41,3.21-4.25.4-10.31-3.3-10.23,3.78-4.84-.92-12.36-6.55-10.78a6,6,0,0,0-1.59-6.33,7.7,7.7,0,0,0-.86-.75,9.92,9.92,0,0,0-6.3-1.89,6.41,6.41,0,0,0-3.31,1.07c1.06-7.46-13.64-9.27-14.63-1.4-7.3-7-23.42,2.53-18.21,12.8a4.29,4.29,0,0,0-1.12,8.21,6.21,6.21,0,0,0-7.71,3.95,3.33,3.33,0,0,0-3.8-3.49C368,317.45,362,310.27,357,312c3.17-7.47-8.51-12.07-12.41-5.78-3.92-5-12.24-1.56-9.9,5-2.84-3-6.54-1.72-9.14.95-3.58,3.7-1.8,8.11,1.53,11.18-2.34-1.64-8-1.38-7.94,2.34a4.37,4.37,0,0,0-6.27.92c-3.12-5.31-13.58-3.33-13.65,4.25-4.49-1.21-7.47,4.14-5.68,7.52a7.1,7.1,0,0,0-5.84,4.1,6.37,6.37,0,0,0,3.44,8.1,7.45,7.45,0,0,0-1.18,14.62,4.49,4.49,0,0,0-2.69,3.76c-.57,5.86,4,8.24,6.35,8.19H487.74C486.86,372.69,483.74,368.91,478.86,368.7Z" style="fill:#455a64"></path><path d="M404.2,317.31a6.62,6.62,0,0,0-9.18,1.86,6,6,0,0,0-.8,1.73,6.62,6.62,0,0,0-9.39,6.43,7.87,7.87,0,0,1,13.06-1.85,4.87,4.87,0,0,0-.33-1.09,6.63,6.63,0,0,0-1.52-2.24,6.78,6.78,0,0,1,.48-.87,7.86,7.86,0,0,1,8.56-3.26A5.58,5.58,0,0,0,404.2,317.31Z" style="fill:#37474f"></path><path d="M334.7,324a5.11,5.11,0,0,1,6.86-2.27,5,5,0,0,1,1.2.86,5.1,5.1,0,0,1,8.74.71A6.08,6.08,0,0,0,342,327a4.69,4.69,0,0,1-.19-.86,5.16,5.16,0,0,1,.16-2.08,5.93,5.93,0,0,0-.65-.4,6.07,6.07,0,0,0-7,1.09A3.69,3.69,0,0,1,334.7,324Z" style="fill:#37474f"></path><path d="M412.34,334.8c3.27-4.26,9.05.7,7.39,5,.46-1.2,3.81-1.66,4.9-1.74,3.77-.27,7.76,1.56,8.33,5.71a7.5,7.5,0,0,1,6.62-1.31,5.54,5.54,0,0,1,3.88,5.25c2.55-1.53,5.66-2.46,8.5-1.6s5.08,4,4.2,6.82a7.09,7.09,0,0,1,9.73,7.87,7.18,7.18,0,0,1,7.22,10.38c-.39.77-.92,1.7-.43,2.41a2.33,2.33,0,0,0,.8.62,8.5,8.5,0,0,1,2.9,2.88h11.36c-.88-4.37-4-8.15-8.88-8.36,4.05-7-.78-18.45-9-17.06.66-5.4-2.07-11.83-8.67-11.4.4-6.51-6.24-9.2-11.23-5.57-1.92-6.25-10.95-4.24-11.78.74-.54-2.47-5.4-6-7.75-5.41,3.21-4.25.4-10.31-3.3-10.23,3.78-4.84-.92-12.36-6.55-10.78a6,6,0,0,0-1.59-6.33,7.7,7.7,0,0,0-.86-.75,9.92,9.92,0,0,0-6.3-1.89c2.11,1.38,4.23,3.41,3.71,6.22-.47,2.51-3.24,3.67-4.9,5.11,4.94.33,8.22,4.32,5.91,9.2,4.77-.64,7,5.33,5.81,8.31-1.4-.68-3.82-.28-5.45.51C414.74,330.42,413.81,331.92,412.34,334.8Z" style="fill:#37474f"></path></g></g></g><g id="freepik--Trees--inject-58"><g id="freepik--Pines--inject-58"><g id="freepik--Pine--inject-58"><path d="M83.9,321.58c-10.12,7.48-56.53,6.45-67,0-.92-4-.45-13.05,1-24.89l12.45,6.7L19.1,287.61c1.64-11.48,3.94-24.73,6.63-38.3l7.7,4.29-6.59-9.89c.53-2.54,1.05-5.09,1.59-7.63l8.79,4.31L29.68,230.3c2.24-10.25,4.62-20.31,7-29.53l7,2s-2.63-3.95-5.41-8.05c2.45-9.08,4.91-17.15,7.22-23.54a5.2,5.2,0,0,1,9.8,0c3.11,8.59,6.48,20.27,9.8,33.36L58.9,215l7.21-6.37c1.49,6,3,12.35,4.38,18.74l-9.94,17.78,12-8.38c2,9.39,3.83,18.81,5.45,27.84l-9.73,9.65,10.8-3.46c.2,1.1.38,2.18.56,3.25l-10,13.43,11.14-6.1C83.78,300.59,85.18,316,83.9,321.58Z" style="fill:#BA68C8"></path><path d="M83.9,321.58c-10.12,7.48-56.53,6.45-67,0-.92-4-.45-13.05,1-24.89l12.45,6.7L19.1,287.61c1.64-11.48,3.94-24.73,6.63-38.3l7.7,4.29-6.59-9.89c.53-2.54,1.05-5.09,1.59-7.63l8.79,4.31L29.68,230.3c2.24-10.25,4.62-20.31,7-29.53l7,2s-2.63-3.95-5.41-8.05c2.45-9.08,4.91-17.15,7.22-23.54a5.2,5.2,0,0,1,9.8,0c3.11,8.59,6.48,20.27,9.8,33.36L58.9,215l7.21-6.37c1.49,6,3,12.35,4.38,18.74l-9.94,17.78,12-8.38c2,9.39,3.83,18.81,5.45,27.84l-9.73,9.65,10.8-3.46c.2,1.1.38,2.18.56,3.25l-10,13.43,11.14-6.1C83.78,300.59,85.18,316,83.9,321.58Z" style="fill:#fff;opacity:0.2"></path><path d="M52.87,278.48,67,251.88,52.62,269.5,50.41,187l-1.73,50.23L38.62,222.65l9.75,23.6-1.75,50.88L27.45,279.45l18.92,25.08L44.76,374.4c0,3,10.06,3,10.06,0l-2-95.92Z" style="fill:#f0f0f0"></path></g><g id="freepik--pine--inject-58"><path d="M140.1,300.36c-11.5,8.48-64.17,7.3-76,0-.82-3.57-.68-10.59.2-19.89l13.68,5L65.21,271.75c1.45-11.95,3.74-26.4,6.57-41.66l7.72,3.22-6.72-8.53c.28-1.5.59-3,.88-4.51L92,229.63,76.14,208c2.47-11.9,5.13-23.81,7.87-35L96,183,85.62,166.63c.75-3,1.52-5.9,2.27-8.73l10.57,5.75L89.81,151c2.29-8.12,4.56-15.37,6.7-21.3a5.92,5.92,0,0,1,11.13,0c3.22,8.9,6.69,20.71,10.14,34-3,7-5.38,12.43-5.38,12.43l7.61-3.53c.84,3.38,1.67,6.85,2.49,10.36-3.61,11.07-8.12,25-8.12,25.24.23-.43,5.56-10,9.86-17.64C134.61,236.58,142.87,288.24,140.1,300.36Z" style="fill:#BA68C8"></path><path d="M140.1,300.36c-11.5,8.48-64.17,7.3-76,0-.82-3.57-.68-10.59.2-19.89l13.68,5L65.21,271.75c1.45-11.95,3.74-26.4,6.57-41.66l7.72,3.22-6.72-8.53c.28-1.5.59-3,.88-4.51L92,229.63,76.14,208c2.47-11.9,5.13-23.81,7.87-35L96,183,85.62,166.63c.75-3,1.52-5.9,2.27-8.73l10.57,5.75L89.81,151c2.29-8.12,4.56-15.37,6.7-21.3a5.92,5.92,0,0,1,11.13,0c3.22,8.9,6.69,20.71,10.14,34-3,7-5.38,12.43-5.38,12.43l7.61-3.53c.84,3.38,1.67,6.85,2.49,10.36-3.61,11.07-8.12,25-8.12,25.24.23-.43,5.56-10,9.86-17.64C134.61,236.58,142.87,288.24,140.1,300.36Z" style="opacity:0.2"></path><path d="M104.87,251.43l16-30.21-16.32,20-2.51-93.72-2,57L88.69,188l11.07,26.8-2,57.76L76,252.53,97.49,281l-1.82,93.4c0,3.37,11.41,3.37,11.41,0l-2.21-123Z" style="fill:#f0f0f0"></path></g><g id="freepik--pine--inject-58"><path d="M184,306.44c-10,6.13-54.26,7.11-63.93,0a34.46,34.46,0,0,1-.39-8.06L130,303l-9.59-14.73c.6-6.1,1.57-13.26,2.79-21.08l10,5.25-8.82-12.78c.21-1.24.43-2.5.66-3.77l16.27,9.44-14.19-21c2.19-11.57,4.72-23.61,7.37-35.06l9.44,7.09-7.53-15.21c.37-1.46.73-2.89,1.07-4.32l9.32,7.41-7.13-15.87c2.6-9.86,5.22-18.63,7.66-25.4a5,5,0,0,1,9.37,0c2.35,6.49,4.84,14.81,7.36,24.2l-2.81,17.07,5.37-7.13c2.36,9.52,4.71,19.75,6.84,30l-7,22,9.07-12c2.07,10.37,3.9,20.57,5.34,29.85l-4.08,10,5.12-3.1c.36,2.46.68,4.86,1,7.13l-8.9,14.81,9.69-7.83C184.55,296.65,184.74,303.22,184,306.44Z" style="fill:#BA68C8"></path><path d="M184,306.44c-10,6.13-54.26,7.11-63.93,0a34.46,34.46,0,0,1-.39-8.06L130,303l-9.59-14.73c.6-6.1,1.57-13.26,2.79-21.08l10,5.25-8.82-12.78c.21-1.24.43-2.5.66-3.77l16.27,9.44-14.19-21c2.19-11.57,4.72-23.61,7.37-35.06l9.44,7.09-7.53-15.21c.37-1.46.73-2.89,1.07-4.32l9.32,7.41-7.13-15.87c2.6-9.86,5.22-18.63,7.66-25.4a5,5,0,0,1,9.37,0c2.35,6.49,4.84,14.81,7.36,24.2l-2.81,17.07,5.37-7.13c2.36,9.52,4.71,19.75,6.84,30l-7,22,9.07-12c2.07,10.37,3.9,20.57,5.34,29.85l-4.08,10,5.12-3.1c.36,2.46.68,4.86,1,7.13l-8.9,14.81,9.69-7.83C184.55,296.65,184.74,303.22,184,306.44Z" style="fill:#fff;opacity:0.35000000000000003"></path><path d="M149.68,265.31,136.2,239.92l13.71,16.81L152,178l1.64,47.93L163.28,212,154,234.55l1.67,48.55,18.3-16.87-18.06,23.93,1.54,84.24c0,2.83-9.6,2.83-9.6,0l1.86-109.09Z" style="fill:#f0f0f0"></path></g><g id="freepik--pine--inject-58"><path d="M446.73,304c-12.13,8.67-67.68,7.47-80.2,0-.68-2.9-.74-8.05-.25-14.84l19,8.42-18.12-17.38c1.07-9.77,2.85-21.62,5.11-34.45l6.92,3.6-6.32-7.05c1.31-7.25,2.76-14.77,4.32-22.38l11.28,8.78-10.07-14.6c.32-1.59.66-3.18,1-4.75l15.42,12.32-13.06-23.05c2.41-10.67,5-21.14,7.5-30.93l10.07,7.41c-.24-.42-4.26-7-8.3-13.94,3.32-12.22,6.66-23,9.77-31.38a6.33,6.33,0,0,1,11.75,0c3,7.94,6.13,18.11,9.3,29.61h0l-6.15,13.07,7.34-8.69c2,7.36,3.94,15.17,5.84,23.19L415.65,215l15.58-17.83c.24,1.09.51,2.21.73,3.32L425.63,215l7.37-9.87c2.68,12.24,5.15,24.57,7.26,36.21L422,262.7l19.78-12.78c.45,2.68.88,5.33,1.3,7.9l-9.28,9.93,10.37-2.88C446.92,283.58,448.09,298.18,446.73,304Z" style="fill:#BA68C8"></path><path d="M446.73,304c-12.13,8.67-67.68,7.47-80.2,0-.68-2.9-.74-8.05-.25-14.84l19,8.42-18.12-17.38c1.07-9.77,2.85-21.62,5.11-34.45l6.92,3.6-6.32-7.05c1.31-7.25,2.76-14.77,4.32-22.38l11.28,8.78-10.07-14.6c.32-1.59.66-3.18,1-4.75l15.42,12.32-13.06-23.05c2.41-10.67,5-21.14,7.5-30.93l10.07,7.41c-.24-.42-4.26-7-8.3-13.94,3.32-12.22,6.66-23,9.77-31.38a6.33,6.33,0,0,1,11.75,0c3,7.94,6.13,18.11,9.3,29.61h0l-6.15,13.07,7.34-8.69c2,7.36,3.94,15.17,5.84,23.19L415.65,215l15.58-17.83c.24,1.09.51,2.21.73,3.32L425.63,215l7.37-9.87c2.68,12.24,5.15,24.57,7.26,36.21L422,262.7l19.78-12.78c.45,2.68.88,5.33,1.3,7.9l-9.28,9.93,10.37-2.88C446.92,283.58,448.09,298.18,446.73,304Z" style="fill:#fff;opacity:0.35000000000000003"></path><path d="M409.57,258.25l16.91-31.84-17.2,21.09-2.66-98.81-2.06,60.13-12.05-17.4,11.68,28.25-2.1,60.9-22.95-21.15,22.65,30-1.92,85c0,3.55,12,3.55,12,0l-2.33-116.15Z" style="fill:#f0f0f0"></path></g><g id="freepik--pine--inject-58"><path d="M493.48,332.18c-11.57,7.12-62.93,8.25-74.14,0-1-4.49-.49-14.55,1.11-27.75l14.54,6.2-13.41-14.88c1.29-9.05,2.94-19.15,4.87-29.69l8.9,3.89-8.31-7q.69-3.68,1.39-7.4l14.87,8.57L430,247.9c1.65-8.21,3.41-16.46,5.26-24.53l7.67,4.13-6.27-10.8c1.91-7.85,5.55-21.93,7.47-28.84l7.81,6.21-6.6-10.47c1.94-6.72,3.87-12.75,5.69-17.82a5.77,5.77,0,0,1,10.85,0c2.8,7.72,5.79,17.7,8.76,28.92v0l-6.06,13.77,8.07-6.11c2.09,8.29,4.16,17.07,6.17,26h0L468.6,254.07l12.19-16.3c.71,3.42,1.43,6.85,2.13,10.27l-7.26,14.23,8.31-8.9c2,10.14,3.78,20.1,5.29,29.38v0l-16.59,26.05,18-17.16c.43,2.8.81,5.52,1.16,8.13l-12.52,15.36,13.51-7.22C494.06,319.41,494.41,328.09,493.48,332.18Z" style="fill:#BA68C8"></path><path d="M493.48,332.18c-11.57,7.12-62.93,8.25-74.14,0-1-4.49-.49-14.55,1.11-27.75l14.54,6.2-13.41-14.88c1.29-9.05,2.94-19.15,4.87-29.69l8.9,3.89-8.31-7q.69-3.68,1.39-7.4l14.87,8.57L430,247.9c1.65-8.21,3.41-16.46,5.26-24.53l7.67,4.13-6.27-10.8c1.91-7.85,5.55-21.93,7.47-28.84l7.81,6.21-6.6-10.47c1.94-6.72,3.87-12.75,5.69-17.82a5.77,5.77,0,0,1,10.85,0c2.8,7.72,5.79,17.7,8.76,28.92v0l-6.06,13.77,8.07-6.11c2.09,8.29,4.16,17.07,6.17,26h0L468.6,254.07l12.19-16.3c.71,3.42,1.43,6.85,2.13,10.27l-7.26,14.23,8.31-8.9c2,10.14,3.78,20.1,5.29,29.38v0l-16.59,26.05,18-17.16c.43,2.8.81,5.52,1.16,8.13l-12.52,15.36,13.51-7.22C494.06,319.41,494.41,328.09,493.48,332.18Z" style="fill:#fff;opacity:0.2"></path><path d="M475.67,268.65l-15.57,22-1.63-47.54,8.4-28.43-8.71,19.41-1.75-50.93-2,73.5-8.74-10.44,8.48,20.08-1.12,41.72-18.07-18,17.74,30.19-1.2,54.13c0,3.28,11.13,3.28,11.13,0l-2.07-69.53Z" style="fill:#f0f0f0"></path></g><g id="freepik--pine--inject-58"><path d="M378.89,315.93c-9.71,6-52.85,6.94-62.27,0-.71-3.15-.52-9.58.35-18.11l9.66,1.84-9-7.78c.42-3.31.9-6.85,1.45-10.55L337,288.48l-17.05-12.63c1.81-11.38,4.17-24.05,6.82-36.69l13.84,11.07L328,233.12c1.09-5.05,2.23-10.07,3.38-15l11.25,7-9.91-12.64c1.08-4.38,2.16-8.62,3.24-12.67l6.67,7.3-4.42-15.44c1.69-5.88,3.35-11.16,4.94-15.55a4.84,4.84,0,0,1,9.12,0c2.65,7.33,5.52,17.06,8.35,28v0l-5.05,10.84,6.63-4.59c2.11,8.53,4.18,17.59,6.11,26.72h0l-10.16,21L370,245.27c.89,4.39,1.74,8.75,2.52,13L366,268.18l7.58-4.43c1.63,9.21,3,17.92,4,25.57h0L367,306.06l11.74-6.32C379.45,307.31,379.55,313,378.89,315.93Z" style="fill:#BA68C8"></path><path d="M378.89,315.93c-9.71,6-52.85,6.94-62.27,0-.71-3.15-.52-9.58.35-18.11l9.66,1.84-9-7.78c.42-3.31.9-6.85,1.45-10.55L337,288.48l-17.05-12.63c1.81-11.38,4.17-24.05,6.82-36.69l13.84,11.07L328,233.12c1.09-5.05,2.23-10.07,3.38-15l11.25,7-9.91-12.64c1.08-4.38,2.16-8.62,3.24-12.67l6.67,7.3-4.42-15.44c1.69-5.88,3.35-11.16,4.94-15.55a4.84,4.84,0,0,1,9.12,0c2.65,7.33,5.52,17.06,8.35,28v0l-5.05,10.84,6.63-4.59c2.11,8.53,4.18,17.59,6.11,26.72h0l-10.16,21L370,245.27c.89,4.39,1.74,8.75,2.52,13L366,268.18l7.58-4.43c1.63,9.21,3,17.92,4,25.57h0L367,306.06l11.74-6.32C379.45,307.31,379.55,313,378.89,315.93Z" style="opacity:0.2"></path><path d="M345.47,275.88l-13.13-24.73,13.36,16.38,2.06-76.73,1.6,46.69L358.71,224l-9.06,21.94,1.63,47.29,17.82-16.43-17.59,23.31L353,374.4c0,2.76-9.35,2.76-9.35,0l1.81-98.52Z" style="fill:#f0f0f0"></path></g></g></g><g id="freepik--Floor--inject-58"><g id="freepik--floor--inject-58"><path d="M487.74,377.06q-6,6.65-12.69,12.94c-1.85,1.73-3.75,3.45-5.69,5.13C418,440,338.87,468.8,250.05,468.8c-86.69,0-164.19-27.41-215.58-70.47q-3-2.49-5.83-5.06A206.23,206.23,0,0,1,11,375.46c1.78-.73,3.61-1.45,5.44-2.16,31.48-12.18,67.79-21.36,106.55-27.53h0q10.94-1.75,22.11-3.17h0c73.55-9.37,154-8.35,226,3.05h0q12.42,2,24.46,4.34h0c29.85,5.88,57.85,13.66,82.81,23.32Q483.21,375.16,487.74,377.06Z" style="fill:#BA68C8"></path><path d="M487.74,377.06q-6,6.65-12.69,12.94c-1.85,1.73-3.75,3.45-5.69,5.13C418,440,338.87,468.8,250.05,468.8c-86.69,0-164.19-27.41-215.58-70.47q-3-2.49-5.83-5.06A206.23,206.23,0,0,1,11,375.46c1.78-.73,3.61-1.45,5.44-2.16,31.48-12.18,67.79-21.36,106.55-27.53h0q10.94-1.75,22.11-3.17h0c73.55-9.37,154-8.35,226,3.05h0q12.42,2,24.46,4.34h0c29.85,5.88,57.85,13.66,82.81,23.32Q483.21,375.16,487.74,377.06Z" style="fill:#fff;opacity:0.4"></path></g><g id="freepik--Grass--inject-58"><g id="freepik--grass--inject-58"><path d="M98.15,421.62l1.55-.3.47-.1.47-.1,1.25-.25.2-.05c.29-1.63.54-3.2.74-4.74v0c3-21.53-.32-34.15-1-36.26a1.08,1.08,0,0,1,0-.19s0,0,0-.06,0-.05,0-.08c1.16,9.07.39,19.11-.8,27.3h0c-.34,2.44-.72,4.7-1.11,6.74h0c-.14.77-.27,1.48-.41,2.18-.23,1.15-.47,2.2-.67,3.12C98.55,420,98.33,420.9,98.15,421.62Z" style="fill:#BA68C8"></path><path d="M98.15,421.62l1.55-.3.47-.1.47-.1,1.25-.25.2-.05c.29-1.63.54-3.2.74-4.74v0c3-21.53-.32-34.15-1-36.26a1.08,1.08,0,0,1,0-.19s0,0,0-.06,0-.05,0-.08c1.16,9.07.39,19.11-.8,27.3h0c-.34,2.44-.72,4.7-1.11,6.74h0c-.14.77-.27,1.48-.41,2.18-.23,1.15-.47,2.2-.67,3.12C98.55,420,98.33,420.9,98.15,421.62Z" style="opacity:0.15"></path><path d="M101.78,379.47c0,.11.07.22.1.33C101.81,379.58,101.78,379.47,101.78,379.47Z" style="opacity:0.15"></path><path d="M100.17,421.22l.47-.1,1.25-.25.2-.05c.29-1.63.54-3.2.74-4.74v0c3-21.53-.32-34.15-1-36.26,1.8,7,1.44,20.43.07,31.25-.32,2.62-.72,5.09-1.15,7.28-.08.43-.17.81-.27,1.21v0C100.43,420.14,100.29,420.7,100.17,421.22Z" style="opacity:0.15"></path><path d="M78,367.31c.48.45,8,7.77,13.5,22.84a109.33,109.33,0,0,1,5,20.84c.21,1.45.38,2.81.54,4.05.34,2.92.51,5.26.58,6.69l.53-.11,1.55-.3.47-.1.47-.1,1.25-.25.2-.05,1.28-.26s0-.55-.15-1.57c0-.17,0-.37-.06-.57,0-.4-.11-.85-.17-1.34,0-.31-.1-.65-.16-1v0c0-.34-.11-.71-.17-1.09s-.12-.79-.2-1.21c-.15-.83-.32-1.74-.51-2.71-.27-1.31-.58-2.74-1-4.27h0c-.15-.62-.31-1.25-.49-1.91s-.28-1.1-.45-1.65q-.62-2.26-1.43-4.7c-.16-.5-.33-1-.49-1.47-.85-2.45-1.82-5-3-7.64a63.28,63.28,0,0,0-4.86-9.19l-.35-.55a.52.52,0,0,0-.08-.11c-.31-.48-.62-.92-.92-1.36l-.07-.09c-.23-.34-.46-.66-.71-1s-.38-.52-.58-.77A40,40,0,0,0,84.74,373c-.31-.34-.6-.65-.9-.94a29.92,29.92,0,0,0-3-2.76c-.14-.13-.29-.23-.43-.34-.71-.57-1.3-1-1.7-1.24l-.25-.15a2.83,2.83,0,0,0-.4-.25Z" style="fill:#BA68C8"></path><path d="M78,367.31c.48.45,8,7.77,13.5,22.84a109.33,109.33,0,0,1,5,20.84c.21,1.45.38,2.81.54,4.05.34,2.92.51,5.26.58,6.69l.53-.11,1.55-.3.47-.1.47-.1,1.25-.25.2-.05,1.28-.26s0-.55-.15-1.57c0-.17,0-.37-.06-.57,0-.4-.11-.85-.17-1.34,0-.31-.1-.65-.16-1v0c0-.34-.11-.71-.17-1.09s-.12-.79-.2-1.21c-.15-.83-.32-1.74-.51-2.71-.27-1.31-.58-2.74-1-4.27h0c-.15-.62-.31-1.25-.49-1.91s-.28-1.1-.45-1.65q-.62-2.26-1.43-4.7c-.16-.5-.33-1-.49-1.47-.85-2.45-1.82-5-3-7.64a63.28,63.28,0,0,0-4.86-9.19l-.35-.55a.52.52,0,0,0-.08-.11c-.31-.48-.62-.92-.92-1.36l-.07-.09c-.23-.34-.46-.66-.71-1s-.38-.52-.58-.77A40,40,0,0,0,84.74,373c-.31-.34-.6-.65-.9-.94a29.92,29.92,0,0,0-3-2.76c-.14-.13-.29-.23-.43-.34-.71-.57-1.3-1-1.7-1.24l-.25-.15a2.83,2.83,0,0,0-.4-.25Z" style="opacity:0.2"></path><path d="M78,367.31c8.45,6.28,18.74,24.22,21.84,46.21h0c.19,1.28.36,2.58.48,3.89.08.71.14,1.41.18,2.12v0c0,.51.08,1,.11,1.55l1.25-.25.2-.05,1.28-.26s0-.55-.15-1.57c0-.17,0-.37-.06-.57,0-.4-.11-.85-.17-1.34,0-.31-.1-.65-.16-1v0c0-.34-.11-.71-.17-1.09s-.12-.79-.2-1.21c-.15-.83-.32-1.74-.51-2.71-.27-1.31-.58-2.74-1-4.27h0c-.15-.62-.31-1.25-.49-1.91s-.28-1.1-.45-1.65q-.62-2.26-1.43-4.7c-.16-.5-.33-1-.49-1.47-.85-2.45-1.82-5-3-7.64a63.28,63.28,0,0,0-4.86-9.19l-.35-.55a.52.52,0,0,0-.08-.11c-.31-.48-.62-.92-.92-1.36l-.07-.09c-.23-.34-.46-.66-.71-1s-.38-.52-.58-.77A40,40,0,0,0,84.74,373c-.31-.34-.6-.65-.9-.94a29.92,29.92,0,0,0-3-2.76c-.14-.13-.29-.23-.43-.34-.71-.57-1.3-1-1.7-1.24l-.25-.15A2.83,2.83,0,0,0,78,367.31Z" style="opacity:0.1"></path><path d="M78.74,395.62c13.67,10.61,17.63,22.07,18.65,26.17l.23-.06.53-.11,1.55-.3.47-.1.47-.1,1.25-.25c-.34-.88-.71-1.73-1.09-2.54a9.61,9.61,0,0,0-.45-.91c-.28-.59-.57-1.16-.89-1.71a44,44,0,0,0-3-4.72c-.36-.48-.7-1-1.07-1.42s-.72-.91-1.09-1.35-.48-.59-.72-.87c-.74-.84-1.5-1.65-2.24-2.39-.49-.49-1-1-1.48-1.43-.26-.25-.52-.49-.79-.71s-.38-.35-.57-.51c-.84-.74-1.66-1.41-2.45-2a5.86,5.86,0,0,0-.6-.45,51,51,0,0,0-4.74-3.17c-.3-.17-.56-.33-.8-.45-.48-.28-.85-.46-1.07-.57l-.08,0Z" style="fill:#BA68C8"></path><path d="M78.73,395.61h0Z" style="fill:#BA68C8"></path><path d="M78.73,395.61h0C85.11,399.91,92.46,406.4,97,415a38.35,38.35,0,0,1,1.75,3.79,26.38,26.38,0,0,1,.91,2.49l.47-.1.47-.1,1.25-.25c-.34-.88-.71-1.73-1.09-2.54a9.61,9.61,0,0,0-.45-.91c-.28-.59-.57-1.16-.89-1.71a44,44,0,0,0-3-4.72c-.36-.48-.7-1-1.07-1.42s-.72-.91-1.09-1.35-.48-.59-.72-.87c-.74-.84-1.5-1.65-2.24-2.39-.49-.49-1-1-1.48-1.43-.26-.25-.52-.49-.79-.71s-.38-.35-.57-.51c-.84-.74-1.66-1.41-2.45-2a5.86,5.86,0,0,0-.6-.45,51,51,0,0,0-4.74-3.17c-.3-.17-.56-.33-.8-.45-.48-.28-.85-.46-1.07-.57l-.08,0-.06,0Z" style="opacity:0.1"></path></g><g id="freepik--grass--inject-58"><path d="M108.56,396.82c-1.43,11.15,2.32,25,2.32,25l-2.46-1.21C105.74,405.23,108.56,396.82,108.56,396.82Z" style="fill:#BA68C8"></path><path d="M108.56,396.82c-1.43,11.15,2.32,25,2.32,25l-2.46-1.21C105.74,405.23,108.56,396.82,108.56,396.82Z" style="opacity:0.15"></path><path d="M109.6,421l0,.12-1.21-.59c-2.68-15.34.14-23.75.14-23.75C107.05,402.27,108,415.12,109.6,421Z" style="opacity:0.15"></path><path d="M110.88,421.78a70.43,70.43,0,0,1,3.52-18.89c3.19-8.85,7.68-13,7.68-13s-5.62,3-9.75,12.57a59.33,59.33,0,0,0-4.68,17.73Z" style="fill:#BA68C8"></path><path d="M110.88,421.78a70.43,70.43,0,0,1,3.52-18.89c3.19-8.85,7.68-13,7.68-13s-5.62,3-9.75,12.57a59.33,59.33,0,0,0-4.68,17.73Z" style="opacity:0.2"></path><path d="M109.18,420.94h0l-1.53-.75a59.33,59.33,0,0,1,4.68-17.73c4.13-9.55,9.75-12.57,9.75-12.57C116.67,393.89,109.93,406.3,109.18,420.94Z" style="opacity:0.1"></path><path d="M110.88,421.78S112,413.47,121.73,406a28.58,28.58,0,0,0-13.31,14.61Z" style="fill:#BA68C8"></path><path d="M109.6,421l0,.09-1.15-.56A28.58,28.58,0,0,1,121.73,406C117.18,409,111.71,414,109.6,421Z" style="opacity:0.1"></path></g><g id="freepik--grass--inject-58"><path d="M392.8,393.64c-1.43,11.15,2.32,25,2.32,25l-2.46-1.21C390,402.05,392.8,393.64,392.8,393.64Z" style="fill:#BA68C8"></path><path d="M392.8,393.64c-1.43,11.15,2.32,25,2.32,25l-2.46-1.21C390,402.05,392.8,393.64,392.8,393.64Z" style="opacity:0.15"></path><path d="M393.84,417.87s0,.07,0,.12l-1.21-.6c-2.68-15.34.14-23.75.14-23.75C391.29,399.1,392.25,412,393.84,417.87Z" style="opacity:0.15"></path><path d="M395.11,418.6a70.72,70.72,0,0,1,3.53-18.89c3.19-8.84,7.68-13,7.68-13s-5.62,3-9.75,12.57A59.33,59.33,0,0,0,391.89,417Z" style="fill:#BA68C8"></path><path d="M395.11,418.6a70.72,70.72,0,0,1,3.53-18.89c3.19-8.84,7.68-13,7.68-13s-5.62,3-9.75,12.57A59.33,59.33,0,0,0,391.89,417Z" style="opacity:0.2"></path><path d="M393.42,417.77h0l-1.53-.76a59.33,59.33,0,0,1,4.68-17.73c4.13-9.55,9.75-12.57,9.75-12.57C400.91,390.72,394.17,403.12,393.42,417.77Z" style="opacity:0.1"></path><path d="M395.11,418.6s1.12-8.31,10.86-15.81a28.53,28.53,0,0,0-13.31,14.6Z" style="fill:#BA68C8"></path><path d="M393.84,417.87l0,.09-1.15-.57A28.53,28.53,0,0,1,406,402.79C401.42,405.83,396,410.86,393.84,417.87Z" style="opacity:0.1"></path></g></g></g><g id="freepik--Sun--inject-58"><circle id="freepik--sun--inject-58" cx="387.22" cy="62.32" r="18.51" style="fill:#f0997a"></circle></g><g id="freepik--Clouds--inject-58"><path id="freepik--Cloud--inject-58" d="M84.72,76.56c0-4.12-4.52-7-9.63-7.46-6-.57-10.29,2.12-10.44,6.86-3.94-1.62-8.09-.58-7.78,3.75-1-1.18-4.85-1.15-6.23-.82a5.41,5.41,0,0,0-3.43,2.92A4,4,0,0,0,46.85,84c-2.29-.75-7.51-1.21-8.82.89-2.32,3.75,7,3.87,8.83,2.74.4,2.91,10.38,3.39,12.8.7,1.89,1.9,4.6,2.32,7.52,2.5,4.94.29,8-1.38,11.82-3.35,4.19,3.55,11.43,3.62,15.21-.45,1,.91,3.61,1.19,5.74.69,1.39-.34,1.71-.93,1.71-.93a11.73,11.73,0,0,0,2.57.77c2.73.57,7.83,0,5.69-2.5-.73-.84-3.39-1.37-4.52-1.11-1.2-2.35-6-4.58-8.74-2.59-.11-2.84-2.71-5.07-6.37-5.64C89.06,75.56,86.12,75.4,84.72,76.56Z" style="fill:#e0e0e0"></path><path id="freepik--cloud--inject-58" d="M186.25,58.59a9.27,9.27,0,0,0-3.13-.58c-1-.08-1.33-.28-1.53-.5a7.47,7.47,0,0,0-9-2.65A5.73,5.73,0,0,0,165.86,51c.11-3.16-3.92-6.55-7.54-7.32-3.46-.73-6.49-.42-8.47,1.86-2.12-4.14-10.42-5.31-14.92-3.12-2.58,1.26-4.77,2.55-5.85,4.92a10,10,0,0,0-1,4.71c-1.75-1.54-5.26-2-7.6-1.06-2.52,1-2.71,2.88-2.84,4.82a8.74,8.74,0,0,0-4.59-.09c-1.59.47-2.5,1.72-2.29,2.73-1.25-.07-4.25.95-3.9,2.27.38,1.49,3.8,1.34,5.08,1.3a23.91,23.91,0,0,0,3.58-.57,5.39,5.39,0,0,0,1.86.36c2.18,0,3.1-1,3.45-1.76,1.06,2.24,4.84,3.94,7.52,4.63,5,1.28,12.16.5,15.26-3.27a5.66,5.66,0,0,0,1.5,1.83,8.61,8.61,0,0,0,4.66,1.89c2.07.19,7.62.46,9.18-2.83,1.11,2.19,6.05,3.18,9.81,2.65A15.58,15.58,0,0,0,173,63.72a26.69,26.69,0,0,0,2.42-1.45,2,2,0,0,1,2.06-.14,12.34,12.34,0,0,0,8.2,0C187.78,61.24,188.22,59.48,186.25,58.59Z" style="fill:#e0e0e0"></path></g><g id="freepik--Shadow--inject-58"><path id="freepik--shadow--inject-58" d="M162.89,367.47c-8.4,4.71-16.19,13.48-14.17,22.89,1.32,6.12,6.48,10.67,11.89,13.83,17.34,10.12,38.82,10.16,57.22,18.21,17.48,7.64,31.45,22.2,49.43,28.58a60.67,60.67,0,0,0,50.19-4.77c7-4.12,15-9.87,16.93-17.79,1.67-6.85-3.76-14.21-9-18.34-8.1-6.39-18.3-10.57-32.4-14.21-16.93-4.36-34.18-8.08-50.11-15.28-5.5-2.49-10.7-5.58-16.11-8.24C205.71,362,184.67,355.26,162.89,367.47Z" style="fill:#BA68C8;opacity:0.5"></path></g><g id="freepik--Character--inject-58"><g id="freepik--Bigfoot--inject-58"><path d="M274.77,108.39c15.06.52,20.26,3.36,25.44,17.14,7.94,21.11,17.68,47.87,17.68,47.87S344.71,198,351,202.48s12.51.9,20.3,5.21A71.41,71.41,0,0,0,382.65,213c2.72,1,.16,4.15-2.71,4s-7.18-2.39-8.62-1.43.77,3.75,5.08,6.63,9.6,3.84,12.31,5.12,2.83,3.34,1.88,4.45-8.59-.16-11.63-1.11c5.11,2.71,9.72,3,11.51,4.15,2.69,1.74,2.19,5.25.68,5.33-1.83.09-4.1,0-4.1,0a4,4,0,0,1-1.71,1.87,8,8,0,0,1-4.27.4c-.76,1.12-3.18,1.86-8.49.58-8.3-2-15.32-7.19-20.11-11.66s-3.69-7.2-11.81-12.12c-5.31-3.21-26.22-13.7-39.25-22.1-7.55-4.85-8.54-7.67-11.73-16.42-2.55-7-15.56-40.35-15.56-40.35Z" style="fill:#ffbda7"></path><path d="M356.23,217.88a28,28,0,0,0,3.35,1.36,24,24,0,0,0,3.45.82,42.53,42.53,0,0,0,7.18.51,13.62,13.62,0,0,1-3.63.68,17.83,17.83,0,0,1-3.72-.2,14.58,14.58,0,0,1-3.57-1.09A10.9,10.9,0,0,1,356.23,217.88Z" style="fill:#f0997a"></path><path d="M379,230.68a20.49,20.49,0,0,1-3.54-1.35,19.8,19.8,0,0,1-3.22-2c1.18.46,2.3,1,3.43,1.56l1.68.86C377.86,230.05,378.42,230.34,379,230.68Z" style="fill:#f0997a"></path><path d="M387.05,240.12a1.23,1.23,0,0,0,0-1.18,2.59,2.59,0,0,0-.86-.85,8,8,0,0,0-2.29-.93,41.13,41.13,0,0,1-4.82-1.58,48.92,48.92,0,0,1-4.59-2.13,26,26,0,0,1-4.24-2.77,40.26,40.26,0,0,0,4.4,2.44c1.51.73,3,1.42,4.61,2s3.13,1.19,4.74,1.68a7.82,7.82,0,0,1,2.32,1.09,2.65,2.65,0,0,1,.84,1A1.23,1.23,0,0,1,387.05,240.12Z" style="fill:#f0997a"></path><path d="M381.07,242.39a1.72,1.72,0,0,0-.42-2,5.2,5.2,0,0,0-1.76-1.22c-1.32-.58-2.75-1-4.14-1.52a34.72,34.72,0,0,1-7.89-4.08,60.47,60.47,0,0,0,8.05,3.63c1.37.55,2.79,1,4.14,1.65a5.37,5.37,0,0,1,1.78,1.39A1.79,1.79,0,0,1,381.07,242.39Z" style="fill:#f0997a"></path><path d="M352.08,206.39s4.71,0,7.53-1.64a26.41,26.41,0,0,1-5.94-2.28c-2.56-1.32-8.5-6.57-8.5-6.57a10.55,10.55,0,0,0,4.56-1.11c-2,.28-8-1.79-8-1.79a13.27,13.27,0,0,0,7.19-1.39c-1,.42-5,.35-9.2-1.59s-9.76-6.83-16.07-13.14a10.79,10.79,0,0,1,5.09,2.47c-2.79-4.86-10.18-7.83-10.18-7.83s-2.38-6.74-7.24-21.59c0,0,.39-2,2.94.58-.4-2.32-4.69-7.11-4.69-7.11a15.65,15.65,0,0,0,4.69.72c-3.12-1.37-6-6.81-8.18-13.22-4.79-14.37-7.34-16.43-7.34-16.43a6.85,6.85,0,0,1,3.66,1.22c-2.59-5.16-9.28-5.83-9.28-5.83a7.94,7.94,0,0,1,5.22-.14c-4.36-3.69-17.23-3.66-23.62-2.17l-3,34.23s3.52,8.84,7.12,17.83,10,23.85,10,23.85a6.3,6.3,0,0,0-5,1.79c2.22-1,6.36,2.22,6.36,2.22s-4.9.76-5.25,4.14c.76-1.31,5.25-2.07,7.26.21,1.08,1.23,4.39,3.51,7.95,5.88h0c2.39,1.58,4.59,6.46,5,9.48a18.28,18.28,0,0,0,.26-6h0a25.92,25.92,0,0,1,3.36,6,5.49,5.49,0,0,0-.23-3.82c5.71,4.1,14.15,9.32,17.81,11.88s5.88,7.67,5.88,7.67a20.65,20.65,0,0,0-.56-4.76c2.77,1.93,5.4,6.7,5.4,6.7s.89-4.07-.28-5.94c3.09,1.78,6.17,5.57,11.25,6.92-1.35-2-4.87-7.05-4.87-7.05,1.87.62,5,3.39,5,3.39s-.56-5.26-2.35-8.23c2.21.55,4.84,4.22,4.84,4.22s.48-5.81-1.18-7.47c2,1.25,6.22,1.67,6.22,1.67Z" style="fill:#37474f"></path><path d="M235.84,212.36,248,286.19c-25,.37-37.63,22.38-49,31.35-5.13,4.06-6.51,4.39-16,8.11s-9.48,13-5.77,19.16c2.36,3.93,8.08,16.69,5.82,23.87-3,9.41-2.73,14.25,3.69,17.79,2.7,1.83,3.48,5.17,8.31,6,1.84.3,5.81-.38,6.7-2.55.54.6,4,1,5-1.25,2.51,1.21,5.21,0,5.65-2,3.17,1,4.86-.95,4.92-2a2.35,2.35,0,0,0,2.38-2.82c-.33-2.8-5-4.66-6.08-6.34-1.31-2-3.83-10-4.36-17.26s-1.9-18.16,3.77-21.43c6.13-3.54,14.19-7.71,42.21-18.87S282,303.11,283.84,294.2c4.06-19.82,4.66-55.6,5-69.36Z" style="fill:#ffbda7"></path><path d="M201.7,389.89a4.32,4.32,0,0,0,0-3.78,5.26,5.26,0,0,0-1.25-1.43c-.51-.44-1-.87-1.57-1.31a12.21,12.21,0,0,1-2.86-3.12,4.62,4.62,0,0,1-.65-2.07,6.62,6.62,0,0,1,.23-2.09,6.1,6.1,0,0,0,1,3.77,16.4,16.4,0,0,0,2.85,2.79c.51.45,1.05.88,1.56,1.37a5.45,5.45,0,0,1,1.31,1.77,3.73,3.73,0,0,1,.24,2.18A4.57,4.57,0,0,1,201.7,389.89Z" style="fill:#f0997a"></path><path d="M206.71,388.64a7.66,7.66,0,0,0,.2-2.83,4.1,4.1,0,0,0-1.29-2.26,15.62,15.62,0,0,1-2-2.2,6,6,0,0,1-1.24-2.74,10.76,10.76,0,0,0,1.81,2.26c.68.7,1.35,1.33,2.1,2a4.12,4.12,0,0,1,1.35,2.85A4.92,4.92,0,0,1,206.71,388.64Z" style="fill:#f0997a"></path><path d="M212.36,386.68a8.4,8.4,0,0,0-.38-2.31,5.2,5.2,0,0,0-1.14-1.86c-.23-.28-.53-.55-.81-.87a10.26,10.26,0,0,1-.76-1,5.25,5.25,0,0,1-1-2.27,13.53,13.53,0,0,0,1.56,1.8c.55.59,1.08,1.05,1.7,1.69a4.6,4.6,0,0,1,1.15,2.32A4.45,4.45,0,0,1,212.36,386.68Z" style="fill:#f0997a"></path><path d="M217.28,384.64a5.17,5.17,0,0,0-.7-2,9.14,9.14,0,0,0-1.31-1.61c-.49-.51-1.05-.93-1.59-1.51a5.06,5.06,0,0,1-1.2-1.95,19.57,19.57,0,0,0,1.69,1.4,13.72,13.72,0,0,1,1.77,1.4,5.66,5.66,0,0,1,1.3,1.95A3.15,3.15,0,0,1,217.28,384.64Z" style="fill:#f0997a"></path><path d="M231.87,207.51l59,14.67s-1.47,13.41,1.88,18.85l-3-3s-.73,10,.74,14.57,3.14,12.78,2.3,18.44c-1.47-6.29-3.87-7.34-3.87-7.34s-.74,13.62-1.16,22.21-1.67,12.79-3.35,19.07-10.6,12.15-10.6,12.15l1.8-6.49a196.27,196.27,0,0,1-30,13.62c-7.56,2.65-18.41,7.34-21.27,9.85a27.93,27.93,0,0,0-5.14,7.09s-1-3.9,0-6.06c-4.34,1.6-7,3-7.88,5.14-.87,1.51.8,7.31,0,11.31a10.16,10.16,0,0,0-1.77-3.71,62.57,62.57,0,0,1,1,8.85,25.23,25.23,0,0,0,1.26,8.46,30,30,0,0,1-4.35-5.94s2.06,6.05,1.37,9.94.23,5.71.23,5.71a7.59,7.59,0,0,1-4.11-6.06c-.91,3.2,0,7.77,0,7.77s-1.94-2.4-3.88-5a59.14,59.14,0,0,1-4.46-8.23s-.46,5.37,1.14,8.45c-4.22-4.22-6.28-7.88-5.94-12s-.91-9-2.06-11a12.31,12.31,0,0,1-1.2,5.74s.06-5.28-1.54-7.8-1.25-7.65.8-11.54a6.38,6.38,0,0,0-2.91,2.92c-.63-2.57,1.66-5.43,4.28-8.4s2.86-4.57,2.86-4.57-2.87-.14-6.29-.59L183,325.65s-1.23.77-4.2-1.52c6.39-1,12.22-3.54,15-6.85-4.8,0-5.14-2.86-5.14-2.86s6.74,1.37,11.77-2.17,12.45-14.62,17.25-17.37c-5.48,0-7.83,1.36-7.83,1.36a10,10,0,0,1,8.75-4.2c-4.23-1.84-6.52-1.84-6.52-1.84s6.4-2.17,9.72-.34,4.57-.57,9.59-2.75,13.48-3.19,13.48-3.19-1.71-16.11-2.05-17.6a9.21,9.21,0,0,1-2.34,6.11s1.31-6.57.51-11.25c.21,1.94-2.06,4.46-2.06,4.46s1.95-8.46,1.15-13.14S231.87,207.51,231.87,207.51Z" style="fill:#455a64"></path><path d="M292.36,118.11c-4.28-7.87-11.85-10.16-18.73-10.16-33.1-2.38-51.55,2.82-51.55,2.82s-2.2,2.34-7.45,18.37-8.35,57.3-11.79,75.61l86,20.09c.37-13.76,6.21-33.23,8-54.66S298.36,129.14,292.36,118.11Z" style="fill:#ffbda7"></path><path d="M240.34,103.87c-4.4,2.55-13,2.79-13,2.79s.62,1.72,4,1.93a79.34,79.34,0,0,0-13.93,1.3s-14,14.57-17.39,33.87a18.3,18.3,0,0,1,6.23-8.36c-4.89,15-6.39,39.84-6.89,44.83,0,0,14.79,26.77,45.17,37.65s46.06,7.43,46.06,7.43.58-6.46,1-9.59c2.8,2.8,4,2.8,4,2.8s-3.89-7.82-2.64-13.77.8-12.21,1.77-17.9c1.51,3.35,2.59,3.2,4.31,4a24.6,24.6,0,0,1-1.72-11.09,2.46,2.46,0,0,1,1.68,2.2c1.62-4.63-1.2-14.87-1.2-14.87,2.6-1.32,5.67-4.27,6.14-7.52a8.21,8.21,0,0,1,.67,2.62c.94-2.63.39-9.76.13-11.22a47.49,47.49,0,0,0-5.37-14.26s1.4.09,4,4.51a47.82,47.82,0,0,0-5.61-18.73c-3.06-5.6-7.9-12.78-23-14.89Z" style="fill:#455a64"></path><path d="M316.14,425.17c-1.8-1.85-9.39-3.15-15.31-7.1-5-3.31-12.1-9.79-18.91-17.53-6.61-7.5-6.73-12.85-6.73-19.15s-1.64-63.47-1.56-76.72a75.09,75.09,0,0,0-1.92-20.73c-4.69-21.12-16.52-67.12-16.52-67.12l-52.35-12.07c-1.45,7.72-2.34,20.09,2.65,32.36,5.44,13.37,24.65,59.21,26.58,65.09s-3.71,16.43,2.29,38c6.16,22.09,14.73,37.88,14.73,46.76.58,10.27-7.81,20.06.41,27.44,3.09,2.77,10.44,6.15,14.86,9.51,6.51,4.92,6.45,10.45,15.26,14.14,4.75,3.73,7.95,2.22,8.4,1.64,2.21,1.44,6.54.8,7.23,0,2.27.77,5.54.19,6.58-1.8,3,.78,6.33-1.52,6.42-2.73C313.29,435.27,318.86,429.7,316.14,425.17Z" style="fill:#ffbda7"></path><path d="M308.25,435.16a3.27,3.27,0,0,0-.59-3.13,3.37,3.37,0,0,0-1.17-1l-1.58-.78c-1-.55-2.06-1.13-3.05-1.78a17.29,17.29,0,0,1-2.82-2.16l3.18,1.52c1,.51,2.09,1.05,3.13,1.58l1.56.83a4,4,0,0,1,1.91,3.2A2.66,2.66,0,0,1,308.25,435.16Z" style="fill:#f0997a"></path><path d="M301.83,437.89a4.89,4.89,0,0,0,.3-3.29,4.32,4.32,0,0,0-2.24-2.21c-1-.6-2-1.16-3.05-1.78a12.77,12.77,0,0,1-2.83-2.19c1.05.58,2.11,1.05,3.18,1.54a33.87,33.87,0,0,1,3.18,1.61,7.42,7.42,0,0,1,1.52,1.12,3.71,3.71,0,0,1,.95,1.71A4.15,4.15,0,0,1,301.83,437.89Z" style="fill:#f0997a"></path><path d="M295.25,439.69a4.64,4.64,0,0,0,.91-3.3,3.69,3.69,0,0,0-1.89-2.59l-3-2.06a19.53,19.53,0,0,1-2.89-2.33,56.8,56.8,0,0,1,6.45,3.62,5.46,5.46,0,0,1,1.45,1.36,3.66,3.66,0,0,1,.63,1.93A4,4,0,0,1,295.25,439.69Z" style="fill:#f0997a"></path><path d="M288,439.67a4.79,4.79,0,0,0,1-2.88,3,3,0,0,0-1.57-2.3l-2.64-1.92a16.16,16.16,0,0,1-2.51-2.17c1,.52,2,1,2.91,1.55a29.37,29.37,0,0,1,2.8,1.78,4.75,4.75,0,0,1,1.27,1.26,3,3,0,0,1,.48,1.8A4,4,0,0,1,288,439.67Z" style="fill:#f0997a"></path><path d="M292.49,413.53a15.35,15.35,0,0,1,5.95,2.83,23.25,23.25,0,0,0-7.21-8.45,6.05,6.05,0,0,0,4-1.55s-3.46.83-7.23-2.21-8.48-6.88-10.1-11.48c1.08,1.79,4,2.75,4,2.75a17.88,17.88,0,0,1-4.42-8.66,69.35,69.35,0,0,1-1.44-12.25,10.5,10.5,0,0,1,1.08,4.24,10.54,10.54,0,0,0,.18-6.51,5.33,5.33,0,0,0,4.07-.17s-4.13-2.11-4.79-5.81-1.14-23.66-.78-26.35c1.68,3.76,3.53,3.76,3.53,3.76A30.53,30.53,0,0,1,276.65,332c-.18-6.63.24-23.84.24-26.59a27.75,27.75,0,0,1,1.43,7.53s2.27-7.47,1.2-12c1.37,1.37,2.21,6.15,2.21,6.15s.18-10.46-4.24-19.48a90.79,90.79,0,0,1-7.05-19.6c2.15,2.15,3.94,1.55,3.94,1.55s-3.35-2.75-4.24-6.21a5.32,5.32,0,0,0,3.46.44s-4.71-4.6-7.77-14.19c-1.74-5.47-2.26-7.67-2.26-7.67s2.83-.66,6.27-4.67c-.73,3.22-1.4,5.68-1.4,5.68s5.68-4.15,8.89-13.94c2.1-6.41,4-23-4.47-39.22l-73.47-9.56c-.5,5,0,9.08-2.15,12.83a6.1,6.1,0,0,0,5.11-3.12s-1.95,4-3.56,7.81a33.23,33.23,0,0,0-1.89,8.72c0-.12,3.89-5.17,5.94-5.59-5,8.72-5.49,10.44-5.68,19.16,2.24-6.14,3.31-6.2,3.31-6.2A52.43,52.43,0,0,0,202.84,234c3.48,11,5.42,16.14,7.52,21.15s.64,11.15-.33,13.41c3.56-3.56,3.88-6.14,3.88-6.14a13.61,13.61,0,0,1,.16,6.14c-.64,3.72.49,9,.49,9s.86-4.83,2.58-6.47c0,0,4.53,11.15,7.6,17.29s5.33,11,5.65,13.41S225.54,311,225.06,317c2.82-4.89,5-6,5-6s-5.17,7.92-4.36,14.87c1.61-4.85,3.9-6.17,3.9-6.17s-1.48,10,.46,17.8,6,15.35,7.75,20.68.81,12.28.81,12.28a7.11,7.11,0,0,0,2.91-4.85,26.56,26.56,0,0,0,2.26,11.64,8.73,8.73,0,0,1,.82-4.85c1.26,2.32,2.87,8.23,3.23,12.71s-2,9.86-2,9.86a8.22,8.22,0,0,0,5-3.28c.24,5.79,2.4,9.14,4.07,11.89a12.88,12.88,0,0,1,1.14-6s.71,7,4.24,10.95,5.85,4.54,7.11,6.75a21.06,21.06,0,0,0-1.32-5s5,1.31,7.11,4.54,4.07,6.81,7.83,8.49a12.86,12.86,0,0,1-1.43-5.2,22.77,22.77,0,0,0,7.71,4.48,19.15,19.15,0,0,0,7.29,1s-5-4.37-5.71-5.92a21.16,21.16,0,0,1,6.36,2.81S294.28,416,292.49,413.53Z" style="fill:#455a64"></path><path d="M224.74,288.41c1.21,2.26,2.39,4.54,3.5,6.86.55,1.17,1.1,2.33,1.56,3.54.23.61.45,1.22.63,1.85a9.6,9.6,0,0,1,.22,1,2.9,2.9,0,0,1,0,1.06,17.7,17.7,0,0,1-1.38,3.67c-.54,1.17-1.09,2.33-1.6,3.49a23.4,23.4,0,0,0-2.16,7.21l-.81-.26a29.12,29.12,0,0,1,2.21-3.33,15.9,15.9,0,0,1,1.33-1.52,8.2,8.2,0,0,1,1.64-1.33.47.47,0,0,1,.63.17.44.44,0,0,1,0,.47l0,0a35,35,0,0,0-3.31,7,26,26,0,0,0-.92,3.75,16.85,16.85,0,0,0-.12,3.82l-.79-.08a17.23,17.23,0,0,1,1.56-3.45,12,12,0,0,1,1.11-1.56,6.36,6.36,0,0,1,1.45-1.32.33.33,0,0,1,.46.1.36.36,0,0,1,0,.22v0a67.24,67.24,0,0,0-.66,8.87,41.34,41.34,0,0,0,.79,8.88,38.37,38.37,0,0,1-1.21-8.87,62.73,62.73,0,0,1,.42-9l.5.34a6.36,6.36,0,0,0-1.24,1.2,12.5,12.5,0,0,0-1,1.49c-.3.52-.55,1.07-.8,1.62s-.45,1.12-.64,1.7h0a.41.41,0,0,1-.52.26.4.4,0,0,1-.27-.35,17,17,0,0,1,.08-4,25.74,25.74,0,0,1,.93-3.9,32.16,32.16,0,0,1,1.47-3.71,29.2,29.2,0,0,1,1.9-3.52l.6.67a7.27,7.27,0,0,0-1.41,1.14A17.29,17.29,0,0,0,227.6,314a28.21,28.21,0,0,0-2.17,3.21h0a.44.44,0,0,1-.59.15.42.42,0,0,1-.21-.41,23.94,23.94,0,0,1,2.29-7.47c.54-1.17,1.13-2.32,1.7-3.46a17.64,17.64,0,0,0,1.41-3.48,2.27,2.27,0,0,0,.05-.86c0-.3-.12-.6-.19-.91-.15-.61-.36-1.21-.57-1.81-.43-1.2-.91-2.39-1.41-3.57C226.91,293.07,225.81,290.75,224.74,288.41Z" style="fill:#37474f"></path><path d="M276.65,332c-.14-4.43-.12-8.87-.12-13.3l.09-13.29a.27.27,0,0,1,.27-.27.28.28,0,0,1,.26.19c.39,1.22.72,2.47,1,3.74a23.54,23.54,0,0,1,.5,3.87l-.62-.1a40.86,40.86,0,0,0,1.2-5.9,17.53,17.53,0,0,0-.09-5.92h0a.39.39,0,0,1,.3-.47.36.36,0,0,1,.37.11,5.1,5.1,0,0,1,.95,1.51,14.53,14.53,0,0,1,.58,1.59,26.27,26.27,0,0,1,.8,3.26l-.81.06A50.93,50.93,0,0,0,280.18,297a40.54,40.54,0,0,0-3.27-9.57,95,95,0,0,1-4-9.47,83.58,83.58,0,0,1-2.9-9.88.43.43,0,0,1,.34-.53.44.44,0,0,1,.4.11h0a7.27,7.27,0,0,0,.79.68,4.72,4.72,0,0,0,.87.51,3.18,3.18,0,0,0,.94.28,2.62,2.62,0,0,0,.89,0l-.14.75a16.48,16.48,0,0,1-2.64-2.9,10.86,10.86,0,0,1-1.73-3.55A.42.42,0,0,1,270,263a.39.39,0,0,1,.3,0h0a4.87,4.87,0,0,0,1.56.47,4.46,4.46,0,0,0,.82,0,4.64,4.64,0,0,0,.78-.09l-.18.7a28.79,28.79,0,0,1-3.66-5,41.14,41.14,0,0,1-2.73-5.48,49.86,49.86,0,0,1-1.95-5.79L263.28,242a.29.29,0,0,1,.2-.35h0a7.86,7.86,0,0,0,1.72-.76,13.27,13.27,0,0,0,1.6-1.09,19.37,19.37,0,0,0,2.82-2.69h0a.23.23,0,0,1,.34,0,.26.26,0,0,1,.08.25L268.62,243l-.29-.2a20.27,20.27,0,0,0,3-2.9,31.44,31.44,0,0,0,2.47-3.35,36.15,36.15,0,0,0,2-3.67c.6-1.26,1.1-2.56,1.57-3.87a39.29,39.29,0,0,1-1.49,3.91,34.54,34.54,0,0,1-1.92,3.73,30.29,30.29,0,0,1-2.42,3.43,20,20,0,0,1-2.95,3,.18.18,0,0,1-.26,0,.17.17,0,0,1,0-.15v0l1.34-5.68.42.21a19.85,19.85,0,0,1-2.85,2.8,13.62,13.62,0,0,1-1.66,1.15,8.16,8.16,0,0,1-1.87.85l.22-.36,1.75,5.8a50.42,50.42,0,0,0,2,5.69,44.25,44.25,0,0,0,2.73,5.36,28.64,28.64,0,0,0,3.55,4.78l0,0a.41.41,0,0,1,0,.58.5.5,0,0,1-.19.1,5.76,5.76,0,0,1-1,.13,6.17,6.17,0,0,1-1,0,5.87,5.87,0,0,1-1.83-.55l.6-.49a10.13,10.13,0,0,0,1.61,3.26,15.78,15.78,0,0,0,2.5,2.72l0,0a.44.44,0,0,1,0,.6.46.46,0,0,1-.21.13,3.22,3.22,0,0,1-1.3.06,4.73,4.73,0,0,1-1.18-.35,5.55,5.55,0,0,1-1-.6,8.11,8.11,0,0,1-.89-.76l.75-.42a81.46,81.46,0,0,0,2.92,9.75,96.67,96.67,0,0,0,3.94,9.4,41.27,41.27,0,0,1,3.29,9.78,51.09,51.09,0,0,1,1.12,10.26.41.41,0,0,1-.41.41.4.4,0,0,1-.4-.34h0a26.42,26.42,0,0,0-.76-3.16,12.78,12.78,0,0,0-.55-1.5,4.45,4.45,0,0,0-.77-1.28l.66-.38a18.19,18.19,0,0,1,0,6.2,41.13,41.13,0,0,1-1.3,6,.32.32,0,0,1-.4.22.35.35,0,0,1-.23-.3h0a23.07,23.07,0,0,0-.44-3.76,33.76,33.76,0,0,0-.93-3.69l.53-.08c-.07,4.44-.22,8.86-.33,13.29S276.61,327.59,276.65,332Z" style="fill:#37474f"></path><path d="M118.33,242c-1.11-2.43-1.09-3.38,1.85-4.06s5.18,2,7.12,4.67,3.23,4.11,3.23,4.11-.85,3.93-4.33,3.82S118.33,242,118.33,242Z" style="fill:#f0997a"></path><path d="M124.61,239.47c1.13-1.9,4.16-2.05,5.16-1.05.59.59,2.4,2.77,3.78,4.46,1.67-.23,3.55-.29,3.55-.29-1.25,2.62-2.95,4.65-6.57,4.14Z" style="fill:#f0997a"></path><path d="M223.41,110.38c-18.62,3.56-20.57,6.28-34.83,24.15-12,15-19.39,25.14-25.84,34a30,30,0,0,0-5.37,11.53c-3.43,16.27-6.52,51.34-10.89,53.86-2.69,1.56-10,4.39-11.65,8.48s-7.56,4.69-10.22,4.4c-.6-.07-4.13-3.91-6-6.36s-6-1.57-6.72-1c-1.35,1,1,6.28,3.64,10.08,5.38,7.9,16,9.31,24.75,9.67S158,252.94,161.8,250s4.67-8.71,6.63-16.35,15.45-43.75,15.45-43.75L219,154S237.32,124.29,223.41,110.38Z" style="fill:#ffbda7"></path><path d="M224.2,106.66c-11.32-3.17-21.38-.75-27.55,3.11s-8.78,8.14-8.78,8.14,5.8-2.64,10.3-2.42c-7,2.71-12.32,8.7-12.32,8.7s6-2,7.86-2.33C182,132,178.21,146.14,172.54,149.78s-9.11,2.83-9.11,2.83a12.21,12.21,0,0,0,6.28,2c-7.69,9.51-9.71,13-11.84,16.69s-7.8,5.17-7.8,5.17a7.37,7.37,0,0,0,5.27.81c-3.85,3.84-4.46,9.71-4.46,9.71s2-3.48,4.05-4.25c0,0-3.54,23.65-4.75,29.69a19.75,19.75,0,0,1-4.25,9.2,4.06,4.06,0,0,0,3-1.55c-2.22,7.49-4.35,8.9-4.35,8.9,1.34.47,3-.33,3.79-.66a51.25,51.25,0,0,0-2.69,7.56,12.33,12.33,0,0,1,3.48-1.71A21.39,21.39,0,0,0,146.6,245a6.2,6.2,0,0,1,1.93-3,66.46,66.46,0,0,0-.78,7.71,16.33,16.33,0,0,1-1.1,5.85,9.91,9.91,0,0,0,3.42-2.87c-1.71,4.52-4.62,6-4.62,6a38.27,38.27,0,0,0,10-3.12c4.63-2.32,7.12-4.25,8.22-5.91a11.44,11.44,0,0,1-2.18,3.67,11.79,11.79,0,0,0,4.77-5.93,39.25,39.25,0,0,0,1.56-7.24,7.5,7.5,0,0,0,1.92,4.33c-.73-3.13-.54-5.8.8-11.82,1.6-7.2,6.26-20.69,6.26-20.69a7.85,7.85,0,0,0,1.49,4.47c-.44-6.63,1.6-12.7,2.82-16S184.83,190,184.83,190l11.32-11c-1.6,3.7-1.16,5.81-1.16,5.81s2.59-6,6.18-9.12c-.61,3.26.11,4.58.11,4.58s2.81-6.56,6.46-10.2a137.87,137.87,0,0,0,11.53-13.91c2.29-3.06,5-8.58,7-15a61.74,61.74,0,0,0,2.66-13.3C229.81,116.55,225.69,107.55,224.2,106.66Z" style="fill:#455a64"></path><path d="M201.28,180.23a34.62,34.62,0,0,1,5.89-10.13,112.11,112.11,0,0,0,7.57-8.87c1.22-1.51,2.42-3,3.6-4.59a36,36,0,0,0,3.17-4.84,78.59,78.59,0,0,0,4.75-10.63,55.06,55.06,0,0,1-4.11,11,30.08,30.08,0,0,1-3.12,5c-1.17,1.57-2.34,3.13-3.55,4.67a95.33,95.33,0,0,1-7.78,8.78,26.71,26.71,0,0,0-3.52,4.57A53.81,53.81,0,0,0,201.28,180.23Z" style="fill:#37474f"></path><path d="M271.18,151.23a25.4,25.4,0,0,1,.69,5,11.14,11.14,0,0,1-.94,5,9.72,9.72,0,0,1-1.35,2.19,12,12,0,0,1-1.89,1.75,25.12,25.12,0,0,1-4.39,2.6.34.34,0,0,1-.44-.17.32.32,0,0,1,.06-.36v0a16.57,16.57,0,0,0,3.24-4.68l.67.41a22.36,22.36,0,0,1-2.95,2.81,21.24,21.24,0,0,1-3.4,2.24,23.28,23.28,0,0,1-3.72,1.65,22.62,22.62,0,0,1-4,1,.47.47,0,0,1-.52-.39.45.45,0,0,1,.16-.41h0l3.37-2.87.55.76a12.29,12.29,0,0,1-3.22.93c-1.06.18-2.13.31-3.2.39a62.54,62.54,0,0,1-6.42.15,31.3,31.3,0,0,1-6.39-.8,22.65,22.65,0,0,1-6-2.34l.48-.34a6.16,6.16,0,0,0,1,2.06,3.94,3.94,0,0,0,1.73,1.4l-.2.49a18,18,0,0,1-6-3.82,10,10,0,0,1-2-3,11.7,11.7,0,0,1-.87-3.43,12.46,12.46,0,0,0,1,3.36,10,10,0,0,0,2,2.82,18.64,18.64,0,0,0,6,3.54.27.27,0,0,1,.15.35.27.27,0,0,1-.34.14,4.58,4.58,0,0,1-2-1.54,6.72,6.72,0,0,1-1.11-2.26.32.32,0,0,1,.21-.39.33.33,0,0,1,.24,0h0a22,22,0,0,0,5.86,2.11,31.19,31.19,0,0,0,6.24.73c2.11,0,4.23,0,6.32-.2,1-.08,2.09-.22,3.12-.4a12.21,12.21,0,0,0,2.89-.83l0,0a.46.46,0,0,1,.62.21.47.47,0,0,1-.11.57l-3.38,2.85-.35-.81a20.42,20.42,0,0,0,3.78-.92,24,24,0,0,0,3.61-1.56,21.31,21.31,0,0,0,3.29-2.14,21.86,21.86,0,0,0,2.85-2.68h0a.39.39,0,0,1,.56,0,.4.4,0,0,1,.09.46,12.9,12.9,0,0,1-1.55,2.58,22,22,0,0,1-1.94,2.26l-.37-.54a24.16,24.16,0,0,0,4.32-2.43,11.42,11.42,0,0,0,1.84-1.62,10.58,10.58,0,0,0,1.36-2.05,10.84,10.84,0,0,0,1.08-4.8A28.1,28.1,0,0,0,271.18,151.23Z" style="fill:#37474f"></path><path d="M272.93,152.62a29,29,0,0,0,.25,5,10.67,10.67,0,0,0,1.75,4.6,9.84,9.84,0,0,0,1.63,1.83,10.85,10.85,0,0,0,2.05,1.35,23.41,23.41,0,0,0,4.62,1.8l-.29.59a21,21,0,0,1-2.24-2,13.13,13.13,0,0,1-1.9-2.34.39.39,0,0,1,.13-.55.41.41,0,0,1,.46,0h0a21.6,21.6,0,0,0,3.21,2.26,22.11,22.11,0,0,0,3.56,1.65,23.58,23.58,0,0,0,3.79,1,21.34,21.34,0,0,0,3.87.39l-.23.84-3.75-2.35.71-.52c0-.1,0,0,0-.06s0,0,0,0l.12.09a1.71,1.71,0,0,0,.36.17,5,5,0,0,0,.89.23c.62.11,1.26.13,1.91.19s1.31.05,2,.05,1.32,0,2,0a19.45,19.45,0,0,1-4,.62,9.32,9.32,0,0,1-2-.06,4.91,4.91,0,0,1-1.05-.22,3.13,3.13,0,0,1-.54-.23,2,2,0,0,1-.28-.19,1,1,0,0,1-.14-.15.73.73,0,0,1-.15-.27.45.45,0,0,1,.28-.58.44.44,0,0,1,.39,0l0,0,3.74,2.37h0a.45.45,0,0,1,.14.62.46.46,0,0,1-.39.21,21.94,21.94,0,0,1-4.07-.42,24.31,24.31,0,0,1-3.92-1.11,21.32,21.32,0,0,1-3.68-1.74,23.16,23.16,0,0,1-3.31-2.36l.61-.51a16.64,16.64,0,0,0,3.86,4.18v0a.31.31,0,0,1,.05.46.32.32,0,0,1-.35.11,24.32,24.32,0,0,1-4.72-2,12.6,12.6,0,0,1-2.11-1.46,10,10,0,0,1-1.65-2,11.2,11.2,0,0,1-1.63-4.8A25.82,25.82,0,0,1,272.93,152.62Z" style="fill:#37474f"></path><path d="M233.84,107.31c5.75-.62,5.26-14,5.1-19.86s-8.22-15.4-2.78-33.78c4.63-15.67,19.61-22,34.89-15.39,13.78,5.91,23.09,21.49,21.5,27.59-.56,2.16-2,2.38-2.87,6.2,0,0,1.5,4.33,1.05,6.25-1.3,5.53-2.06,16-7.74,21.66-4.25,4.23-11.36,2-16.24.81L266,111Z" style="fill:#ffbda7"></path><path d="M249.82,114.73c21.14-.51,26.33-7,26.63-6.92-4.35-.88-5.24-2.61-4.91-4.08a12.12,12.12,0,0,0,7.78.84,11.19,11.19,0,0,1-2.75-1.67s7.22,1.77,11.79-.75a3,3,0,0,1-3.12-3.31l1.32,1.4s.89-3.29-.08-5.39c-3.12,2.87-11.69,2.79-17.8-1.33-3.52-2.37-13.09-11.6-7.95-15.79,1.47-1.21,3.31-2.31,3.17-4.42a43.43,43.43,0,0,0-1.27-5.73c-.38-1.92-.36-4.09.85-5.63a7.62,7.62,0,0,1,4.09-2.26,38.2,38.2,0,0,1,16.1-.81c2.47.43,7.43,1.26,8.7,3.88,0,0,1.15,2.41-1.32,5.87,2.25-1.22,4.71-5.44,3.38-10.91a4.68,4.68,0,0,1-1.21,3.4s.46-7.75-1.63-11.85a12.31,12.31,0,0,1-.71,6.84A35.61,35.61,0,0,0,279.16,41c-8.36-5.91-13-6.66-13.91-9.18a10.55,10.55,0,0,0,1.21,4.12,15.73,15.73,0,0,0-8.26-1.73c-5,.23-8.37.19-9.13-2.16a8.4,8.4,0,0,0,1,4.07s-4.64-3.91-4.9-6.41a25.33,25.33,0,0,0,.88,7.51s-4.87-1.39-8-.82c2,.84,3.21,1.87,2.34,3.29s-3.76,3.32-6.85,8.21-5.23,8.31-5.59,12.73c1.55-3.49,3.37-4.48,3.37-4.48s-2.63,8.42-2.19,13.05c.51,5.44-.72,9.63-2.92,12.46,4-1.29,5.16-3.83,5.16-3.83-.45,4.66-.63,10.08-4.34,15.13a16.65,16.65,0,0,1-6.24,5.35,18.71,18.71,0,0,0,10.32-1.41c-.56,3.63-4.84,8-12.43,8.65C218.62,105.52,220.89,115.43,249.82,114.73Z" style="fill:#455a64"></path><path d="M251.31,67.68c-2.78-5.7-10.8-4.39-11.59,2.12s3.59,13.14,7.73,13,4.23-3,4.23-3S248.37,72.42,251.31,67.68Z" style="fill:#ffbda7"></path><path d="M268.46,103.49c-4.15-1.09-8.57-2.8-10.6-6.89-.08-.15-.39-.45-.57-.23-1.05,1.33-.75,2.95-.28,4.44a4.92,4.92,0,0,1-1.83-1.21,9.82,9.82,0,0,1-1.62-1.9,5.62,5.62,0,0,1-.56-5.15c.11-.31-.42-.78-.57-.43a4.4,4.4,0,0,1-2.69,2.18c1.3-2.65,2.41-5.59,1.13-8.47-.08-.19-.25,0-.2.17,1,3-.43,6-1.76,8.56a.38.38,0,0,0,.38.52,5.29,5.29,0,0,0,2.63-1.34A6.73,6.73,0,0,0,253,98a11.13,11.13,0,0,0,2,2.25,4.9,4.9,0,0,0,2.54,1.38c.24,0,.33-.19.27-.38-.43-1.25-.88-2.72-.23-3.93,2.21,3.9,6.6,5.9,10.88,6.67C268.73,104,268.67,103.54,268.46,103.49Z" style="fill:#37474f"></path><path d="M280.36,82.13l-.14,0-.31.13a2.64,2.64,0,0,1-.4.12,2.33,2.33,0,0,1-.83,0,2.67,2.67,0,0,1-1.44-.85,1.47,1.47,0,0,1-.16-1.58,4.11,4.11,0,0,1,.46-.82,1.56,1.56,0,0,0,.36-.67c0-.07-.06-.27-.16-.16a4.64,4.64,0,0,1-.68.72,2.82,2.82,0,0,0-1,.92,2.06,2.06,0,0,0,.52,2.24,3.8,3.8,0,0,0,2.05,1,3.51,3.51,0,0,0,1.21,0c.36-.07.89-.23,1-.63S280.59,82.08,280.36,82.13Z" style="fill:#f0997a"></path><path d="M280.08,82.46h0Z" style="fill:#455a64"></path><path d="M280.16,82.46h-.06C280.28,82.49,280.3,82.49,280.16,82.46Z" style="fill:#455a64"></path><path d="M288,79.62a4.57,4.57,0,0,0-.35-.74c-.1-.18-.25-.5-.46-.55-.06,0-.09.09-.08.13a1.81,1.81,0,0,0,.18.49,1.89,1.89,0,0,1,.17.66,3.75,3.75,0,0,1-.07,1.25,1.3,1.3,0,0,1-.63.85,2.78,2.78,0,0,1-.56.24,4.61,4.61,0,0,0-.64.16c-.13.06-.13.25-.09.35a.52.52,0,0,0,.34.31,2.17,2.17,0,0,0,1.67-.47,1.72,1.72,0,0,0,.68-1.08A3,3,0,0,0,288,79.62Z" style="fill:#f0997a"></path><path d="M282.51,81.76a1.22,1.22,0,0,0,0-1.1c-.81-.82-2.5.49-2.67,1.35a1.35,1.35,0,0,0,0,.4C280,83.38,282.07,82.54,282.51,81.76Z" style="fill:#455a64"></path><path d="M284.71,81.79a.88.88,0,0,1,.16-1.09c.94-.69,1.84.93,1.15,1.59C285.55,82.76,285,82.33,284.71,81.79Z" style="fill:#455a64"></path><path d="M286.29,78.28A3.06,3.06,0,0,0,283.15,77a6.2,6.2,0,0,0-1.64.43,2.88,2.88,0,0,0-1.35.86s0,.23.06.22A6.55,6.55,0,0,0,281.4,78a6.48,6.48,0,0,1,1.61-.37,3.92,3.92,0,0,1,3.15.85C286.29,78.59,286.34,78.36,286.29,78.28Z" style="fill:#f0997a"></path><path d="M285.34,76.51a1.87,1.87,0,0,0-.6-.65,3.3,3.3,0,0,0-.53-.27,3.25,3.25,0,0,0-1.23-.28,2.85,2.85,0,0,0-2.26.87s0,.12,0,.11c.36-.06.68-.23,1-.31a3.69,3.69,0,0,1,1.28-.08,4,4,0,0,1,1.19.32c.34.16.66.36,1,.52C285.36,76.79,285.38,76.57,285.34,76.51Z" style="fill:#f0997a"></path><path d="M285.4,86.82a8.82,8.82,0,0,0-1.85.14,19.56,19.56,0,0,1-2,.13,24.89,24.89,0,0,1-4.14-.25,22.07,22.07,0,0,1-3.75-.92c-1.32-.45-2.56-1.06-3.84-1.6-.2-.08-.21.27-.1.36a17,17,0,0,0,7.7,2.95,18.22,18.22,0,0,0,4,.22,20.06,20.06,0,0,0,2.05-.22,5.18,5.18,0,0,0,2-.58C285.49,87,285.5,86.82,285.4,86.82Z" style="fill:#f0997a"></path><path d="M271.76,86s-.18,1.44.39,2,1-1.44,1-1.44Z" style="fill:#fafafa"></path><path d="M275.57,72a1.95,1.95,0,1,1-1.88-2A1.94,1.94,0,0,1,275.57,72Z" style="fill:#263238"></path><path d="M288.63,72.73a1.68,1.68,0,1,1-.9-2.39A1.82,1.82,0,0,1,288.63,72.73Z" style="fill:#263238"></path><path d="M275.31,64.35a7.88,7.88,0,0,0-1.2-.09,4.71,4.71,0,0,1,1,1.55,14.51,14.51,0,0,0-3.53-.61,9.44,9.44,0,0,0-1.84,0c-.3,0-.59.11-.89.19a5.77,5.77,0,0,1-.8.3l1.38.89a8.61,8.61,0,0,0-2.64,1,2.91,2.91,0,0,0-1.4,2.35,9.67,9.67,0,0,0,2.83-.39,2.33,2.33,0,0,0-.51,2.27l5.34-2c-.3.21-.64.56-.46.87s.55.22.85.13a11.79,11.79,0,0,0,3.09-1.45.39.39,0,0,0,.1.57,1.15,1.15,0,0,0,.64.12,3.93,3.93,0,0,0,1.92-.41c1.59-.92,1-2.4-.09-3.45A6.94,6.94,0,0,0,275.31,64.35Z" style="fill:#455a64"></path><path d="M287.67,64.68a4.48,4.48,0,0,1,1,0,5.07,5.07,0,0,0-.9,1.49,9.75,9.75,0,0,1,2.87-.44,6.05,6.05,0,0,1,1.47.13,5.73,5.73,0,0,1,.7.23,3.94,3.94,0,0,0,.62.34l-1.16.82a6.16,6.16,0,0,1,2.05,1.16,3.09,3.09,0,0,1,1,2.41,6.26,6.26,0,0,1-2.24-.52,2.76,2.76,0,0,1,.26,2.29l-4.15-2.26c.23.21.48.58.31.88s-.45.2-.68.09a8.78,8.78,0,0,1-2.39-1.58.45.45,0,0,1-.11.56.8.8,0,0,1-.52.09,2.7,2.7,0,0,1-1.52-.49c-1.21-1-.65-2.45.3-3.45A5.35,5.35,0,0,1,287.67,64.68Z" style="fill:#455a64"></path><path d="M247.69,77.13c-.59-.79-1.75-1.4-1.81-2.48s1-2,1.54-2.83a3,3,0,0,0,.65-2.45,2.91,2.91,0,0,0-1.38-1.8,3.2,3.2,0,0,0-4.41,1.29c-.09.2.22.61.42.43,1.07-.92,2.73-1.88,3.89-.53s-.32,2.69-1.06,3.76a2.79,2.79,0,0,0-.11,3.49c.42.53,1,.93,1.42,1.42a2.56,2.56,0,0,1,.67,1.1.86.86,0,0,1-1.06,1c-.32-.09-.19.47,0,.55a1.26,1.26,0,0,0,1.62-.79A2.26,2.26,0,0,0,247.69,77.13Z" style="fill:#f0997a"></path></g></g></svg>