<svg xmlns="http://www.w3.org/2000/svg" viewBox="0 0 500 372.61"><g id="freepik--background-complete--inject-59"><rect y="327.45" width="500" height="0.25" style="fill:#ebebeb"></rect><rect x="416.78" y="343.54" width="33.12" height="0.25" style="fill:#ebebeb"></rect><rect x="322.53" y="346.26" width="8.69" height="0.25" style="fill:#ebebeb"></rect><rect x="396.59" y="334.26" width="19.19" height="0.25" style="fill:#ebebeb"></rect><rect x="52.46" y="335.94" width="43.19" height="0.25" style="fill:#ebebeb"></rect><rect x="104.56" y="335.94" width="6.33" height="0.25" style="fill:#ebebeb"></rect><rect x="131.47" y="340.16" width="93.68" height="0.25" style="fill:#ebebeb"></rect><path d="M237,337.8H43.91a5.71,5.71,0,0,1-5.7-5.71V60.66A5.71,5.71,0,0,1,43.91,55H237a5.71,5.71,0,0,1,5.71,5.71V332.09A5.71,5.71,0,0,1,237,337.8ZM43.91,55.2a5.46,5.46,0,0,0-5.45,5.46V332.09a5.46,5.46,0,0,0,5.45,5.46H237a5.47,5.47,0,0,0,5.46-5.46V60.66A5.47,5.47,0,0,0,237,55.2Z" transform="translate(0 -54.95)" style="fill:#ebebeb"></path><path d="M453.31,337.8H260.21a5.72,5.72,0,0,1-5.71-5.71V60.66A5.72,5.72,0,0,1,260.21,55h193.1A5.71,5.71,0,0,1,459,60.66V332.09A5.71,5.71,0,0,1,453.31,337.8ZM260.21,55.2a5.47,5.47,0,0,0-5.46,5.46V332.09a5.47,5.47,0,0,0,5.46,5.46h193.1a5.47,5.47,0,0,0,5.46-5.46V60.66a5.47,5.47,0,0,0-5.46-5.46Z" transform="translate(0 -54.95)" style="fill:#ebebeb"></path><path d="M360.69,382.63H41.37s9.85-15.17,18.06-27.33c5.2-7.69,9.73-14.18,10.71-14.88,2.52-1.8,9-2.88,11.87-9.55s2.87-9.51,7-17.06,20-28.05,21.65-28,15.95-22.34,21.43-24.14,6-7.19,11.89-15.28,25.42-34,33.69-34.59S206.18,250.14,214,253s16.51-9.71,19.28-6.65,8.38,14.56,14.09,23.91,11.47,13.66,12,17.2,12.15,9.77,17.95,9.77c2,0,6.21,4.36,11,10.14l0,0c9.33,11.29,20.64,27.95,20.64,27.95,1.55,2.25,4.26-1.08,8.93.71S360.69,382.63,360.69,382.63Z" transform="translate(0 -54.95)" style="fill:#f0f0f0"></path><path d="M360.69,382.63H41.37s9.85-15.17,18.06-27.33c4.76-5.25,8.58-9.18,10-10,5.21-3,9.25-9.81,12.39-10.68a25.09,25.09,0,0,0,6.87-3.74s4.87-15.25,6-17.94,15.83-19.46,19.12-20.65,5.42,2.77,7.38,4.93,17,29.09,17,29.09l9.53-6.33s5.54-7.12,7.65-10.68,4.15-2.77,4.15-2.77,10-11.47,10.48-14.56,6.6-1.66,7-1.66,10.32,4.75,10.32,4.75-10.37-13.05-14.75-9.53-29.24,27.41-29.24,27.41l-14.17-17.88,6.65-9.53s9.1-11.44,9.89-13S162,249.16,162.27,248s13.21-11.47,14.84-10.69,5.1,3.18,9,8.34,5.6,8.29,9.66,14.94,7.41,8.38,8.75,10.05,16.15,17.6,16.61,18.1l-11.25-18.1s5.57-5.23,9.17-8.79,4.71,1.19,9.43,4.75S234,272.5,237.59,278,258,303,258,303s-2.62,4.35-5.46,8.76-4.75,11.54-4.75,11.54l5-2.89s10.55-10.29,12.39-12.93,6.86-7.64,11.24-7.25c4.22.39,11.4,6.77,11.91,7.22l0,0c9.33,11.29,20.64,27.95,20.64,27.95,1.55,2.25,4.26-1.08,8.93.71S360.69,382.63,360.69,382.63Z" transform="translate(0 -54.95)" style="fill:#e6e6e6"></path><circle cx="137.66" cy="59.19" r="30.58" style="fill:#f5f5f5"></circle><path d="M144.75,148.3a8.79,8.79,0,0,0-11.35-8.44,18.66,18.66,0,0,0-18.47-21.38,18.49,18.49,0,0,0-3.44.32,16.32,16.32,0,0,0-30.26,8.25H81a15,15,0,0,0,0,30.08h55.23A8.82,8.82,0,0,0,144.75,148.3Z" transform="translate(0 -54.95)" style="fill:#ebebeb"></path><path d="M283.2,100.84a5.63,5.63,0,0,1,5.63-5.63,5.36,5.36,0,0,1,1.61.24,12.36,12.36,0,0,1-.12-1.73A11.92,11.92,0,0,1,302.24,81.8a12.14,12.14,0,0,1,2.19.2,10.42,10.42,0,0,1,19.32,5.27h.18a9.61,9.61,0,0,1,0,19.21H288.67A5.62,5.62,0,0,1,283.2,100.84Z" transform="translate(0 -54.95)" style="fill:#ebebeb"></path><path d="M212.86,121a3.46,3.46,0,0,1,3.45-3.45,3.54,3.54,0,0,1,1,.15,7.28,7.28,0,0,1,7.23-8.36,6.55,6.55,0,0,1,1.34.13,6.38,6.38,0,0,1,11.84,3.22h.1a5.88,5.88,0,1,1,0,11.76h-21.6A3.45,3.45,0,0,1,212.86,121Z" transform="translate(0 -54.95)" style="fill:#ebebeb"></path><path d="M405.44,237.12a3.45,3.45,0,0,1,3.45-3.45,3.21,3.21,0,0,1,1,.15,7.45,7.45,0,0,1-.07-1.06,7.27,7.27,0,0,1,8.64-7.18,6.38,6.38,0,0,1,11.84,3.23h.11a5.89,5.89,0,0,1,0,11.77H408.8A3.45,3.45,0,0,1,405.44,237.12Z" transform="translate(0 -54.95)" style="fill:#ebebeb"></path><path d="M444.36,382.62H110.65s10.55-23.51,15.94-21.24,22.42-11.86,24.87-17.54,11,1.86,22.48-.54,28.29-39.32,33.47-37.41,20.23,36.44,23.8,37.72,7-9.9,11.95-10.87,8.93,7.68,9.89,10.08,5.79,10.07,5.79,10.07,7.64-2.4,10.06-4.32,14.36-25.89,16.88-29.3,7.55-6.18,15.15-4.74,10.62-12,19-20.17,12.69-5.25,15.61-5.64,18.66-26.93,22.5-24.69,21.09,34.67,24.19,38.51,10.32-2.39,11.18,0,14.22,21.1,14.22,21.1,6-.49,9.64,2.4c.61.48,1.78,2.4,3.31,5.28l.3.58C428.58,346.48,444.36,382.62,444.36,382.62Z" transform="translate(0 -54.95)" style="fill:#ebebeb"></path><path d="M444.36,382.62H284.6c-4.78-7-12.62-18.63-12.37-19.44.36-1.19,15.1-30.31,22.12-34.27s12.26-.72,12.26-.72l-5.67,15.42c.42-.55,13.78-17.77,17.32-20.35s2.3-4.78,1.69-5.86-8.45,1.72-8.87,1.86c.61-.62,16.23-16.43,19-17.94s8.57-1.54,8.57-1.54,10.49-13.85,14.09-19,12.76,2.48,14.47,8.39,7.82,12,7.82,12l4.32,12.23s-13.12-9.71-15.55-9a55.19,55.19,0,0,1-8.1,1.08s-2.6-7.56-5.84-8.64-10.07,4-15.1,10.79c-6.34,8.61,8.63-9.71,15.82,0s8.4,6.47,12.11,4,16.64,17.62,19.52,20.49,8.47-6.82,8.47-6.82-5.57,5-4.86,1.43,1-16.34,6.4-16.89S403.09,325,403.09,325l-5.72,7.73,15.46-6.29,7.77,4.93.3.58C428.58,346.48,444.36,382.62,444.36,382.62Z" transform="translate(0 -54.95)" style="fill:#e0e0e0"></path><path d="M115.74,382.62c2.07-3.51,3.89-6.95,3.46-7.55-.91-1.32,9.19-5.52,11.43-6.87s4.59-2.25,10.39-1.92,3.91.75,5.45,1.92,1.83,9.57,1.83,9.57,3.1-5.7,3.16-9.57-5-6.82-5-6.82,1.34-2.27,2.51-3.88,6.74-9.89,10.34-11,10.06,1.8,12.94,3.59,2.87,1.8,5.39,3.24,1.8,2.88,2.88,8,2.88-.47,6,1.8,6.44,7.33,6.44,7.33-.93-6.36-3.18-9.13-3.26-10.18-3.26-10.18l3.26-7.59s7.29-12.54,11.64-18.29,4.27-3.24,9.38,1.8,4.6,4.31,7.55,10.2,12.41,20.18,12.41,20.18l-.29-5.58s6.51-6.82,9.38-4.67,5,6.84,5,6.84l-3.26,3.41s-3.93,7.73-5.6,8.78,4.19-1.41,8.86-3.1,8.27-7.66,11.15-5.68c2.09,1.45,14.6,16.85,21.25,25.12Z" transform="translate(0 -54.95)" style="fill:#e0e0e0"></path></g><g id="freepik--Shadow--inject-59"><ellipse id="freepik--path--inject-59" cx="250" cy="361.29" rx="193.89" ry="11.32" style="fill:#f5f5f5"></ellipse></g><g id="freepik--tree-2--inject-59"><path d="M301.07,158.27c.89.47,2.21.61,2.43,1.6s-.7,1.57-1.3,2.25a4.24,4.24,0,0,0,1.3,6.31c.51.25,1.14.45,1.33,1a2,2,0,0,1-.12,1.19,6.28,6.28,0,0,0-.21,2.28.83.83,0,0,0,1,.91c3.08.14,4.56-1,6.44,1.73a2.22,2.22,0,0,0,.65.68,1.87,1.87,0,0,0,.85.21c2.11.18,3.5-1.15,5.43-1.39a4.64,4.64,0,0,1,2,.13,3.36,3.36,0,0,0,1.68,3.47c.41.19.9.35,1.05.77a1.54,1.54,0,0,1-.1.94,5.18,5.18,0,0,0-.16,1.8.8.8,0,0,0,.22.56.89.89,0,0,0,.53.15c2.43.11,3.6-.75,5.08,1.36a1.75,1.75,0,0,0,.51.54,1.5,1.5,0,0,0,.66.17c1.67.13,2.76-.91,4.29-1.1,2.11-.27,2.56.82,4.42,1.69,2.93,1.38,4.35.53,4.9-1.46a8.63,8.63,0,0,0,.26-1.74c.22-3.59,3.65-3,6.57-3.51,2.28-.38-3.76-6.14.84-8a4,4,0,0,0,2.21-1.54,2.6,2.6,0,0,0-1-3.19,6.17,6.17,0,0,0-3.49-.88,1.55,1.55,0,0,1-.33-1.13l.1.13a2.19,2.19,0,0,0,.64.68,1.91,1.91,0,0,0,.85.21c2.12.18,3.5-1.15,5.44-1.39,2.68-.34,3.25,1,5.61,2.15a5.91,5.91,0,0,0,4.07.73,3.77,3.77,0,0,0,1.77,1.86c.51.25,1.14.45,1.33,1a2,2,0,0,1-.12,1.19,6.06,6.06,0,0,0-.2,2.28,1,1,0,0,0,.27.72,1.06,1.06,0,0,0,.68.19c3.08.14,4.57-1,6.45,1.73a2.19,2.19,0,0,0,.64.68,1.87,1.87,0,0,0,.85.21c2.12.18,3.5-1.15,5.43-1.39,2.69-.34,3.26,1,5.62,2.15,3.73,1.75,5.53.67,6.23-1.86a10.84,10.84,0,0,0,.33-2.2c.21-3.54,2.88-3.9,5.8-4.17a4.11,4.11,0,0,0,2.17,3.32c.51.24,1.14.44,1.33,1a2,2,0,0,1-.12,1.19,6.31,6.31,0,0,0-.21,2.29,1.05,1.05,0,0,0,.28.71,1.06,1.06,0,0,0,.68.19c3.08.14,4.56-.95,6.44,1.73a2.11,2.11,0,0,0,.65.68,2,2,0,0,0,.85.22c2.11.17,3.5-1.15,5.43-1.4,2.69-.34,3.26,1,5.62,2.16,3.72,1.75,5.53.67,6.23-1.87a11.34,11.34,0,0,0,.33-2.2c.27-4.56,4.63-3.84,8.33-4.46,2.9-.48-4.77-7.8,1.07-10.16a5.18,5.18,0,0,0,2.82-2,3.33,3.33,0,0,0-1.27-4.05,7.91,7.91,0,0,0-4.44-1.11c-.95-1.16-.17-2.9.75-4.09s2.05-2.52,1.7-4c-.53-2.2-3.61-2.28-5.83-1.85-.82-1.33-.8-3-1.2-4.51s-1.6-3.1-3.16-2.91-2.35,1.83-3.78,2.17l-.34,0c-1-2.39-2.1-5.38,1.26-6.73a5.13,5.13,0,0,0,2.81-2,3.3,3.3,0,0,0-1.27-4.05,7.85,7.85,0,0,0-4.43-1.11c-.95-1.16-.18-2.9.74-4.08s2.05-2.53,1.71-4c-.53-2.2-3.61-2.28-5.83-1.85-.82-1.33-.81-3-1.21-4.51s-1.6-3.09-3.15-2.9-2.35,1.82-3.79,2.16c-1.66.39-3.1-1.08-4.41-2.18a5.08,5.08,0,0,0-.74-.51,3.32,3.32,0,0,0,.69-2.62c-.52-2.21-3.6-2.29-5.82-1.86-.82-1.33-.81-3-1.21-4.5s-1.6-3.1-3.15-2.91-2.36,1.83-3.79,2.16c-1.66.4-3.11-1.08-4.41-2.18s-3.59-1.79-4.49-.34c-.54.87-.22,2.09-.78,2.94-1,1.49-3.27.57-4.7-.49s-3.7-2-4.7-.54a6.15,6.15,0,0,0-.56,1.52,5.93,5.93,0,0,1-2.4,2.76l-.16,0c-.82-1.33-.8-3-1.2-4.5s-1.6-3.1-3.15-2.91-2.36,1.83-3.79,2.16c-1.67.4-3.11-1.08-4.41-2.18s-3.59-1.8-4.49-.34c-.54.87-.22,2.08-.78,2.94-1,1.49-3.27.57-4.7-.49s-3.7-2-4.71-.54a6.4,6.4,0,0,0-.55,1.52c-.68,2-2.78,2.92-4.43,4.17s-2.94,3.74-1.55,5.27c.69.75,1.89,1.06,2.23,2,.43,1.19-.8,2.27-1.77,3.09-1.61,1.37-1.9,5.48.23,6.6.4.21.87.36,1.29.54-1.66.38-3.09-1.09-4.39-2.19s-3.59-1.79-4.49-.34c-.54.87-.22,2.09-.78,3-1,1.48-3.27.56-4.7-.49s-3.7-2-4.71-.55a6.47,6.47,0,0,0-.55,1.53c-.68,2-2.78,2.92-4.42,4.17s-3,3.74-1.56,5.26c.69.75,1.89,1.06,2.23,2,.43,1.2-.8,2.27-1.77,3.1a3.8,3.8,0,0,0-1.09,1.94,7.52,7.52,0,0,1-1.67-.94c-1.43-1-3.7-2-4.71-.54a6.13,6.13,0,0,0-.55,1.52c-.68,1.95-2.79,2.93-4.43,4.18s-2.94,3.73-1.55,5.26c.69.75,1.89,1.06,2.23,2,.43,1.19-.8,2.27-1.77,3.09C299.23,153,298.94,157.14,301.07,158.27Zm101.21,4.61a1.3,1.3,0,0,1,.65.82,1.26,1.26,0,0,1-.12.81A12.88,12.88,0,0,1,402.28,162.88Z" transform="translate(0 -54.95)" style="fill:#263238"></path><path d="M411,165.85s-7.7,10.9-10.36,14.35-16,25-17.76,39.23c-.19,1.52-.38,2.82-.57,4,5.72,37.73,4.82,156.76,4.62,168.58H368.84c-.16-13.33-1.7-185.15-2.27-188.87-.6-3.93-8.17-18.92-19.87-25.08s-21.8-26.53-21.8-26.53h3.73s6.91,12.49,16.74,19.4a37.59,37.59,0,0,0,4.43,2.62c-.35-11.25,3.91-22,3.91-22l2,1.86c-2.71,11.12-2.36,18.25-1.53,22.34a40.48,40.48,0,0,1,10.16,6.81c10.2-13.27,15.94-43.6,15.94-43.6l2.61,1.43a154.86,154.86,0,0,1-3.37,18.6c-1.91,7.85-7.54,22.64-10.15,29.35a69.48,69.48,0,0,1,7.7,14.46,6,6,0,0,1,1-1.18c6.64-6,19.13-34.39,19.13-34.39,3-6.6-1.59-23.92-1.59-23.92h3.49l1.56,15.15,8.77-9.57,1.59,1.33-9.3,12-4.78,15.15,12.49-13.82Z" transform="translate(0 -54.95)" style="fill:#263238"></path><path d="M411,165.85s-7.7,10.9-10.36,14.35-16,25-17.76,39.23c-.19,1.52-.38,2.82-.57,4,5.72,37.73,4.82,156.76,4.62,168.58H368.84c-.16-13.33-1.7-185.15-2.27-188.87-.6-3.93-8.17-18.92-19.87-25.08s-21.8-26.53-21.8-26.53h3.73s6.91,12.49,16.74,19.4a37.59,37.59,0,0,0,4.43,2.62c-.35-11.25,3.91-22,3.91-22l2,1.86c-2.71,11.12-2.36,18.25-1.53,22.34a40.48,40.48,0,0,1,10.16,6.81c10.2-13.27,15.94-43.6,15.94-43.6l2.61,1.43a154.86,154.86,0,0,1-3.37,18.6c-1.91,7.85-7.54,22.64-10.15,29.35a69.48,69.48,0,0,1,7.7,14.46,6,6,0,0,1,1-1.18c6.64-6,19.13-34.39,19.13-34.39,3-6.6-1.59-23.92-1.59-23.92h3.49l1.56,15.15,8.77-9.57,1.59,1.33-9.3,12-4.78,15.15,12.49-13.82Z" transform="translate(0 -54.95)" style="fill:#fff;isolation:isolate;opacity:0.6000000000000001"></path><path d="M301.07,158.27c.89.47,2.21.61,2.43,1.6s-.7,1.57-1.3,2.25a4.24,4.24,0,0,0,1.3,6.31c.51.25,1.14.45,1.33,1a2,2,0,0,1-.12,1.19,6.28,6.28,0,0,0-.21,2.28.83.83,0,0,0,1,.91c3.08.14,4.56-1,6.44,1.73a2.22,2.22,0,0,0,.65.68,1.87,1.87,0,0,0,.85.21c2.11.18,3.5-1.15,5.43-1.39a4.64,4.64,0,0,1,2,.13,3.36,3.36,0,0,0,1.68,3.47c.41.19.9.35,1.05.77a1.54,1.54,0,0,1-.1.94,5.18,5.18,0,0,0-.16,1.8.8.8,0,0,0,.22.56.89.89,0,0,0,.53.15c2.43.11,3.6-.75,5.08,1.36a1.75,1.75,0,0,0,.51.54,1.5,1.5,0,0,0,.66.17c1.67.13,2.76-.91,4.29-1.1,2.11-.27,2.56.82,4.42,1.69,2.93,1.38,4.35.53,4.9-1.46a8.63,8.63,0,0,0,.26-1.74c.22-3.59,3.65-3,6.57-3.51,2.28-.38-3.76-6.14.84-8a4,4,0,0,0,2.21-1.54,2.6,2.6,0,0,0-1-3.19,6.17,6.17,0,0,0-3.49-.88,1.55,1.55,0,0,1-.33-1.13l.1.13a2.19,2.19,0,0,0,.64.68,1.91,1.91,0,0,0,.85.21c2.12.18,3.5-1.15,5.44-1.39,2.68-.34,3.25,1,5.61,2.15a5.91,5.91,0,0,0,4.07.73,3.77,3.77,0,0,0,1.77,1.86c.51.25,1.14.45,1.33,1a2,2,0,0,1-.12,1.19,6.06,6.06,0,0,0-.2,2.28,1,1,0,0,0,.27.72,1.06,1.06,0,0,0,.68.19c3.08.14,4.57-1,6.45,1.73a2.19,2.19,0,0,0,.64.68,1.87,1.87,0,0,0,.85.21c2.12.18,3.5-1.15,5.43-1.39,2.69-.34,3.26,1,5.62,2.15,3.73,1.75,5.53.67,6.23-1.86a10.84,10.84,0,0,0,.33-2.2c.21-3.54,2.88-3.9,5.8-4.17a4.11,4.11,0,0,0,2.17,3.32c.51.24,1.14.44,1.33,1a2,2,0,0,1-.12,1.19,6.31,6.31,0,0,0-.21,2.29,1.05,1.05,0,0,0,.28.71,1.06,1.06,0,0,0,.68.19c3.08.14,4.56-.95,6.44,1.73a2.11,2.11,0,0,0,.65.68,2,2,0,0,0,.85.22c2.11.17,3.5-1.15,5.43-1.4,2.69-.34,3.26,1,5.62,2.16,3.72,1.75,5.53.67,6.23-1.87a11.34,11.34,0,0,0,.33-2.2c.27-4.56,4.63-3.84,8.33-4.46,2.9-.48-4.77-7.8,1.07-10.16a5.18,5.18,0,0,0,2.82-2,3.33,3.33,0,0,0-1.27-4.05,7.91,7.91,0,0,0-4.44-1.11c-.95-1.16-.17-2.9.75-4.09s2.05-2.52,1.7-4c-.53-2.2-3.61-2.28-5.83-1.85-.82-1.33-.8-3-1.2-4.51s-1.6-3.1-3.16-2.91-2.35,1.83-3.78,2.17l-.34,0c-1-2.39-2.1-5.38,1.26-6.73a5.13,5.13,0,0,0,2.81-2,3.3,3.3,0,0,0-1.27-4.05,7.85,7.85,0,0,0-4.43-1.11c-.95-1.16-.18-2.9.74-4.08s2.05-2.53,1.71-4c-.53-2.2-3.61-2.28-5.83-1.85-.82-1.33-.81-3-1.21-4.51s-1.6-3.09-3.15-2.9-2.35,1.82-3.79,2.16c-1.66.39-3.1-1.08-4.41-2.18a5.08,5.08,0,0,0-.74-.51,3.32,3.32,0,0,0,.69-2.62c-.52-2.21-3.6-2.29-5.82-1.86-.82-1.33-.81-3-1.21-4.5s-1.6-3.1-3.15-2.91-2.36,1.83-3.79,2.16c-1.66.4-3.11-1.08-4.41-2.18s-3.59-1.79-4.49-.34c-.54.87-.22,2.09-.78,2.94-1,1.49-3.27.57-4.7-.49s-3.7-2-4.7-.54a6.15,6.15,0,0,0-.56,1.52,5.93,5.93,0,0,1-2.4,2.76l-.16,0c-.82-1.33-.8-3-1.2-4.5s-1.6-3.1-3.15-2.91-2.36,1.83-3.79,2.16c-1.67.4-3.11-1.08-4.41-2.18s-3.59-1.8-4.49-.34c-.54.87-.22,2.08-.78,2.94-1,1.49-3.27.57-4.7-.49s-3.7-2-4.71-.54a6.4,6.4,0,0,0-.55,1.52c-.68,2-2.78,2.92-4.43,4.17s-2.94,3.74-1.55,5.27c.69.75,1.89,1.06,2.23,2,.43,1.19-.8,2.27-1.77,3.09-1.61,1.37-1.9,5.48.23,6.6.4.21.87.36,1.29.54-1.66.38-3.09-1.09-4.39-2.19s-3.59-1.79-4.49-.34c-.54.87-.22,2.09-.78,3-1,1.48-3.27.56-4.7-.49s-3.7-2-4.71-.55a6.47,6.47,0,0,0-.55,1.53c-.68,2-2.78,2.92-4.42,4.17s-3,3.74-1.56,5.26c.69.75,1.89,1.06,2.23,2,.43,1.2-.8,2.27-1.77,3.1a3.8,3.8,0,0,0-1.09,1.94,7.52,7.52,0,0,1-1.67-.94c-1.43-1-3.7-2-4.71-.54a6.13,6.13,0,0,0-.55,1.52c-.68,1.95-2.79,2.93-4.43,4.18s-2.94,3.73-1.55,5.26c.69.75,1.89,1.06,2.23,2,.43,1.19-.8,2.27-1.77,3.09C299.23,153,298.94,157.14,301.07,158.27Zm101.21,4.61a1.3,1.3,0,0,1,.65.82,1.26,1.26,0,0,1-.12.81A12.88,12.88,0,0,1,402.28,162.88Z" transform="translate(0 -54.95)" style="fill:#fff;isolation:isolate;opacity:0.30000000000000004"></path><path d="M323.92,409.73c0-6.1,7.22-4.87,7.22-4.87s-5-1.23-3.89-4.52,8.05-.81,8.05-.81-5.27-5.61-1.67-7.95,7.77,4.28,7.77,4.28-.55-6,1.94-6.49,1.94,6.41,1.94,6.41c2-3.4,8.88-4.2,8.88-4.2-4.16-7.61,5.79-10,5.79-10s-6.34-3.19-3.52-5.9,10.49,0,10.49,0-5.54-11.16,0-11.15,6.94,9.43,6.94,9.43-.28-4.44,3.79-4.69c3.59-.21,3.29,5,3.17,6.16a9.72,9.72,0,0,1,1.43.05q.53,0,1.05-.06c-.08-1.21-.3-6.36,2.35-6.15,3,.25,2.79,4.69,2.79,4.69s1-9.43,5.12-9.43,0,11.15,0,11.15,5.66-2.72,7.74,0-2.6,5.9-2.6,5.9,7.34,2.4,4.27,10c0,0,5.12.8,6.55,4.2,0,0-.41-6.87,1.43-6.41s1.44,6.49,1.44,6.49,3.07-6.62,5.73-4.28-1.23,7.95-1.23,7.95,5.11-2.48,5.93.81-2.86,4.52-2.86,4.52,5.32-1.23,5.32,4.87c0,0,10.23-1,12.69,4.51H306.72C310.05,408.76,323.92,409.73,323.92,409.73Z" transform="translate(0 -54.95)" style="fill:#263238"></path><path d="M323.92,409.73c0-6.1,7.22-4.87,7.22-4.87s-5-1.23-3.89-4.52,8.05-.81,8.05-.81-5.27-5.61-1.67-7.95,7.77,4.28,7.77,4.28-.55-6,1.94-6.49,1.94,6.41,1.94,6.41c2-3.4,8.88-4.2,8.88-4.2-4.16-7.61,5.79-10,5.79-10s-6.34-3.19-3.52-5.9,10.49,0,10.49,0-5.54-11.16,0-11.15,6.94,9.43,6.94,9.43-.28-4.44,3.79-4.69c3.59-.21,3.29,5,3.17,6.16a9.72,9.72,0,0,1,1.43.05q.53,0,1.05-.06c-.08-1.21-.3-6.36,2.35-6.15,3,.25,2.79,4.69,2.79,4.69s1-9.43,5.12-9.43,0,11.15,0,11.15,5.66-2.72,7.74,0-2.6,5.9-2.6,5.9,7.34,2.4,4.27,10c0,0,5.12.8,6.55,4.2,0,0-.41-6.87,1.43-6.41s1.44,6.49,1.44,6.49,3.07-6.62,5.73-4.28-1.23,7.95-1.23,7.95,5.11-2.48,5.93.81-2.86,4.52-2.86,4.52,5.32-1.23,5.32,4.87c0,0,10.23-1,12.69,4.51H306.72C310.05,408.76,323.92,409.73,323.92,409.73Z" transform="translate(0 -54.95)" style="fill:#fff;isolation:isolate;opacity:0.30000000000000004"></path><path d="M410.71,362.37s-5.14-5.87-11-1.74-11.66,34.54-11.66,34.54" transform="translate(0 -54.95)" style="fill:none;stroke:#263238;stroke-miterlimit:10"></path><path d="M390.2,397.68s2.07-20.9,8.91-27.41,11.14,5,11.14,5" transform="translate(0 -54.95)" style="fill:none;stroke:#263238;stroke-miterlimit:10"></path><path d="M394.61,364.26s-3.86-.78-4.61,2.54,6.43,13.94,6.43,13.94,6.52-1.26,6.51-9.82S395.9,362.35,394.61,364.26Z" transform="translate(0 -54.95)" style="fill:#263238"></path><path d="M394.61,364.26s-3.86-.78-4.61,2.54,6.43,13.94,6.43,13.94,6.52-1.26,6.51-9.82S395.9,362.35,394.61,364.26Z" transform="translate(0 -54.95)" style="fill:#fff;isolation:isolate;opacity:0.4"></path><path d="M404.59,370.72s-1.56-1.72.48-2.12,11.48,1.29,10.09,10.68c0,0-11.31.1-12.11-3.69S404.59,370.72,404.59,370.72Z" transform="translate(0 -54.95)" style="fill:#263238"></path><path d="M404.59,370.72s-1.56-1.72.48-2.12,11.48,1.29,10.09,10.68c0,0-11.31.1-12.11-3.69S404.59,370.72,404.59,370.72Z" transform="translate(0 -54.95)" style="fill:#fff;isolation:isolate;opacity:0.4"></path><path d="M390.06,354.61s.43-1.73-1.09-1.26-7.31,5-3,10.87c0,0,7.7-4,6.87-6.87S390.06,354.61,390.06,354.61Z" transform="translate(0 -54.95)" style="fill:#263238"></path><path d="M390.06,354.61s.43-1.73-1.09-1.26-7.31,5-3,10.87c0,0,7.7-4,6.87-6.87S390.06,354.61,390.06,354.61Z" transform="translate(0 -54.95)" style="fill:#fff;isolation:isolate;opacity:0.4"></path><path d="M378.88,407s-9.71-35.16-27.59-44.64" transform="translate(0 -54.95)" style="fill:none;stroke:#263238;stroke-miterlimit:10"></path><path d="M378.69,403s-17.34-37.61-11.32-49.75" transform="translate(0 -54.95)" style="fill:none;stroke:#263238;stroke-miterlimit:10"></path><path d="M379.38,405.75s-14.1-47.11-22.81-52.66" transform="translate(0 -54.95)" style="fill:none;stroke:#263238;stroke-miterlimit:10"></path><path d="M364.67,354.91s-2.55.68-2.92-.89,7.47-9,15.35-4.89c0,0-1.2,7.4-6.26,9.44S364.67,354.91,364.67,354.91Z" transform="translate(0 -54.95)" style="fill:#263238"></path><path d="M364.67,354.91s-2.55.68-2.92-.89,7.47-9,15.35-4.89c0,0-1.2,7.4-6.26,9.44S364.67,354.91,364.67,354.91Z" transform="translate(0 -54.95)" style="fill:#fff;isolation:isolate;opacity:0.4"></path><path d="M358.72,353s2.63.22,2.72-1.39-8.93-7.54-16-2.13c0,0,2.47,7.08,7.81,8.2S358.72,353,358.72,353Z" transform="translate(0 -54.95)" style="fill:#263238"></path><path d="M358.72,353s2.63.22,2.72-1.39-8.93-7.54-16-2.13c0,0,2.47,7.08,7.81,8.2S358.72,353,358.72,353Z" transform="translate(0 -54.95)" style="fill:#fff;isolation:isolate;opacity:0.4"></path><path d="M350.36,360.15s1.17-2-.91-2-11,3.65-7.65,12.55c0,0,11.09-2.26,11.08-6.13S350.36,360.15,350.36,360.15Z" transform="translate(0 -54.95)" style="fill:#263238"></path><path d="M350.36,360.15s1.17-2-.91-2-11,3.65-7.65,12.55c0,0,11.09-2.26,11.08-6.13S350.36,360.15,350.36,360.15Z" transform="translate(0 -54.95)" style="fill:#fff;isolation:isolate;opacity:0.4"></path><path d="M358.61,365.17s-.49-1.71-1.57-.55-3.83,8,2.84,10.91c0,0,4.66-7.32,2.52-9.38S358.61,365.17,358.61,365.17Z" transform="translate(0 -54.95)" style="fill:#263238"></path><path d="M358.61,365.17s-.49-1.71-1.57-.55-3.83,8,2.84,10.91c0,0,4.66-7.32,2.52-9.38S358.61,365.17,358.61,365.17Z" transform="translate(0 -54.95)" style="fill:#fff;isolation:isolate;opacity:0.4"></path><path d="M407.92,360s-.85-1.57.74-1.49,8.32,3.05,5.58,9.8c0,0-8.45-2-8.35-5S407.92,360,407.92,360Z" transform="translate(0 -54.95)" style="fill:#263238"></path><path d="M407.92,360s-.85-1.57.74-1.49,8.32,3.05,5.58,9.8c0,0-8.45-2-8.35-5S407.92,360,407.92,360Z" transform="translate(0 -54.95)" style="fill:#fff;isolation:isolate;opacity:0.4"></path><path d="M400.5,412.34s-17.23-11.17-14-13,14.76,9.26,14.76,9.26-12.7-18.58-9.56-22.3,11.59,15.14,11.59,15.14-5.75-21.57-1.69-23.94,5.53,21.62,5.53,21.62,1.59-26,9-25.66-3.39,25.66-3.39,25.66,10.48-15,14.2-10.77-11.83,16.26-11.83,16.26,11.63-5.47,12.4-1.41-12.83,8.37-12.83,8.37,4.38,1.25,5.39,2.72H396.85S396.48,413.12,400.5,412.34Z" transform="translate(0 -54.95)" style="fill:#263238"></path><path d="M400.5,412.34s-17.23-11.17-14-13,14.76,9.26,14.76,9.26-12.7-18.58-9.56-22.3,11.59,15.14,11.59,15.14-5.75-21.57-1.69-23.94,5.53,21.62,5.53,21.62,1.59-26,9-25.66-3.39,25.66-3.39,25.66,10.48-15,14.2-10.77-11.83,16.26-11.83,16.26,11.63-5.47,12.4-1.41-12.83,8.37-12.83,8.37,4.38,1.25,5.39,2.72H396.85S396.48,413.12,400.5,412.34Z" transform="translate(0 -54.95)" style="fill:#fff;isolation:isolate;opacity:0.6000000000000001"></path><path d="M381,412.34s17.24-11.17,14-13-14.77,9.26-14.77,9.26,12.7-18.58,9.57-22.3-11.6,15.14-11.6,15.14,5.75-21.57,1.7-23.94-5.53,21.62-5.53,21.62-1.59-26-9-25.66,3.39,25.66,3.39,25.66-10.48-15-14.2-10.77,11.83,16.26,11.83,16.26-11.63-5.47-12.41-1.41,12.83,8.37,12.83,8.37-4.37,1.25-5.38,2.72h23.27S385,413.12,381,412.34Z" transform="translate(0 -54.95)" style="fill:#263238"></path><path d="M381,412.34s17.24-11.17,14-13-14.77,9.26-14.77,9.26,12.7-18.58,9.57-22.3-11.6,15.14-11.6,15.14,5.75-21.57,1.7-23.94-5.53,21.62-5.53,21.62-1.59-26-9-25.66,3.39,25.66,3.39,25.66-10.48-15-14.2-10.77,11.83,16.26,11.83,16.26-11.63-5.47-12.41-1.41,12.83,8.37,12.83,8.37-4.37,1.25-5.38,2.72h23.27S385,413.12,381,412.34Z" transform="translate(0 -54.95)" style="fill:#fff;isolation:isolate;opacity:0.6000000000000001"></path><path d="M370.25,414.24h31.31s-6.24-9.54-8.9-8.33c-3.45,1.57-6-7.07-9.85-5-1.35.72-.69,3-1.54,4-1.4,1.54-3.18,1.24-4.88,2.09C373.07,408.59,371.88,410.78,370.25,414.24Z" transform="translate(0 -54.95)" style="fill:#263238"></path><path d="M370.25,414.24h31.31s-6.24-9.54-8.9-8.33c-3.45,1.57-6-7.07-9.85-5-1.35.72-.69,3-1.54,4-1.4,1.54-3.18,1.24-4.88,2.09C373.07,408.59,371.88,410.78,370.25,414.24Z" transform="translate(0 -54.95)" style="fill:#fff;isolation:isolate;opacity:0.2"></path><path d="M398.13,411.58s-2.05-11.93-.63-13.68,1.67,6.51,1.67,6.51,4.76-17.23,7.82-17.32-3.63,15-3.63,15,13.05-21.32,16.84-19.34-13.65,20.89-13.65,20.89,9.54-8.21,11.64-5.9-10.59,9.41-10.59,9.41,5.59-1.26,5.59.61S403.74,412.64,398.13,411.58Z" transform="translate(0 -54.95)" style="fill:#263238"></path><path d="M398.13,411.58s-2.05-11.93-.63-13.68,1.67,6.51,1.67,6.51,4.76-17.23,7.82-17.32-3.63,15-3.63,15,13.05-21.32,16.84-19.34-13.65,20.89-13.65,20.89,9.54-8.21,11.64-5.9-10.59,9.41-10.59,9.41,5.59-1.26,5.59.61S403.74,412.64,398.13,411.58Z" transform="translate(0 -54.95)" style="fill:#fff;isolation:isolate;opacity:0.4"></path><path d="M388.52,412.14s-7.46-6.6-7.45-8.46,4.42,3.32,4.42,3.32-5.81-13.52-3.89-15.15S387,403.32,387,403.32s-2.6-20.41.86-21.09,2,20.44,2,20.44,1.9-10.18,4.45-9.78-2,11.5-2,11.5,2.94-3.69,3.9-2.49S392.67,409.93,388.52,412.14Z" transform="translate(0 -54.95)" style="fill:#263238"></path><path d="M388.52,412.14s-7.46-6.6-7.45-8.46,4.42,3.32,4.42,3.32-5.81-13.52-3.89-15.15S387,403.32,387,403.32s-2.6-20.41.86-21.09,2,20.44,2,20.44,1.9-10.18,4.45-9.78-2,11.5-2,11.5,2.94-3.69,3.9-2.49S392.67,409.93,388.52,412.14Z" transform="translate(0 -54.95)" style="fill:#fff;isolation:isolate;opacity:0.4"></path><path d="M384,414.24H409s-5-7.6-7.08-6.64c-2.76,1.26-4.8-5.63-7.85-4-1.08.58-.55,2.42-1.23,3.16-1.12,1.22-2.54,1-3.89,1.66C386.29,409.74,385.35,411.49,384,414.24Z" transform="translate(0 -54.95)" style="fill:#263238"></path><path d="M384,414.24H409s-5-7.6-7.08-6.64c-2.76,1.26-4.8-5.63-7.85-4-1.08.58-.55,2.42-1.23,3.16-1.12,1.22-2.54,1-3.89,1.66C386.29,409.74,385.35,411.49,384,414.24Z" transform="translate(0 -54.95)" style="fill:#fff;isolation:isolate;opacity:0.1"></path></g><g id="freepik--tree-1--inject-59"><path d="M47.41,220.69a5.31,5.31,0,0,0,2.89,2c6,2.42-1.88,9.93,1.09,10.42,3.8.64,8.27-.11,8.55,4.58a11.21,11.21,0,0,0,.34,2.25c.72,2.6,2.57,3.71,6.38,1.91,2.43-1.14,3-2.56,5.77-2.21,2,.26,3.4,1.61,5.57,1.43a2,2,0,0,0,.87-.21,2.32,2.32,0,0,0,.66-.7c1.93-2.75,3.45-1.63,6.61-1.77a1.2,1.2,0,0,0,.7-.2,1.08,1.08,0,0,0,.28-.74,6.61,6.61,0,0,0-.21-2.34,2.16,2.16,0,0,1-.13-1.22c.2-.55.84-.76,1.37-1a4.18,4.18,0,0,0,2.2-3.41c3,.28,5.75.64,6,4.28a11.21,11.21,0,0,0,.34,2.26c.72,2.6,2.57,3.71,6.38,1.91,2.43-1.14,3-2.56,5.77-2.21,2,.26,3.4,1.61,5.57,1.43l.24,0a.75.75,0,0,0,.62.43c3.81.63,8.27-.11,8.55,4.57a11.21,11.21,0,0,0,.34,2.26c.72,2.6,2.57,3.7,6.39,1.91,2.42-1.14,3-2.56,5.76-2.21,2,.25,3.4,1.61,5.57,1.43a2.15,2.15,0,0,0,.87-.22,2.11,2.11,0,0,0,.66-.7c1.93-2.75,3.45-1.63,6.61-1.77a1.12,1.12,0,0,0,.7-.19,1.08,1.08,0,0,0,.28-.74,6.16,6.16,0,0,0-.21-2.34,2.1,2.1,0,0,1-.12-1.23c.19-.55.84-.75,1.36-1a4.35,4.35,0,0,0,1.33-6.48c-.61-.69-1.53-1.4-1.33-2.3s1.58-1.17,2.49-1.65c2.19-1.15,1.89-5.36.24-6.77-1-.82-2.16-1.88-1.84-3.06a7.59,7.59,0,0,0,3.26-.87c2.19-1,2.89-2.27,5-2.25l1.13.12c1.78.36,3.15,1.52,5.18,1.35h.06a3.92,3.92,0,0,1,1.33,3,11.21,11.21,0,0,0,.34,2.25c.72,2.6,2.57,3.71,6.38,1.91,2.43-1.14,3-2.56,5.77-2.21,2,.26,3.4,1.61,5.57,1.43a2,2,0,0,0,.87-.21,2.32,2.32,0,0,0,.66-.7c1.93-2.75,3.45-1.63,6.61-1.77a1.08,1.08,0,0,0,.69-.2,1.06,1.06,0,0,0,.29-.73,6.64,6.64,0,0,0-.21-2.35,2.16,2.16,0,0,1-.13-1.22c.2-.55.84-.76,1.37-1a4.34,4.34,0,0,0,1.33-6.47c-.61-.7-1.53-1.4-1.33-2.31s1.57-1.16,2.49-1.64c2.19-1.16,1.89-5.37.23-6.77-1-.85-2.25-2-1.81-3.18.35-1,1.59-1.3,2.29-2.07,1.42-1.56.09-4.11-1.59-5.4s-3.85-2.27-4.54-4.27a6,6,0,0,0-.57-1.57c-1-1.5-3.36-.52-4.83.56s-3.82,2-4.81.5c-.58-.88-.25-2.12-.8-3s-1.91-1-3.09-.53c.4-.9,1.56-1.22,2.23-2,1.42-1.57.09-4.12-1.59-5.4s-3.85-2.28-4.54-4.28a6.07,6.07,0,0,0-.57-1.56c-1-1.5-3.36-.52-4.83.56s-3.82,2-4.81.5c-.58-.88-.25-2.13-.8-3-.92-1.49-3.26-.78-4.6.35s-2.82,2.64-4.53,2.24a4.69,4.69,0,0,1-1.73-1,5.22,5.22,0,0,0-1-5.35c-1-.85-2.25-2-1.82-3.18.35-1,1.59-1.29,2.29-2.07,1.42-1.56.09-4.11-1.59-5.39s-3.85-2.28-4.54-4.28a6,6,0,0,0-.57-1.57c-1-1.5-3.36-.52-4.83.56s-3.82,2-4.81.51c-.58-.88-.25-2.13-.8-3-.92-1.49-3.26-.79-4.6.35s-2.82,2.64-4.53,2.24c-1.47-.35-2.38-2-3.88-2.23s-2.83,1.44-3.24,3-.39,3.25-1.23,4.62c-2.28-.44-5.44-.36-6,1.9-.36,1.49.8,2.87,1.75,4.09s1.74,3,.76,4.18c-.5,0-1,0-1.51.1a1.5,1.5,0,0,1-.48-.49c-.58-.88-.25-2.12-.8-3-.92-1.5-3.26-.79-4.6.34s-2.82,2.65-4.53,2.24c-1.47-.34-2.38-2-3.88-2.22s-2.83,1.44-3.24,3c-.27,1.05-.36,2.18-.65,3.22a4.18,4.18,0,0,1-.59-1.08,6.07,6.07,0,0,0-.57-1.56c-1-1.5-3.36-.52-4.82.56s-3.83,2-4.82.5c-.58-.88-.25-2.12-.8-3-.92-1.49-3.26-.78-4.6.35s-2.82,2.64-4.53,2.24c-1.47-.35-2.38-2-3.88-2.22s-2.83,1.43-3.24,3-.39,3.26-1.23,4.62c-2.28-.44-5.43-.35-6,1.9-.35,1.5.8,2.88,1.75,4.09s1.74,3,.76,4.19a8,8,0,0,0-4.54,1.14,3.4,3.4,0,0,0-1.31,4.15,5.31,5.31,0,0,0,2.89,2c6,2.42-1.87,9.93,1.1,10.42,3.8.64,8.26-.11,8.54,4.58h0a5,5,0,0,0-.52.39c-1.34,1.13-2.82,2.64-4.53,2.24-1.47-.35-2.39-2-3.88-2.22s-2.83,1.43-3.24,3-.39,3.26-1.23,4.62c-2.28-.44-5.44-.35-6,1.9-.36,1.5.8,2.88,1.75,4.09s1.74,3,.76,4.19a8,8,0,0,0-4.55,1.14A3.4,3.4,0,0,0,47.41,220.69Zm40.86,4.24a1.29,1.29,0,0,1-.12-.82,1.35,1.35,0,0,1,.66-.85A12.5,12.5,0,0,1,88.27,224.93Zm44.56-42.35a6,6,0,0,1-3.1,1.74A17.62,17.62,0,0,1,132.83,182.58ZM97.58,193.69a2.07,2.07,0,0,0-.66,0,1.07,1.07,0,0,1,.06-.31,1.38,1.38,0,0,1,.77-.73,3.49,3.49,0,0,1,.66,1.29A2.21,2.21,0,0,0,97.58,193.69Zm-4.47,7.6c-2.28-.44-5.44-.36-6,1.9h0a5.38,5.38,0,0,1-1.91-2.42c-.1-.29-.17-.59-.26-.88a6.82,6.82,0,0,0,3.23.7,2.07,2.07,0,0,0,.88-.21,2.42,2.42,0,0,0,.65-.7c1.41-2,2.61-2,4.38-1.83A9.5,9.5,0,0,1,93.11,201.29Zm-15.23-.47a13.4,13.4,0,0,1,2.61-1.49c-.24.14-.46.29-.67.44A8,8,0,0,1,77.88,200.82Z" transform="translate(0 -54.95)" style="fill:#263238"></path><path d="M160.3,263.33a6.24,6.24,0,0,1,3.58-.9c.77-.94.14-2.34-.6-3.3s-1.66-2-1.37-3.22c.42-1.78,2.91-1.84,4.7-1.49.67-1.08.65-2.42,1-3.64s1.3-2.5,2.55-2.35,1.9,1.48,3.06,1.75c1.34.32,2.51-.87,3.56-1.76s2.9-1.45,3.63-.28c.43.7.17,1.69.62,2.38.79,1.2,2.64.45,3.8-.4s3-1.62,3.8-.44a5.17,5.17,0,0,1,.45,1.23c.54,1.58,2.24,2.36,3.57,3.37s2.38,3,1.25,4.25c-.55.61-1.52.86-1.8,1.63-.34,1,.65,1.84,1.43,2.5,1.3,1.11,1.54,4.43-.18,5.33-.73.38-1.79.5-2,1.3s.56,1.27,1,1.82a3.42,3.42,0,0,1-1.05,5.09c-.41.2-.92.36-1.07.8a1.61,1.61,0,0,0,.1,1,5,5,0,0,1,.16,1.84.83.83,0,0,1-.22.58.87.87,0,0,1-.55.16c-2.48.11-3.68-.77-5.2,1.39a1.82,1.82,0,0,1-.52.55,1.63,1.63,0,0,1-.69.17c-1.71.14-2.82-.92-4.39-1.12-2.16-.28-2.62.84-4.53,1.74-3,1.41-4.47.54-5-1.51a9,9,0,0,1-.27-1.77c-.22-3.69-3.74-3.11-6.73-3.61-2.34-.39,3.85-6.29-.86-8.2a4.1,4.1,0,0,1-2.28-1.59A2.67,2.67,0,0,1,160.3,263.33Z" transform="translate(0 -54.95)" style="fill:#263238"></path><g style="isolation:isolate;opacity:0.30000000000000004"><path d="M47.41,220.69a5.31,5.31,0,0,0,2.89,2c6,2.42-1.88,9.93,1.09,10.42,3.8.64,8.27-.11,8.55,4.58a11.21,11.21,0,0,0,.34,2.25c.72,2.6,2.57,3.71,6.38,1.91,2.43-1.14,3-2.56,5.77-2.21,2,.26,3.4,1.61,5.57,1.43a2,2,0,0,0,.87-.21,2.32,2.32,0,0,0,.66-.7c1.93-2.75,3.45-1.63,6.61-1.77a1.2,1.2,0,0,0,.7-.2,1.08,1.08,0,0,0,.28-.74,6.61,6.61,0,0,0-.21-2.34,2.16,2.16,0,0,1-.13-1.22c.2-.55.84-.76,1.37-1a4.18,4.18,0,0,0,2.2-3.41c3,.28,5.75.64,6,4.28a11.21,11.21,0,0,0,.34,2.26c.72,2.6,2.57,3.71,6.38,1.91,2.43-1.14,3-2.56,5.77-2.21,2,.26,3.4,1.61,5.57,1.43l.24,0a.75.75,0,0,0,.62.43c3.81.63,8.27-.11,8.55,4.57a11.21,11.21,0,0,0,.34,2.26c.72,2.6,2.57,3.7,6.39,1.91,2.42-1.14,3-2.56,5.76-2.21,2,.25,3.4,1.61,5.57,1.43a2.15,2.15,0,0,0,.87-.22,2.11,2.11,0,0,0,.66-.7c1.93-2.75,3.45-1.63,6.61-1.77a1.12,1.12,0,0,0,.7-.19,1.08,1.08,0,0,0,.28-.74,6.16,6.16,0,0,0-.21-2.34,2.1,2.1,0,0,1-.12-1.23c.19-.55.84-.75,1.36-1a4.35,4.35,0,0,0,1.33-6.48c-.61-.69-1.53-1.4-1.33-2.3s1.58-1.17,2.49-1.65c2.19-1.15,1.89-5.36.24-6.77-1-.82-2.16-1.88-1.84-3.06a7.59,7.59,0,0,0,3.26-.87c2.19-1,2.89-2.27,5-2.25l1.13.12c1.78.36,3.15,1.52,5.18,1.35h.06a3.92,3.92,0,0,1,1.33,3,11.21,11.21,0,0,0,.34,2.25c.72,2.6,2.57,3.71,6.38,1.91,2.43-1.14,3-2.56,5.77-2.21,2,.26,3.4,1.61,5.57,1.43a2,2,0,0,0,.87-.21,2.32,2.32,0,0,0,.66-.7c1.93-2.75,3.45-1.63,6.61-1.77a1.08,1.08,0,0,0,.69-.2,1.06,1.06,0,0,0,.29-.73,6.64,6.64,0,0,0-.21-2.35,2.16,2.16,0,0,1-.13-1.22c.2-.55.84-.76,1.37-1a4.34,4.34,0,0,0,1.33-6.47c-.61-.7-1.53-1.4-1.33-2.31s1.57-1.16,2.49-1.64c2.19-1.16,1.89-5.37.23-6.77-1-.85-2.25-2-1.81-3.18.35-1,1.59-1.3,2.29-2.07,1.42-1.56.09-4.11-1.59-5.4s-3.85-2.27-4.54-4.27a6,6,0,0,0-.57-1.57c-1-1.5-3.36-.52-4.83.56s-3.82,2-4.81.5c-.58-.88-.25-2.12-.8-3s-1.91-1-3.09-.53c.4-.9,1.56-1.22,2.23-2,1.42-1.57.09-4.12-1.59-5.4s-3.85-2.28-4.54-4.28a6.07,6.07,0,0,0-.57-1.56c-1-1.5-3.36-.52-4.83.56s-3.82,2-4.81.5c-.58-.88-.25-2.13-.8-3-.92-1.49-3.26-.78-4.6.35s-2.82,2.64-4.53,2.24a4.69,4.69,0,0,1-1.73-1,5.22,5.22,0,0,0-1-5.35c-1-.85-2.25-2-1.82-3.18.35-1,1.59-1.29,2.29-2.07,1.42-1.56.09-4.11-1.59-5.39s-3.85-2.28-4.54-4.28a6,6,0,0,0-.57-1.57c-1-1.5-3.36-.52-4.83.56s-3.82,2-4.81.51c-.58-.88-.25-2.13-.8-3-.92-1.49-3.26-.79-4.6.35s-2.82,2.64-4.53,2.24c-1.47-.35-2.38-2-3.88-2.23s-2.83,1.44-3.24,3-.39,3.25-1.23,4.62c-2.28-.44-5.44-.36-6,1.9-.36,1.49.8,2.87,1.75,4.09s1.74,3,.76,4.18c-.5,0-1,0-1.51.1a1.5,1.5,0,0,1-.48-.49c-.58-.88-.25-2.12-.8-3-.92-1.5-3.26-.79-4.6.34s-2.82,2.65-4.53,2.24c-1.47-.34-2.38-2-3.88-2.22s-2.83,1.44-3.24,3c-.27,1.05-.36,2.18-.65,3.22a4.18,4.18,0,0,1-.59-1.08,6.07,6.07,0,0,0-.57-1.56c-1-1.5-3.36-.52-4.82.56s-3.83,2-4.82.5c-.58-.88-.25-2.12-.8-3-.92-1.49-3.26-.78-4.6.35s-2.82,2.64-4.53,2.24c-1.47-.35-2.38-2-3.88-2.22s-2.83,1.43-3.24,3-.39,3.26-1.23,4.62c-2.28-.44-5.43-.35-6,1.9-.35,1.5.8,2.88,1.75,4.09s1.74,3,.76,4.19a8,8,0,0,0-4.54,1.14,3.4,3.4,0,0,0-1.31,4.15,5.31,5.31,0,0,0,2.89,2c6,2.42-1.87,9.93,1.1,10.42,3.8.64,8.26-.11,8.54,4.58h0a5,5,0,0,0-.52.39c-1.34,1.13-2.82,2.64-4.53,2.24-1.47-.35-2.39-2-3.88-2.22s-2.83,1.43-3.24,3-.39,3.26-1.23,4.62c-2.28-.44-5.44-.35-6,1.9-.36,1.5.8,2.88,1.75,4.09s1.74,3,.76,4.19a8,8,0,0,0-4.55,1.14A3.4,3.4,0,0,0,47.41,220.69Zm40.86,4.24a1.29,1.29,0,0,1-.12-.82,1.35,1.35,0,0,1,.66-.85A12.5,12.5,0,0,1,88.27,224.93Zm44.56-42.35a6,6,0,0,1-3.1,1.74A17.62,17.62,0,0,1,132.83,182.58ZM97.58,193.69a2.07,2.07,0,0,0-.66,0,1.07,1.07,0,0,1,.06-.31,1.38,1.38,0,0,1,.77-.73,3.49,3.49,0,0,1,.66,1.29A2.21,2.21,0,0,0,97.58,193.69Zm-4.47,7.6c-2.28-.44-5.44-.36-6,1.9h0a5.38,5.38,0,0,1-1.91-2.42c-.1-.29-.17-.59-.26-.88a6.82,6.82,0,0,0,3.23.7,2.07,2.07,0,0,0,.88-.21,2.42,2.42,0,0,0,.65-.7c1.41-2,2.61-2,4.38-1.83A9.5,9.5,0,0,1,93.11,201.29Zm-15.23-.47a13.4,13.4,0,0,1,2.61-1.49c-.24.14-.46.29-.67.44A8,8,0,0,1,77.88,200.82Z" transform="translate(0 -54.95)" style="fill:#fff"></path><path d="M160.3,263.33a6.24,6.24,0,0,1,3.58-.9c.77-.94.14-2.34-.6-3.3s-1.66-2-1.37-3.22c.42-1.78,2.91-1.84,4.7-1.49.67-1.08.65-2.42,1-3.64s1.3-2.5,2.55-2.35,1.9,1.48,3.06,1.75c1.34.32,2.51-.87,3.56-1.76s2.9-1.45,3.63-.28c.43.7.17,1.69.62,2.38.79,1.2,2.64.45,3.8-.4s3-1.62,3.8-.44a5.17,5.17,0,0,1,.45,1.23c.54,1.58,2.24,2.36,3.57,3.37s2.38,3,1.25,4.25c-.55.61-1.52.86-1.8,1.63-.34,1,.65,1.84,1.43,2.5,1.3,1.11,1.54,4.43-.18,5.33-.73.38-1.79.5-2,1.3s.56,1.27,1,1.82a3.42,3.42,0,0,1-1.05,5.09c-.41.2-.92.36-1.07.8a1.61,1.61,0,0,0,.1,1,5,5,0,0,1,.16,1.84.83.83,0,0,1-.22.58.87.87,0,0,1-.55.16c-2.48.11-3.68-.77-5.2,1.39a1.82,1.82,0,0,1-.52.55,1.63,1.63,0,0,1-.69.17c-1.71.14-2.82-.92-4.39-1.12-2.16-.28-2.62.84-4.53,1.74-3,1.41-4.47.54-5-1.51a9,9,0,0,1-.27-1.77c-.22-3.69-3.74-3.11-6.73-3.61-2.34-.39,3.85-6.29-.86-8.2a4.1,4.1,0,0,1-2.28-1.59A2.67,2.67,0,0,1,160.3,263.33Z" transform="translate(0 -54.95)" style="fill:#fff"></path></g><path d="M94.29,238l-4.9-15.54-9.54-12.27,1.63-1.36,9,9.81,1.6-15.54h3.58S90.92,220.91,94,227.67c0,0,12.81,29.11,19.62,35.27a5.91,5.91,0,0,1,1,1.21,71.22,71.22,0,0,1,7.91-14.83c-2.69-6.88-8.46-22-10.42-30.09a159.21,159.21,0,0,1-3.45-19.08l2.67-1.47s5.89,31.11,16.35,44.71a41.56,41.56,0,0,1,10.42-7c.85-4.2,1.21-11.51-1.57-22.92l2.06-1.91s4.37,11,4,22.59a38.13,38.13,0,0,0,4.54-2.69c10.08-7.09,17.17-19.9,17.17-19.9h3.82s-10.36,20.9-22.35,27.21-19.76,21.69-20.38,25.72c-.17,1.15-.44,13.31-.73,30.1,13.11-7.95,45.32-27.52,47-28.9v3.89l-47.16,34.83c-.64,39-1.33,93.7-1.44,102.48H104.53c-.2-12.12-1.12-82.91,4.74-121.6-.19-1.17-.39-2.51-.58-4.07-1.86-14.6-15.49-36.68-18.21-40.22s-10.63-14.72-10.63-14.72l1.63-2.45Z" transform="translate(0 -54.95)" style="fill:#263238"></path><path d="M94.29,238l-4.9-15.54-9.54-12.27,1.63-1.36,9,9.81,1.6-15.54h3.58S90.92,220.91,94,227.67c0,0,12.81,29.11,19.62,35.27a5.91,5.91,0,0,1,1,1.21,71.22,71.22,0,0,1,7.91-14.83c-2.69-6.88-8.46-22-10.42-30.09a159.21,159.21,0,0,1-3.45-19.08l2.67-1.47s5.89,31.11,16.35,44.71a41.56,41.56,0,0,1,10.42-7c.85-4.2,1.21-11.51-1.57-22.92l2.06-1.91s4.37,11,4,22.59a38.13,38.13,0,0,0,4.54-2.69c10.08-7.09,17.17-19.9,17.17-19.9h3.82s-10.36,20.9-22.35,27.21-19.76,21.69-20.38,25.72c-.17,1.15-.44,13.31-.73,30.1,13.11-7.95,45.32-27.52,47-28.9v3.89l-47.16,34.83c-.64,39-1.33,93.7-1.44,102.48H104.53c-.2-12.12-1.12-82.91,4.74-121.6-.19-1.17-.39-2.51-.58-4.07-1.86-14.6-15.49-36.68-18.21-40.22s-10.63-14.72-10.63-14.72l1.63-2.45Z" transform="translate(0 -54.95)" style="fill:#fff;isolation:isolate;opacity:0.6000000000000001"></path><path d="M106.23,414.24h31.31s-6.24-9.54-8.89-8.33c-3.46,1.57-6-7.07-9.85-5-1.35.72-.69,3-1.54,4-1.41,1.54-3.19,1.24-4.89,2.09C109.05,408.59,107.87,410.78,106.23,414.24Z" transform="translate(0 -54.95)" style="fill:#263238"></path><path d="M106.23,414.24h31.31s-6.24-9.54-8.89-8.33c-3.46,1.57-6-7.07-9.85-5-1.35.72-.69,3-1.54,4-1.41,1.54-3.19,1.24-4.89,2.09C109.05,408.59,107.87,410.78,106.23,414.24Z" transform="translate(0 -54.95)" style="fill:#fff;isolation:isolate;opacity:0.2"></path><path d="M134.12,411.58s-2.06-11.93-.64-13.68,1.67,6.51,1.67,6.51,4.77-17.23,7.82-17.32-3.62,15-3.62,15,13-21.32,16.83-19.34-13.65,20.89-13.65,20.89,9.54-8.21,11.64-5.9-10.59,9.41-10.59,9.41,5.6-1.26,5.59.61S139.72,412.64,134.12,411.58Z" transform="translate(0 -54.95)" style="fill:#263238"></path><path d="M134.12,411.58s-2.06-11.93-.64-13.68,1.67,6.51,1.67,6.51,4.77-17.23,7.82-17.32-3.62,15-3.62,15,13-21.32,16.83-19.34-13.65,20.89-13.65,20.89,9.54-8.21,11.64-5.9-10.59,9.41-10.59,9.41,5.6-1.26,5.59.61S139.72,412.64,134.12,411.58Z" transform="translate(0 -54.95)" style="fill:#fff;isolation:isolate;opacity:0.4"></path><path d="M124.51,412.14s-7.47-6.6-7.45-8.46,4.42,3.32,4.42,3.32-5.81-13.52-3.9-15.15S123,403.32,123,403.32s-2.6-20.41.86-21.09,2,20.44,2,20.44,1.91-10.18,4.45-9.78-2,11.5-2,11.5,2.95-3.69,3.9-2.49S128.65,409.93,124.51,412.14Z" transform="translate(0 -54.95)" style="fill:#263238"></path><path d="M124.51,412.14s-7.47-6.6-7.45-8.46,4.42,3.32,4.42,3.32-5.81-13.52-3.9-15.15S123,403.32,123,403.32s-2.6-20.41.86-21.09,2,20.44,2,20.44,1.91-10.18,4.45-9.78-2,11.5-2,11.5,2.95-3.69,3.9-2.49S128.65,409.93,124.51,412.14Z" transform="translate(0 -54.95)" style="fill:#fff;isolation:isolate;opacity:0.4"></path><path d="M120,414.24H145s-5-7.6-7.09-6.64c-2.76,1.26-4.8-5.63-7.85-4-1.08.58-.55,2.42-1.23,3.16-1.11,1.22-2.54,1-3.89,1.66C122.27,409.74,121.33,411.49,120,414.24Z" transform="translate(0 -54.95)" style="fill:#263238"></path><path d="M120,414.24H145s-5-7.6-7.09-6.64c-2.76,1.26-4.8-5.63-7.85-4-1.08.58-.55,2.42-1.23,3.16-1.11,1.22-2.54,1-3.89,1.66C122.27,409.74,121.33,411.49,120,414.24Z" transform="translate(0 -54.95)" style="fill:#fff;isolation:isolate;opacity:0.2"></path><path d="M117,412.34s17.23-11.17,14-13.06-14.77,9.27-14.77,9.27,12.7-18.58,9.56-22.31-11.59,15.15-11.59,15.15,5.75-21.58,1.69-23.94-5.53,21.62-5.53,21.62-1.58-26-9-25.67,3.38,25.67,3.38,25.67S94.2,384,90.48,388.3s11.84,16.25,11.84,16.25-11.63-5.46-12.41-1.41,12.83,8.37,12.83,8.37-4.37,1.26-5.38,2.72h23.27S121,413.12,117,412.34Z" transform="translate(0 -54.95)" style="fill:#263238"></path><path d="M117,412.34s17.23-11.17,14-13.06-14.77,9.27-14.77,9.27,12.7-18.58,9.56-22.31-11.59,15.15-11.59,15.15,5.75-21.58,1.69-23.94-5.53,21.62-5.53,21.62-1.58-26-9-25.67,3.38,25.67,3.38,25.67S94.2,384,90.48,388.3s11.84,16.25,11.84,16.25-11.63-5.46-12.41-1.41,12.83,8.37,12.83,8.37-4.37,1.26-5.38,2.72h23.27S121,413.12,117,412.34Z" transform="translate(0 -54.95)" style="fill:#fff;isolation:isolate;opacity:0.5"></path><path d="M118.43,414.24H87.12s6.23-9.54,8.89-8.33c3.46,1.57,6-7.07,9.85-5,1.35.72.69,3,1.54,4,1.4,1.54,3.19,1.24,4.88,2.09C115.61,408.59,116.79,410.78,118.43,414.24Z" transform="translate(0 -54.95)" style="fill:#263238"></path><path d="M118.43,414.24H87.12s6.23-9.54,8.89-8.33c3.46,1.57,6-7.07,9.85-5,1.35.72.69,3,1.54,4,1.4,1.54,3.19,1.24,4.88,2.09C115.61,408.59,116.79,410.78,118.43,414.24Z" transform="translate(0 -54.95)" style="fill:#fff;isolation:isolate;opacity:0.2"></path><path d="M90.54,411.58s2-11.93.64-13.68-1.67,6.51-1.67,6.51-4.77-17.23-7.82-17.32,3.62,15,3.62,15-13-21.32-16.84-19.34,13.66,20.89,13.66,20.89-9.54-8.21-11.65-5.9,10.6,9.41,10.6,9.41-5.6-1.26-5.59.61S84.93,412.64,90.54,411.58Z" transform="translate(0 -54.95)" style="fill:#263238"></path><path d="M90.54,411.58s2-11.93.64-13.68-1.67,6.51-1.67,6.51-4.77-17.23-7.82-17.32,3.62,15,3.62,15-13-21.32-16.84-19.34,13.66,20.89,13.66,20.89-9.54-8.21-11.65-5.9,10.6,9.41,10.6,9.41-5.6-1.26-5.59.61S84.93,412.64,90.54,411.58Z" transform="translate(0 -54.95)" style="fill:#fff;isolation:isolate;opacity:0.4"></path><path d="M92.42,409.87s9.8-1.77,10.75-3.36-5.5.54-5.5.54,12-8.55,11.19-10.94-10.54,7-10.54,7,12.8-16.11,10.2-18.48-12.3,16.45-12.3,16.45,3.66-9.69,1.27-10.67-4.28,10.85-4.28,10.85-.61-4.68-2-4.15S90,405.84,92.42,409.87Z" transform="translate(0 -54.95)" style="fill:#263238"></path><path d="M92.42,409.87s9.8-1.77,10.75-3.36-5.5.54-5.5.54,12-8.55,11.19-10.94-10.54,7-10.54,7,12.8-16.11,10.2-18.48-12.3,16.45-12.3,16.45,3.66-9.69,1.27-10.67-4.28,10.85-4.28,10.85-.61-4.68-2-4.15S90,405.84,92.42,409.87Z" transform="translate(0 -54.95)" style="fill:#fff;isolation:isolate;opacity:0.4"></path><path d="M93.15,408.57s9.47-9.48,9.3-12-5.66,4.83-5.66,4.83,6.68-18.64,4-20.67-6.25,15.84-6.25,15.84S96.3,369,91.6,368.36s-1,27.61-1,27.61-3.4-13.52-6.78-12.76,3.58,15.27,3.58,15.27-4.26-4.71-5.44-3S87.41,406,93.15,408.57Z" transform="translate(0 -54.95)" style="fill:#263238"></path><path d="M93.15,408.57s9.47-9.48,9.3-12-5.66,4.83-5.66,4.83,6.68-18.64,4-20.67-6.25,15.84-6.25,15.84S96.3,369,91.6,368.36s-1,27.61-1,27.61-3.4-13.52-6.78-12.76,3.58,15.27,3.58,15.27-4.26-4.71-5.44-3S87.41,406,93.15,408.57Z" transform="translate(0 -54.95)" style="fill:#fff;isolation:isolate;opacity:0.2"></path><path d="M104.63,414.24H79.68s5-7.6,7.09-6.64c2.75,1.26,4.8-5.63,7.85-4,1.07.58.55,2.42,1.22,3.16,1.12,1.22,2.54,1,3.9,1.66C102.38,409.74,103.33,411.49,104.63,414.24Z" transform="translate(0 -54.95)" style="fill:#263238"></path><path d="M104.63,414.24H79.68s5-7.6,7.09-6.64c2.75,1.26,4.8-5.63,7.85-4,1.07.58.55,2.42,1.22,3.16,1.12,1.22,2.54,1,3.9,1.66C102.38,409.74,103.33,411.49,104.63,414.24Z" transform="translate(0 -54.95)" style="fill:#fff;isolation:isolate;opacity:0.30000000000000004"></path></g><g id="freepik--Bigfoot--inject-59"><path d="M327,239.12s-1.58,11.67-1.39,13.06,4.16,9.89,4.16,9.89l20-5.05s-2-11.57-2.77-13.15-7.92-9.25-7.92-9.25Z" transform="translate(0 -54.95)" style="fill:#b97964"></path><path d="M171.31,273.54s-6.77,2.37-8.33,3.16-4.73,15.43-4.73,15.43,15.23,5.15,17.61,4.55,5.73-15.43,5.73-15.43Z" transform="translate(0 -54.95)" style="fill:#b97964"></path><path d="M223.12,234.62c-1,7.55-2.31,16-4.06,22,0,0,.69,8.43-.52,9.49s-1.74-2.64-1.74-2.64-3.16,6.71-5.27,5.54c-.57-.32-.29-1.36.43-2.71-4.16,2.6-10.32,5.89-16,8.79s-10.84,5.41-13,6.45c0,0-.72,5.67-3.62,4.61S178,279.8,178,279.8s-6.33,5.54-8.49,4.49,0-5.81,0-5.81-3.92,3.55-6,2.9,3.17-5.27,3.17-5.27-3.69.53-2.64-1.73,11.21-3.85,11.21-3.85,23.68-16.57,26.26-20.27c2.39-3.42-1.47-19.75-2.49-33-.54,1.88-1.05,2.91-1.5,2.38-1.95-2.31,0-10.55,0-10.55s-2.62,5.54-3.41,3.89,4.72-12.52,4.72-12.52-4.72,4.67-4.72,2c0-1.32,2.16-3.24,4.32-4.83s4.33-2.84,4.33-2.84a75,75,0,0,1,4.48-9.48l13.64,24.71,4,7.27S224.32,225.28,223.12,234.62Z" transform="translate(0 -54.95)" style="fill:#BA68C8"></path><path d="M224.9,217.36s-.58,7.92-1.78,17.26c-10.17-9.88-11.59-27.35-11.59-27.35a27.7,27.7,0,0,1,9.36,2.82Z" transform="translate(0 -54.95)" style="isolation:isolate;opacity:0.2"></path><path d="M313.92,395.73s8.83,17.79,8.55,20.69-5.82,1.32-14.78,1.32-16.62,1.5-21.37,1.5a43.47,43.47,0,0,1-10.54-1.77s-4,1.77-6.86,1.77-5.28-3.54-1.32-5.68,11.6-2.93,11.6-2.93,20.08-4.1,19.82-14.12Z" transform="translate(0 -54.95)" style="fill:#b97964"></path><path d="M312.14,390S285.69,351.28,278,329.52s14.28-65.28,14.28-65.28l-42.49-18s-12.44,49.8-1.44,83.83c-.41.93-2.1,5-1.14,7.91,1.07,3.23,2.84-2.78,2.92-3v0c.08.62,1,8,2.45,9.61.52.58.93-.54,1.25-2.23,14.53,25.51,32.6,47.56,39.58,55.72h0s-7.2,6.21-4.3,8.3,8.7-4.15,8.7-4.15.79,3.64,2.64,4.15,6.59-8.05,6.59-8.05,4.22,6,5.14,6.1,0-6.1,0-6.1,4.73,7.88,6.39,5.85S312.14,390,312.14,390Z" transform="translate(0 -54.95)" style="fill:#BA68C8"></path><path d="M276.47,322.35a181.08,181.08,0,0,1-20.13,24.43q-1.29-2.17-2.55-4.39c-.32,1.69-.73,2.81-1.25,2.23-1.41-1.58-2.37-9-2.45-9.62v0c-.08.27-1.85,6.28-2.92,3-1-2.91.73-7,1.14-7.91-6.83-21.14-4.62-48.36-2-65.95,8.85-5.07,12.4-4.78,12.4-4.78s20.48-11.28,28.68,15.46C282.31,287,275.13,307.34,276.47,322.35Z" transform="translate(0 -54.95)" style="isolation:isolate;opacity:0.2"></path><path d="M218.91,395.73s8.83,17.79,8.55,20.69-5.81,1.32-14.78,1.32-16.61,1.5-21.36,1.5a43.48,43.48,0,0,1-10.55-1.77s-4,1.77-6.86,1.77-5.27-3.54-1.32-5.68,11.61-2.93,11.61-2.93,20.07-4.1,19.81-14.12Z" transform="translate(0 -54.95)" style="fill:#b97964"></path><path d="M302.86,244.34s2.77,1.19,2.37-2.43-13-18.55-13-18.55L246,240.83l12.74,18.56s-29,17.66-46.36,49.73c-2-.12-4,.05-5.13,1-2.71,2.38,2.6,3.92,2.6,3.92s-8.48,4.79-8.48,7.16c0,1.33,2.89.67,5.42-.17a101.4,101.4,0,0,0-5.62,19.51c-5.66,31.24-2.58,49.57-.52,57.16-1.22,1.19-4.33,4.59-2.62,6.5,2.11,2.34,7.83-.51,7.83-.51s.79,3,3.43,2.7,3.69-5,3.69-5,2.64,4.48,4.75,3.69c1.84-.69,2.37-4,2.47-4.78l.17,0c.6.69,2.93,3.21,3.16,1.37.19-1.53-1.61-4.82-2.63-6.54-2.14-62.28,34-81.68,56.43-96.85,24.53-16.61,26.32-28.6,26.32-28.6s2.77,2.37,4.35-3.27S302.86,244.34,302.86,244.34Z" transform="translate(0 -54.95)" style="fill:#BA68C8"></path><path d="M292.23,223.36c-7.55,16.11-25,19.33-46.23,17.47L229.46,226s-8.29,2.24-10.4-8.18c0,0,.38,2.64-2.26,1.59S213,208.86,213,208.86s-2.74.79-4.5-.79c-1.42-1.29-2.56-11.36,1.66-20a23.33,23.33,0,0,1,4-5.8s-1.82-18.2,4.9-22.42c0,0,12.11-4.33,21.64-5.73,4.18-.61,7.86-.66,9.8.46,6.39,3.69,0,5.27,0,5.27s18.52,3.42,20.63,6.2-2.64,2.94-2.64,2.94,19.52,12.49,20.05,15.13-3.17,2.63-3.17,2.63,7.12,9.91,5.54,13.79a3.47,3.47,0,0,1-1.75,2.06,3.43,3.43,0,0,1-3-.55L291,219Z" transform="translate(0 -54.95)" style="fill:#BA68C8"></path><path d="M231.09,208.86s-.53-4.55,5.55-6.73,18.54-3.47,21.5-1.64,5.54,12.32,4.35,15.69-10.87,5.73-10.87,5.73,1.39,2.64-.89,4.09-15.51,4.17-17.42,2a9,9,0,0,1-2.23-3.95s-9.18,2.11-12-6.27,6.9-11.73,8.56-11.93S231.09,208.86,231.09,208.86Z" transform="translate(0 -54.95)" style="fill:#b97964"></path><polyline points="232.2 168.34 234.87 166.76 249.74 166.76" style="fill:none;stroke:#263238;stroke-linecap:round;stroke-linejoin:round;stroke-width:0.5px"></polyline><path d="M234.87,221.72a30.81,30.81,0,0,1-4.29-8.71" transform="translate(0 -54.95)" style="fill:none;stroke:#263238;stroke-linecap:round;stroke-linejoin:round;stroke-width:0.5px"></path><path d="M291,219c-9.45,1.68-17-6-17-6s2.38.33,1.85-1.12-4.73-5.91-5-6.19c.16.09,1.74,1,2.49,0s-3.69-10.81-3.69-10.81a26.74,26.74,0,0,1,19.48,7.67,3.43,3.43,0,0,1-3-.55Z" transform="translate(0 -54.95)" style="isolation:isolate;opacity:0.2"></path><path d="M243.1,170.23s5.69.27,6.64,1.45-6,3.25-6,3.25,3.17-.5,3.3,1.35-5.14,3.16-5.14,3.16a9.72,9.72,0,0,1,3.13,3.7c.82,2.11.35,3.49-7.73-1.18,0,0-16.66,9.36-27.06,6.06a23.33,23.33,0,0,1,4-5.8s-1.82-18.2,4.9-22.42c0,0,12.11-4.33,21.64-5.73,1.88,1,3.14,1.89,3.14,2.57a8.08,8.08,0,0,1-1.85,4.74s8.17-.13,9.49,2.3C253,166.47,243.1,170.23,243.1,170.23Z" transform="translate(0 -54.95)" style="isolation:isolate;opacity:0.2"></path><path d="M345.77,239.61c-.53-3-7.12-7.94-7.12-7.94S322,205.61,314.47,194.4c1.7,1,3,1.39,3.34.46,1-3.06-6.46-5-6.46-5s3.3-.53,2.77-2.11-9.36-2.37-9.36-2.37h0a194.32,194.32,0,0,0-21.5-9.68,4.94,4.94,0,0,0-.79-.78s3.43-.09,2.64-1.87-10.29-2.83-10.29-2.83,4.75-.67,4-1.55-20.84.26-20.84.26-8.3,7.48-5.05,16.45,12.7,11.84,12.7,11.84,31.44,11.22,33.08,12,26.48,30.36,26.48,30.36-1.27,5.38,1.1,6.67,3.17-3.4,3.17-3.4,3.95,6.59,6.85,6.59,1.32-6.33,1.32-6.33,3.17,5.28,5.54,3.14-.92-6.67-.92-6.67S346.3,242.62,345.77,239.61Z" transform="translate(0 -54.95)" style="fill:#BA68C8"></path><path d="M207.84,188.46c-10-9.14-17.54-42.91,10.94-42.38,12.82.24,16.42,8.25,18,18.65.17,1.12.32,2.27.45,3.44.53,4.48.84,9.27,1.46,14C240.27,194,217.86,197.6,207.84,188.46Z" transform="translate(0 -54.95)" style="fill:#b97964"></path><path d="M237.26,168.17c-.72,1.2-1.63,2.27-2.06,2.34-1,.17-5-1.57-5-1.57l-.33.62-.27-.62h-1.38l.39.9-1.58-.9s-3.24,2.93-4.12,2.73-5.44-2.11-3.26-4.62c1.07-1.22,8.7.42,9.23.44s1.12-.73,1.12-.73l.59.73s3.88-2.36,6.23-2.76C237,165.85,237.13,167,237.26,168.17Z" transform="translate(0 -54.95)" style="isolation:isolate;opacity:0.2"></path><path d="M224.45,168.93c.06.65-.33,1.19-.75,1.2s-.79-.52-.8-1.17.32-1.19.75-1.2S224.43,168.31,224.45,168.93Z" transform="translate(0 -54.95)" style="fill:#263238"></path><path d="M234.86,167.48c.06.65-.32,1.19-.75,1.2s-.78-.52-.8-1.17.33-1.19.76-1.2S234.85,166.86,234.86,167.48Z" transform="translate(0 -54.95)" style="fill:#263238"></path><path d="M222.34,175.89s1.65-2.31,2.11-2.31.45,2.7.45,2.7Z" transform="translate(0 -54.95)" style="fill:#fff"></path><path d="M232.2,178.59s1.64-1.84,1.89-1.71-.27,2.9-.27,2.9Z" transform="translate(0 -54.95)" style="fill:#fff"></path><path d="M233.44,170.48c-.77-.49-5.4-.31-5.81.9-.24.7,1.48,1.47,2.59,1.89,0,.1.05.21.06.31a6,6,0,0,1,.07.75,7.58,7.58,0,0,1-.16,1.56,8,8,0,0,0,.65-1.49,5.44,5.44,0,0,0,.19-.82v0l.08,0S234.2,171,233.44,170.48Z" transform="translate(0 -54.95)" style="fill:#a24e3f"></path><path d="M221.17,175.89s9.23.3,12.92,4.15" transform="translate(0 -54.95)" style="fill:none;stroke:#263238;stroke-linecap:round;stroke-linejoin:round;stroke-width:0.5px"></path><path d="M242.91,186.31c-1,2.9-2.37,0-2.37,0a0,0,0,0,0,0,0c-.23.65-4,11-6.37,11s-2-2-2-2-4.34,5.8-7.3,5-1.35-3.36-1.24-3.55c-.37.13-7.44,2.73-9.23,1.57s-1.06-4-1.06-4-2.24,2.64-4.61.4c-.86-.82-1.29-2.51-1.48-4.32-3.22,1-7.56.91-8.44-.69-1.25-2.28-2.71-10.09-2.71-10.09s-4.25,3.56-4.84,1.19,2.3-11.73,2.46-12.27c-.25.23-4.33,4.2-3-1.21a39.9,39.9,0,0,1,3.44-9.1v0h0l0,0c4-7.49,8.88-9.77,8.88-9.77s-7.78-.41,2-3.6c16-5.23,21.27,1.11,21.27,1.11s-.13-2.61,1.76-1.8c9.91,4.26,9.71,14.44,9.71,14.44s2.17.89,2.23,2.08-2.23,1.39-2.23,1.39,2.67,2,2.17,2.55-3.4-1-3.4-1a11.87,11.87,0,0,1-6.65,3.08c-3.79.42-12.59-1.69-13.83-2,.41.12,1.52.5,1.46,1.07s-2.4,1.65-2.4,1.65,1.68,0,2.27.71c.31.36,0,1.48-.39,2.49a7.59,7.59,0,0,1,4.07.19l-2.35,2.7h2.35l-3.44,7.85H220v1.71l6.33-1.71.52,1.71,2.77-1.71,1,2.64L232.2,183l2.67,3.3v-3.17l2,.93s.77-5.94-1.32-9.76l1.05.62-.66-4.34s5.28,2.79,6.07,5.69-1.65.76-1.84.6C240.35,177.23,243.94,183.49,242.91,186.31Z" transform="translate(0 -54.95)" style="fill:#BA68C8"></path><path d="M231.09,166.53a8.61,8.61,0,0,0,5.55-2.85" transform="translate(0 -54.95)" style="fill:none;stroke:#263238;stroke-linecap:round;stroke-linejoin:round"></path><path d="M228.16,166.8a26.6,26.6,0,0,1-9.83-1.62" transform="translate(0 -54.95)" style="fill:none;stroke:#263238;stroke-linecap:round;stroke-linejoin:round"></path><path d="M240.53,186.34c-.23.65-4,11-6.37,11s-2-2-2-2-4.34,5.8-7.3,5-1.35-3.36-1.24-3.55c-.37.13-7.44,2.73-9.23,1.57s-1.06-4-1.06-4-2.24,2.64-4.61.4c-.86-.82-1.29-2.51-1.48-4.32-3.22,1-7.56.91-8.44-.69-1.25-2.28-2.71-10.09-2.71-10.09s-4.25,3.56-4.84,1.19,2.3-11.73,2.46-12.27c-.25.23-4.33,4.2-3-1.21a39.9,39.9,0,0,1,3.44-9.1c-.27.6-2.45,5.49-1,5.76s5.26-3.52,5.56-3.82c-.18.33-1.87,3.35-1.4,4.4s7.32-3,7.32-3-2.18,2.6-1.78,3.43,8.2-.38,8.2-.38-.79,1.77.6,2.08c0,0-5.14,1.39-1.39,8.12,1.7,3,4.82.21,5,0-.25.38-4.15,6.59-4.15,9.08s3.5-.26,3.65-.38c-.13.27-2.73,5.59-1.57,7.7s4,0,4,0-.5,4,1,4.45,6.56-4,6.56-4-1.49,4.94,0,5.83,7.83-6.33,7.83-6.33-.3,3.27,1.43,3.27S240.21,186.89,240.53,186.34Z" transform="translate(0 -54.95)" style="isolation:isolate;opacity:0.2"></path><path d="M211.76,166.81s-4.65-2.88-7,0,2.07,7.43,2.07,7.43-1.68,4.95,1.59,6.53,4.64-4.49,4.64-4.49a1.49,1.49,0,0,1-1.48-.39c-.49-.66,1.48-3.72,1.48-3.72s-1.38.61-2.07-.49,1.18-3.47,1.18-3.47-1,.49-1.38,0S211.76,166.81,211.76,166.81Z" transform="translate(0 -54.95)" style="fill:#b97964"></path></g></svg>