<svg xmlns="http://www.w3.org/2000/svg" viewBox="0 0 500 500"><g id="freepik--background-complete--inject-514"><polygon points="307.81 200.1 307.81 329.96 289.58 329.96 289.58 361.46 258.09 329.96 85.23 329.96 85.23 200.1 307.81 200.1" style="fill:#fff"></polygon><path d="M307.81,200.1c-.13.73.69,129.82.6,130.45h-.6l-18.23.05.65-.65.1,31.5v1.79L289.06,362l-31.58-31.42c3.24.77-173,.1-172.25.38h-1v-1l.13-129.86v-.85h.85c55.49.19,167.11.53,222.58.85Zm0,0c-55.47.34-167.13.68-222.58.86l.85-.86L86.21,330l-1-1,173.21.12.25.25,31.42,31.58-1.27.53.09-31.5v-.66h.65l18.23.05c-1.59,3.67.49-130,0-129.26Z" style="fill:#ebebeb"></path><path d="M154.44,265a10.55,10.55,0,1,1-10.54-10.54A10.54,10.54,0,0,1,154.44,265Z" style="fill:#ebebeb"></path><path d="M207.07,265a10.55,10.55,0,1,1-10.55-10.54A10.55,10.55,0,0,1,207.07,265Z" style="fill:#ebebeb"></path><path d="M259.7,265a10.55,10.55,0,1,1-10.55-10.54A10.55,10.55,0,0,1,259.7,265Z" style="fill:#ebebeb"></path><polygon points="265.04 52.16 265.04 141.44 277.57 141.44 277.57 163.09 299.23 141.44 418.06 141.44 418.06 52.16 265.04 52.16" style="fill:#fff"></polygon><path d="M265,52.16c.23,25.33.45,64.25.6,89.28l-.6-.6,12.53-.06h.65v.66l.09,21.65-1.27-.53,21.58-21.73.25-.25c.28.13,118.87-.21,119.19-.12l-1,1,.13-89.28.85.85c-38.14-.11-114.88-.58-153-.85Zm0,0c38.13-.26,114.9-.73,153-.85h.86v.86l.12,89.28v1h-1c.09-.37-121,.43-118.23-.37L278.1,163.62l-1.28,1.26v-1.79l.09-21.65.65.65L265,142h-.6v-.59c0-25,.49-64,.6-89.28Z" style="fill:#ebebeb"></path><path d="M297.6,102.78v-12a1.1,1.1,0,0,1,1.11-1.11,1.11,1.11,0,0,1,1.14,1.11v4.86h5.25V90.82a1.09,1.09,0,0,1,1.11-1.11,1.11,1.11,0,0,1,1.14,1.11v12a1.12,1.12,0,0,1-1.14,1.11,1.1,1.1,0,0,1-1.11-1.11V97.91h-5.25v4.87a1.12,1.12,0,0,1-1.14,1.11A1.1,1.1,0,0,1,297.6,102.78Z" style="fill:#ebebeb"></path><path d="M317.89,100.55H313l-1,2.63a1.13,1.13,0,0,1-1.05.71,1.27,1.27,0,0,1-.39-.06,1.16,1.16,0,0,1-.67-1.46l4.48-11.93a1.14,1.14,0,0,1,1.08-.71,1.11,1.11,0,0,1,1.07.71L321,102.37a1.15,1.15,0,0,1-.67,1.46,1.14,1.14,0,0,1-1.42-.65Zm-.83-2.23L315.42,94l-1.64,4.36Z" style="fill:#ebebeb"></path><path d="M329.83,102.78v-12A1.1,1.1,0,0,1,331,89.71a1.11,1.11,0,0,1,1.13,1.11v4.86h5.25V90.82a1.1,1.1,0,0,1,1.11-1.11,1.11,1.11,0,0,1,1.14,1.11v12a1.12,1.12,0,0,1-1.14,1.11,1.1,1.1,0,0,1-1.11-1.11V97.91h-5.25v4.87a1.12,1.12,0,0,1-1.13,1.11A1.1,1.1,0,0,1,329.83,102.78Z" style="fill:#ebebeb"></path><path d="M350.12,100.55H345.2l-1,2.63a1.14,1.14,0,0,1-1.06.71,1.16,1.16,0,0,1-.38-.06,1.14,1.14,0,0,1-.67-1.46l4.47-11.93a1.14,1.14,0,0,1,1.08-.71,1.1,1.1,0,0,1,1.07.71l4.48,11.93a1.15,1.15,0,0,1-.67,1.46,1.08,1.08,0,0,1-.38.06,1.1,1.1,0,0,1-1-.71Zm-.83-2.23L347.65,94,346,98.32Z" style="fill:#ebebeb"></path><path d="M362.07,102.78v-12a1.09,1.09,0,0,1,1.11-1.11,1.11,1.11,0,0,1,1.14,1.11v4.86h5.24V90.82a1.13,1.13,0,0,1,2.25,0v12a1.13,1.13,0,0,1-2.25,0V97.91h-5.24v4.87a1.12,1.12,0,0,1-1.14,1.11A1.1,1.1,0,0,1,362.07,102.78Z" style="fill:#ebebeb"></path><path d="M382.36,100.55h-4.93l-1,2.63a1.13,1.13,0,0,1-1.05.71,1.18,1.18,0,0,1-.39-.06,1.15,1.15,0,0,1-.67-1.46l4.48-11.93a1.13,1.13,0,0,1,1.07-.71,1.11,1.11,0,0,1,1.08.71l4.47,11.93a1.1,1.1,0,0,1-1.05,1.52,1.08,1.08,0,0,1-1-.71Zm-.84-2.23L379.88,94l-1.64,4.36Z" style="fill:#ebebeb"></path><g id="freepik--xsrjP0--inject-514"><path d="M65.9,180.62c-1,.6-1.81,1.48-3.11,1.36-.5-.06-.39.36-.39.63,0,4.87,0,9.74-.06,14.61,0,.36,0,.65.4.84,3.72,1.89,5.32,5.59,7.59,8.75A14.56,14.56,0,0,1,73,217.88c-.16,1.09.35,1.59,1.34,1.81a2.44,2.44,0,0,0,2.78-.86,19.65,19.65,0,0,0,2.15-6.38c.22-1.85-.44-3.65-.66-5.48-.17-1.34-.47-2.66-.72-4,.32-.24.7-.12,1.05-.12l12.35,0c1.74,0,2.59-.49,2.83-1.64a3.3,3.3,0,0,0-1.78-3.58c-.31-.15-.86,0-.9-.5s.54-.44.82-.63c1.5-1,1.23-3.13-.49-4.35-.42-.3-1.22-.16-1.24-.77s.75-.48,1.09-.82c1.2-1.18.61-3.41-1.18-4.31a5.13,5.13,0,0,1-.72-.28c-.21-.14-.41-.29,0-.57,1.79-1.27,1.76-3,0-4.34l-.53-.39a3.52,3.52,0,0,0-2.17-.48l-19.36-.07A2.31,2.31,0,0,0,65.9,180.62Z" style="fill:#ebebeb;fill-rule:evenodd"></path><path d="M47.52,189.15c0,3.09,0,6.19,0,9.29,0,.63.05.94.83.93q5.65,0,11.32,0c.74,0,.86-.24.85-.9q0-9.34.07-18.69c0-.79-.21-1-1-1-3.66,0-7.33,0-11-.05-.91,0-1,.3-1,1.1C47.57,183,47.53,186.05,47.52,189.15Z" style="fill:#ebebeb;fill-rule:evenodd"></path></g><g id="freepik--xsrjp0--inject-514"><path d="M398.9,35.23c-1.83,1.14-3.44,2.81-5.89,2.57-.95-.1-.74.68-.75,1.19q-.06,13.88-.11,27.72c0,.67,0,1.22.77,1.6C400,71.89,403,78.9,407.3,84.9a27.59,27.59,0,0,1,5.05,21c-.3,2.08.66,3,2.54,3.45,2.25.52,4.5-.1,5.28-1.64a37.62,37.62,0,0,0,4.07-12.1c.41-3.5-.83-6.91-1.26-10.38-.31-2.54-.89-5-1.37-7.62.62-.45,1.34-.21,2-.22l23.41.07c3.29,0,4.9-.93,5.37-3.11A6.27,6.27,0,0,0,449,67.54c-.58-.29-1.64,0-1.7-.94s1-.84,1.55-1.21c2.84-1.93,2.33-5.93-.94-8.25-.78-.55-2.31-.3-2.34-1.46,0-.92,1.41-.9,2.06-1.55,2.29-2.24,1.17-6.46-2.23-8.17a9.73,9.73,0,0,1-1.37-.53c-.39-.26-.77-.55,0-1.08,3.39-2.41,3.33-5.77-.06-8.23l-1-.74a6.59,6.59,0,0,0-4.11-.91q-18.34-.09-36.71-.13A4.37,4.37,0,0,0,398.9,35.23Z" style="fill:#ebebeb;fill-rule:evenodd"></path><path d="M364.05,51.4c0,5.87,0,11.75-.08,17.61,0,1.2.11,1.78,1.57,1.77q10.74-.09,21.48.07c1.4,0,1.62-.47,1.62-1.71q0-17.73.12-35.44c0-1.5-.39-1.93-1.9-1.91-6.95.05-13.89.05-20.83-.08-1.73,0-2,.57-2,2.08C364.14,39.66,364.07,45.53,364.05,51.4Z" style="fill:#ebebeb;fill-rule:evenodd"></path></g><path d="M448.45,252.27a55.83,55.83,0,0,1-15.05,18.5A56.11,56.11,0,0,1,413,258.5c-7.69-7.17-9.66-20.17-1.21-24.53,6.24-3.23,11.63,1.94,14.53,5.73l-.81,10.64,3.55-.62-.47,7.75,2.44-.42-.1,7.61L433,254.51l-2.5.44,1.72-8.31-3.06.54,1.87-11.84c1.87-3.75,5-7.28,10.18-6.55C450.65,230.12,453.24,242.91,448.45,252.27Z" style="fill:#ebebeb"></path><path d="M115.12,348.55A82.55,82.55,0,0,1,97.56,379,82.72,82.72,0,0,1,64.92,366c-12.88-8.63-18.8-27.09-7.52-35.42,8.31-6.17,17.38.09,22.49,4.93l1.32,15.68,5-1.74,1.14,11.4,3.46-1.2,1.64,11.11.72-15.27-3.54,1.23.55-12.5-4.33,1.5L85.81,328c1.84-5.89,5.63-11.77,13.29-11.91C113.12,315.8,119.89,333.81,115.12,348.55Z" style="fill:#ebebeb"></path></g><g id="freepik--speech-bubbles--inject-514"><polygon points="251.91 35.61 251.91 154.76 235.18 154.76 235.18 183.67 206.28 154.76 47.66 154.76 47.66 35.61 251.91 35.61" style="fill:#fff"></polygon><path d="M251.91,35.61c-.12.7.68,119.14.6,119.75h-.61l-16.72.06.65-.66.09,28.91v1.79l-1.28-1.27-29-28.82c3.24.76-158.73.1-158,.37h-1v-1l.13-119.15v-.86h.85c50.93.18,153.35.53,204.25.85Zm0,0c-50.9.33-153.37.68-204.25.85l.86-.85.12,119.15-1-1,159,.13.25.25,28.83,29-1.27.53.09-28.91v-.65h.65l16.72.06-.59.59.6-119.15Z" style="fill:#263238"></path><path d="M111.17,95.19a9.68,9.68,0,1,1-9.67-9.68A9.67,9.67,0,0,1,111.17,95.19Z" style="fill:#263238"></path><path d="M159.47,95.19a9.68,9.68,0,1,1-9.68-9.68A9.68,9.68,0,0,1,159.47,95.19Z" style="fill:#263238"></path><path d="M207.76,95.19a9.68,9.68,0,1,1-9.68-9.68A9.68,9.68,0,0,1,207.76,95.19Z" style="fill:#263238"></path><polygon points="276.36 120.66 276.36 223.32 290.77 223.32 290.77 248.22 315.68 223.32 452.34 223.32 452.34 120.66 276.36 120.66" style="fill:#fff"></polygon><path d="M276.36,120.66c.25,29.13.44,73.88.6,102.66l-.6-.6,14.41-.05h.65v.65l.09,24.9-1.26-.52,24.82-25,.25-.25c.28.13,136.69-.23,137-.13l-1,1,.12-102.66.86.85c-43.87-.11-132.12-.59-176-.85Zm0,0c43.85-.26,132.13-.74,176-.86h.85v.86l.13,102.66v1h-1c0-.39-138.75.44-136.06-.38l-25,24.83L290,250v-1.79l.09-24.9.65.65-14.41-.05h-.6v-.59c0-28.72.5-73.63.6-102.66Z" style="fill:#263238"></path><path d="M321.68,178.53h-1.59a1.79,1.79,0,0,1-1.8-1.8,1.81,1.81,0,0,1,1.8-1.8h2.21l1-6h-2a1.8,1.8,0,0,1,0-3.6H324l.7-4.12a1.76,1.76,0,0,1,1.8-1.49,1.84,1.84,0,0,1,1.79,2.11l-.62,3.5h5.44l.69-4.12a1.77,1.77,0,0,1,1.83-1.49,1.83,1.83,0,0,1,1.77,2.11l-.59,3.5h1.59a1.81,1.81,0,0,1,1.8,1.8,1.83,1.83,0,0,1-1.8,1.8h-2.22l-1,6h2a1.79,1.79,0,0,1,1.8,1.8,1.81,1.81,0,0,1-1.8,1.8h-2.6l-.72,4.25a1.79,1.79,0,0,1-1.8,1.49,1.83,1.83,0,0,1-1.8-2.11l.66-3.63h-5.44l-.72,4.25a1.83,1.83,0,0,1-1.84,1.49,1.78,1.78,0,0,1-1.76-2.11Zm9.72-3.6,1-6H327l-1,6Z" style="fill:#263238"></path><path d="M349.08,175.76v-14a1.92,1.92,0,0,1,1.91-1.9,1.89,1.89,0,0,1,1.87,1.9v14a1.87,1.87,0,0,1-1.87,1.9A1.9,1.9,0,0,1,349.08,175.76ZM351,184.1a1.9,1.9,0,0,1-1.91-1.91v-.69a1.93,1.93,0,0,1,1.91-1.9,1.89,1.89,0,0,1,1.87,1.9v.69A1.87,1.87,0,0,1,351,184.1Z" style="fill:#263238"></path><path d="M385.5,172a11.62,11.62,0,0,1-1.35,5.57v0a11.31,11.31,0,0,1-.86,1.21,5.64,5.64,0,0,1-2.7,1.66,4,4,0,0,1-.9.1,3.39,3.39,0,0,1-3.19-2.31,6.71,6.71,0,0,1-3.11.76,6.52,6.52,0,0,1-4.78-2.08,7.3,7.3,0,0,1-1.9-5,7.19,7.19,0,0,1,1.9-4.88,6.55,6.55,0,0,1,4.78-2.11,6.62,6.62,0,0,1,4.81,2.11,7.19,7.19,0,0,1,1.9,4.88v4.54c.07-.07.14-.11.24-.21a3.11,3.11,0,0,0,.45-.56,8.28,8.28,0,1,0-7.4,4.5,10.71,10.71,0,0,0,2.08-.2,1.87,1.87,0,0,1,2.31,1.35,1.94,1.94,0,0,1-1.38,2.35,12.47,12.47,0,0,1-3,.38A12.11,12.11,0,1,1,385.5,172Zm-9.24,0a3.48,3.48,0,0,0-.86-2.28,2.92,2.92,0,0,0-2-.87,2.79,2.79,0,0,0-2,.87,3.48,3.48,0,0,0,0,4.6,2.67,2.67,0,0,0,2,.87,2.79,2.79,0,0,0,2-.87A3.51,3.51,0,0,0,376.26,172Z" style="fill:#263238"></path><path d="M411.32,171.43a4.2,4.2,0,0,1-1.49,3.33,1.67,1.67,0,0,0-.38.2,5.84,5.84,0,0,1,0,.83,8.33,8.33,0,0,1-16.65,0,8.16,8.16,0,0,1,2.7-6.09,6.36,6.36,0,0,1-1-3.39,6.44,6.44,0,0,1,12.88,0,1.89,1.89,0,0,1-1.91,1.91,1.93,1.93,0,0,1-1.93-1.91,2.6,2.6,0,0,0-5.2,0,2.53,2.53,0,0,0,1.11,2.11A2,2,0,0,1,400,171h0s0,.07,0,.14a3.4,3.4,0,0,1-.38.38.15.15,0,0,1-.1.07.23.23,0,0,1-.11.07,1.51,1.51,0,0,1-.17.1,4.54,4.54,0,0,0-2.53,4,4.49,4.49,0,0,0,9,0v-.2c-1.8,0-2.46.45-2.63.65a.91.91,0,0,0-.28.77,3.47,3.47,0,0,0,0,.38,1.93,1.93,0,0,1-1.31,2.38,2.11,2.11,0,0,1-.52.07,1.85,1.85,0,0,1-1.83-1.38,3.84,3.84,0,0,1-.21-1.45,4.64,4.64,0,0,1,1.42-3.5,7.49,7.49,0,0,1,5.4-1.77,10.86,10.86,0,0,1,1.14,0H407a1.26,1.26,0,0,0,.38,0c.07,0,.07,0,.1-.06v-.25a3.84,3.84,0,0,0,0-.51,1.86,1.86,0,0,1,1.41-2.29,1.9,1.9,0,0,1,2.29,1.45A4.47,4.47,0,0,1,411.32,171.43Z" style="fill:#263238"></path></g><g id="freepik--Character--inject-514"><path d="M239.42,317.09a1.52,1.52,0,0,1-1.33,1.52c-1.71-.05-3.75-.15-6.05-.25-4-15.62-8.64-28.2-7.55-23.37a83.37,83.37,0,0,1,1.62,23.09c-2.66-.14-8.83-.51-11.91-.7-2.18-27-6.32-47.23-6.52-41.14-.79,24.56-2.87,32.25-5.24,40.45-28.74-1.78-66.39-4.56-93.57-7.2-1.76-15-3-31.09-3.59-30-4.48,7.84-6.61,19.7-7.56,28.92-8.65-.91-15.54-1.8-19.72-2.57,0,0-.87-12.51-.78-16.59a90,90,0,0,1,5.93-30.44c3.83-9.92,9.65-18.41,15.23-27.15a.78.78,0,0,1,.14-.19s0,0,0-.08a89.16,89.16,0,0,0,9-18.25.64.64,0,0,0,.06-.14,89,89,0,0,0,3.61-14.39c3-17.91,13.91-32.45,30.17-35.45,21.34-20.37,62.81-10.68,69.67,13.47.66,2.35,1.26,5,1.82,7.94v.09C215,195.4,216.47,209.24,218,220a.05.05,0,0,0,0,.06s0,.07,0,.12v0c.78,5.12.18,9.39,1,12.38C224.88,252.25,241.12,264.88,239.42,317.09Z" style="fill:#263238"></path><path d="M134.06,167.33c-10.93,4.65-18.09,12.41-20.94,25.4-1.66,7.58-2.84,15-6.27,22-3.54,7.17-8.61,12.8-13.8,18.41-8.26,8.92-14.29,18-16.64,30.84-2.39,13-3.26,28.55-.28,41.26,0,.08.11.06.1,0-2.18-12.79-.65-30,2.64-42.78,3.61-14,12-22.18,20.74-32.18a61.06,61.06,0,0,0,14.09-27.9c1.39-6.43,1.93-13.21,5-19.07,3.61-7,9.86-11,16-14.49C135.51,168.27,134.89,167,134.06,167.33Z" style="fill:#263238"></path><path d="M234.6,254.71c-6.36-11.05-11.81-20.52-14.9-33.7-2.82-12-3.91-24.47-6.8-36.47a.14.14,0,1,0-.28.06c4.21,21.2,2.09,41.93,12.82,60.57,5.84,10.12,11.73,19.56,15.1,31.29,3.54,12.34,4.39,24.86,3.47,37.88,0,.46.51.49.59.06A88.67,88.67,0,0,0,234.6,254.71Z" style="fill:#263238"></path><path d="M171.75,286.63c43.48,35,87.53,75.41,86.8,90.73-1.73,36.4-27.79,38.28-31.83,38.1-27.6-1.22-70.11-71.13-83.34-108.84C131.57,273,147.45,267.07,171.75,286.63Z" style="fill:#eb9481"></path><path d="M203.76,464.53,193.89,409s12.79-21.93,9.28-37c-3-13-35.65-80-56.51-94.83-17.12-12.14-34.43-4-45.25,11.16-17.67,24.73-36.6,87.2-55.58,176.23Z" style="fill:#BA68C8"></path><path d="M165.14,395a180.37,180.37,0,0,0-26.3,4.86c-4.28,1.19-8.47,2.57-12.65,4-2.09.73-4.19,1.39-6.3,2a28.54,28.54,0,0,1-6.77,1.42.16.16,0,0,0,0,.32,47.56,47.56,0,0,0,6.54-.25,48.72,48.72,0,0,0,6.22-1.3c4.35-1.17,8.64-2.53,13-3.74,8.75-2.43,17.49-4.86,26.4-6.66C165.68,395.65,165.56,395,165.14,395Z" style="fill:#263238"></path><path d="M187.26,402.44a198.08,198.08,0,0,0-22.06-.62c-3.69.12-7.33.45-11,.88-1.74.2-3.49.44-5.23.69-1.91.29-3.79.83-5.71,1.08-.2,0-.19.34,0,.32,1.82-.19,3.67-.07,5.5-.15l5.5-.26c3.66-.16,7.33-.28,11-.48,7.35-.39,14.66-.71,22-.85C187.68,403,187.64,402.47,187.26,402.44Z" style="fill:#263238"></path><path d="M122.67,274.07c-.08,3.32,13.18,24.3,27.65,27.34,4.72,1,7.62-21.33,7.62-21.33l.91-1.77,12.73-24.8-25.8-27.86L142,221.87s-3,7-6.72,15.78l-.53,1.25c-.22.49-.43,1-.62,1.42-.57,1.31-1.14,2.64-1.68,4-.42,1-.84,2-1.24,3.09s-.82,2.13-1.25,3.21C125.94,261.32,122.73,272.67,122.67,274.07Z" style="fill:#eb9481"></path><path d="M135.27,237.65a55.91,55.91,0,0,0,23.58,40.66l12.73-24.8-25.8-27.86L142,221.87S139,228.88,135.27,237.65Z" style="fill:#263238"></path><path d="M219.7,223.26c-5.31,48.62-35,50.94-45.54,49.79-9.53-1.05-41.82-5.82-41.57-54.73s24.55-61.82,46.46-60.58S225,174.63,219.7,223.26Z" style="fill:#eb9481"></path><path d="M134.24,224.7c11.37-3.23,13.65-14.19,13.65-14.19a52,52,0,0,0,23.7-13.38c-.49.93-4,7.65-5.85,11,31.2-.65,44.39-22.26,44.39-22.26,8.19,11.42,9.12,18,10,21.37,0,0,3.29-18.53-4.2-32.54-9.16-17.16-25.58-16.9-25.58-16.9s-22.35-10.89-43.9,5.94C123.28,181.93,134.24,224.7,134.24,224.7Z" style="fill:#263238"></path><path d="M189.57,206.94a56.71,56.71,0,0,1-16.47,3.14s0-.07,0-.08a48,48,0,0,0,24.44-9.75,45.72,45.72,0,0,0,8-8.05c2.44-3.15,4.94-7,5.93-10.87a.24.24,0,0,1,.46.12c-1,4.12-2.05,7.91-4.38,11.52a33.54,33.54,0,0,1-8.38,8.91,38.75,38.75,0,0,1-9.64,5.06" style="fill:#263238"></path><path d="M190.37,157.82c-14.82-7.49-34-4.65-45.82,7-5.85,5.79-9.17,13.65-11,21.62a87,87,0,0,0-1.6,24.84,72.76,72.76,0,0,1,.08-25.15c1.52-8.36,5-16.63,11.06-22.73,12.26-12.05,32.64-14.75,47.23-5.55Z" style="fill:#263238"></path><path d="M192.65,158c15.31-.51,26.72,11.64,29.16,26.13a50.27,50.27,0,0,1,.66,14,84.73,84.73,0,0,0-2.18-13.66c-3.3-13.9-13.1-24.57-27.64-26.47Z" style="fill:#263238"></path><path d="M139.92,222.9s-7.52-17.05-15.06-14.65-4,25.66,3.44,30.2a8.29,8.29,0,0,0,11.75-2.21Z" style="fill:#eb9481"></path><path d="M126.06,214.89c-.13,0-.19.14-.09.21,5.15,3.37,7.07,9.13,8.07,14.92-1.25-2.4-3.3-4-6.46-2.55-.17.08-.07.33.09.33a5.08,5.08,0,0,1,5.15,2.83,24,24,0,0,1,1.75,5c.17.55,1.12.46,1.05-.15a.59.59,0,0,1,0-.14C137.15,228.2,133.58,217.12,126.06,214.89Z" style="fill:#263238"></path><path d="M213.33,211.4a30.81,30.81,0,0,0-2.87-1.82c-1.11-.69-1.92-1.35-3.28-1.3a1.74,1.74,0,0,0-1.49,1.53c-.1,1.65,1.05,2.83,2.35,3.71a6.35,6.35,0,0,0,4.44,1.18A1.86,1.86,0,0,0,213.33,211.4Z" style="fill:#263238"></path><path d="M176.34,213.1a31.27,31.27,0,0,1,3.2-1.14c1.24-.43,2.17-.9,3.49-.55a1.76,1.76,0,0,1,1.12,1.82c-.27,1.64-1.65,2.53-3.12,3.11a6.38,6.38,0,0,1-4.59.17A1.86,1.86,0,0,1,176.34,213.1Z" style="fill:#263238"></path><path d="M172.44,251.14c.58,1,1.08,2.21,2.23,2.62a8.87,8.87,0,0,0,3.7.09.12.12,0,0,1,.1.2,4.52,4.52,0,0,1-4.58.69c-1.4-.64-1.79-2.1-1.8-3.53C172.09,251,172.36,251,172.44,251.14Z" style="fill:#263238"></path><path d="M180.58,245.67c5.89-.64,9.2.58,12.56,1.38.39,0,1.28-.19,1.38-.55v0l.55-7c.87.56,5.33,3.18,5.4,1.86.53-11,1.13-23.12-.65-34.12a.31.31,0,0,0-.61,0c-.93,10.5,0,21.1-.77,31.66-1.44-.73-3.76-2-5.08-2.17-.37.07-.2,7.45-.45,8.56a18.75,18.75,0,0,0-12.67-.26C178.63,245.52,178.43,245.9,180.58,245.67Z" style="fill:#263238"></path><path d="M186,251c1.64-.18,5.37-5.69,2.87-6.66S180,243.63,177,247c-2.68,2.94,5.47,2.17,6.58,3C184.49,250.6,184.83,251.1,186,251Z" style="fill:#263238"></path><path d="M183.57,250c.21.15.36.28.53.38.52-1.93-.4-4.57-3.94-5.49A8.51,8.51,0,0,0,177,247C174.32,249.92,182.46,249.17,183.57,250Z" style="fill:#ff9abb"></path><path d="M183.13,223.82c0-.13-.27.12-.29.26-.35,3.3-1.3,7-4.42,7.7-.1,0-.11.19,0,.19C182.12,232,183.33,227,183.13,223.82Z" style="fill:#263238"></path><path d="M176.81,221.5a9,9,0,0,0-.23,1.85,5.54,5.54,0,0,1-.94,1.13,2.56,2.56,0,0,1-2.66.61c-1.87-.74-2.16-3-1.76-5,0-.15.13-.21.19-.1.53,1.24,1.19,2.53,2.36,2.65,1,.12,2-.76,2.95-1.17,0,0,0,0,.06,0Z" style="fill:#263238"></path><path d="M182.74,227.4a5.18,5.18,0,0,1-1.45,2.26,3.68,3.68,0,0,1-2.81.78,3.28,3.28,0,0,1-2.39-1.74,5.79,5.79,0,0,1-.6-2.58,12,12,0,0,1,.13-1.59,7.12,7.12,0,0,1,1.19-3.07,10.83,10.83,0,0,0-.24,2.39,13.8,13.8,0,0,0,.17,2.16c.23,1.46.87,2.75,2,2.84s2.17-.61,2.85-1.95a23.85,23.85,0,0,0,1.55-4.34A10.4,10.4,0,0,1,182.74,227.4Z" style="fill:#263238"></path><path d="M203.22,226.1c.05-.12.23.2.2.34-.73,3.23-1,7.07,1.71,8.72.09.05.05.21-.06.17C201.57,234.13,202,229.05,203.22,226.1Z" style="fill:#263238"></path><path d="M210,225.94a9.19,9.19,0,0,1-.38,1.82,4.88,4.88,0,0,0,.53,1.37,2.57,2.57,0,0,0,2.32,1.44c2-.1,3-2.11,3.26-4.12,0-.15-.06-.24-.15-.16-.9,1-1.94,2-3.09,1.75-1-.22-1.66-1.37-2.42-2.06,0,0,0,0-.06,0Z" style="fill:#263238"></path><path d="M202.45,229.62a5.05,5.05,0,0,0,.64,2.6,3.66,3.66,0,0,0,2.41,1.65,3.31,3.31,0,0,0,2.82-.88,5.88,5.88,0,0,0,1.4-2.25,10.62,10.62,0,0,0,.38-1.55,7.16,7.16,0,0,0-.13-3.29,10.64,10.64,0,0,1-.55,2.34,14.85,14.85,0,0,1-.84,2c-.7,1.31-1.72,2.32-2.81,2.05s-1.87-1.28-2.07-2.76a22.73,22.73,0,0,1-.08-4.61A10.32,10.32,0,0,0,202.45,229.62Z" style="fill:#263238"></path><path d="M221.12,411c-9.58-16.91-9.35-39.37-9.73-104.59-.06-10.66,64.26-22,65.53-10.7,1.59,14.27-1,54.31-6.77,79.82C262.55,409.4,227.48,422.25,221.12,411Z" style="fill:#eb9481"></path><path d="M276.51,302.22s9.56-24.87,10.54-39.49c1.31-19.58-5.62-37-9-44.16-7-14.9-34.16-46.08-44.51-39.82-9.37,5.67,20,36.14,20,36.14s-24.84-36-34.87-27.12,26.11,42.34,26.11,42.34-26.35-36.43-35.24-25.62c-6.71,8.17,24.31,40.29,24.31,40.29S211,213.62,203.77,221.73c-8,9,18.75,40.4,18.75,40.4-15,23.72-12.45,41.14-9.15,53.32C214.16,318.4,276.51,302.22,276.51,302.22Z" style="fill:#eb9481"></path><path d="M263,226.8c-2.76-4.34-5.54-8.75-8.68-12.82s-6.42-8-9.93-11.81c-8.6-9.24-15.43-13.67-15-13.35,9.27,7.57,20.74,22,23.89,26.06s6.47,8,9.61,12C262.92,227,263.06,226.9,263,226.8Z" style="fill:#263238"></path><path d="M248.48,238.41c-3.77-5.39-7.32-10.87-11.33-16.09s-8.23-9.77-12.56-14.68c-.34-.37-.43-.07-.11.32,4.14,5.08,7.57,10.09,11.65,15.21s8.36,10.09,12.23,15.34C248.42,238.59,248.54,238.49,248.48,238.41Z" style="fill:#263238"></path><path d="M237.82,250.61c-5.34-8.52-12.25-16.05-19.2-23.27-.35-.36-.42,0-.09.43,6.53,7.62,11.7,13.55,19,23C237.64,250.94,237.93,250.79,237.82,250.61Z" style="fill:#263238"></path><path d="M214.51,392.17c-3.6-28.43-5.55-57.16-4.45-85.82-2-10,.56-24.28,5.45-34.64a77.48,77.48,0,0,1,5.76-10.4l.08,1.75c-4.95-6.6-30.39-39.64-15.6-43.81,3-.46,5.56.94,7.91,2.42a27.74,27.74,0,0,1,3.13,2.41l-1.68,1.55c-3.35-5-10.08-15-6.72-20.92a6.7,6.7,0,0,1,7.3-2.51,21.22,21.22,0,0,1,8.64,4.93l-.76.71c-3.09-4.53-6.22-9.46-6.7-15a6.06,6.06,0,0,1,1.86-5c-2.79,2.78-1.36,7,0,10.19,2,4.61,5.37,8.91,8.53,12.81-3.47-2.73-7.44-6.35-11.84-7.14-5.8-.93-7.25,3.53-5.44,8.3,2.4,7.09,8.43,14.11,12.86,20.08-3.52-2.69-9.34-8.46-13.57-9.83-9.4-2.87-4,10.2-1.85,14.19a164.51,164.51,0,0,0,17,25.69,79.38,79.38,0,0,0-6.16,10.88,63.38,63.38,0,0,0-6,27.64,35.81,35.81,0,0,0,.55,5.75c-.16,3.61-.39,7.22-.45,10.85-.78,25,.45,50,2.22,75Z" style="fill:#263238"></path><path d="M115.8,278.58c13.8-1.62,30.87,73.83-11.6,78.79S96.56,280.83,115.8,278.58Z" style="fill:#eb9481"></path><path d="M94.59,297.87C61.23,352.57,41,442.59,55.68,459.11c16.41,18.4,54.12-46.56,53-50.14-.83-2.71,3.06-59.78,9.63-104.87S102.84,284.34,94.59,297.87Z" style="fill:#eb9481"></path><path d="M108.28,412.35q2-46.23,7.9-92.18-1.94,46.23-7.9,92.18Z" style="fill:#263238"></path><path d="M115,338a46.12,46.12,0,0,1,3.54-11.63A31.06,31.06,0,0,1,115,338Z" style="fill:#263238"></path><path d="M59.29,404.32c-13.07,21.11-11.1,61.29,5.95,58.09,35.74-6.71,93.49-50.51,120.91-79.59,8.13-8.62-46.23-51.39-56.52-44C115.26,349.12,79.94,371,59.29,404.32Z" style="fill:#eb9481"></path><path d="M163.25,313.55c-3.89,2.35-5.15.33-2.31-7.23s20.51-35.08,10.39-40.43-34.48,33.83-38.25,46.78-5.33,35.23-5.33,35.23C134,341.23,150.78,326.49,163.25,313.55Z" style="fill:#eb9481"></path><path d="M181.67,388.42c20.24-19.19,39.29-42.63,44.67-71.25a14.49,14.49,0,0,0-1.15-9.38c2.63-12.78-2.61-17.87-2.61-17.87-1.19-12.66-7.27-17.12-7.27-17.12s2.93-15.05-5.87-18.33c-9.85-3.71-12.05,18.14-20.6,29.43-19.6,25.85-54.7,57.11-61.09,64Z" style="fill:#eb9481"></path><path d="M187.34,325.42c5.61-7.72,11.33-15.16,15.87-23.6,5-9.27,8.23-19,11.78-28.86a.26.26,0,0,1,.49.14c-3.61,18.83-14.54,38.78-27.8,52.58C187.36,326,187.05,325.81,187.34,325.42Z" style="fill:#263238"></path><path d="M201.22,339.52c5.05-7.82,13.83-21.61,21.06-49.68a.09.09,0,0,1,.17,0c-2.27,18.84-9.36,35-20.86,49.89C201.23,340.22,200.88,340,201.22,339.52Z" style="fill:#263238"></path><path d="M208.82,347c8.08-13.62,11.45-23.23,16.28-39.12,0-.09.19-.07.17,0-3.59,18.64-7,25-16,39.43C208.94,347.8,208.51,347.49,208.82,347Z" style="fill:#263238"></path><path d="M185.53,288.13a56.45,56.45,0,0,0,7.94-14c1.92-5,3.63-10.22,6.42-15.06a18.8,18.8,0,0,1,2.58-3.38,8,8,0,0,1,3.83-2.3,8.52,8.52,0,0,1,4.44.42,7,7,0,0,1,3.45,2.76,15,15,0,0,1,2,8.09,41.58,41.58,0,0,1-.91,8.13,53.32,53.32,0,0,0,.05-8.09c-.21-2.63-.76-5.35-2.27-7.34a6.17,6.17,0,0,0-2.87-2.11,7,7,0,0,0-3.56-.29c-2.26.57-3.94,2.83-5.26,5-2.77,4.5-4.47,9.68-6.67,14.66A45,45,0,0,1,185.53,288.13Z" style="fill:#263238"></path><path d="M149.79,282.44A64.19,64.19,0,0,1,160,269.28c2.08-1.86,4.34-3.72,7.29-4.5a6.66,6.66,0,0,1,4.61.45,5.9,5.9,0,0,1,2.91,3.75c.82,3,.31,5.93-.25,8.7a53.73,53.73,0,0,1-2.57,8.07c-2.23,5.2-4.82,10.06-7.32,15a45.68,45.68,0,0,0-3.2,7.41,24.28,24.28,0,0,0-.81,3.87,4.15,4.15,0,0,0,.07,1.56c.08.14,0,0,0,.06a1.09,1.09,0,0,0,.44-.09c2.11-.84,3.93-3.19,5.87-5.07s3.78-4,5.63-6.06c3.71-4.09,7.29-8.31,10.84-12.54a86.64,86.64,0,0,0,9.66-13.42c-2.25,5.08-5.58,9.6-8.86,14.06s-6.83,8.73-10.39,13c-1.79,2.13-3.6,4.23-5.46,6.3-.93,1-1.89,2-2.9,3a20.18,20.18,0,0,1-1.64,1.47,8.17,8.17,0,0,1-2.06,1.18,2.8,2.8,0,0,1-1.59.17,2.12,2.12,0,0,1-1.47-1.29,5.59,5.59,0,0,1-.25-2.55,27.09,27.09,0,0,1,.82-4.25,47.13,47.13,0,0,1,3.25-7.86c2.38-5,5.21-9.83,7.36-14.8a50.42,50.42,0,0,0,2.57-7.7,17.93,17.93,0,0,0,.44-7.73,4.08,4.08,0,0,0-1.89-2.73,5.05,5.05,0,0,0-3.46-.46c-2.48.53-4.77,2.17-6.83,3.89A72.45,72.45,0,0,0,149.79,282.44Z" style="fill:#263238"></path><path d="M81.05,377.24c14.42-14.11,29.81-27.3,46.62-38.49l-.66,1.11a147.9,147.9,0,0,1,3.32-22.63c1.48-7.55,5.35-14.39,9.23-21,5.87-9.73,18.93-31.61,31.77-30.34-14-.37-28.85,30.36-34.73,41.59-4.41,10.13-5.57,21.63-6.71,32.58l-.06.73-.6.39C112.36,352,96.64,364.62,81.05,377.24Z" style="fill:#263238"></path><path d="M215.62,273.52a22.11,22.11,0,0,1,2.95,3.52,22.68,22.68,0,0,1,2.19,4.06,28.62,28.62,0,0,1,2.18,9l-.11-.26a12.88,12.88,0,0,1,2.37,4.07,20.22,20.22,0,0,1,1.09,4.53,24.93,24.93,0,0,1,.11,4.65,37.38,37.38,0,0,1-.62,4.6l-.18-.62a6.72,6.72,0,0,1,1.31,2.89,14.81,14.81,0,0,1,.38,2.94,28.65,28.65,0,0,1-.46,5.79,63.57,63.57,0,0,1-3.12,11,126.08,126.08,0,0,1-9.82,20.54,149.1,149.1,0,0,1-28.84,35c-31.24,29.9-64.66,52.14-71.35,55.65,6.48-3.88,49.68-37.85,69.89-57.23a157.92,157.92,0,0,0,28.51-34.52A129.43,129.43,0,0,0,222,329a61.09,61.09,0,0,0,3.28-10.64,26.58,26.58,0,0,0,.57-5.46,13.9,13.9,0,0,0-.28-2.67,5.86,5.86,0,0,0-.89-2.25l-.25-.31.07-.31a36.29,36.29,0,0,0,.7-4.4,25.32,25.32,0,0,0,0-4.44,18.69,18.69,0,0,0-.87-4.33,12.26,12.26,0,0,0-2-3.84l-.11-.13v-.14a27.75,27.75,0,0,0-1.81-8.83,24.09,24.09,0,0,0-2-4.09A21.16,21.16,0,0,0,215.62,273.52Z" style="fill:#263238"></path></g><g id="freepik--character-hand-3--inject-514"><path d="M306.69,425c.9.2,2.09.43,3.52.67h0c1.7.3,3.75.62,6.09.94l.16,0c16.73,2.33,47.46,5.14,65.45,3.11l3.51-46.7c-1.89,0-5.82.07-6.59,0-.61-.08-30.14-4.92-55.07-10.09l-.31-.06c-3.08-.64-6-1.23-8.81-1.75-3.13-.59-6-1.1-8.55-1.49C299.42,368.65,300.49,423.62,306.69,425Z" style="fill:#d3766a"></path><path d="M229.77,367.55c-.42,6,22,6.86,22,6.86s-5,2.9-5.33,7c-.4,4.73,6.49,9,6.49,9a14.18,14.18,0,0,0-2.64,7.94c.07,4.56,7,8.33,7,8.33a12.46,12.46,0,0,0,2.07,8.44c4.76,6.43,18.2,8.4,26,8.75,8.31.37,20.58,1.95,26,1.81l5.41-53.79s-33.34-12.74-42.56-13.1C266,358.5,230.37,358.85,229.77,367.55Z" style="fill:#d3766a"></path><path d="M251.78,374.41c8.47-.63,17.07.77,25.36,2.21.19,0,.13.32-.05.29-8.23-1.53-17.06-.9-25.33-2.1A.2.2,0,0,1,251.78,374.41Z" style="fill:#263238"></path><path d="M253.08,390.24a21.93,21.93,0,0,1,5.78-.28q3.09.06,6.15.23c4.11.23,8.2.54,12.29,1,.18,0,.2.3,0,.29-4.08-.22-8.18-.37-12.27-.41q-3.07,0-6.15,0a26.09,26.09,0,0,1-5.79-.24A.29.29,0,0,1,253.08,390.24Z" style="fill:#263238"></path><path d="M257.18,406.68c1.61-.47,3.58-.1,5.22,0,1.87.14,3.74.26,5.6.38,3.74.24,7.48.48,11.22.58.18,0,.19.3,0,.3-3.8-.09-7.6-.13-11.4-.26-1.87-.06-3.74-.13-5.6-.21-1.59-.07-3.58,0-5.06-.64C257.08,406.83,257.1,406.7,257.18,406.68Z" style="fill:#263238"></path><path d="M334.14,375.21l-10.68-2.3s4.14,33.59-7.15,53.74l11.6,1.41S339.09,406.84,334.14,375.21Z" style="fill:#263238"></path><ellipse cx="329.85" cy="395.35" rx="9" ry="9.37" transform="translate(-133.61 619.65) rotate(-75.99)" style="fill:#263238"></ellipse><path d="M325,387.54a8.36,8.36,0,0,0-3.27,11.7,9.19,9.19,0,0,0,12.17,3.39,8.36,8.36,0,0,0,3.28-11.7A9.2,9.2,0,0,0,325,387.54Z" style="fill:#37474f"></path><ellipse cx="329.45" cy="395.08" rx="8.05" ry="8.37" transform="translate(-133.66 619.05) rotate(-75.98)" style="fill:#fff"></ellipse><path d="M326.92,387.35c-.1,4.29-.26,11.34-.31,15.27a8.74,8.74,0,0,0,3.8.5l3.51-14.77A8.68,8.68,0,0,0,326.92,387.35Z" style="fill:#ebebeb;opacity:0.5"></path><path d="M325,388.16a8,8,0,0,0-2.08,1.73l.93,11.11a8.44,8.44,0,0,0,1.14.85C325,398.34,325,391.93,325,388.16Z" style="fill:#ebebeb;opacity:0.5"></path><polygon points="335.03 392 335.11 392.13 336.21 391.54 336.13 391.4 335.03 392" style="fill:#263238"></polygon><polygon points="335.94 395.29 337.2 395.31 337.2 395.15 335.94 395.13 335.94 395.29" style="fill:#263238"></polygon><polygon points="335.02 398.39 336.12 399.02 336.2 398.89 335.11 398.25 335.02 398.39" style="fill:#263238"></polygon><polygon points="332.62 400.6 333.25 401.68 333.39 401.6 332.76 400.53 332.62 400.6" style="fill:#263238"></polygon><polygon points="329.36 402.56 329.53 402.57 329.53 401.34 329.37 401.34 329.36 402.56" style="fill:#263238"></polygon><polygon points="325.5 401.45 325.64 401.53 326.28 400.48 326.14 400.4 325.5 401.45" style="fill:#263238"></polygon><polygon points="322.7 398.63 322.78 398.76 323.88 398.17 323.8 398.04 322.7 398.63" style="fill:#263238"></polygon><polygon points="321.71 395.01 322.97 395.04 322.97 394.88 321.71 394.86 321.71 395.01" style="fill:#263238"></polygon><polygon points="322.71 391.28 323.8 391.91 323.88 391.78 322.79 391.15 322.71 391.28" style="fill:#263238"></polygon><polygon points="325.52 388.57 326.15 389.64 326.29 389.56 325.66 388.49 325.52 388.57" style="fill:#263238"></polygon><polygon points="329.38 388.82 329.54 388.83 329.55 387.61 329.38 387.6 329.38 388.82" style="fill:#263238"></polygon><polygon points="332.63 389.69 332.77 389.77 333.41 388.72 333.27 388.64 332.63 389.69" style="fill:#263238"></polygon><polygon points="335.61 391.64 328.77 395.01 329.17 395.68 335.72 391.82 335.61 391.64" style="fill:#455a64"></polygon><polygon points="329.33 389.65 329.05 395.6 329.84 395.59 329.54 389.65 329.33 389.65" style="fill:#263238"></polygon><path d="M329.32,394.86a.25.25,0,0,0-.1.35.27.27,0,0,0,.37.1.25.25,0,0,0,.1-.35A.28.28,0,0,0,329.32,394.86Z" style="fill:#c7c7c7"></path></g><g id="freepik--character-hand-2--inject-514"><path d="M295,357h0l.13.08a57.14,57.14,0,0,0,6.7,2.45c2.56.81,5.62,1.69,9,2.61,4.63,1.26,9.92,2.58,15.48,3.89l.31.08c15.48,3.63,33,7.1,44.73,8.46,5.2.61,18.15.48,36.52-.88l-4.48-37.14c-11.28-2-20-3.45-22.36-4.29-.47-.16-21.44-8.19-42.4-16.31l-.48-.18c-4.82-1.86-9.63-3.73-14.17-5.5l-7.58-3L312,305.61l-6.91-2.74a1.27,1.27,0,0,0-1.1.1c-2.79,1.51-5.95,12-8.1,23.45C293.32,340.16,292.2,355.15,295,357Z" style="fill:#ad6359"></path><path d="M262.53,347.14c9.4,6.14,33.53,11.17,39.82,10.15s16.21-41.76,12.14-46.87-37.32-23.33-48.72-22.23S252.8,340.78,262.53,347.14Z" style="fill:#ad6359"></path><path d="M283.65,290c-.37,5.93-5.22,5.33-5.22,5.33s11.21,2.74,11.73,9.3c.48,6.31-8.93,5.94-9.6,5.93.59.15,10.82,2.94,10.66,9.58-.16,6.9-9.55,4.91-10.15,4.78.51.31,7.23,4.63,6,9.64-2.18,8.62-19.68-1.93-26.58.09,0,0,2.09,12.1,2.07,12.47,0,0-16.85-9.7-19.06-19.17a6.22,6.22,0,0,1,3.27-7.07s-5.78-2.52-5.83-7.75c0-2.69,4.27-5.1,4.27-5.1s-4.54-2.22-4.29-6.87c.19-3.72,4.46-5.56,4.46-5.56s-25-6.42-24-13.16c1.59-11.62,54.23,5.11,58.36,2C281.7,282.89,283.81,287.43,283.65,290Z" style="fill:#ad6359"></path><path d="M246,295.23a.09.09,0,0,1,0-.17c10.34-3.1,22.66-3.33,32.91.24.34.12,1.34,1.44,1,1.33C270.18,293.94,257.33,293.71,246,295.23Z" style="fill:#263238"></path><path d="M245,308c-.12,0-.15-.18,0-.22,10.68-3.14,24.56-3,35.9,2.49.39.19.55.75.08.57C273.16,307.73,255.23,306.58,245,308Z" style="fill:#263238"></path><path d="M281.72,325.59c-11.07-4.87-22.59-5.69-34.55-4.84-.16,0-.16-.21,0-.26,5.74-2,13.42-1.76,19.37-1.05a31.79,31.79,0,0,1,15.38,5.77C282.08,325.34,282,325.7,281.72,325.59Z" style="fill:#263238"></path><path d="M278.6,295.23c.4.14-.71.85-.31,1,4.32,1.7,11.91,5.13,11.32,9-.48,3.07-4.94,4.55-6.88,4.45l-4.86-.26,4.48,1.94a19.87,19.87,0,0,1,5.47,3.43,7.13,7.13,0,0,1,2.71,5.17,4.08,4.08,0,0,1-3,4.15,12.46,12.46,0,0,1-6.18-.08l-5.62-1.34,4.85,3.09a18.21,18.21,0,0,1,3.68,3.05,7.74,7.74,0,0,1,2.13,3.92,3.67,3.67,0,0,1-1.49,3.57,8,8,0,0,1-4.46.86,63.29,63.29,0,0,1-9.89-1.56c-1.66-.34-3.32-.68-5-.94a12.2,12.2,0,0,0-5.07,0,13.14,13.14,0,0,1,5,.45c1.64.39,3.26.85,4.89,1.31a55.23,55.23,0,0,0,10,2.13,9.54,9.54,0,0,0,5.38-.86,5.22,5.22,0,0,0,2.4-5.19,9.43,9.43,0,0,0-2.51-4.93,20.7,20.7,0,0,0-4.05-3.47l-.76,1.76a14.16,14.16,0,0,0,7.29.17,5.94,5.94,0,0,0,3.28-2.3,6.72,6.72,0,0,0,1.11-3.79,9,9,0,0,0-3.43-6.55,21.72,21.72,0,0,0-6.08-3.68l-.38,1.67c2.46.05,7.63-1.07,9-5.73C292.42,299.31,280.77,295.73,278.6,295.23Z" style="fill:#263238"></path><path d="M314.49,310.42S301,282.48,291.24,278.49s-28.68,9.53-34.81,15.57c-8.46,8.32-1.64,13.55,4.7,12.54,7.34-1.16,17.3-6.48,18-6.84,0,0-.2,18.19,11,25.29S314.49,310.42,314.49,310.42Z" style="fill:#ad6359"></path><path d="M269.93,284a100.42,100.42,0,0,0-11.22,8.42,23.49,23.49,0,0,0-4.62,5.11c-1.86,2.89-1.58,6.91,2,8.14,3.28,1.17,6.76.18,10.05-.7a48.8,48.8,0,0,0,12.71-5.54l.74-.47-.06.87a31.05,31.05,0,0,0,8.79,24c-6.75-5.92-10.15-15.14-9.66-24.05l.68.41c-5.65,3.54-17,8.68-23.58,6.37-4.1-1.45-4.63-6.09-2.38-9.39a24.06,24.06,0,0,1,4.9-5.16,81.49,81.49,0,0,1,11.61-8Z" style="fill:#263238"></path><path d="M301.5,360.74s3.58.92,9.14,2.31c16.52,4.13,50.56,12.38,61,12.93l.66,0c6.57.13,20.22-.11,35.78-1l-4.77-39.57c-10.39-1.77-18.46-3.15-20.41-4.11l-.28-.13c-5.2-2.38-42-16.33-58.2-22.42l-7.56-2.85-.4,1.4-1.3,4.65-12.66,45.27-.65,2.3Z" style="fill:#ebebeb"></path><path d="M309.5,367.55S358,375.47,371.62,376l.66,0c6.57.13,20.22-.11,35.78-1l-4.77-39.57c-10.39-1.77-18.46-3.15-20.41-4.11l-.28-.13c-6.48-3.08-57.54-25-57.54-25l-.66,2.62L324,310.3l-13.15,51.87-.23.88Z" style="fill:#37474f"></path><path d="M338.8,315c-.21,2.25-.82,4.43-1.23,6.63s-.89,4.39-1.39,6.58c-1,4.2-2,8.39-3,12.57s-2.08,8.37-3.14,12.54-2,8.79-3.4,13a.15.15,0,1,1-.29-.08c.63-4.43,1.83-8.8,2.8-13.15s1.92-8.58,2.89-12.87,2-8.57,3-12.83c.52-2.09,1.06-4.18,1.66-6.24s1-4.24,1.82-6.24C338.6,314.7,338.81,314.83,338.8,315Z" style="fill:#263238"></path></g><g id="freepik--character-hand-1--inject-514"><path d="M356.11,261.54c-.86,1.7-1.75,3.67-2.61,5.8-5.92,14.47-11.46,36.81-8.07,39.16h0a58.35,58.35,0,0,0,5.21,3c3.19,1.68,7.36,3.7,12.12,5.9l.38.17c10.22,4.7,19.93,8.93,31.68,13.29l12.11-49.63c-8.2-4.68-40.12-21.25-42.54-22.68L362,255.2C360.55,254.32,358.4,257,356.11,261.54Z" style="fill:#ffc4c0"></path><path d="M350.14,246.23c-7.81-2-16.6-5-25-4.07S310.71,254.77,311,258s5.19,22.76,13.6,22,2-15.54,2.18-17.32.29-4,1.89-4,30.54,10.79,30.54,10.79Z" style="fill:#ffc4c0"></path><path d="M349.7,247.44c-.47,0-23.8-6.89-32.2-6s-14.43,12.61-14.15,15.79,5.18,22.76,13.6,22,2-15.53,2.17-17.31.29-4,1.89-4,30.55,10.79,30.55,10.79Z" style="fill:#ffc4c0"></path><path d="M319.71,277.94c.92-1.42.93-3.44,1-5.1a17.27,17.27,0,0,0-.78-5.34,29.57,29.57,0,0,1-1.42-4.55,9.27,9.27,0,0,1,.79-4.55c.54-1.24,1.81-.94,2.91-.66a44.75,44.75,0,0,1,4.76,1.67c1.68.66,3.34,1.36,5,2a45,45,0,0,1,5.12,2.26c.12.07.06.28-.09.24a43.86,43.86,0,0,1-4.43-1.55q-2.51-.91-5-1.79c-1.57-.53-3.1-1.16-4.68-1.67a4.9,4.9,0,0,0-2.27-.47c-.64.2-.81,1.8-.91,2.33a7.92,7.92,0,0,0,.68,4.52,24.16,24.16,0,0,1,1.28,4.54,12.39,12.39,0,0,1,0,4.42,17.14,17.14,0,0,1-1.69,3.79C319.89,278.25,319.61,278.1,319.71,277.94Z" style="fill:#263238"></path><path d="M378.33,267.21s-25.18-19.23-30.4-23c-10.48-7.62-53-20.81-58.74-20.92s-6.82,11.79,22.09,21.55c15.24,5.14,18.58,13.32,18.71,18s-3.57,13.75-11.42,14.22-13.94-10.52-21.25-11.16-1.4,12.13,4.34,19.32,15.52,12.66,22.52,14.61S352.93,309,352.93,309Z" style="fill:#ffc4c0"></path><path d="M308.36,272.37c3.15,2,6.75,4.7,10.65,4.51s6.41-3,8-6.47,2.35-7.32,1.11-11a18.33,18.33,0,0,0-6.13-8.32,44.63,44.63,0,0,0-11.23-6.15c-.18-.07-.05-.33.13-.26,3.75,1.29,15.36,4.91,18.47,14.62,1.27,4,.36,7.68-1.23,11.23-1.46,3.27-3.73,6.5-7.5,7.14-4.6.78-8.91-2.64-12.48-5.16C308,272.39,308.2,272.26,308.36,272.37Z" style="fill:#263238"></path><path d="M408.83,271.53l-15.41,63.14c-1.75-.47-3.52-1-5.29-1.48-.93-.26-1.88-.54-2.83-.84-.6-.16-1.21-.35-1.81-.55-.9-.26-1.8-.55-2.68-.83-2.68-.85-5.31-1.75-7.84-2.69-3.54-1.31-11.66-9.5-11.66-9.5C353.78,316,348.63,314,348.63,314l2-4.42.52-1.16,17.28-38,3.16-7,.46-1,.48-1.06,1.63-3.59,11.49,7.06s8.36-2.91,12.47-.37C401.54,266.56,405.18,269,408.83,271.53Z" style="fill:#BA68C8"></path><path d="M390.14,304.68a3.83,3.83,0,1,0,.49,5.39A3.83,3.83,0,0,0,390.14,304.68Zm-20.39-17.06a3.83,3.83,0,1,0,.47,5.39A3.84,3.84,0,0,0,369.75,287.62Zm22.91-6.68a3.83,3.83,0,1,0,.48,5.4A3.85,3.85,0,0,0,392.66,280.94Zm-20.39-17.06a4,4,0,0,0-.66-.44l-3.16,7a3.83,3.83,0,0,0,3.82-6.52Zm14.61,65.43a3.82,3.82,0,0,0-5.39.47,3.74,3.74,0,0,0-.68,1.19c.88.28,1.78.57,2.68.83.6.2,1.21.39,1.81.55.95.3,1.9.58,2.83.84A3.82,3.82,0,0,0,386.88,329.31Zm-20.4-17.07a3.66,3.66,0,0,0-1.28-.7,3.29,3.29,0,0,0-.87-.18,3.78,3.78,0,0,0-3.24,1.35,3.83,3.83,0,1,0,5.39-.47Z" style="opacity:0.1"></path><path d="M384.5,267.44c-.6,2.17-1.62,4.23-2.43,6.34s-1.7,4.19-2.6,6.27c-1.73,4-3.52,8-5.34,11.93s-3.63,7.92-5.46,11.88-3.6,8.35-5.81,12.28a.16.16,0,0,1-.29-.12c1.43-4.27,3.44-8.4,5.21-12.54s3.5-8.16,5.26-12.24,3.55-8.14,5.39-12.18c.91-2,1.84-3.95,2.82-5.9s1.82-4,3-5.87C384.34,267.13,384.54,267.29,384.5,267.44Z" style="fill:#263238"></path></g><g id="freepik--Device--inject-514"><polygon points="457.55 464.57 370.02 464.57 370.02 458.95 445.07 455.09 419.54 363.49 408.8 363.49 408.8 354.01 426.74 354.01 457.55 464.57" style="fill:#dbdbdb"></polygon><polygon points="418.17 354.01 414.79 363.49 408.81 363.49 408.81 354.01 418.17 354.01" style="fill:#c7c7c7"></polygon><rect x="386.39" y="256.34" width="9.78" height="185.77" transform="translate(68.6 -64.22) rotate(10.28)" style="fill:#c7c7c7"></rect><polygon points="422.71 304.36 404.97 402.2 379.51 441.49 412.66 258.7 422.71 304.36" style="fill:#dbdbdb"></polygon><polygon points="351.96 464.57 351.96 454.62 264.43 458.95 264.43 464.57 351.96 464.57" style="fill:#dbdbdb"></polygon></g><g id="freepik--Table--inject-514"><path d="M38.13,464.57c135.74-.61,288-.62,423.74,0-135.74.62-288,.61-423.74,0Z" style="fill:#263238"></path></g></svg>
