<svg xmlns="http://www.w3.org/2000/svg" viewBox="0 0 750 500"><g id="freepik--background-complete--inject-607"><rect x="627.96" y="224.43" width="46.37" height="34.67" style="fill:#ebebeb"></rect><polygon points="642.3 259.1 659.99 259.1 651.14 268.66 642.3 259.1" style="fill:#ebebeb"></polygon><path d="M660.15,244.06a28.09,28.09,0,0,1-9,7.82,28.09,28.09,0,0,1-9-7.82c-3.17-4.19-3-10.75,1.52-12.17,5-1.58,7.48,6,7.48,6s2.49-7.59,7.48-6C663.14,233.35,663.32,239.87,660.15,244.06Z" style="fill:#fff"></path><rect x="453.06" y="111.63" width="46.37" height="34.67" style="fill:#ebebeb"></rect><polygon points="467.4 146.3 485.08 146.3 476.24 155.86 467.4 146.3" style="fill:#ebebeb"></polygon><path d="M481,123.34a4.75,4.75,0,1,1-4.75-4.74A4.75,4.75,0,0,1,481,123.34Z" style="fill:#fff"></path><path d="M486.26,138.71h-20s.54-4.77,1.52-6.2,3.56-3,8.49-3,7.52,1.61,8.49,3S486.26,138.71,486.26,138.71Z" style="fill:#fff"></path><rect x="84.13" width="1.57" height="84.15" style="fill:#ebebeb"></rect><rect x="80.54" y="77.14" width="8.75" height="5.92" style="fill:#dbdbdb"></rect><rect x="80.54" y="79.11" width="8.75" height="3.95" style="fill:#c7c7c7"></rect><path d="M78.17,122.22a6.74,6.74,0,1,0,6.74-6.74A6.74,6.74,0,0,0,78.17,122.22Z" style="fill:#ebebeb"></path><polygon points="62.98 122.22 106.84 122.22 98.9 108.14 92.42 82.01 77.4 82.01 70.92 108.14 62.98 122.22" style="fill:#dbdbdb"></polygon><rect x="165.68" width="1.57" height="70.31" style="fill:#ebebeb"></rect><rect x="162.09" y="63.29" width="8.75" height="5.92" style="fill:#dbdbdb"></rect><rect x="162.09" y="65.26" width="8.75" height="3.95" style="fill:#c7c7c7"></rect><path d="M159.73,108.38a6.74,6.74,0,1,0,6.73-6.74A6.73,6.73,0,0,0,159.73,108.38Z" style="fill:#ebebeb"></path><polygon points="144.53 108.38 188.39 108.38 180.45 94.3 173.97 68.16 158.96 68.16 152.48 94.3 144.53 108.38" style="fill:#dbdbdb"></polygon><rect x="243.91" width="1.57" height="55.85" style="fill:#ebebeb"></rect><rect x="240.32" y="48.83" width="8.75" height="5.92" style="fill:#dbdbdb"></rect><rect x="240.32" y="50.8" width="8.75" height="3.95" style="fill:#c7c7c7"></rect><path d="M238,93.92a6.74,6.74,0,1,0,6.74-6.74A6.74,6.74,0,0,0,238,93.92Z" style="fill:#ebebeb"></path><polygon points="222.76 93.92 266.62 93.92 258.68 79.84 252.2 53.7 237.19 53.7 230.71 79.84 222.76 93.92" style="fill:#dbdbdb"></polygon><polygon points="57.52 363.45 244.22 363.45 248.1 286.84 53.64 286.84 57.52 363.45" style="fill:#ebebeb"></polygon><path d="M235.37,321.91H157.32l-1.47-26.6h81.23ZM158.21,321h76.28l1.58-24.71H156.85Z" style="fill:#dbdbdb"></path><path d="M233.93,352.5H160.37l-1.19-24h76.25Zm-72.66-.94H233l1.39-22.12H160.17Z" style="fill:#dbdbdb"></path><path d="M203.86,311.49H190.74l-.82-6.41h14.77Zm-12.29-.94H203l.58-4.53H191Z" style="fill:#dbdbdb"></path><path d="M203.86,343.71H190.74l-.82-6.42h14.77Zm-12.29-.94H203l.58-4.53H191Z" style="fill:#dbdbdb"></path><path d="M143.56,321.91h-78L64,295.31h81.23ZM66.4,321h76.28l1.58-24.71H65Z" style="fill:#dbdbdb"></path><path d="M142.12,352.5H68.56l-1.19-24h76.25Zm-72.66-.94h71.77l1.39-22.12H68.36Z" style="fill:#dbdbdb"></path><path d="M112.05,311.49H98.93l-.82-6.41h14.77Zm-12.29-.94h11.46l.58-4.53H99.18Z" style="fill:#dbdbdb"></path><path d="M112.05,343.71H98.93l-.82-6.42h14.77Zm-12.29-.94h11.46l.58-4.53H99.18Z" style="fill:#dbdbdb"></path><polygon points="74.26 363.45 73.09 371.79 70.73 388.56 66.12 388.56 66.12 363.45 74.26 363.45" style="fill:#ebebeb"></polygon><polygon points="74.26 363.45 73.09 371.79 66.12 371.79 66.12 363.45 74.26 363.45" style="fill:#dbdbdb"></polygon><polygon points="227.48 363.45 228.65 371.79 231.01 388.56 235.62 388.56 235.62 363.45 227.48 363.45" style="fill:#ebebeb"></polygon><polygon points="227.48 363.45 228.65 371.79 235.62 371.79 235.62 363.45 227.48 363.45" style="fill:#dbdbdb"></polygon><rect x="225.26" y="134.02" width="30.12" height="22.52" style="fill:#ebebeb"></rect><polygon points="234.58 156.54 246.06 156.54 240.32 162.75 234.58 156.54" style="fill:#ebebeb"></polygon><path d="M246.17,146.77a18.28,18.28,0,0,1-5.85,5.08,18.19,18.19,0,0,1-5.84-5.08c-2.06-2.72-2-7,1-7.91,3.26-1,4.86,3.88,4.86,3.88s1.62-4.93,4.86-3.88C248.11,139.82,248.23,144.05,246.17,146.77Z" style="fill:#fff"></path><path d="M643.81,322.52l13.36-.28,6.58-.11c2.19,0,4.36,0,6.55-.05l-.45.44-.05-11.19.5.5-13.25-.06c-4.41,0-8.82-.11-13.24-.16l.28-.28c0,1.84-.09,3.68-.13,5.54Zm0,0-.14-5.53c0-1.87-.11-3.76-.13-5.66v-.27h.27c4.42-.05,8.83-.16,13.24-.16l13.25-.07h.5v.5l0,11.19V323h-.44c-2.24,0-4.47,0-6.7-.06l-6.66-.11Z" style="fill:#ebebeb"></path><path d="M658.59,336.63l13.35-.28,6.58-.11c2.19,0,4.36,0,6.55-.05l-.45.44,0-11.19.5.5-13.24-.06c-4.42,0-8.83-.11-13.24-.16l.27-.28c0,1.83-.09,3.68-.13,5.54Zm0,0-.15-5.53c0-1.87-.11-3.76-.13-5.66v-.27h.28c4.41-.05,8.82-.16,13.24-.16l13.24-.07h.5v.5l-.06,11.19v.45h-.44c-2.24,0-4.47,0-6.7-.06l-6.66-.11Z" style="fill:#ebebeb"></path><path d="M629,336.63l13.36-.28,6.58-.11c2.19,0,4.36,0,6.54-.05l-.44.44L655,325.44l.5.5-13.24-.06c-4.41,0-8.82-.11-13.24-.16l.28-.28c0,1.83-.09,3.68-.14,5.54Zm0,0-.14-5.53c0-1.87-.11-3.76-.13-5.66v-.27H629c4.42-.05,8.83-.16,13.24-.16l13.24-.07H656v.5l0,11.19v.45h-.45c-2.23,0-4.47,0-6.69-.06l-6.66-.11Z" style="fill:#ebebeb"></path><path d="M74.59,336.63l13.35-.28,6.58-.11c2.19,0,4.36,0,6.55-.05l-.45.44-.05-11.19.5.5-13.24-.06c-4.42,0-8.83-.11-13.24-.16l.27-.28c0,1.83-.09,3.68-.13,5.54Zm0,0-.15-5.53c0-1.87-.11-3.76-.13-5.66v-.27h.28c4.41-.05,8.82-.16,13.24-.16l13.24-.07h.5v.5l0,11.19v.45h-.44c-2.24,0-4.47,0-6.7-.06l-6.66-.11Z" style="fill:#ebebeb"></path><path d="M502.76,112.63l13.35-.28,6.58-.11c2.19,0,4.37,0,6.55-.06l-.45.45,0-11.19.5.5L516,101.87c-4.42,0-8.83-.11-13.24-.16l.27-.27c0,1.83-.09,3.67-.13,5.53Zm0,0-.15-5.54c0-1.87-.11-3.75-.13-5.65v-.27h.28c4.41,0,8.82-.16,13.24-.16l13.24-.06h.5v.51l-.06,11.19v.45h-.44c-2.23,0-4.47,0-6.7,0l-6.66-.12Z" style="fill:#ebebeb"></path><path d="M74.59,60.77l13.35-.28,6.58-.12c2.19,0,4.36,0,6.55,0l-.45.45-.05-11.19.5.49L87.83,50c-4.42,0-8.83-.11-13.24-.16l.27-.27c0,1.83-.09,3.67-.13,5.53Zm0,0-.15-5.54c0-1.87-.11-3.76-.13-5.65v-.27h.28c4.41,0,8.82-.16,13.24-.16l13.24-.06h.5v.51l0,11.19v.44h-.44c-2.24,0-4.47,0-6.7-.05L87.71,61Z" style="fill:#ebebeb"></path><path d="M59.81,74.88l13.36-.28,6.58-.12c2.19,0,4.36,0,6.54,0l-.44.45-.06-11.19.5.49-13.24-.06c-4.41,0-8.82-.11-13.24-.16l.28-.27c0,1.83-.09,3.67-.13,5.53Zm0,0-.14-5.54c0-1.87-.11-3.76-.13-5.65v-.27h.27c4.42,0,8.83-.16,13.24-.16l13.24-.06h.51v.51l-.05,11.19v.44h-.45c-2.23,0-4.47,0-6.69,0l-6.66-.12Z" style="fill:#ebebeb"></path><path d="M658.59,60.78l13.35-.28,6.58-.11c2.19,0,4.36,0,6.55-.06l-.45.45,0-11.19.5.5L671.83,50c-4.42,0-8.83-.11-13.24-.16l.27-.27c0,1.83-.09,3.67-.13,5.53Zm0,0-.15-5.54c0-1.87-.11-3.75-.13-5.65v-.27h.28c4.41-.05,8.82-.15,13.24-.16l13.24-.06h.5v.5l-.06,11.19v.45h-.44c-2.24,0-4.47,0-6.7,0l-6.66-.11Z" style="fill:#ebebeb"></path><path d="M203.43,166.32l-13.35.28-6.58.11c-2.19,0-4.36,0-6.55.06l.45-.45,0,11.19-.5-.5,13.24.06c4.42,0,8.83.12,13.24.17l-.27.27c0-1.83.09-3.67.13-5.54Zm0,0,.15,5.54c0,1.86.11,3.75.13,5.65v.27h-.28c-4.41.05-8.82.16-13.24.17L177,178h-.5v-.5l.06-11.19v-.45H177c2.24,0,4.47,0,6.7.05l6.66.11Z" style="fill:#ebebeb"></path><path d="M188.66,152.21l-13.35.28-6.58.11c-2.19.05-4.37,0-6.55.06l.45-.45.05,11.19-.5-.5,13.24.06c4.42,0,8.83.12,13.24.17l-.27.27c0-1.83.09-3.67.13-5.54Zm0,0,.14,5.54c0,1.86.12,3.75.14,5.65v.27h-.28c-4.41.06-8.82.16-13.24.17l-13.24.06h-.5v-.5l.06-11.19v-.45h.44c2.23,0,4.47,0,6.7,0l6.66.11Z" style="fill:#ebebeb"></path></g><g id="freepik--Shadow--inject-607"><ellipse cx="375" cy="425.55" rx="295.34" ry="25.23" style="fill:#ebebeb"></ellipse></g><g id="freepik--Floor--inject-607"><polygon points="50.72 388.8 131.79 388.55 212.86 388.46 375 388.3 537.14 388.46 618.21 388.55 699.28 388.8 618.21 389.04 537.14 389.13 375 389.3 212.86 389.13 131.79 389.04 50.72 388.8" style="fill:#263238"></polygon></g><g id="freepik--Plant--inject-607"><path d="M666.22,335.63s10-35.93,18-48.13,22.89-25.61,22.89-25.61S706.77,317.28,666.22,335.63Z" style="fill:#BA68C8"></path><path d="M666.94,335a170.29,170.29,0,0,0,9.12-17.41,121.88,121.88,0,0,1,5-18.89.09.09,0,0,1,.17.06c-1.33,5.68-2.87,11.31-4.27,17,4-8.75,7.88-17.6,12.69-25.87a54.94,54.94,0,0,1,4.64-11.5c.05-.1.23-.05.18.07a73.47,73.47,0,0,0-3.13,8.62,86.85,86.85,0,0,1,7.61-10.51c.17-.2.52,0,.35.25-6.43,8.21-10.87,17.55-15.11,27a142.41,142.41,0,0,0,12.57-15.7c0-.05.12,0,.08.06a127.73,127.73,0,0,1-13.45,17.44c-3.08,6.93-6.11,13.89-9.78,20.48,7.34-6.2,13-14.23,18.57-22a.17.17,0,0,1,.28.19c-5.59,8.5-11.38,16.5-19.42,22.79a92.58,92.58,0,0,1-5.37,8.4A.43.43,0,0,1,666.94,335Z" style="fill:#263238"></path><path d="M663.12,338.86s18-33.13,12.76-65.25-10.82-43.55-10.82-43.55S636.78,280,663.12,338.86Z" style="fill:#BA68C8"></path><path d="M655.73,286.78a157.15,157.15,0,0,0,6.95,26.75c.05-11.79.27-23.57.59-35.36a91.61,91.61,0,0,1-3.4-21.95c0-.22.32-.21.34,0a125,125,0,0,0,3.15,18.89q.4-14.58.95-29.16a.13.13,0,0,1,.25,0c0,15.19,0,30.38-.1,45.57a122.15,122.15,0,0,0,5.19-18c0-.06.11-.05.1,0-.54,7.1-2.69,14-5.31,20.54-.07,9.71-.17,19.42-.39,29.13,3-10.33,6.3-20.32,7.18-31.23,0-.15.23-.15.22,0-.23,12-3.34,24.24-7.3,35.55a.71.71,0,0,1-.2.29q-.13,5.33-.31,10.64a.4.4,0,0,1-.79,0q-.21-10.89-.18-21.78a97.61,97.61,0,0,1-7.09-29.82C655.57,286.71,655.72,286.69,655.73,286.78Z" style="fill:#263238"></path><path d="M657,281.66a61.46,61.46,0,0,1,1.25,8.75c0,.1-.14.11-.17,0a62.66,62.66,0,0,1-1.48-8.73C656.55,281.48,656.92,281.44,657,281.66Z" style="fill:#263238"></path><path d="M667.49,257.44c0-.1.17-.07.17,0a22.8,22.8,0,0,1-.9,6,.13.13,0,0,1-.25-.07C666.9,261.44,667.15,259.44,667.49,257.44Z" style="fill:#263238"></path><path d="M656.56,341.4s.73-34.58-9.19-51.77S621,263.68,621,263.68,627.63,324.64,656.56,341.4Z" style="fill:#BA68C8"></path><path d="M638.48,311.83a128.37,128.37,0,0,0,13.42,17q-3-10.6-6.86-20.85c-5.57-4.88-11.08-9.93-14.49-16.61-.06-.1.09-.19.16-.09,3.67,5.91,8.57,10.64,13.74,15.19a270,270,0,0,0-13.81-30.08.22.22,0,0,1,.37-.22A164.36,164.36,0,0,1,639.67,292c-.93-3.69-1.67-7.47-2.62-11.14,0-.11.12-.14.16-.05,1.75,4.63,3.51,9.73,4.07,14.67A176.22,176.22,0,0,1,650,319.11c-.25-5.19-.58-10.35-1.11-15.52,0-.1.15-.12.17,0a83.48,83.48,0,0,1,1.5,17.42c1.43,5.15,2.64,10.37,3.6,15.62a.11.11,0,0,1-.22.06c-.53-2.2-1.12-4.39-1.72-6.57a.3.3,0,0,1-.11,0c-5.32-5.33-10.37-11.41-13.7-18.2C638.41,311.82,638.45,311.79,638.48,311.83Z" style="fill:#263238"></path><path d="M627,283.69c1.11,1.19,2.12,2.45,3.19,3.68A28.24,28.24,0,0,1,633,290.7a.06.06,0,0,1-.08.08,16.7,16.7,0,0,1-3.3-3.26,27.27,27.27,0,0,1-2.82-3.71C626.77,283.71,626.9,283.6,627,283.69Z" style="fill:#263238"></path><path d="M686,337.18l-1.25,16.38L681,403.08H648.15l-3.77-49.52-1.25-16.38H686Z" style="fill:#455a64"></path><path d="M686,337.18l-1.25,16.38h-40.4l-1.25-16.38H686Z" style="fill:#37474f"></path><rect x="640.21" y="329.14" width="48.74" height="12.56" transform="translate(1329.16 670.84) rotate(180)" style="fill:#455a64"></rect></g><g id="freepik--character-2--inject-607"><path d="M372.32,401.45c-2.07.67-62.78.12-65-1.33-.86-.54,3.62-58.1,3.62-58.1l38.63.25-4,38.52s22.53,10.33,24.82,12.18S374.39,400.78,372.32,401.45Z" style="fill:#ffc4c0"></path><path d="M372.32,401.45c-2.07.67-62.79.12-65-1.33-.27-.17-.42-6,.45-13.62,11,1.71,50.39,7.25,53.43,5.41,2.12-1.28.2-3.22-1.56-4.51,5.05,2.43,9.76,4.78,10.73,5.58C372.63,394.82,374.39,400.78,372.32,401.45Z" style="fill:#263238"></path><path d="M348.55,371.53H306s8-90.63,7.68-92.37c-.43-2.22-2.94-12.28-6.28-25.43-1.05-4.11-2.18-8.52-3.36-13.1-3.17-12.37-6.67-25.88-9.72-37.65-4.57-17.62-8.14-31.31-8.14-31.31h36.07s4.2,13.33,9.5,30.67c8.64,28.18,20.17,67,21.31,76.4C354.89,294,348.55,371.53,348.55,371.53Z" style="fill:#37474f"></path><path d="M346.66,364.27c-6.5-.14-4.63-.19-11.13-.25-3.19,0-24.09-.22-27.07.28-.06,0-.06.12,0,.13,3,.49,23.88.31,27.07.28,6.5-.06,4.63-.12,11.13-.25A.1.1,0,0,0,346.66,364.27Z" style="fill:#263238"></path><path d="M321.67,273.09c-1.4-6.16-3.48-12.19-5.3-18.22q-5.53-18.42-11.13-36.8-2.81-9.19-5.62-18.38-1.42-4.65-2.87-9.28c-.95-3-2-6-2.88-9.06-.35-1.24-.54-.56-.09,1,.9,3.17,1.78,6.35,2.71,9.52q2.75,9.41,5.53,18.8,5.53,18.7,11.17,37.38,2.81,9.38,5.63,18.73a76.76,76.76,0,0,1,2.31,9.07,41.88,41.88,0,0,1,.37,9.69c-.41,6.51-1.16,13-1.76,19.51s-1.21,13-1.81,19.53c-1.2,13-1.84,17.13-3,30.09-.15,1.65-.29,3.29-.42,4.93,0,.55.79.51.85,0,1.4-12.81,1.92-16.88,3.12-29.71s2.4-25.54,3.59-38.31c.3-3.2.64-6.42.64-9.64A39.34,39.34,0,0,0,321.67,273.09Z" style="fill:#263238"></path><path d="M318.13,171.67c-2.5,19.38-7.27,55.71-10.75,82.06-8.14-31.93-21.22-82.06-21.22-82.06Z" style="fill:#263238"></path><path d="M327,402.15c-2.07.68-62.78.13-65-1.32-.86-.54,1-58.1,1-58.1l38.63.25L300.2,381.5s22.53,10.33,24.82,12.18S329.07,401.49,327,402.15Z" style="fill:#ffc4c0"></path><path d="M327,402.16c-2.07.67-62.79.12-65-1.33-.27-.17-.27-5.86-.16-13.62,11,1.71,51,7.25,54,5.41,2.12-1.28.21-3.22-1.56-4.51,5,2.43,9.76,4.78,10.74,5.58C327.3,395.53,329.06,401.49,327,402.16Z" style="fill:#263238"></path><path d="M321.06,171.67s-.83,17.26-4.78,30.93c-.32,1.13-.66,2.25-1,3.31a64,64,0,0,0-10.4,5.35s-.41,13.88-.83,29.37c-.46,17.31-.94,36.63-.84,40.72.36,15.33-1.5,90-1.5,90l-42.56.17s7.28-84.52,7.23-90.13c-.08-9,2.11-74.06,1.71-75.51-5.17-19.12,6.21-34.22,6.21-34.22Z" style="fill:#37474f"></path><path d="M300.22,363.79c-6.5-.11-4.64-.17-11.14-.2-3.18,0-24.09-.11-27.06.39-.06,0-.06.12,0,.13,3,.48,23.88.21,27.07.17,6.5-.09,4.63-.14,11.13-.3A.1.1,0,0,0,300.22,363.79Z" style="fill:#263238"></path><path d="M317,204.88a79.64,79.64,0,0,0-12.17,6.38.14.14,0,0,0,.13.25c4.11-2,8.3-3.92,12.29-6.14A.28.28,0,0,0,317,204.88Z" style="fill:#263238"></path><path d="M310.61,199.1q.19-2.92.45-5.84c.39-4.43.85-8.88,1.63-13.27.06-.34.55-.21.52.12-.3,3.44-.7,6.88-1,10.32s-.73,6.87-.79,10.3c0,1,.05,2.78,1.31,3.07,1.71.38,2.51-1.86,2.92-3.08a56.88,56.88,0,0,0,2.14-9.38c.56-3.62.86-7.28,1.2-10.92a.12.12,0,0,1,.23,0c0,7.23-.08,14.78-2.77,21.6-.53,1.33-1.45,2.68-3,2.85h-.08a.25.25,0,0,1,0,.12c0,.21-.08.4-.12.61a4,4,0,0,1-.1.5c-.07.35-.12.71-.21,1.05a.26.26,0,0,1-.52-.06.21.21,0,0,1-.15-.21,5.57,5.57,0,0,1,.47-2,2.57,2.57,0,0,1-1.87-1.57A9,9,0,0,1,310.61,199.1Z" style="fill:#263238"></path><path d="M274.65,208.4a84,84,0,0,0-1.81-8.62c-1.41-6.5,0-13,1.51-19.35a.13.13,0,0,0-.26-.07c-1.53,5.41-3.08,10.89-2.49,16.57a74,74,0,0,0,1.63,7.94,36.74,36.74,0,0,1,.75,8.69c-.13,5.78-.51,11.55-.77,17.32q-.4,8.91-.8,17.82-1.57,35.26-3.05,70.55c-.55,13.18-1.06,26.36-1.44,39.54,0,.12.18.12.18,0,1.4-23.51,2.44-47,3.51-70.56s2.09-46.8,3.09-70.2A64.49,64.49,0,0,0,274.65,208.4Z" style="fill:#263238"></path><path d="M293.2,180.88c-.43,2-.76,4.06-1.32,6.05A8.3,8.3,0,0,1,289,191.6a12.28,12.28,0,0,1-5.1,2.12,22.21,22.21,0,0,1-7.41.11c-.1,0-.15.13,0,.15,1.29.28,2.55.72,3.86.88a17,17,0,0,0,3.83.2,10.66,10.66,0,0,0,5.87-2.18,9,9,0,0,0,2.95-5.27,34.33,34.33,0,0,0,.57-6.7C293.52,180.75,293.24,180.72,293.2,180.88Z" style="fill:#263238"></path><path d="M323.39,139.37a38.71,38.71,0,0,1-7.51,4.67c4.08-6.88,3.46-22.42,3-20.2-2.38,10.59-9,22.2-11.58,22.77h0a29.24,29.24,0,0,1-18.16-3.84l0,0c5.26-7.78,5.05-23.58,4.69-22.62-3.86,10.31-11.83,16.33-13.21,16.31h0c-5.11-4.89-7.82-9.78-7.09-10.27,5.3-3.61,9.82-12.9,13.9-22.73h0c4-9.69,6.06-18.91,11.73-27.55,5.19-7.92,15.55-9.42,21.41-5.37C335.89,81.13,326.68,136.8,323.39,139.37Z" style="fill:#263238"></path><path d="M307.39,70.94c-4.27,1-7.78,4.91-10,8.53-3,4.8-4.93,10.24-7.38,15.32a107,107,0,0,1-18.59,27.33.18.18,0,0,0,.25.27c8.28-6.23,13.95-15.18,18.6-24.39,2.38-4.7,4.25-9.62,6.5-14.38a31.89,31.89,0,0,1,4.54-7.32,19.83,19.83,0,0,1,6.37-4.64A.39.39,0,0,0,307.39,70.94Z" style="fill:#263238"></path><path d="M326.83,175.47H266.91s7.06-41.05,26.37-63c5.2-5.93,13-4.93,17.5-.91a40.78,40.78,0,0,1,4.35,4.93c4.06,5.22,10.69,17.74,11.31,21.13,1,5.6-3.93,11.65-3.93,11.65Z" style="fill:#455a64"></path><path d="M291.82,125c2.7,15.66,11.32,43.64,19.33,47.75,7.76,4,45.52-8.13,52.27-13.1,2.68-2-10.45-18.87-13.94-18.13-13.58,2.86-26.91,7.42-29,6.74-1.16-.39-12.09-16.74-19.46-26.77C291.76,108.86,290.6,118,291.82,125Z" style="fill:#ffc4c0"></path><path d="M361.94,160.57c1.55-.56,14.2-8.9,17.35-12.56a46.86,46.86,0,0,0,8.21-12.79c3.16-7.41,4.65-12.83,3.88-15.25-.9-2.82-3.5-1.86-8.53,9-3.41,7.37-8.17,7.75-11.64,7.7a55.69,55.69,0,0,0-24.91,5.51S356,162.71,361.94,160.57Z" style="fill:#ffc4c0"></path><path d="M378.25,105l-18.81,26.17A1.09,1.09,0,0,0,360,133l15.08,4.24a2.53,2.53,0,0,0,2.53-1l18.81-26.17a1.08,1.08,0,0,0-.52-1.82L380.78,104A2.53,2.53,0,0,0,378.25,105Z" style="fill:#263238"></path><path d="M376.89,104.66l-18.81,26.17a1.09,1.09,0,0,0,.53,1.83l15.08,4.24a2.56,2.56,0,0,0,2.53-1L395,109.76a1.09,1.09,0,0,0-.53-1.83l-15.08-4.24A2.56,2.56,0,0,0,376.89,104.66Z" style="fill:#37474f"></path><path d="M376.9,106.24l-17.25,24c-.52.73-.34,1.5.42,1.71l13.49,3.79a2.34,2.34,0,0,0,2.32-.94l17.25-24c1.07-1.49.7-2-.06-2.21l-2.7-.76a.59.59,0,0,0-.54.28l-.06.09a.73.73,0,0,1-1,.29l-6.25-1.76c-.35-.1-.64-.18-.3-.65l.06-.08c.14-.2.13-.39,0-.44l-2.7-.76C378.82,104.59,377.88,104.87,376.9,106.24Z" style="fill:#fff"></path><path d="M385.24,106.79l1.7.48a.18.18,0,0,0,.17-.07h0s0-.11,0-.12l-1.71-.48a.16.16,0,0,0-.17.06h0A.08.08,0,0,0,385.24,106.79Z" style="fill:#fff"></path><polygon points="369.12 121.05 380.59 124.27 387.98 113.98 376.52 110.76 369.12 121.05" style="fill:#BA68C8"></polygon><polygon points="372.68 124.08 379.37 125.96 379.81 125.36 373.12 123.47 372.68 124.08" style="fill:#a6a6a6"></polygon><polygon points="370.74 124.72 378.66 126.95 378.88 126.65 370.95 124.42 370.74 124.72" style="fill:#a6a6a6"></polygon><polygon points="370.34 125.28 378.26 127.51 378.48 127.2 370.56 124.98 370.34 125.28" style="fill:#a6a6a6"></polygon><polygon points="369.94 125.83 377.86 128.06 378.08 127.76 370.16 125.53 369.94 125.83" style="fill:#a6a6a6"></polygon><polygon points="388.81 110.45 390.23 110.85 390.41 110.6 388.99 110.2 388.81 110.45" style="fill:#a6a6a6"></polygon><polygon points="388.48 110.9 389.91 111.3 390.08 111.06 388.66 110.65 388.48 110.9" style="fill:#a6a6a6"></polygon><polygon points="388.15 111.36 389.58 111.76 389.76 111.51 388.33 111.11 388.15 111.36" style="fill:#a6a6a6"></polygon><path d="M368.17,122.6a.71.71,0,0,0,.15.41,2,2,0,0,0,.6-.19c.38-.18.59-.52.3-.6s-.48.2-.48.2.16-.29-.06-.36S368.13,122.31,368.17,122.6Z" style="fill:#BA68C8"></path><polygon points="363.91 130.15 373.16 132.75 374.87 130.38 365.62 127.78 363.91 130.15" style="fill:#BA68C8"></polygon><path d="M372.94,136.62c-3.58.07,8-7.22,8.21-11.29s-3.8-2.79-6.92-.48c-10.85,8-19.05,7.63-24.54,15.27S372.94,136.62,372.94,136.62Z" style="fill:#ffc4c0"></path><path d="M338.19,144.2c-2.77.51-15.33,3.75-16.73,4-.09,0,0,.16.05.15,1.74,0,14.09-3,16.72-4A.08.08,0,0,0,338.19,144.2Z" style="fill:#263238"></path><path d="M348.85,165.94a168.44,168.44,0,0,1-20.77,5.63c-3.43.72-6.89,1.35-10.38,1.8a10.9,10.9,0,0,1-4.95-.24,7.92,7.92,0,0,1-3.41-2.27,71,71,0,0,1-6.32-9.24c0-.09-.18,0-.14.08a74.54,74.54,0,0,0,5.3,8.88,10.24,10.24,0,0,0,2.92,2.72,7.83,7.83,0,0,0,4.39,1.09,36.93,36.93,0,0,0,5.12-.64q2.68-.44,5.37-1c3.56-.72,7.11-1.57,10.6-2.57,4-1.15,8.48-2.61,12.33-4.08C349,166.08,349,165.89,348.85,165.94Z" style="fill:#263238"></path><path d="M295.1,152.45l18-15.85s-9.43-15-16-21.76c-3.67-3.75-5.75-1.49-6,3.25C290.38,134.68,295.1,152.45,295.1,152.45Z" style="fill:#37474f"></path><path d="M310,134.31a158.61,158.61,0,0,0-15.5,13.15s.07.15.1.12c4.43-3.34,12.76-10.64,15.54-13.1C310.22,134.44,310.08,134.27,310,134.31Z" style="fill:#263238"></path><path d="M298.19,149.63c-.51.47-2.5,2.17-3,2.58-.25-1.58-.58-3-.89-4.52q-.51-2.62-.95-5.26c-.6-3.57-1.08-7.16-1.58-10.74,0-.08-.13-.08-.13,0,.07,2,.23,4,.46,6-.25-.82-.49-1.65-.69-2.49a0,0,0,0,0-.08,0,26.67,26.67,0,0,0,.86,3.27c.16,1.3.33,2.61.54,3.91.27,1.71.58,3.4.93,5.09a43.6,43.6,0,0,0,1.26,5.31,39.81,39.81,0,0,0,3.38-3.07A.08.08,0,0,0,298.19,149.63Z" style="fill:#263238"></path><path d="M313.37,136.46c-1-1.69-2.14-3.31-3.25-4.92-.22-.52-.43-1-.68-1.54a11.25,11.25,0,0,0-1.12-1.85s-.06,0,0,0c.15.31.34.61.51.92s.31.62.48.93.32.64.47,1c-1.09-1.58-2.23-3.13-3.43-4.63a0,0,0,0,0-.07,0c1,1.77,2.12,3.51,3.27,5.2s2.22,3.35,3.45,4.93c-.23.24-.47.47-.69.73a.08.08,0,0,0,.1.12c.33-.21.63-.44.94-.67A.21.21,0,0,0,313.37,136.46Z" style="fill:#263238"></path><path d="M302.53,106.68c-4.23,1.1-4,5.74-.94,10s7.18,5.23,9.22,4.65,3.66-3.11,1.12-8.24C308.7,106.54,305.09,106,302.53,106.68Z" style="fill:#37474f"></path><path d="M301,109.7c.07,1,3.72,8.15,8.24,8.67,1.47.17,2.74-7.83,2.74-7.83l.23-.56,3.19-8-8.69-7.81-1.27-1.06s-.73,2.24-1.61,5c0,.13-.09.26-.13.4s-.11.31-.15.46c-.14.41-.28.84-.4,1.26s-.2.64-.29,1l-.3,1A56.27,56.27,0,0,0,301,109.7Z" style="fill:#ffc4c0"></path><path d="M303.84,98.17A17.21,17.21,0,0,0,312.22,110l3.19-8-8.69-7.81-1.27-1.06S304.72,95.38,303.84,98.17Z" style="fill:#263238"></path><path d="M329.69,92.59c-2.1,14.92-11.27,15.35-14.49,14.9-2.92-.42-12.81-2.2-12.26-17.25s8.14-18.8,14.87-18.2S331.78,77.68,329.69,92.59Z" style="fill:#ffc4c0"></path><path d="M327.21,88.67a8.09,8.09,0,0,1-1-.4,1.66,1.66,0,0,1-.9-.6.53.53,0,0,1,.12-.64,1.35,1.35,0,0,1,1.35-.06,2,2,0,0,1,1.07.91A.57.57,0,0,1,327.21,88.67Z" style="fill:#263238"></path><path d="M317.67,86.91c.36,0,.69,0,1,0a1.69,1.69,0,0,0,1.06-.22.54.54,0,0,0,.12-.64,1.34,1.34,0,0,0-1.23-.56,2,2,0,0,0-1.33.45A.57.57,0,0,0,317.67,86.91Z" style="fill:#263238"></path><path d="M318.92,91s-.09,0-.09.07c-.14,1-.47,2.16-1.44,2.34,0,0,0,.06,0,.06C318.53,93.52,319,92,318.92,91Z" style="fill:#263238"></path><path d="M318.2,89.81c-1.61-.4-2.29,2.84-.8,3.21S319.54,90.14,318.2,89.81Z" style="fill:#263238"></path><path d="M317.52,89.85c-.32.12-.66.39-1,.35s-.63-.45-.82-.83c0,0-.05,0-.06,0-.14.62,0,1.31.61,1.54s1.14-.25,1.42-.84C317.72,90,317.65,89.8,317.52,89.85Z" style="fill:#263238"></path><path d="M324.8,91.8s.07.06.06.1c-.25,1-.37,2.18.46,2.71,0,0,0,.07,0,.06C324.23,94.27,324.4,92.7,324.8,91.8Z" style="fill:#263238"></path><path d="M325.92,91c1.64.22,1.06,3.49-.45,3.27S324.55,90.76,325.92,91Z" style="fill:#263238"></path><path d="M326.56,91.28c.23.22.43.58.73.65s.68-.22,1-.51c0,0,.05,0,.05,0-.1.63-.42,1.24-1,1.25s-.87-.59-.91-1.24C326.35,91.35,326.47,91.19,326.56,91.28Z" style="fill:#263238"></path><path d="M316.81,98.82c.18.3.33.68.68.8a2.74,2.74,0,0,0,1.14,0s.05,0,0,.06a1.39,1.39,0,0,1-1.4.21,1.08,1.08,0,0,1-.56-1.07C316.7,98.78,316.78,98.78,316.81,98.82Z" style="fill:#263238"></path><path d="M322.22,95.94s-.09,1.55-.23,2.27a3.94,3.94,0,0,1-3.5-1.89c0-.07.07-.14.13-.08a5.16,5.16,0,0,0,2.91,1.5c.09-.19.07-2.67.18-2.65a6.43,6.43,0,0,1,1.55.68c.27-3.22,0-6.47.36-9.68a.1.1,0,0,1,.19,0,52.05,52.05,0,0,1,.06,10.44C323.85,96.94,322.48,96.12,322.22,95.94Z" style="fill:#263238"></path><path d="M321,97.94a3.77,3.77,0,0,1-1.72.82,1.71,1.71,0,0,1-1-.15c-.69-.35-.56-1-.3-1.56a3.51,3.51,0,0,1,.51-.8A4.83,4.83,0,0,0,321,97.94Z" style="fill:#263238"></path><path d="M319.32,98.76a1.71,1.71,0,0,1-1-.15c-.69-.35-.56-1-.3-1.56A1.73,1.73,0,0,1,319.32,98.76Z" style="fill:#ff9abb"></path><path d="M303.58,89.66c2.64,1.08,5-5,5-5s12.19,1.17,15.74-8.06a16.66,16.66,0,0,0,5.74,11s2.4-10.52-5.31-14.77c0,0-9.24-6.49-17.18.09S301.81,88.93,303.58,89.66Z" style="fill:#263238"></path><path d="M324.59,75.91a10.72,10.72,0,0,1-1.69,4.2,11.2,11.2,0,0,1-3.23,3.24,9.9,9.9,0,0,1-1,.57l-.51.28-.54.21c-.36.13-.71.28-1.07.4l-1.12.26c-.19,0-.37.09-.56.12l-.57.06-1.13.12c-.75,0-1.51,0-2.26-.07.75-.11,1.5-.15,2.23-.27l1.09-.21.55-.1.53-.16,1.05-.32c.34-.13.67-.29,1-.43l.51-.21.47-.27c.31-.19.65-.33.94-.55a12.91,12.91,0,0,0,3.19-3,14.29,14.29,0,0,0,1.2-1.85A13.34,13.34,0,0,0,324.59,75.91Z" style="fill:#263238"></path><path d="M305.3,91.24s-2.15-5.32-4.5-4.66-1.46,7.86.78,9.33a2.54,2.54,0,0,0,3.63-.57Z" style="fill:#ffc4c0"></path><path d="M301.11,88.64a0,0,0,0,0,0,.06,6.44,6.44,0,0,1,2.34,4.67,1.4,1.4,0,0,0-2-.84c-.06,0,0,.1,0,.1a1.56,1.56,0,0,1,1.56.92,7.47,7.47,0,0,1,.49,1.54c.05.17.34.16.32,0v0C304.39,92.84,303.4,89.4,301.11,88.64Z" style="fill:#263238"></path><path d="M303.15,95.59a.61.61,0,1,1-.4-.77A.62.62,0,0,1,303.15,95.59Z" style="fill:#fff"></path><path d="M302,94.19a.44.44,0,0,1-.55.29.45.45,0,0,1-.29-.55.43.43,0,0,1,.55-.29A.42.42,0,0,1,302,94.19Z" style="fill:#fff"></path><rect x="299.18" y="87.41" width="1.55" height="0.64" rx="0.31" transform="translate(55.33 -106.76) rotate(22.18)" style="fill:#BA68C8"></rect><rect x="298.84" y="88.39" width="1.55" height="0.64" rx="0.31" transform="translate(19.83 -50.43) rotate(9.95)" style="fill:#BA68C8"></rect><path d="M302.8,79.69l-1.22,1,3,5.08,2.69-2.39Zm2.07,4.62-2.19-3.25.28-.25,2.88,2.68Z" style="fill:#BA68C8"></path><path d="M304,77.42l-.73,1.43L308,82.42l1.59-3.22Zm3.66,3.5-3.26-2.19.17-.33,3.67,1.4Z" style="fill:#BA68C8"></path></g><g id="freepik--big-speech-bubble--inject-607"><rect x="197.58" y="166.69" width="354.85" height="190.57" style="fill:#BA68C8"></rect><polygon points="326.4 357.25 423.6 357.25 375 409.77 326.4 357.25" style="fill:#BA68C8"></polygon><g style="opacity:0.2"><rect x="197.58" y="166.69" width="354.85" height="190.57"></rect><polygon points="326.4 357.25 423.6 357.25 375 409.77 326.4 357.25"></polygon></g><circle cx="283.41" cy="245.12" r="15.06" style="fill:#fff"></circle><path d="M315.2,293.89H251.62s1.74-15.15,4.83-19.67,11.3-9.61,27-9.61,23.85,5.09,26.95,9.61S315.2,293.89,315.2,293.89Z" style="fill:#fff"></path></g><g id="freepik--character-3--inject-607"><path d="M651.06,435.29c-2.07.67-62.79.12-65-1.33-.86-.54,3.62-58.1,3.62-58.1l38.63.26-4,38.51S646.8,425,649.09,426.82,653.13,434.62,651.06,435.29Z" style="fill:#ad6359"></path><path d="M651.06,435.29c-2.07.67-62.79.12-65-1.33-.27-.17-.43-6,.44-13.62,11,1.71,50.4,7.25,53.43,5.41,2.12-1.28.21-3.22-1.56-4.51,5,2.44,9.76,4.78,10.74,5.58C651.36,428.66,653.13,434.62,651.06,435.29Z" style="fill:#263238"></path><path d="M627.28,405.37H584.72s8-90.63,7.67-92.36c-.42-2.23-2.93-12.29-6.28-25.44l-3.35-13.1c-3.18-12.37-6.68-25.88-9.72-37.64-4.58-17.63-8.15-31.31-8.15-31.31H601s4.2,13.32,9.5,30.66c8.63,28.18,20.17,67,21.31,76.4C633.62,327.81,627.28,405.37,627.28,405.37Z" style="fill:#37474f"></path><path d="M625.4,398.11c-6.5-.14-4.64-.19-11.14-.25-3.18,0-24.09-.21-27.06.28a.07.07,0,0,0,0,.13c3,.49,23.88.31,27.06.28,6.5-.06,4.64-.11,11.14-.25A.1.1,0,0,0,625.4,398.11Z" style="fill:#263238"></path><path d="M600.4,306.93c-1.39-6.15-3.48-12.18-5.29-18.22q-5.54-18.4-11.14-36.8-2.79-9.19-5.61-18.38c-1-3.09-1.9-6.19-2.87-9.27s-2-6-2.88-9.07c-.35-1.24-.54-.56-.1,1,.9,3.17,1.79,6.35,2.71,9.52q2.76,9.41,5.54,18.8,5.54,18.71,11.17,37.38,2.8,9.38,5.63,18.74a76.07,76.07,0,0,1,2.3,9.06,41.9,41.9,0,0,1,.38,9.69c-.41,6.51-1.17,13-1.77,19.51l-1.8,19.54c-1.2,12.95-1.85,17.13-3,30.09q-.23,2.46-.42,4.92c0,.55.79.51.85,0,1.4-12.81,1.92-16.88,3.12-29.71s2.39-25.54,3.59-38.31c.3-3.2.64-6.41.64-9.64A39.94,39.94,0,0,0,600.4,306.93Z" style="fill:#263238"></path><path d="M596.87,205.52c-2.5,19.37-7.28,55.7-10.76,82-8.14-31.93-21.22-82-21.22-82Z" style="fill:#263238"></path><path d="M605.73,436c-2.07.67-62.79.12-65-1.33-.86-.54.95-58.1.95-58.1l38.64.26-1.36,38.51s22.53,10.33,24.82,12.19S607.8,435.33,605.73,436Z" style="fill:#ad6359"></path><path d="M605.73,436c-2.07.67-62.79.12-65-1.33-.27-.17-.28-5.85-.16-13.62,11,1.71,51,7.25,54,5.41,2.11-1.28.2-3.22-1.56-4.51,5,2.43,9.75,4.78,10.73,5.58C606,429.37,607.8,435.33,605.73,436Z" style="fill:#263238"></path><path d="M599.8,205.52S599,222.78,595,236.45c-.32,1.13-.66,2.24-1,3.3a64.57,64.57,0,0,0-10.4,5.35s-.42,13.89-.83,29.37c-.46,17.32-.94,36.63-.84,40.72.36,15.33-1.51,90-1.51,90l-42.55.17s7.28-84.52,7.22-90.13c-.08-9,2.11-74.06,1.72-75.51-5.18-19.12,6.21-34.21,6.21-34.21Z" style="fill:#37474f"></path><path d="M579,397.63c-6.5-.11-4.63-.17-11.13-.2-3.18,0-24.09-.11-27.06.39a.07.07,0,0,0,0,.13c3,.48,23.88.21,27.06.17,6.5-.09,4.64-.14,11.13-.3A.1.1,0,1,0,579,397.63Z" style="fill:#263238"></path><path d="M595.75,238.73a79.06,79.06,0,0,0-12.16,6.37.14.14,0,0,0,.13.25c4.1-2,8.29-3.92,12.28-6.13A.28.28,0,0,0,595.75,238.73Z" style="fill:#263238"></path><path d="M589.35,232.94q.2-2.92.45-5.84c.39-4.43.85-8.88,1.63-13.27.06-.34.54-.21.51.12-.3,3.44-.69,6.88-1,10.32s-.74,6.87-.8,10.3c0,1,0,2.78,1.32,3.07,1.7.38,2.51-1.86,2.92-3.08a56.85,56.85,0,0,0,2.13-9.38c.57-3.61.86-7.28,1.21-10.91,0-.13.23-.12.23,0,0,7.22-.08,14.77-2.78,21.59-.52,1.33-1.45,2.68-3,2.86h-.07a.25.25,0,0,1,0,.12c0,.21-.09.41-.12.61s-.06.34-.1.5c-.07.35-.13.71-.21,1.06a.27.27,0,0,1-.53-.06.23.23,0,0,1-.15-.22,6,6,0,0,1,.47-2,2.54,2.54,0,0,1-1.86-1.57A9,9,0,0,1,589.35,232.94Z" style="fill:#263238"></path><path d="M553.39,242.24a81.48,81.48,0,0,0-1.82-8.62c-1.41-6.5,0-13,1.51-19.35a.13.13,0,0,0-.26-.07c-1.52,5.41-3.07,10.89-2.48,16.57a71.64,71.64,0,0,0,1.63,7.94,36.74,36.74,0,0,1,.74,8.69c-.12,5.78-.5,11.56-.76,17.32l-.81,17.82q-1.57,35.28-3,70.55c-.54,13.18-1.06,26.36-1.44,39.54a.1.1,0,0,0,.19,0c1.4-23.51,2.44-47,3.51-70.56s2.08-46.8,3.08-70.2A64.49,64.49,0,0,0,553.39,242.24Z" style="fill:#263238"></path><path d="M571.94,214.72c-.44,2-.77,4.06-1.32,6.05a8.23,8.23,0,0,1-2.9,4.67,12.24,12.24,0,0,1-5.09,2.12,22.21,22.21,0,0,1-7.41.11c-.11,0-.15.13,0,.16,1.29.27,2.54.71,3.86.87a17.53,17.53,0,0,0,3.83.21,10.72,10.72,0,0,0,5.86-2.19,9,9,0,0,0,3-5.27,33.44,33.44,0,0,0,.56-6.7C572.26,214.59,572,214.56,571.94,214.72Z" style="fill:#263238"></path><path d="M572.24,112.91c-8.33,7.15-6,17.56-9.49,23.21-2.12,3.45-9,7.1-10.43,11.08-2.26,6.54,3.28,8.89,2,12.45-1.76,5-8.5,4.64-9.71,12.88s7.85,17,29.36,19.38,33.34-5.5,34.11-12.49-6.39-9.32-6.87-14.54c-.32-3.34,4.1-5.66,4.33-11.8s-5.76-8.14-6.62-13.35,1.9-17.88-5.76-24.35S576.35,109.39,572.24,112.91Z" style="fill:#263238"></path><path d="M573.21,113.1a17.81,17.81,0,0,0-5.53,6.38,38.93,38.93,0,0,0-3.08,8.46,22.93,22.93,0,0,1-1.67,5.06,12.9,12.9,0,0,1-2.89,3.57c-2.32,2.1-5.1,3.7-7.19,6.07s-3.52,5.23-2.73,8.29c.43,1.66,1.52,3,2.2,4.56s.91,3.3-.35,4.52c-1.08,1-2.64,1.52-3.86,2.37a13.73,13.73,0,0,0-3.14,3,10.54,10.54,0,0,0-2,8.28c1.27,6.69,7.55,10.5,13.34,12.89.81.34,1.62.66,2.44,1,.12,0,.23-.13.1-.19-5.82-2.6-12.57-5.66-14.8-12.17a9.8,9.8,0,0,1,1-8.63,12.45,12.45,0,0,1,3.07-3.24c1.17-.86,2.52-1.39,3.71-2.21a4,4,0,0,0,1.83-3.54,9.63,9.63,0,0,0-1.6-4.27,8,8,0,0,1-1.37-4.51,8.71,8.71,0,0,1,1.72-4.3c1.81-2.57,4.49-4.25,6.9-6.19a14.49,14.49,0,0,0,5.23-7.24c.45-1.54.73-3.12,1.11-4.67a42.35,42.35,0,0,1,1.28-4.25,20.56,20.56,0,0,1,4.55-7.5,12.46,12.46,0,0,1,1.78-1.46C573.35,113.17,573.28,113.05,573.21,113.1Z" style="fill:#263238"></path><path d="M609.08,174.29a8.09,8.09,0,0,0-1.49-3.13c-.75-.95-1.66-1.75-2.49-2.63a6.05,6.05,0,0,1-1.75-2.9,5.82,5.82,0,0,1,.94-3.88,29.5,29.5,0,0,0,1.93-3.75,13.43,13.43,0,0,0-1.35-12c-.73-1.2-1.56-2.34-2.3-3.54a17.37,17.37,0,0,1-1.91-4.18c-1-3.24-1.17-6.66-2-9.94a51.13,51.13,0,0,0-3.49-9.76c0-.08-.15,0-.11.07a44.9,44.9,0,0,1,3,8.82c.68,2.88,1,5.81,1.46,8.72a21.7,21.7,0,0,0,1.09,4.19,21.94,21.94,0,0,0,1.87,3.6c1.45,2.37,3,4.71,3.35,7.52a13.07,13.07,0,0,1-1.39,8c-1.13,2.14-2.71,4.5-1.72,7,.84,2.12,2.86,3.39,4.2,5.14a8.53,8.53,0,0,1,1.46,6.8c-1.16,6-7.2,9-12.85,9.32a.14.14,0,0,0,0,.27c4.92-.06,10.26-2.22,12.57-6.82A10.39,10.39,0,0,0,609.08,174.29Z" style="fill:#263238"></path><path d="M632.77,125.4l-7,27c-.29.79.1,1.44.88,1.44l14,.11a2.23,2.23,0,0,0,1.94-1.43l7-27c.3-.8-.1-1.44-.88-1.45l-14-.11A2.29,2.29,0,0,0,632.77,125.4Z" style="fill:#a6a6a6"></path><path d="M634.43,125.4l-7,27c-.29.8.1,1.44.88,1.45l14,.11a2.28,2.28,0,0,0,2-1.43l7-27c.29-.8-.1-1.44-.88-1.45l-14-.11A2.26,2.26,0,0,0,634.43,125.4Z" style="fill:#dbdbdb"></path><path d="M638.25,126.66a1.19,1.19,0,1,1-1.15-1.22A1.19,1.19,0,0,1,638.25,126.66Z" style="fill:#455a64"></path><path d="M587.45,166c7.62,17,25,39.1,32.34,39.32,3.49.1,9.71,1,14.36-2.9,10.14-8.59,18.78-25.2,20.64-34.76.66-3.4-15.8-11.06-18.3-8.32-5.84,6.41-12.72,19-13.74,19-3.75-.35-18.24-12.82-28.35-21.6C582.13,146.06,584.41,159.27,587.45,166Z" style="fill:#ad6359"></path><path d="M655.49,150.08c-1.64-7-3.13-8.49-1.4-15.09,1.14-4.33-1.14-6.91-4.28-3.48-5.14,5.63-4.91,15-3.89,18.28Z" style="fill:#ad6359"></path><path d="M653.93,170.65s3.25-9.6,2.23-17.18c-.7-5.24-3.5-16.48-18-22.62-3.45-1.46-9.4-1.09-4.63,3.34,3.39,3.14,6.48,4.11,8.12,6.3,0,0-7.51,1.37-8.83,4.88A67.76,67.76,0,0,0,630,154.8a14.38,14.38,0,0,0,1.71.68s-.92,3.4,1.48,8.19Z" style="fill:#ad6359"></path><path d="M654.69,148.58c-2.08-1.83-6.56-5.63-11.31-7.46-5.28-2-16-4.54-17.45-.63-1.07,2.86,2.94,4.18,2.94,4.18s-4.65-.1-5,2.7c-.37,2.55,2.79,3.38,2.79,3.38s-2.83.42-2.71,2.95c.15,3,6.05,1.65,8.86,4.61C633.39,159,654.69,148.58,654.69,148.58Z" style="fill:#ad6359"></path><path d="M642.16,147.05a22.5,22.5,0,0,0-13.2-2.46c-.12,0-.17.12-.06.12a55.5,55.5,0,0,1,13.24,2.39S642.18,147.06,642.16,147.05Z" style="fill:#263238"></path><path d="M640,152.31a25.25,25.25,0,0,0-13.33-1.66c-.11,0-.15.12,0,.12a60.08,60.08,0,0,1,13.35,1.59S640,152.32,640,152.31Z" style="fill:#263238"></path><path d="M631.24,165.47l20.42,21.15s-15.51,17-20.79,18.56a24.24,24.24,0,0,1-13.16.18c-3.8-.86-23.38-21.13-30.4-38.2s-.58-18.27,10.32-8.32,24.26,19.63,24.83,18.83Z" style="fill:#BA68C8"></path><path d="M631.24,165.47l20.42,21.15s-15.51,17-20.79,18.56a24.24,24.24,0,0,1-13.16.18c-3.8-.86-23.38-21.13-30.4-38.2s-.58-18.27,10.32-8.32,24.26,19.63,24.83,18.83Z" style="opacity:0.1"></path><path d="M628.1,171.75c.82.66,7.63,7.54,9.15,9.08s7.32,7.87,8.78,9.47c.07.07,0,.17-.09.11-.79-.77-1.64-1.48-2.44-2.25s-5.33-5.37-6.8-6.91-8.09-8.55-8.72-9.4C627.92,171.77,628,171.7,628.1,171.75Z" style="fill:#263238"></path><path d="M638.09,200.14c-2.88,2.53-5.56,4.55-7.22,5a24.24,24.24,0,0,1-13.16.18c-3.8-.86-23.38-21.13-30.4-38.2-3.48-8.46-3.65-13-1.62-14.26Z" style="opacity:0.1"></path><path d="M602.24,193.3l5.58,23.62s-50.16-.76-62.58-2c0,0,11.87-45.6,25.69-59.73,6.91-7.07,14.75-6.29,19.61-1.06,1.23,1.33,13.73,17.43,15.1,25.11C606.82,186,602.24,193.3,602.24,193.3Z" style="fill:#BA68C8"></path><g style="opacity:0.1"><path d="M587.21,151.49H575.84c.29-.15.58-.29.87-.41h9.67A9.12,9.12,0,0,1,587.21,151.49Z"></path><path d="M590.65,154.24H571.91c.15-.14.3-.28.46-.41h17.89l.28.29Z"></path><path d="M592.83,157H569.3l.34-.41h22.88Z"></path><path d="M594.88,159.75H567.22l.29-.41h27.06Z"></path><path d="M596.82,162.5h-31.4c.09-.14.17-.28.26-.41h30.85C596.63,162.23,596.73,162.36,596.82,162.5Z"></path><path d="M598.69,165.26H563.81c.07-.14.15-.27.23-.41h34.38C598.5,165,598.6,165.13,598.69,165.26Z"></path><path d="M600.43,168H562.32l.22-.41h37.64Z"></path><path d="M602.05,170.76H561l.19-.4h40.69A3.11,3.11,0,0,1,602.05,170.76Z"></path><path d="M603.53,173.52H559.65l.18-.41h43.49C603.4,173.25,603.46,173.39,603.53,173.52Z"></path><path d="M604.75,176.27H558.42l.18-.41h46A4.3,4.3,0,0,1,604.75,176.27Z"></path><path d="M605.6,179H557.25c0-.14.11-.28.17-.41h48.09A3.38,3.38,0,0,1,605.6,179Z"></path><path d="M605.83,181.37v.41h-49.7c0-.14.11-.27.16-.41Z"></path><path d="M605.63,184.12c0,.14,0,.27-.07.41H555.05c.05-.14.11-.28.15-.41Z"></path><path d="M605,186.88l-.12.41H554l.15-.41Z"></path><path d="M604.06,189.63l-.17.41H553c0-.14.09-.27.15-.41Z"></path><path d="M602.76,192.38c-.08.16-.15.29-.22.41H552c.05-.14.1-.28.14-.41Z"></path><path d="M602.77,195.55H551.1c0-.14.09-.28.13-.41h51.44Z"></path><path d="M603.42,198.3H550.19c0-.14.09-.27.13-.41h53Z"></path><path d="M604.07,201.05H549.31c0-.14.08-.27.13-.41H604Z"></path><path d="M604.72,203.81H548.45c0-.13.08-.27.12-.41h56.06Z"></path><path d="M605.37,206.56H547.61c0-.13.08-.27.13-.41h57.54Z"></path><path d="M606,209.31H546.8l.12-.41h59Z"></path><path d="M606.67,212.07H546l.12-.41h60.45Z"></path><path d="M607.32,214.82H545.26c0-.08.06-.22.11-.41h61.86Z"></path></g><path d="M605.92,180.81a22.79,22.79,0,0,0-2.47-8.24h0a6,6,0,0,0-.31-.8c-.1-.28-.21-.55-.32-.82-.43-1.08-.88-2.14-1.35-3.2,0,0-.08,0-.06,0,.3.83.61,1.65.93,2.47l.39,1c-.23-.43-.47-.84-.71-1.25a60.74,60.74,0,0,0-3.82-5.6s-.11,0-.08,0a77.43,77.43,0,0,1,5.34,10.11,22.34,22.34,0,0,1,1.43,11.06,21.11,21.11,0,0,1-1.91,6.21.08.08,0,0,0,.14.07A17.88,17.88,0,0,0,605.92,180.81Z" style="fill:#263238"></path><path d="M567.68,160.38c-18.57-9-37.15-26.72-39.31-31.78-2.36-5.58-5.16-26.27-3.55-39.29.41-3.25,25.64,3.71,25.06,7.17-1.11,6.66-.72,24,.75,27,1.37,2.83,14.89,16.65,23.11,26.29C580.6,157.84,577,164.92,567.68,160.38Z" style="fill:#ad6359"></path><path d="M533.36,59.5a3.92,3.92,0,0,1,3.86,2.24A5.82,5.82,0,0,1,541,60.46c2.38.16,3.19,4,3.19,4a7.14,7.14,0,0,1,4.14-.72c2.27.37,3.63,4.1,3.63,4.1A6.25,6.25,0,0,1,556,69.46c2.84,2.85,1.45,8.84.6,12.65S549.75,96,548.81,98l-24.54-5.2s-1.08-18.19.55-22.54C526.2,66.58,530.33,59.87,533.36,59.5Z" style="fill:#ad6359"></path><path d="M536.79,61.83c-2.39,3.54-3.61,7.59-5,11.57a.07.07,0,1,0,.13,0c1.39-4,3.56-7.62,5.1-11.53A.1.1,0,0,0,536.79,61.83Z" style="fill:#263238"></path><path d="M543.8,64.43a11.36,11.36,0,0,0-1,2.72c-.3,1-.59,2-.86,3q-.81,3-1.47,6c0,.09.11.14.14,0,.54-2,1.11-4,1.74-5.93.31-1,.64-2,1-2.94a13.26,13.26,0,0,0,.81-2.81A.15.15,0,0,0,543.8,64.43Z" style="fill:#263238"></path><path d="M551.88,67.88a7.89,7.89,0,0,0-.81,2.5c-.22.91-.46,1.82-.69,2.74-.48,1.82-1,3.64-1.5,5.45,0,.09.11.14.14.05.56-1.84,1.14-3.66,1.68-5.5.27-.9.53-1.8.78-2.71a7.24,7.24,0,0,0,.5-2.51A.05.05,0,0,0,551.88,67.88Z" style="fill:#263238"></path><path d="M576.15,151c-5.68-8.16-24.5-26.09-25-28.18s-.09-25.35-.09-25.35L521.18,89s2.33,30.9,7.26,40.52c3.79,7.39,25.82,25.85,36.52,30.45S583.41,161.47,576.15,151Z" style="fill:#BA68C8"></path><path d="M576.15,151c-5.68-8.16-24.5-26.09-25-28.18s-.09-25.35-.09-25.35L521.18,89s2.33,30.9,7.26,40.52c3.79,7.39,25.82,25.85,36.52,30.45S583.41,161.47,576.15,151Z" style="opacity:0.1"></path><path d="M523.29,95.62a244.91,244.91,0,0,0,25.32,7.61.07.07,0,0,0,0-.14,242.49,242.49,0,0,0-25.3-7.68A.11.11,0,0,0,523.29,95.62Z" style="fill:#263238"></path><path d="M584.31,149.78c5.57,2.41,11.05,12.13,9.94,13.39s-5.37-2.23-5.37-2.23-.36,4-2.86,4.13-6.44-5.18-7.33-9C577.35,150.34,579.57,147.72,584.31,149.78Z" style="fill:#fff"></path><path d="M579.12,154.32c.41.92,6.22,6.34,10.61,5.29,1.43-.34-.1-8.22-.1-8.22l0-.61.29-8.51-10.75-4.33-1.54-.56s.07,2.34.2,5.24c0,.13,0,.27,0,.41s0,.32,0,.47c0,.44,0,.88,0,1.32s0,.66.06,1,0,.69.08,1A54.55,54.55,0,0,0,579.12,154.32Z" style="fill:#ad6359"></path><path d="M577.85,142.62a17.06,17.06,0,0,0,11.8,8.16l.29-8.51-10.75-4.33-1.54-.56S577.72,139.72,577.85,142.62Z" style="fill:#263238"></path><path d="M599.76,128.76c2.45,14.73-6.1,17.86-9.28,18.39-2.88.47-12.76,1.73-16.72-12.67s2.11-20.2,8.65-21.64S597.31,114,599.76,128.76Z" style="fill:#ad6359"></path><path d="M575.06,134.5c3.64-.37,4-11.67,4-13,0,.87.21,5.5.57,5.66a3.34,3.34,0,0,0,1.13-.29h0a10.33,10.33,0,0,1,0-1.66c0-.26.13.55.34,1.54l.66-.24a13,13,0,0,1,.11-3.53c.08-.45.33,1.51.86,3.2a44.29,44.29,0,0,1,9.45-2.32c.91-.09,1.7-.13,2.4-.14-.09-1.37-.34-2.81-.22-2.5a13.68,13.68,0,0,1,.74,2.49h1c0-1.93-1.15-5-.81-4.5a13.53,13.53,0,0,1,2.17,4.63c1.33.17,1.71.4,1.73.06a16.17,16.17,0,0,0-5.55-9.65c-4.85-4-14-4.48-18.73,2.49,0,0-4,3-4.42,7.52S573,134.71,575.06,134.5Z" style="fill:#263238"></path><path d="M576.29,135.22s-3.62-4.39-5.64-3.07,1,7.87,3.51,8.6a2.52,2.52,0,0,0,3.26-1.62Z" style="fill:#ad6359"></path><path d="M571.55,134s0,.05,0,.06a6.4,6.4,0,0,1,3.6,3.73,1.4,1.4,0,0,0-2.11-.22s0,.1.05.09a1.56,1.56,0,0,1,1.75.41,7.52,7.52,0,0,1,.92,1.31c.1.15.37.05.3-.13l0,0C575.91,137,574,134,571.55,134Z" style="fill:#263238"></path><path d="M597.29,126.25a9,9,0,0,1-1-.13,1.67,1.67,0,0,1-1-.33.54.54,0,0,1-.05-.65,1.32,1.32,0,0,1,1.28-.42,1.9,1.9,0,0,1,1.28.58A.58.58,0,0,1,597.29,126.25Z" style="fill:#263238"></path><path d="M587.63,127.16a10.34,10.34,0,0,0,1-.3,1.69,1.69,0,0,0,1-.5.54.54,0,0,0-.06-.66,1.32,1.32,0,0,0-1.33-.19,1.93,1.93,0,0,0-1.16.79A.58.58,0,0,0,587.63,127.16Z" style="fill:#263238"></path><path d="M590,130.77s-.08.06-.07.1c.15,1,.14,2.2-.74,2.64,0,0,0,.07,0,.06C590.27,133.29,590.26,131.71,590,130.77Z" style="fill:#263238"></path><path d="M588.93,129.81c-1.65.05-1.42,3.36.12,3.3S590.32,129.76,588.93,129.81Z" style="fill:#263238"></path><path d="M588.29,130c-.27.21-.53.56-.87.62s-.73-.26-1-.57c0,0-.06,0,0,0,0,.63.32,1.26,1,1.31s1-.55,1.14-1.2C588.52,130.11,588.41,129.94,588.29,130Z" style="fill:#263238"></path><path d="M595.83,129.91s.08,0,.08.09c0,1,.24,2.19,1.19,2.47,0,0,0,.06,0,.06C596,132.44,595.69,130.89,595.83,129.91Z" style="fill:#263238"></path><path d="M596.67,128.78c1.64-.23,2,3.07.46,3.28S595.3,129,596.67,128.78Z" style="fill:#263238"></path><path d="M597.38,128.93c.28.15.57.44.88.43s.6-.4.79-.77c0,0,.05,0,.06,0,.08.63-.06,1.31-.66,1.49s-1-.33-1.21-.94C597.2,129.06,597.27,128.87,597.38,128.93Z" style="fill:#263238"></path><path d="M590.07,138.86c.25.23.5.56.87.58a2.65,2.65,0,0,0,1.1-.29s.07,0,.05,0a1.39,1.39,0,0,1-1.29.59,1.08,1.08,0,0,1-.83-.88C590,138.85,590,138.82,590.07,138.86Z" style="fill:#263238"></path><path d="M594.48,134.6s.34,1.52.41,2.24A3.9,3.9,0,0,1,591,136c-.07-.06,0-.15.1-.11a5.23,5.23,0,0,0,3.21.64c0-.21-.67-2.58-.55-2.6a6.12,6.12,0,0,1,1.67.24c-.61-3.18-1.74-6.24-2.3-9.41a.1.1,0,0,1,.18-.06,53.12,53.12,0,0,1,2.92,10C596.32,135.12,594.78,134.7,594.48,134.6Z" style="fill:#263238"></path><path d="M593.89,136.85a3.84,3.84,0,0,1-1.42,1.26,1.75,1.75,0,0,1-1,.13c-.75-.15-.82-.83-.72-1.42a4,4,0,0,1,.28-.91A4.86,4.86,0,0,0,593.89,136.85Z" style="fill:#263238"></path><path d="M592.47,138.11a1.75,1.75,0,0,1-1,.13c-.75-.15-.82-.83-.72-1.42A1.75,1.75,0,0,1,592.47,138.11Z" style="fill:#ff9abb"></path></g><g id="freepik--character-1--inject-607"><path d="M100.25,430.05c.74-2.12,39.46-51.12,42.05-52,.3-.12,16.89,12.22,16.89,12.22.68.94,32.83-5.16,32.83-5.16l-.48,38.63-58.3-2.46s-8,4.47-15.25,8.09h0a84.53,84.53,0,0,1-9.57,4.4C105.46,434.44,99.49,432.15,100.25,430.05Z" style="fill:#c95f50"></path><path d="M108.39,433.75a83.7,83.7,0,0,0,9.57-4.4h0c7.28-3.62,15.25-8.09,15.25-8.09l13,.55,21-32.37c-4.48.7-7.81,1.1-8,.8,0,0-16.59-12.33-16.89-12.21-2.59.9-41.3,49.9-42.05,52S105.45,434.45,108.39,433.75Z" style="fill:#fff"></path><path d="M99.9,430.1c.79-2.16,39.67-51.13,42.33-52.06,1-.36,9.15,4.9,17,12.21l-25.1,31.53s-22.8,11.48-25.83,12.19S99.12,432.27,99.9,430.1Z" style="fill:#BA68C8"></path><path d="M102.42,431c6.72-8,33.06-41.15,39.09-49.61.05-.07,0-.11,0,0-6.83,7.83-32.91,41.14-39.18,49.54C102.15,431,102.28,431.13,102.42,431Z" style="fill:#263238"></path><path d="M112.52,432.22a8.46,8.46,0,0,0,1.9-6.51,8.17,8.17,0,0,0-2.93-5.31s-.12.05-.08.1a9.73,9.73,0,0,1,1,11.63C112.37,432.2,112.47,432.28,112.52,432.22Z" style="fill:#263238"></path><path d="M131.22,423.71c2.65-3.25,4.52-8,3.45-12.16,0-.16-.27-.1-.3,0a57.44,57.44,0,0,1-3.6,11.85A.27.27,0,0,0,131.22,423.71Z" style="fill:#263238"></path><path d="M128.22,425.46c2.65-3.25,4.51-8,3.45-12.16,0-.16-.27-.1-.3,0a58.7,58.7,0,0,1-3.6,11.85A.27.27,0,0,0,128.22,425.46Z" style="fill:#263238"></path><path d="M125.21,427.21c2.66-3.25,4.52-8,3.46-12.16,0-.16-.27-.1-.3,0a57.71,57.71,0,0,1-3.61,11.85A.27.27,0,0,0,125.21,427.21Z" style="fill:#263238"></path><path d="M122.21,429c2.65-3.25,4.52-8,3.45-12.16,0-.16-.27-.1-.29,0a57.71,57.71,0,0,1-3.61,11.85A.27.27,0,0,0,122.21,429Z" style="fill:#263238"></path><path d="M147.65,389.63c2.91-3.7-2.82-8.23-5.74-4.53S144.73,393.33,147.65,389.63Z" style="fill:#263238"></path><path d="M137.16,434.22c2.7-.57,3-3.74,2.4-5.9a22,22,0,0,0-6-9.65.11.11,0,0,0-.17,0,.52.52,0,0,0-.74.38c-.24,3.63-.94,7.47-.06,11.06C133.07,432.23,134.61,434.75,137.16,434.22Zm-3.78-9.58c.08-1.78.24-3.55.25-5.34A65.74,65.74,0,0,1,137,425a23.49,23.49,0,0,1,1.26,3c.52,1.57.7,7-3.13,4.46C133,431.06,133.29,426.77,133.38,424.64Z" style="fill:#263238"></path><path d="M138.8,409.54c-2.71,2.51-4.24,6.1-6,9.26a.51.51,0,0,0,.4.72c0,.07.05.14.14.12a22,22,0,0,0,10.35-4.74c1.7-1.46,3.18-4.28,1.24-6.24S140.38,408.07,138.8,409.54Zm3.44-.5c4.58,0,1.45,4.42.15,5.45a23.07,23.07,0,0,1-2.68,1.78,66.07,66.07,0,0,1-6,2.9c1-1.5,1.82-3.07,2.74-4.6C137.56,412.75,139.71,409,142.24,409Z" style="fill:#263238"></path><path d="M193.92,375.9l26.29-2.07s38-11,59.92-5.25c25.15,6.61,28.7,36,3.12,47.78-25.3,11.66-136.7,7.36-136.7,7.36l23.88-35.37s36.68-8.61,68.79-6.86l-45.47,5.23Z" style="fill:#37474f"></path><path d="M194.18,383.38c3.92-.64,7.87-1,11.82-1.33s8-.66,11.95-.91a238.59,238.59,0,0,1,23.92-.36c.74,0,1.49.07,2.23.12a4,4,0,0,1,.5-.11c.38-.09.76-.18,1.15-.24.72-.12,1.45-.21,2.18-.31,1.51-.2,3-.33,4.53-.58.09,0,.12.13,0,.14-1.51.31-3,.71-4.52,1l-1.31.25c2.92.21,5.83.5,8.74.83.09,0,.09.15,0,.14-4-.32-8-.43-11.94-.44s-7.9,0-11.84.13c-8,.29-16,.84-23.92,1.51-4.47.37-8.95.83-13.43.92C193.84,384.16,193.74,383.45,194.18,383.38Z" style="fill:#263238"></path><path d="M158,422.91c1.48-2.25,2.74-4.66,4.1-7l4.08-7c2.72-4.65,12.45-20.27,13.41-21.36.06-.07.18,0,.14.1-.46,1.21-6.55,11.56-8,13.87-2.8,4.61-5.74,9.13-8.64,13.68-.82,1.3-1.68,2.59-2.51,3.88s-1.73,2.56-2.5,3.89C158,423.07,157.9,423,158,422.91Z" style="fill:#263238"></path><path d="M288.74,437.17c-.64-2.15-37-52.92-39.54-53.95-.29-.13-17.45,11.4-17.45,11.4-.72.91-32.55-6.7-32.55-6.7l-1.35,38.61,58.35.3s7.75,4.84,14.85,8.81h0a85.8,85.8,0,0,0,9.35,4.85C283.33,441.32,289.4,439.31,288.74,437.17Z" style="fill:#c95f50"></path><path d="M280.44,440.49a84.65,84.65,0,0,1-9.36-4.85h0c-7.09-4-14.85-8.81-14.85-8.81l-13-.06-19.45-33.33c4.44.91,7.75,1.47,8,1.18,0,0,17.15-11.54,17.45-11.4,2.54,1,38.89,51.8,39.54,53.95S283.33,441.32,280.44,440.49Z" style="fill:#fff"></path><path d="M289.09,437.25c-.69-2.2-37.21-53-39.83-54-1-.41-9.36,4.46-17.51,11.38l23.58,32.7s22.23,12.54,25.22,13.39S289.77,439.45,289.09,437.25Z" style="fill:#BA68C8"></path><path d="M286.53,438c-6.33-8.36-31.08-42.66-36.7-51.41-.05-.07,0-.1,0,0,6.46,8.14,30.93,42.65,36.79,51.34C286.79,438.06,286.66,438.16,286.53,438Z" style="fill:#263238"></path><path d="M276.38,438.76a8.45,8.45,0,0,1-1.59-6.59A8.18,8.18,0,0,1,278,427s.12.06.07.11a9.72,9.72,0,0,0-1.55,11.57A.07.07,0,0,1,276.38,438.76Z" style="fill:#263238"></path><path d="M258.11,429.37c-2.5-3.37-4.14-8.18-2.88-12.3.05-.16.28-.09.3.05a58,58,0,0,0,3,12A.26.26,0,0,1,258.11,429.37Z" style="fill:#263238"></path><path d="M261,431.26c-2.49-3.37-4.13-8.18-2.87-12.3.05-.16.27-.09.29.05a58.6,58.6,0,0,0,3,12A.26.26,0,0,1,261,431.26Z" style="fill:#263238"></path><path d="M263.94,433.15c-2.5-3.37-4.14-8.18-2.87-12.3,0-.16.27-.09.29,0a58,58,0,0,0,3,12A.26.26,0,0,1,263.94,433.15Z" style="fill:#263238"></path><path d="M266.86,435.05c-2.5-3.38-4.14-8.19-2.88-12.31,0-.16.28-.09.3.05a58,58,0,0,0,3,12A.26.26,0,0,1,266.86,435.05Z" style="fill:#263238"></path><path d="M243.31,394.56c-2.74-3.83,3.21-8.09,5.95-4.26S246.05,398.39,243.31,394.56Z" style="fill:#263238"></path><path d="M256.46,435.73c1.05-3.55.53-7.42.46-11.05a.51.51,0,0,0-.71-.42.12.12,0,0,0-.18,0,22.12,22.12,0,0,0-6.48,9.36c-.72,2.13-.55,5.31,2.12,6S255.85,437.8,256.46,435.73Zm-2.7,2.19c-3.95,2.32-3.51-3.07-2.92-4.62a24,24,0,0,1,1.4-2.89c1.08-2,2.41-3.72,3.67-5.55-.08,1.78,0,3.56,0,5.34C255.89,432.33,255.93,436.63,253.76,437.92Z" style="fill:#263238"></path><path d="M245.16,413.7c-2,1.87-.69,4.75,1,6.29a22,22,0,0,0,10.11,5.23.12.12,0,0,0,.14-.12.51.51,0,0,0,.44-.7c-1.65-3.24-3-6.9-5.59-9.54C249.7,413.32,247.08,411.93,245.16,413.7Zm8.14,6.3c.85,1.57,1.61,3.18,2.52,4.72a64.62,64.62,0,0,1-5.84-3.18,23.07,23.07,0,0,1-2.6-1.9c-1.25-1.09-4.17-5.64.41-5.44C250.31,414.31,252.29,418.13,253.3,420Z" style="fill:#263238"></path><path d="M197.75,376l-26.17-.69s-27-13.89-49.22-9.17c-25.45,5.4-29.52,37.07-10.92,48.8C135,429.83,241.61,429.9,241.61,429.9l-22-39.64s-35.23-8.4-67.39-8.17l45.16,7.38Z" style="fill:#37474f"></path><path d="M221.08,392.82a1.42,1.42,0,0,1,0-.2,1,1,0,0,0,0-.17,2.62,2.62,0,0,0-.09-.38,7.58,7.58,0,0,0-.24-.77c-.1-.26-.2-.5-.31-.75a5.35,5.35,0,0,0-.41-.7s0,0-.06-.05l0,0-.06,0-.06,0c-3.87-.83-30.25-5.32-34.17-5.87s-7.93-1-11.9-1.47a238,238,0,0,0-23.87-1.5c-.74,0-1.49,0-2.24,0a3.51,3.51,0,0,0-.49-.13c-.38-.1-.75-.21-1.14-.29-.71-.16-1.43-.29-2.15-.42-1.51-.27-3-.47-4.51-.79-.09,0-.13.12,0,.14,1.5.38,3,.85,4.47,1.22l1.3.31c-2.92.08-5.84.23-8.77.42a.07.07,0,1,0,0,.14c4-.13,8-.05,11.94.12s7.89.36,11.82.7c8,.66,15.91,1.59,23.83,2.63,4.44.59,31.33,5.24,35.8,5.55h0c0,.1.07.21.12.31s.23.49.36.73.24.46.38.69l.21.33.11.16a1.63,1.63,0,0,1,.11.17C221,393,221.13,392.91,221.08,392.82Z" style="fill:#263238"></path><path d="M233.37,427.31c-1.37-2.32-2.52-4.78-3.76-7.17L225.86,413c-2.49-4.77-11.48-20.84-12.38-22-.06-.07-.18,0-.15.09.41,1.24,6,11.86,7.29,14.23,2.58,4.74,5.3,9.4,8,14.08.77,1.34,1.56,2.66,2.34,4s1.6,2.64,2.31,4C233.28,427.47,233.41,427.39,233.37,427.31Z" style="fill:#263238"></path><path d="M148.22,267.77l4,30.07c.21.89-.3,1.54-1.14,1.44L136,297.55a2.45,2.45,0,0,1-1.92-1.79l-4-30.07c-.21-.9.3-1.55,1.14-1.45L146.3,266A2.46,2.46,0,0,1,148.22,267.77Z" style="fill:#37474f"></path><path d="M146.43,267.55l4,30.07c.21.89-.3,1.54-1.14,1.44l-15.08-1.73a2.48,2.48,0,0,1-1.92-1.79l-4-30.08c-.21-.89.3-1.54,1.14-1.44l15.08,1.73A2.45,2.45,0,0,1,146.43,267.55Z" style="fill:#455a64"></path><path d="M142.14,268.41a1.29,1.29,0,1,0,1.4-1.17A1.3,1.3,0,0,0,142.14,268.41Z" style="fill:#263238"></path><path d="M191.75,317.6c-10.47,17.29-32.15,38.89-40.1,38.15-3.78-.35-10.61-.16-15.11-5-9.81-10.61-16.93-29.68-17.68-40.24-.26-3.75,18.52-9.84,20.85-6.56,5.46,7.69,11.21,22.25,12.31,22.28,4.1.12,21.38-11.42,33.45-19.57C200.13,296.76,195.92,310.71,191.75,317.6Z" style="fill:#c95f50"></path><path d="M120.44,291.39c2.69-7.28,4.5-8.74,3.5-16.09-.65-4.83,2.15-7.31,5.09-3.19,4.79,6.75,3.3,16.88,1.77,20.24Z" style="fill:#c95f50"></path><path d="M119.4,313.8S117.16,303,119.26,295c1.45-5.57,6-17.32,22.47-22,3.91-1.11,10.28.07,4.55,4.22-4.07,2.94-7.54,3.58-9.6,5.72,0,0,7.92,2.47,8.89,6.44a75.75,75.75,0,0,1,1.78,10.54,15.89,15.89,0,0,1-1.94.51s.79,3.74-2.44,8.59Z" style="fill:#c95f50"></path><path d="M121.49,289.88c2.5-1.7,7.84-5.21,13.2-6.56,6-1.5,17.85-2.78,18.91,1.63.78,3.24-3.72,4.13-3.72,4.13s5,.5,5.09,3.58c.06,2.8-3.46,3.28-3.46,3.28s3,.83,2.53,3.54c-.56,3.26-6.74,1-10.16,3.8C143.11,303.91,121.49,289.88,121.49,289.88Z" style="fill:#c95f50"></path><path d="M135.23,289.89a24.4,24.4,0,0,1,14.56-.91c.13,0,.16.15.05.14a60.45,60.45,0,0,0-14.6.82S135.2,289.9,135.23,289.89Z" style="fill:#263238"></path><path d="M136.91,295.86c2.36-.82,9.24-1.78,14.6,0,.12,0,.15.15,0,.13a65.52,65.52,0,0,0-14.63,0S136.88,295.87,136.91,295.86Z" style="fill:#263238"></path><path d="M117.89,318.07s11.65,30.57,19.84,34.83,13.38,4.05,16.61,3.91a8.72,8.72,0,0,0,3.53-1.27c9.26-5.24,27-25.37,34.52-36.93,5.66-8.69,6-17.07-1.39-15.14a23.89,23.89,0,0,0-7,3.51c-14.24,9.59-30.54,18.43-31.22,18s-7-13.17-7-13.17Z" style="fill:#BA68C8"></path><path d="M151.25,331.16a7.53,7.53,0,0,1-.12,2,7,7,0,0,1-.64,1.91,7.09,7.09,0,0,1,.12-2A7.23,7.23,0,0,1,151.25,331.16Zm-18.17,8.46a7.07,7.07,0,0,0-.13,2,7.17,7.17,0,0,0,.64-1.91,6.81,6.81,0,0,0,.12-2A7.09,7.09,0,0,0,133.08,339.62Zm29.9,8.73a6.79,6.79,0,0,0-.12,2,8,8,0,0,0,.76-3.93A7.17,7.17,0,0,0,163,348.35Zm9.78-29a7.53,7.53,0,0,0-.12,2,7.11,7.11,0,0,0,.64-1.92,7.46,7.46,0,0,0,.12-2A7,7,0,0,0,172.76,319.38Zm.81,9.63a6.79,6.79,0,0,0-2-.12,8,8,0,0,0,3.93.76A7.17,7.17,0,0,0,173.57,329Zm-35.22,1.72a6.73,6.73,0,0,0-2-.12,6.76,6.76,0,0,0,1.92.63,7.07,7.07,0,0,0,2,.13A7.11,7.11,0,0,0,138.35,330.73Zm17.28,11.4a7.14,7.14,0,0,0-2-.13,6.78,6.78,0,0,0,1.92.64,7.07,7.07,0,0,0,2,.13A7.17,7.17,0,0,0,155.63,342.13Zm-32.81-22.52a7.07,7.07,0,0,0-2-.13,7.17,7.17,0,0,0,1.91.64,7.53,7.53,0,0,0,2,.12A7.09,7.09,0,0,0,122.82,319.61Zm15.8,31.49a7.07,7.07,0,0,0-2-.13,6.72,6.72,0,0,0,1.91.64,7.14,7.14,0,0,0,2,.13A7.11,7.11,0,0,0,138.62,351.1Zm55.91-46.46a7.12,7.12,0,0,0,1.7.58,2.62,2.62,0,0,0-.29-.55A5.11,5.11,0,0,0,194.53,304.64Zm-33.47,21.41a7.14,7.14,0,0,0,1.34,1.52,7.15,7.15,0,0,0-.91-1.81,7,7,0,0,0-1.33-1.51A7.06,7.06,0,0,0,161.06,326.05ZM143.75,342a7.37,7.37,0,0,0,1.34,1.51,6.9,6.9,0,0,0-.9-1.8,7.14,7.14,0,0,0-1.34-1.52A7.46,7.46,0,0,0,143.75,342Zm-8.24-22.64a6.82,6.82,0,0,0,1.34,1.51,6.92,6.92,0,0,0-.91-1.8,7.09,7.09,0,0,0-1.33-1.52A6.81,6.81,0,0,0,135.51,319.31Zm35.21,21.9a7.37,7.37,0,0,0,1.34,1.51,7.22,7.22,0,0,0-.9-1.8,7.37,7.37,0,0,0-1.34-1.51A7.58,7.58,0,0,0,170.72,341.21Zm13.82-27.51a6.81,6.81,0,0,0,1.33,1.51,7.22,7.22,0,0,0-.9-1.8,7.09,7.09,0,0,0-1.34-1.51A7.25,7.25,0,0,0,184.54,313.7Zm1,11.09a7.09,7.09,0,0,0,1.51-1.34,6.9,6.9,0,0,0-1.8.9,7.42,7.42,0,0,0-1.52,1.34A7.12,7.12,0,0,0,185.55,324.79ZM127,328.45a7.05,7.05,0,0,0,1.51-1.34,6.92,6.92,0,0,0-1.8.91,7.09,7.09,0,0,0-1.52,1.33A6.81,6.81,0,0,0,127,328.45ZM145.19,324a7.09,7.09,0,0,0,1.52-1.33,7.66,7.66,0,0,0-3.32,2.24A6.92,6.92,0,0,0,145.19,324Zm19.17,12a6.82,6.82,0,0,0,1.51-1.34,7.25,7.25,0,0,0-1.8.91,7,7,0,0,0-1.51,1.33A7.22,7.22,0,0,0,164.36,336Zm-12.69,15.88a7.09,7.09,0,0,0,1.51-1.34,7.22,7.22,0,0,0-1.8.9,7.12,7.12,0,0,0-1.51,1.34A7.58,7.58,0,0,0,151.67,351.88Z" style="fill:#fff"></path><path d="M157.87,355.54c9.26-5.24,27-25.37,34.52-36.93,5.66-8.69,6-17.07-1.39-15.14C186.61,310.3,167.4,340.22,157.87,355.54Z" style="fill:#263238"></path><path d="M121,323.74c1-.44,10.62-3.06,12.72-3.58s10.65-2.75,12.85-3.11c.1,0,.14.12.05.15-2.1.77-10.72,3-12.85,3.61s-11.67,3-12.75,3.07C120.9,323.89,120.9,323.77,121,323.74Z" style="fill:#263238"></path><path d="M166.39,375.76c.9,1.08,61.89,6.12,62.22,5.76.9-1-4.67-40.23-10.17-55.43-7.05-19.48-11.55-21.46-14.22-22.75-3.42-1.66-9.81-1.7-11.39-1.15-1.79.61-9.88,8.66-12.57,15.4C174.87,331.12,165.6,374.82,166.39,375.76Z" style="fill:#BA68C8"></path><path d="M196.47,313.91a7.87,7.87,0,0,1-.77,3.93,7.14,7.14,0,0,1,.13-2A7,7,0,0,1,196.47,313.91Zm-2.62,31a7.17,7.17,0,0,0-.13,2,7.87,7.87,0,0,0,.77-3.93A7.17,7.17,0,0,0,193.85,345Zm33.2,32.26a7.1,7.1,0,0,0-.13,2,7,7,0,0,0,.64-1.91,7.14,7.14,0,0,0,.13-2A7.23,7.23,0,0,0,227.05,377.21ZM202,377.15a6.79,6.79,0,0,0-.12,2,7.2,7.2,0,0,0,.63-1.92,7.1,7.1,0,0,0,.13-2A7,7,0,0,0,202,377.15ZM182,362.62a6.75,6.75,0,0,0-.12,2,7,7,0,0,0,.63-1.91,7.14,7.14,0,0,0,.13-2A7.23,7.23,0,0,0,182,362.62Zm30.89-28.45a7.14,7.14,0,0,0-.13,2,7.87,7.87,0,0,0,.77-3.93A7,7,0,0,0,212.92,334.17ZM214.59,360a7.07,7.07,0,0,0-.13,2,7,7,0,0,0,.64-1.91,7.14,7.14,0,0,0,.13-2A7.11,7.11,0,0,0,214.59,360Zm-35.68-22.2a7.1,7.1,0,0,0-.13,2,7.66,7.66,0,0,0,.76-3.92A7,7,0,0,0,178.91,337.8Zm20.94-11.9a7.1,7.1,0,0,0-2-.13,7.66,7.66,0,0,0,3.92.76A7,7,0,0,0,199.85,325.9Zm13.76,20a7.48,7.48,0,0,0-2-.12,7,7,0,0,0,1.91.64,7.48,7.48,0,0,0,2,.12A7,7,0,0,0,213.61,345.87Zm-23.87,9.74a7.07,7.07,0,0,0-2-.12,7,7,0,0,0,1.91.64,7.53,7.53,0,0,0,2,.12A7.11,7.11,0,0,0,189.74,355.61Zm16.69,13.24a7.14,7.14,0,0,0-2-.13,7.23,7.23,0,0,0,1.92.64,6.75,6.75,0,0,0,2,.12A7,7,0,0,0,206.43,368.85Zm-34.11-2.06a7.14,7.14,0,0,0-2-.13,7.87,7.87,0,0,0,3.93.77A7,7,0,0,0,172.32,366.79Zm24.23-62a7.14,7.14,0,0,0-2-.13,7.87,7.87,0,0,0,3.93.77A7.17,7.17,0,0,0,196.55,304.76Zm8.7,7.89a7.09,7.09,0,0,0,1.33,1.52,6.81,6.81,0,0,0-.9-1.81,7,7,0,0,0-1.33-1.51A6.75,6.75,0,0,0,205.25,312.65Zm-15.34,21.09a7.05,7.05,0,0,0,1.34,1.51,7.15,7.15,0,0,0-.91-1.81,7.28,7.28,0,0,0-1.33-1.51A7.12,7.12,0,0,0,189.91,333.74Zm-15.26,21.19a7.05,7.05,0,0,0,1.34,1.51,7.15,7.15,0,0,0-.91-1.81,7.28,7.28,0,0,0-1.33-1.51A7.12,7.12,0,0,0,174.65,354.93Zm14.91,17.43a6.82,6.82,0,0,0,1.34,1.51,7.25,7.25,0,0,0-.91-1.8,7,7,0,0,0-1.33-1.51A7.22,7.22,0,0,0,189.56,372.36Zm32.85-3.55a7.09,7.09,0,0,0,1.34,1.51,7.22,7.22,0,0,0-.9-1.8,7.42,7.42,0,0,0-1.34-1.52A7.12,7.12,0,0,0,222.41,368.81Zm-18-16.4a7.12,7.12,0,0,0,1.34,1.51,7.22,7.22,0,0,0-.9-1.8,7.09,7.09,0,0,0-1.34-1.51A7.58,7.58,0,0,0,204.45,352.41ZM184.54,313.7a6.81,6.81,0,0,0,1.33,1.51,7.22,7.22,0,0,0-.9-1.8,7.09,7.09,0,0,0-1.34-1.51A7.25,7.25,0,0,0,184.54,313.7Zm1,11.09a7.09,7.09,0,0,0,1.51-1.34,6.9,6.9,0,0,0-1.8.9,7.42,7.42,0,0,0-1.52,1.34A7.12,7.12,0,0,0,185.55,324.79Zm37.12,26.6a6.82,6.82,0,0,0,1.73-.86c0-.18-.07-.37-.1-.55l-.11.07A7.14,7.14,0,0,0,222.67,351.39Zm-40.34-3.49a7.09,7.09,0,0,0,1.51-1.34,6.92,6.92,0,0,0-1.8.91,7.09,7.09,0,0,0-1.52,1.33A7.12,7.12,0,0,0,182.33,347.9Zm-3.76,28.32a7,7,0,0,0,1.51-1.33,6.9,6.9,0,0,0-1.8.9,6.61,6.61,0,0,0-1.51,1.34A7.25,7.25,0,0,0,178.57,376.22Zm33.94-54.6a7.28,7.28,0,0,0,1.51-1.33,7.12,7.12,0,0,0-1.81.9,7.34,7.34,0,0,0-1.51,1.34A7.15,7.15,0,0,0,212.51,321.62Zm-14.38,40.85a6.87,6.87,0,0,0,1.52-1.34,7.15,7.15,0,0,0-1.81.91,7,7,0,0,0-1.51,1.33A7.22,7.22,0,0,0,198.13,362.47Zm17.17,14.39a7,7,0,0,0,1.51-1.33,6.9,6.9,0,0,0-1.8.9,7.14,7.14,0,0,0-1.52,1.34A7.15,7.15,0,0,0,215.3,376.86Zm-12.23-39.7a7.28,7.28,0,0,0,1.51-1.33,6.81,6.81,0,0,0-1.81.9,7.05,7.05,0,0,0-1.51,1.34A7.15,7.15,0,0,0,203.07,337.16Z" style="fill:#fff"></path><path d="M214,309.08c25.15,21.37,46.29,50.19,43.58,58.76-2.86,9.05-21.68,18.26-37.88,19.39-3.32.24-12.06-24.51-8.62-25.42,2.68-.71,14.83-3.39,16.35-4.95,1.06-1.08-15.92-28.27-21.14-42.25C200.86,300,207.3,303.36,214,309.08Z" style="fill:#c95f50"></path><path d="M217.94,361.48s-10.11.41-16.71,1c-3.68.32-9.95,1.44-12.54,2.91-3.88,2.21-18.72,13.91-16,17.57,2.5,3.31,6.86-1.43,6.86-1.43s-5.25,4.74-1.76,7.26,8.59-4.19,8.59-4.19-5.92,4.64-1.94,7c3.46,2,10.14-5.09,10.14-5.09s-6.75,4.2-3.42,6.62c3.69,2.68,15.05-6.73,15.05-6.73,8.54,1.47,13.87,1.2,20-.14C227.42,386,217.94,361.48,217.94,361.48Z" style="fill:#c95f50"></path><path d="M184.81,386.18l1.27-1.52a33.54,33.54,0,0,1,2.59-2.87c.91-.87,1.85-1.69,2.83-2.49s2.14-1.59,3.15-2.45c.08-.07.17,0,.09.11a33.22,33.22,0,0,0-2.86,2.71c-.91.9-1.81,1.82-2.71,2.73s-1.82,1.73-2.73,2.6c-.45.43-.88.89-1.32,1.34a10.08,10.08,0,0,1-1.26,1.27s-.1,0-.08-.08A8.31,8.31,0,0,1,184.81,386.18Z" style="fill:#263238"></path><path d="M178.51,382.53a53.37,53.37,0,0,1,4.68-5.44,36.33,36.33,0,0,1,5.6-4.52.08.08,0,0,1,.09.12c-1.71,1.69-3.44,3.36-5.17,5-.85.82-4.57,4.64-5,5C178.59,382.78,178.46,382.63,178.51,382.53Z" style="fill:#263238"></path><path d="M190.63,389.77a51.2,51.2,0,0,1,4.49-5,45.62,45.62,0,0,1,5.66-4c.07,0,.15.06.09.11-1.78,1.46-3.57,2.88-5.28,4.43-.83.75-4,3.93-4.82,4.58C190.69,390,190.58,389.85,190.63,389.77Z" style="fill:#263238"></path><path d="M210.05,360.75l12.73,27.62s32.16-6.79,35.62-21-31.24-49.1-42.06-57.47-17.62-9.77-9.67,8.46,20.73,37.22,19.57,38.08C225.26,357.14,210.05,360.75,210.05,360.75Z" style="fill:#BA68C8"></path><path d="M233.38,342.22a7.1,7.1,0,0,1-.13,2,7.2,7.2,0,0,1-.63,1.92,6.79,6.79,0,0,1,.12-2A7,7,0,0,1,233.38,342.22Zm-6.33,35a7.1,7.1,0,0,0-.13,2,7,7,0,0,0,.64-1.91,7.14,7.14,0,0,0,.13-2A7.23,7.23,0,0,0,227.05,377.21Zm17.19-15.38a7.14,7.14,0,0,0-.13,2,7.23,7.23,0,0,0,.64-1.92,7.1,7.1,0,0,0,.13-2A7,7,0,0,0,244.24,361.83Zm-30.73-29.48.06.11c0-.07,0-.13,0-.2A.41.41,0,0,0,213.51,332.35ZM221.37,317a7.14,7.14,0,0,0-.12,2,7.23,7.23,0,0,0,.64-1.92,7.48,7.48,0,0,0,.12-2A7,7,0,0,0,221.37,317ZM214.47,362a7.51,7.51,0,0,0,.63-1.91q.06-.3.09-.6l-.51.13a2.37,2.37,0,0,0-.09.36A6.81,6.81,0,0,0,214.47,362Zm-1.24-53.59a7.07,7.07,0,0,0-2-.13,6.72,6.72,0,0,0,1.91.64,7.14,7.14,0,0,0,2,.13A7.11,7.11,0,0,0,213.23,308.42Zm31.32,35.74a7.14,7.14,0,0,0-2-.13,7.23,7.23,0,0,0,1.92.64,7.07,7.07,0,0,0,2,.13A7,7,0,0,0,244.55,344.16Zm-14.82,16.38a7.1,7.1,0,0,0-2-.13,7,7,0,0,0,1.91.64,6.75,6.75,0,0,0,2,.12A7,7,0,0,0,229.73,360.54Zm7.3,20.08a6.73,6.73,0,0,0-2-.12,7,7,0,0,0,1.91.63,7.14,7.14,0,0,0,2,.13A7.23,7.23,0,0,0,237,380.62Zm15.84-12.91a7.14,7.14,0,0,0-2-.13,6.78,6.78,0,0,0,1.92.64,7.07,7.07,0,0,0,2,.13A7.17,7.17,0,0,0,252.87,367.71Zm-27.28-41.84a7.07,7.07,0,0,0-2-.13,7.17,7.17,0,0,0,1.91.64,6.79,6.79,0,0,0,2,.12A7.45,7.45,0,0,0,225.59,325.87Zm-20.34-13.22a7.09,7.09,0,0,0,1.33,1.52,6.81,6.81,0,0,0-.9-1.81,7,7,0,0,0-1.33-1.51A6.75,6.75,0,0,0,205.25,312.65ZM224,336.91a7.37,7.37,0,0,0,1.34,1.51,6.9,6.9,0,0,0-.9-1.8,7.14,7.14,0,0,0-1.34-1.52A7.46,7.46,0,0,0,224,336.91Zm-1.6,31.9a7.09,7.09,0,0,0,1.34,1.51,7.22,7.22,0,0,0-.9-1.8,7.42,7.42,0,0,0-1.34-1.52A7.12,7.12,0,0,0,222.41,368.81ZM243,374.15a6.82,6.82,0,0,0,1.34,1.51,8.07,8.07,0,0,0-2.24-3.32A7.12,7.12,0,0,0,243,374.15Zm-4-20.66a7.09,7.09,0,0,0,1.33,1.52,6.81,6.81,0,0,0-.9-1.81,7,7,0,0,0-1.33-1.51A6.6,6.6,0,0,0,238.93,353.49Zm-16.16,32.16a6.87,6.87,0,0,0,1.34,1.52,7.15,7.15,0,0,0-.91-1.81,7.28,7.28,0,0,0-1.33-1.51A6.6,6.6,0,0,0,222.77,385.65Zm.84-35.17h0l.21.39a7.59,7.59,0,0,0,.66-.39,7.37,7.37,0,0,0,1.51-1.34,7.58,7.58,0,0,0-1.8.9C224,350.19,223.79,350.33,223.61,350.48Zm29,5.36a7.12,7.12,0,0,0,1.51-1.34,7.22,7.22,0,0,0-1.8.9,7.37,7.37,0,0,0-1.51,1.34A7.58,7.58,0,0,0,252.62,355.84ZM234.54,370a7.42,7.42,0,0,0,1.52-1.34,7.66,7.66,0,0,0-3.32,2.24A7.4,7.4,0,0,0,234.54,370Zm-22-48.42a7.28,7.28,0,0,0,1.51-1.33,7.12,7.12,0,0,0-1.81.9,7.34,7.34,0,0,0-1.51,1.34A7.15,7.15,0,0,0,212.51,321.62Zm23.14,12.29a6.85,6.85,0,0,0,1.51-1.34,7.22,7.22,0,0,0-1.8.9,7.37,7.37,0,0,0-1.51,1.34A7.22,7.22,0,0,0,235.65,333.91Z" style="fill:#fff"></path><path d="M227.47,384.86c-.63-.93-5.06-9.83-6-11.78s-4.77-9.91-5.55-12c0-.09.09-.16.14-.07,1.16,1.91,5.06,9.92,6,11.9s5.16,10.87,5.49,11.91C227.64,384.9,227.51,384.92,227.47,384.86Z" style="fill:#263238"></path><path d="M209.89,360.65l.6,1.13s.09.12,0,0-.41-1-.41-1c4.35-.76,8.68-1.64,13-2.73.53-.15,1.07-.29,1.61-.46a8,8,0,0,0,1.66-.69l.12-.1a.76.76,0,0,0,.16-.25,1.06,1.06,0,0,0,0-.47c0-.14-.1-.3-.15-.44s-.21-.53-.32-.78c-.23-.51-.47-1-.71-1.52-1-2-2-4-3-5.95-2.1-3.91-4.18-7.82-6.36-11.66-2.06-3.65-4.19-7.76-6.36-11.34-.13-.21-.48-.42-.1.36,2,4,3.75,7.41,5.79,11.34l6.16,11.76c1,2,2.06,3.91,3,5.89.25.49.49,1,.72,1.49.12.24.22.49.32.73s.06.19.09.28l.07-.05h0a.14.14,0,0,0,0,.07s0,.09,0,.06l0-.07a8.94,8.94,0,0,1-1.33.54l-1.57.49c-2.1.65-4.24,1.21-6.39,1.76Z" style="fill:#263238"></path><path d="M225.76,356.26l0,.07s0-.05,0-.06a.14.14,0,0,1,0-.07h0Z" style="fill:#263238"></path><path d="M210.09,329.47c-.29-.25-.28-.06-.15.12.72,1,1.85,2.14,2.66,3.07a34.54,34.54,0,0,0,3.08,3.09,34.7,34.7,0,0,0-2.7-3.42A28.91,28.91,0,0,0,210.09,329.47Z" style="fill:#263238"></path><path d="M193.62,312.86c3.38,1.16,9.83-3.55,12.59-7.61.19-.28,0-3.42,0-7.24,0-2.32.07-4.9.3-7.26.05-.48-15.1,2.16-15.1,2.16a37.81,37.81,0,0,1,.55,9.17,4.8,4.8,0,0,1-.2,1,1.57,1.57,0,0,0,0,.16C191.28,305,190.35,311.75,193.62,312.86Z" style="fill:#c95f50"></path><path d="M205.63,290.73c-1.07,3.91-4.48,13.28-12.37,12.7a9.1,9.1,0,0,1-1.5-.23.34.34,0,0,1,0-.16,6.65,6.65,0,0,0,.19-1,37.86,37.86,0,0,0-.55-9.18S202.37,291,205.63,290.73Z" style="fill:#263238"></path><path d="M209.22,273.42c1.14,5.38-3,20.26-7,23.3-5.83,4.42-14.71,4.1-18.29-2.75-3.47-6.65,2.22-26,6.65-28.65C197.12,261.35,207.55,265.48,209.22,273.42Z" style="fill:#c95f50"></path><path d="M193.31,282.56s.07.07.06.11c-.31,1-.49,2.19.33,2.77,0,0,0,.06,0,.05C192.61,285,192.87,283.46,193.31,282.56Z" style="fill:#263238"></path><path d="M194.49,281.76c1.65.31.9,3.58-.63,3.29S193.11,281.49,194.49,281.76Z" style="fill:#263238"></path><path d="M187.63,281.29s-.09,0-.1.07c-.2,1-.6,2.16-1.59,2.29a0,0,0,0,0,0,.06C187.09,283.8,187.61,282.29,187.63,281.29Z" style="fill:#263238"></path><path d="M187,280c-1.6-.5-2.48,2.74-1,3.2S188.31,280.44,187,280Z" style="fill:#263238"></path><path d="M196.59,279.51a11.67,11.67,0,0,1-1.27-.52,2.18,2.18,0,0,1-1.2-.78.7.7,0,0,1,.15-.85,1.75,1.75,0,0,1,1.78-.09,2.59,2.59,0,0,1,1.44,1.18A.76.76,0,0,1,196.59,279.51Z" style="fill:#263238"></path><path d="M186,277.3c.47,0,.9,0,1.37,0a2.34,2.34,0,0,0,1.4-.31.72.72,0,0,0,.15-.86,1.76,1.76,0,0,0-1.63-.71,2.63,2.63,0,0,0-1.76.61A.76.76,0,0,0,186,277.3Z" style="fill:#263238"></path><path d="M192.85,292.37c-.3.18-.62.45-1,.4a2.69,2.69,0,0,1-1-.51,0,0,0,0,0-.06,0,1.43,1.43,0,0,0,1.16.85,1.12,1.12,0,0,0,1-.72C193,292.38,192.89,292.34,192.85,292.37Z" style="fill:#263238"></path><path d="M192.48,289.09a3.55,3.55,0,0,1-2.66,1,4.92,4.92,0,0,1-1.25-.23l-.23-.08-.22-.09a.26.26,0,0,1-.15-.27h0a.42.42,0,0,1,0-.1h0l0-.09c.16-.78.51-2,.51-2-.32.08-1.93.4-1.81,0a53.66,53.66,0,0,1,3.73-10.14.1.1,0,0,1,.18.07c-.81,3.23-2.18,6.3-3,9.54a6.27,6.27,0,0,1,1.74-.12c.11.06-.71,2.25-.75,2.61v0a5,5,0,0,0,3.82-.29C192.49,288.93,192.56,289,192.48,289.09Z" style="fill:#263238"></path><path d="M189.12,289.58a4.19,4.19,0,0,0,1.35,1.64,1.81,1.81,0,0,0,1.1.33c.86,0,1.05-.77,1.05-1.43a4.43,4.43,0,0,0-.14-1.06A5.43,5.43,0,0,1,189.12,289.58Z" style="fill:#263238"></path><path d="M190.47,291.22a1.81,1.81,0,0,0,1.1.33c.86,0,1.05-.77,1.05-1.43A2,2,0,0,0,190.47,291.22Z" style="fill:#ff97b8"></path><path d="M207.25,285.1c-2.69-.3-2.09-6.88-2.09-6.88s-4.08-1-5.8-6.7c0,0-5.47,3.06-9.87,2-6.9-1.62-6.25-10.65-3.55-12.36,3.83-2.43,10.21,1.71,10.21,1.71s10.1-2.26,12.71,4.62a5.12,5.12,0,0,1,4.49,5.34C213.4,277.77,209.26,285.32,207.25,285.1Z" style="fill:#263238"></path><path d="M206.09,279.05a9.15,9.15,0,0,1-5.06-3.11,6.86,6.86,0,0,1-1.27-6.17c0-.11-.15-.17-.18,0a7.88,7.88,0,0,0,.77,6.66,6.38,6.38,0,0,0,5.71,2.86A.1.1,0,0,0,206.09,279.05Z" style="fill:#263238"></path><path d="M213.85,270c-1.28-1.81-3.36-2.19-5.43-2.22-.12,0-.12.19,0,.18a5.75,5.75,0,0,1,5,3.06c1,1.68.62,3.73.11,5.51a14.51,14.51,0,0,1-6.22,8.32c-.05,0,0,.11.05.08a14.5,14.5,0,0,0,7-9.1C214.77,274,215,271.67,213.85,270Z" style="fill:#263238"></path><path d="M196.41,263.24a6.81,6.81,0,0,0-3.68-3.13,8.12,8.12,0,0,0-5.8.29,4.58,4.58,0,0,0-2.61,3.79,8.12,8.12,0,0,0,1.56,5.23c0,.05.09,0,.07,0a8.15,8.15,0,0,1-1.19-4.74,4.24,4.24,0,0,1,2.68-3.61c2.92-1.13,7.09-.7,8.81,2.3C196.31,263.43,196.47,263.34,196.41,263.24Z" style="fill:#263238"></path><path d="M184.64,285.46c-1.47-.41-2.17-2.55-1.56-4.78s2.32-3.7,3.79-3.29,2.17,2.55,1.55,4.77S186.11,285.86,184.64,285.46Zm2.08-7.53c-1.17-.33-2.56,1-3.1,2.9s0,3.76,1.17,4.09,2.56-1,3.09-2.91S187.89,278.25,186.72,277.93Z" style="fill:#BA68C8"></path><path d="M193.68,288a4.2,4.2,0,1,1,4.88-3A4.06,4.06,0,0,1,193.68,288Zm2.08-7.53a3.63,3.63,0,1,0,2.26,4.38A3.49,3.49,0,0,0,195.76,280.43Z" style="fill:#BA68C8"></path><path d="M191.31,282.57c-1.82-1.27-2.92-.86-2.93-.86l-.21-.51c.05,0,1.36-.55,3.46.91Z" style="fill:#BA68C8"></path><path d="M198.39,284.54l.05-.56c.36,0,9,.79,9.93,1s2.81,2.05,3,2.26l-.39.4a10.75,10.75,0,0,0-2.71-2.1h0C207.55,285.36,201.49,284.81,198.39,284.54Z" style="fill:#BA68C8"></path><path d="M204.9,285.46s3.94-4.51,6-3-1.26,8.26-4,8.94a2.66,2.66,0,0,1-3.39-1.81Z" style="fill:#c95f50"></path><path d="M209.92,284.34a0,0,0,0,1,0,.07c-1.91.54-3.05,2.12-3.91,3.8a1.48,1.48,0,0,1,2.23-.16.06.06,0,0,1-.06.09,1.64,1.64,0,0,0-1.86.38,7.92,7.92,0,0,0-1,1.35c-.1.16-.39,0-.31-.14l0,0C205.24,287.36,207.4,284.3,209.92,284.34Z" style="fill:#263238"></path><path d="M207.93,306.45a67.2,67.2,0,0,1-5.51,5.43,11.34,11.34,0,0,1-6.5,3c-2.36.1-4.68-.5-5.4-3.41a17.33,17.33,0,0,1,.21-7.54c0-.13-.15-.17-.17,0-.72,3.73-1.58,9.51,1.77,11,3.74,1.65,7.58-.13,10.4-2.63a35.43,35.43,0,0,0,5.27-5.73S208,306.42,207.93,306.45Z" style="fill:#263238"></path></g><g id="freepik--small-speech-bubbles--inject-607"><rect x="113.16" y="207.94" width="46.37" height="34.67" style="fill:#BA68C8"></rect><polygon points="127.5 242.62 145.18 242.62 136.34 252.17 127.5 242.62" style="fill:#BA68C8"></polygon><path d="M145.34,227.58a28,28,0,0,1-9,7.81,28,28,0,0,1-9-7.81c-3.17-4.2-3-10.76,1.52-12.18,5-1.57,7.48,6,7.48,6s2.5-7.59,7.48-6C148.34,216.87,148.51,223.38,145.34,227.58Z" style="fill:#fff"></path><rect x="76.63" y="170.64" width="30.12" height="22.52" style="fill:#BA68C8"></rect><polygon points="85.94 193.16 97.43 193.16 91.69 199.36 85.94 193.16" style="fill:#BA68C8"></polygon><path d="M97.53,183.39a18.07,18.07,0,0,1-5.84,5.07,18.16,18.16,0,0,1-5.85-5.07c-2.06-2.72-2-7,1-7.91,3.26-1,4.86,3.88,4.86,3.88s1.62-4.93,4.86-3.88C99.48,176.43,99.59,180.67,97.53,183.39Z" style="fill:#fff"></path><rect x="495.44" y="152.33" width="30.12" height="22.52" style="fill:#BA68C8"></rect><polygon points="504.75 174.85 516.24 174.85 510.5 181.05 504.75 174.85" style="fill:#BA68C8"></polygon><path d="M516.34,165.08a18.23,18.23,0,0,1-5.84,5.07,18.32,18.32,0,0,1-5.85-5.07c-2.06-2.73-2-7,1-7.91,3.25-1,4.86,3.88,4.86,3.88s1.62-4.93,4.85-3.88C518.29,158.12,518.4,162.35,516.34,165.08Z" style="fill:#fff"></path><rect x="664.06" y="107.12" width="30.12" height="22.52" style="fill:#BA68C8"></rect><polygon points="673.37 129.64 684.86 129.64 679.12 135.84 673.37 129.64" style="fill:#BA68C8"></polygon><path d="M685,119.87a18.07,18.07,0,0,1-5.84,5.07,18.16,18.16,0,0,1-5.85-5.07c-2.06-2.72-1.95-7,1-7.91,3.26-1,4.86,3.88,4.86,3.88s1.62-4.93,4.86-3.88C686.91,112.91,687,117.15,685,119.87Z" style="fill:#fff"></path><rect x="351.82" y="50.06" width="46.37" height="34.67" style="fill:#BA68C8"></rect><polygon points="366.16 84.73 383.84 84.73 375 94.29 366.16 84.73" style="fill:#BA68C8"></polygon><path d="M384,69.69a28.09,28.09,0,0,1-9,7.82,28.09,28.09,0,0,1-9-7.82c-3.17-4.19-3-10.75,1.52-12.17,5-1.58,7.48,6,7.48,6s2.5-7.59,7.48-6C387,59,387.17,65.5,384,69.69Z" style="fill:#fff"></path><rect x="600.61" y="67.05" width="46.37" height="34.67" style="fill:#BA68C8"></rect><polygon points="614.95 101.72 632.63 101.72 623.79 111.28 614.95 101.72" style="fill:#BA68C8"></polygon><path d="M632.79,86.68a28,28,0,0,1-9,7.81,28,28,0,0,1-9-7.81c-3.17-4.19-3-10.76,1.52-12.18,5-1.57,7.48,6,7.48,6s2.5-7.6,7.48-6C635.79,76,636,82.49,632.79,86.68Z" style="fill:#fff"></path></g></svg>