<svg xmlns="http://www.w3.org/2000/svg" viewBox="0 0 500 500"><g id="freepik--background-complete--inject-435"><path d="M401.07,335.06l16.73-.29c5.53-.1,11-.16,16.49-.17l-.46.46,0-11.19.5.5-16.61-.07c-5.54,0-11.07-.13-16.61-.19l.25-.24Zm0,0-.25-11.19v-.25h.25c5.54-.06,11.07-.16,16.61-.19l16.61-.06h.5v.51l-.05,11.19v.45h-.45c-5.59,0-11.18-.07-16.73-.16Z" style="fill:#ebebeb"></path><rect x="419.6" y="337.98" width="33.22" height="11.19" transform="translate(872.42 687.14) rotate(180)" style="fill:#ebebeb"></rect><rect x="133.84" y="208.83" width="33.22" height="11.19" transform="translate(300.9 428.85) rotate(180)" style="fill:#ebebeb"></rect><path d="M152.37,234.13l16.73-.29c5.53-.09,11-.16,16.49-.16l-.45.45,0-11.19.5.5L169,223.37c-5.54,0-11.07-.12-16.61-.18l.25-.25Zm0,0-.25-11.19v-.24h.25c5.54-.06,11.07-.16,16.61-.18l16.61-.07h.5v.5L186,234.13v.45h-.45c-5.59,0-11.18-.07-16.73-.16Z" style="fill:#ebebeb"></path><path d="M170.83,220l16.73-.29c5.53-.09,11-.16,16.49-.16l-.46.45,0-11.19.5.5-16.61-.07c-5.54,0-11.08-.12-16.61-.18l.25-.25Zm0,0-.25-11.19v-.24h.25c5.53-.06,11.07-.16,16.61-.18l16.61-.07h.5v.5L204.5,220v.45h-.45c-5.59,0-11.19-.07-16.73-.16Z" style="fill:#ebebeb"></path><path d="M47.18,349.17l16.73-.29c5.53-.1,11-.16,16.49-.17l-.45.46,0-11.19.5.49-16.61-.06c-5.54,0-11.07-.13-16.61-.19l.25-.24Zm0,0L46.93,338v-.25h.25c5.54-.06,11.07-.16,16.61-.19l16.61-.06h.5V338l-.05,11.19v.45H80.4c-5.59,0-11.18-.07-16.73-.16Z" style="fill:#ebebeb"></path><path d="M65.71,65.49l16.73-.29c5.53-.1,11-.16,16.49-.17l-.45.46,0-11.19.5.5-16.61-.07c-5.54,0-11.07-.13-16.61-.19L66,54.3Zm0,0L65.46,54.3v-.25h.25c5.54-.06,11.07-.16,16.61-.19l16.61-.06h.5v.51l0,11.19v.45h-.45c-5.59,0-11.18-.07-16.73-.16Z" style="fill:#ebebeb"></path><rect x="47.18" y="68.41" width="33.22" height="11.19" transform="translate(127.58 148) rotate(180)" style="fill:#ebebeb"></rect><rect x="278.33" y="119.08" width="33.22" height="11.19" transform="translate(589.87 249.35) rotate(180)" style="fill:#ebebeb"></rect><path d="M259.79,144.38l16.73-.29c5.53-.09,11-.16,16.49-.16l-.45.45,0-11.19.49.5-16.61-.07c-5.53,0-11.07-.12-16.61-.18l.25-.25Zm0,0-.24-11.19V133h.25c5.54-.06,11.08-.16,16.61-.18l16.61-.07h.51v.5l0,11.19v.45H293c-5.59,0-11.18-.07-16.73-.16Z" style="fill:#ebebeb"></path><path d="M419.6,65.49l16.73-.29c5.53-.1,11-.16,16.49-.17l-.45.46-.05-11.19.5.5-16.61-.07c-5.54,0-11.07-.13-16.61-.19l.25-.24Zm0,0-.25-11.19v-.25h.25c5.54-.06,11.07-.16,16.61-.19l16.61-.06h.5v.51l-.05,11.19v.45h-.45c-5.59,0-11.18-.07-16.73-.16Z" style="fill:#ebebeb"></path><path d="M80.26,218.42v29.47L61.14,270.3a29.47,29.47,0,0,1,19.12-51.88Z" style="fill:#ebebeb"></path><path d="M115.73,250.89A29.47,29.47,0,0,1,67.14,273.3l19.12-22.41V221.42a29.45,29.45,0,0,1,29.47,29.47Z" style="fill:#ebebeb"></path><path d="M115.73,250.89A29.47,29.47,0,0,1,67.14,273.3l19.12-22.41V221.42a29.45,29.45,0,0,1,29.47,29.47Z" style="fill:#dbdbdb"></path><rect x="66.64" y="195.51" width="1" height="38.01" style="fill:#c7c7c7"></rect><path d="M67.14,196a3.17,3.17,0,1,1,3.16-3.16A3.16,3.16,0,0,1,67.14,196Zm0-5.33a2.17,2.17,0,1,0,2.16,2.17A2.17,2.17,0,0,0,67.14,190.68Z" style="fill:#c7c7c7"></path><rect x="75.21" y="190.18" width="29.53" height="1.33" style="fill:#c7c7c7"></rect><rect x="75.21" y="192.85" width="16.71" height="1.33" style="fill:#c7c7c7"></rect><path d="M400.82,134.25a35.75,35.75,0,1,1-35.35-41V129Z" style="fill:#ebebeb"></path><path d="M408.49,121.73a36.1,36.1,0,0,1-.39,5.24l-35.36-5.24V86a35.71,35.71,0,0,1,35.75,35.74Z" style="fill:#dbdbdb"></path><rect x="369.34" y="141.7" width="38.01" height="1" style="fill:#c7c7c7"></rect><path d="M410,145.37a3.17,3.17,0,1,1,3.17-3.17A3.17,3.17,0,0,1,410,145.37Zm0-5.33a2.17,2.17,0,1,0,2.17,2.16A2.16,2.16,0,0,0,410,140Z" style="fill:#c7c7c7"></path><rect x="419.67" y="140.2" width="29.53" height="1.33" style="fill:#c7c7c7"></rect><rect x="419.67" y="142.87" width="16.71" height="1.33" style="fill:#c7c7c7"></rect></g><g id="freepik--Shadow--inject-435"><ellipse cx="250" cy="422.48" rx="196.9" ry="51.64" style="fill:#ebebeb"></ellipse></g><g id="freepik--Plant--inject-435"><path d="M415.46,316.21a257.8,257.8,0,0,0-.38-27.38,349.1,349.1,0,0,0-8.57-55.77c-2.4-10.32-5.34-20.47-8.41-30.61-.09-.3-.58-.21-.5.1,9.49,35.73,17.28,72.61,16.74,109.75-.15,10.4-1.35,20.61-2.34,30.93,0,.28.43.39.49.11C414.45,334.5,415.09,325.24,415.46,316.21Z" style="fill:#BA68C8"></path><path d="M397.6,202.55S383.23,239,386.45,247.62,396.3,258,396.3,258s-8.79,12.56-2.65,24.34,19.8,11.22,20.71,24.57C414.36,306.93,415.12,251.1,397.6,202.55Z" style="fill:#BA68C8"></path><path d="M412.8,283.88a.35.35,0,0,0,0-.2,334,334,0,0,0-14-73.4c0-.07-.14,0-.12,0,2.85,10.67,5.39,21.4,7.55,32.19a15.88,15.88,0,0,0-6.86-3.82c-.05,0-.07,0,0,.07a18.22,18.22,0,0,1,7.09,4.73q.63,3.18,1.22,6.35c-3.21-3.59-7.67-5.37-12.13-7.06-.06,0-.09.07,0,.1,4.64,1.89,9.27,4.32,12.41,8.32q1.65,9.09,2.89,18.23a17.42,17.42,0,0,0-8.57-4.91c-.1,0-.16.12-.06.15a18.11,18.11,0,0,1,8.7,5.57.1.1,0,0,0,.05,0q.44,3.21.81,6.44a22,22,0,0,0-6-3.62c-.06,0-.09.06,0,.09a20.55,20.55,0,0,1,6,4l.08,0c.24,2,.48,4.09.68,6.14a29.11,29.11,0,0,0-12.19-8.71c-.09,0-.14.11-.05.15a31.67,31.67,0,0,1,12,9.24.28.28,0,0,0,.31.1q.46,4.71.82,9.43s.07,0,.07,0C413.29,290.32,413.06,287.1,412.8,283.88Z" style="fill:#263238"></path><path d="M401.25,235.05a18,18,0,0,0-8.64-2.69c-.07,0-.07.1,0,.11a34.11,34.11,0,0,1,8.53,2.79A.12.12,0,0,0,401.25,235.05Z" style="fill:#263238"></path><path d="M403,273.68a18.34,18.34,0,0,0-6.48-2.22c-.08,0-.08.11,0,.13a24,24,0,0,1,6.42,2.25C403,273.88,403.08,273.73,403,273.68Z" style="fill:#263238"></path><path d="M453.25,248.21a97.74,97.74,0,0,0-16.64,14.55,59.82,59.82,0,0,0-11.67,19.79,147.82,147.82,0,0,0-8.69,47.32,115,115,0,0,0,2.56,26.62.25.25,0,0,0,.5-.09,149.1,149.1,0,0,1,.26-46.53c2.47-15.09,6.35-31.52,15.94-43.78,5.23-6.68,11.74-11.94,18.18-17.37C454,248.44,453.6,248,453.25,248.21Z" style="fill:#BA68C8"></path><path d="M418.36,319a89.54,89.54,0,0,1,12.13-15.51c7.19-7.19,13.25-12.3,14.18-17.05s-7.2-8.26-7.2-8.26,9.95,1.79,12.68-2.39,4-28.36,4-28.36-18.1,12.92-26.54,31S418.36,319,418.36,319Z" style="fill:#BA68C8"></path><path d="M447.92,253.64c-7.62,7.48-15.28,15.45-19.77,25.28a96.33,96.33,0,0,0-4,10.43h0c-.23.72-.46,1.43-.68,2.15a.56.56,0,0,0,0,.12A207.31,207.31,0,0,0,418.28,314a0,0,0,0,0,.08,0c.78-3.77,1.64-7.58,2.6-11.38l.11,0a15.88,15.88,0,0,1,4.75-1.2c.1,0,.1-.2,0-.19a17.4,17.4,0,0,0-4.7.85c.87-3.42,1.83-6.84,2.9-10.21a50.42,50.42,0,0,1,10.74-1.4s0-.06,0-.06a40.25,40.25,0,0,0-10.56.9c.19-.58.38-1.16.58-1.73a54,54,0,0,1,7.14-1.21s0-.08,0-.08a34.27,34.27,0,0,0-7,.85c1-2.91,2-5.79,3.23-8.59a52.51,52.51,0,0,1,3.42-6.63,43.77,43.77,0,0,1,5.8-1c.05,0,.05-.09,0-.09a15.76,15.76,0,0,0-5.42.53c1-1.54,2-3,3-4.5h0c4.06-.9,8.17-1.73,12.33-1,.07,0,.09-.11,0-.13-3.95-1-7.88-.44-11.81.34.43-.57.87-1.14,1.31-1.7a27,27,0,0,1,7.59-1.19c.05,0,.06-.08,0-.08a19.88,19.88,0,0,0-7.08.62c3.36-4.17,7.07-8.08,10.73-12C448.23,253.56,448.1,253.46,447.92,253.64Z" style="fill:#263238"></path><path d="M447.72,270.13a16.72,16.72,0,0,0-3.6-.13.13.13,0,0,0,0,.26c1.19,0,2.38-.06,3.57,0A.07.07,0,1,0,447.72,270.13Z" style="fill:#263238"></path><path d="M434.69,293.59a16.36,16.36,0,0,0-5.58,1.12,0,0,0,0,0,0,.08c1.85-.44,3.71-.62,5.57-.92C434.85,293.84,434.85,293.59,434.69,293.59Z" style="fill:#263238"></path><path d="M430.78,285.49a11.12,11.12,0,0,0-2.37.21.07.07,0,0,0,0,.14,12.51,12.51,0,0,0,2.37-.11C430.93,285.7,430.92,285.49,430.78,285.49Z" style="fill:#263238"></path><path d="M365.29,273.88a82.16,82.16,0,0,1,16.83,7.93,50.39,50.39,0,0,1,14,13.32,124.67,124.67,0,0,1,18,36.29,97.45,97.45,0,0,1,4.08,22.13.22.22,0,0,1-.43,0,125.57,125.57,0,0,0-11-37.59c-5.49-11.65-12.42-24-23-31.75-5.78-4.2-12.26-6.95-18.73-9.85C364.71,274.25,365,273.77,365.29,273.88Z" style="fill:#BA68C8"></path><path d="M409.89,323.11a75.15,75.15,0,0,0-13.4-9.74c-7.48-4.16-13.57-6.89-15.42-10.53S385,294.5,385,294.5s-7.64,3.74-10.81,1-9.82-22-9.82-22,17.63,6.28,28.65,19S409.89,323.11,409.89,323.11Z" style="fill:#BA68C8"></path><path d="M409,319.14c-8.83-16.56-20.6-31.54-36.73-41.43h0A81.55,81.55,0,0,1,384,287a18.72,18.72,0,0,0-9.48,2c-.07,0,0,.12.05.1a26,26,0,0,1,9.75-1.65.18.18,0,0,0,.11,0c.58.54,1.14,1.09,1.7,1.65a29.84,29.84,0,0,0-5.07.67,0,0,0,0,0,0,.07,26.66,26.66,0,0,1,5.35-.44,111.74,111.74,0,0,1,8.32,9.45,8.45,8.45,0,0,0-3.54.26.07.07,0,1,0,0,.13,19.12,19.12,0,0,1,3.78-.05c.49.61,1,1.22,1.45,1.85a34.24,34.24,0,0,0-10.71,1,0,0,0,1,0,0,.08,43.1,43.1,0,0,1,11-.72c.45.6.88,1.22,1.32,1.82a22.88,22.88,0,0,0-6.37.73.07.07,0,0,0,0,.13,24.38,24.38,0,0,1,6.6-.52q2.85,3.93,5.46,8a6,6,0,0,0-2.79.17c-.05,0,0,.09,0,.08a12.28,12.28,0,0,1,3,.14c1.57,2.45,3.09,4.92,4.54,7.4C408.74,319.51,409.08,319.36,409,319.14Z" style="fill:#263238"></path><path d="M395.24,305.4a13.49,13.49,0,0,0-5.12.63,0,0,0,1,0,0,.07,39.7,39.7,0,0,1,5.1-.52A.09.09,0,0,0,395.24,305.4Z" style="fill:#263238"></path><path d="M379.86,285.22a8.57,8.57,0,0,0-2.37.14c-.09,0-.06.15,0,.14.78-.09,1.54-.06,2.32-.08A.1.1,0,0,0,379.86,285.22Z" style="fill:#263238"></path><polygon points="432.64 377.87 392.82 377.87 398.5 336.28 399.95 325.62 425.51 325.62 426.96 336.28 432.64 377.87" style="fill:#455a64"></polygon><polygon points="426.96 336.28 398.5 336.28 399.95 325.62 425.51 325.62 426.96 336.28" style="fill:#263238"></polygon><rect x="396.29" y="321.92" width="32.87" height="9.03" style="fill:#455a64"></rect></g><g id="freepik--Floor--inject-435"><polygon points="45.82 377.87 96.86 377.63 147.91 377.54 250 377.37 352.09 377.54 403.14 377.63 454.18 377.87 403.14 378.11 352.09 378.2 250 378.37 147.91 378.2 96.86 378.11 45.82 377.87" style="fill:#263238"></polygon></g><g id="freepik--Character--inject-435"><path d="M286.71,376.85c-2.42.79-71.46.18-74.08-1.5-1-.64-1.49-10.7-1.75-22.87-.06-2.63-.1-5.35-.12-8.1l-5.15-36.89,46.16.27,3.9,36.88-.28,8.1s26.33,12.06,29,14.22S289.13,376.07,286.71,376.85Z" style="fill:#d3766a"></path><path d="M286.71,376.85c-2.42.79-71.46.18-74.08-1.5-1.21-.78-1.69-15.47-1.87-31l44.91.26-.28,8.1s26.33,12.06,29,14.22S289.13,376.07,286.71,376.85Z" style="fill:#fff"></path><path d="M286.71,376.85c-2.42.79-71.46.18-74.08-1.5-1-.64-1.49-10.7-1.75-22.87l44.51.26s26.33,12.06,29,14.22S289.13,376.07,286.71,376.85Z" style="fill:#BA68C8"></path><path d="M285.74,374.08c-11.57-.38-58.27-.85-69.74-.35-.09,0-.09.07,0,.07,11.46.64,58.17.72,69.74.47C286,374.27,286,374.09,285.74,374.08Z" style="fill:#263238"></path><path d="M280,364.43a9.32,9.32,0,0,0-7,2.77,9,9,0,0,0-2.64,6.15c0,.07.13.08.14,0a10.73,10.73,0,0,1,9.45-8.77A.08.08,0,0,0,280,364.43Z" style="fill:#263238"></path><path d="M259.87,353.93c-4.63-.1-10,1.48-12.92,5.25-.12.14.09.3.23.23A64.56,64.56,0,0,1,260,354.5.29.29,0,0,0,259.87,353.93Z" style="fill:#263238"></path><path d="M263.44,355.36c-4.63-.11-10,1.48-12.93,5.24-.11.15.09.31.23.24a63.94,63.94,0,0,1,12.77-4.91A.29.29,0,0,0,263.44,355.36Z" style="fill:#263238"></path><path d="M267,356.78c-4.63-.1-10,1.49-12.93,5.25-.11.14.1.3.24.23a64.32,64.32,0,0,1,12.77-4.91A.29.29,0,0,0,267,356.78Z" style="fill:#263238"></path><path d="M270.56,358.21c-4.63-.11-10,1.48-12.92,5.24-.12.15.09.31.23.24a63.94,63.94,0,0,1,12.77-4.91A.29.29,0,0,0,270.56,358.21Z" style="fill:#263238"></path><path d="M219.05,362.76c-5.2,0-5.26,8.05-.05,8.08S224.25,362.8,219.05,362.76Z" style="fill:#fff"></path><path d="M139.89,136.44s52.47,91.84,53.83,98.26C195.8,244.56,208,352.06,208,352.06l51.65-.31s-10.22-96-19-124.32c-4.78-15.46-29.92-57.39-41.7-78.08-1.06-1.85-.74-10.32-.74-10.32Z" style="fill:#37474f"></path><path d="M254.64,343.13c-8-.15-32.25-.82-42.92,0a.08.08,0,0,0,0,.15c3.66.58,34.91.19,42.92,0A.11.11,0,1,0,254.64,343.13Z" style="fill:#263238"></path><path d="M148.93,144.92c3.45,5.55,7.09,11,10.61,16.49s7,11,10.5,16.57q10.4,16.62,20.28,33.54a101.89,101.89,0,0,1,8.16,16.36A100.31,100.31,0,0,1,203,245.44c1,6,1.66,12.05,2.27,18.09q1,9.68,1.91,19.33c1.31,13.18,4.28,36.58,5.59,49.76.16,1.61.32,3.23.46,4.85,0,.24-.41.28-.43,0-1.48-13.1-4.35-36.45-5.68-49.56l-2-19.59c-.62-6.07-1.2-12.15-2.07-18.19a120.36,120.36,0,0,0-3.71-17.61,84.9,84.9,0,0,0-7.5-17.16c-6.32-11.22-13-22.26-19.73-33.27s-13.59-22.19-20.68-33.1c-.87-1.35-1.75-2.69-2.66-4C148.69,144.91,148.87,144.81,148.93,144.92Z" style="fill:#263238"></path><path d="M163.12,377.87c-2.54-.19-67.87-27.6-69.66-30.14a.92.92,0,0,1-.1-.49c0-2.26,4.68-10.1,8.61-20.42.25-.66,2-3.72,4.38-7.84,6.61-11.32,18.29-30.7,18.29-30.7l42.7,17.58-20.92,30.49-3.29,7.41s19.89,21.06,21.55,24.06S165.65,378,163.12,377.87Z" style="fill:#d3766a"></path><path d="M163.12,377.87c-2.54-.19-67.87-27.6-69.66-30.14a.92.92,0,0,1-.1-.49c0-2.26,4.68-10.1,8.61-20.42.25-.66,2-3.72,4.38-7.84l40.07,17.37-3.29,7.41s19.89,21.06,21.55,24.06S165.65,378,163.12,377.87Z" style="fill:#fff"></path><path d="M163.11,377.86c-2.53-.18-67.86-27.59-69.65-30.13-.69-1,2.36-9.9,8.51-20.91l41.16,16.94s19.89,21.05,21.55,24.06S165.65,378,163.11,377.86Z" style="fill:#BA68C8"></path><path d="M163.26,374.93c-10.58-4.7-53.7-22.65-64.52-26.49-.09,0-.11,0,0,.07,10.39,4.88,53.65,22.49,64.48,26.6C163.41,375.19,163.48,375,163.26,374.93Z" style="fill:#263238"></path><path d="M161.53,363.82a9.28,9.28,0,0,0-7.47,0,9,9,0,0,0-4.76,4.71c0,.07.09.12.13.06a10.74,10.74,0,0,1,12-4.6A.07.07,0,1,0,161.53,363.82Z" style="fill:#263238"></path><path d="M146.84,346.54c-4.26-1.83-9.84-2.38-14,0-.15.09,0,.32.13.3a63.86,63.86,0,0,1,13.68.24A.29.29,0,0,0,146.84,346.54Z" style="fill:#263238"></path><path d="M149.61,349.2c-4.26-1.83-9.85-2.38-14,0-.16.09,0,.31.13.3a63.86,63.86,0,0,1,13.68.24A.29.29,0,0,0,149.61,349.2Z" style="fill:#263238"></path><path d="M152.37,351.86c-4.25-1.83-9.84-2.38-14,0-.16.1,0,.32.13.31a63.86,63.86,0,0,1,13.68.24A.29.29,0,0,0,152.37,351.86Z" style="fill:#263238"></path><path d="M155.14,354.52c-4.25-1.84-9.84-2.38-13.95,0-.16.09,0,.32.13.31a63.87,63.87,0,0,1,13.68.24A.29.29,0,0,0,155.14,354.52Z" style="fill:#263238"></path><path d="M105.68,339.42c-4.81-2-7.89,5.48-3.08,7.47S110.49,341.4,105.68,339.42Z" style="fill:#fff"></path><path d="M147,344.71l-47.79-20s60.94-94.13,61.46-100.64c.46-5.77-25.08-56.33-25.93-71-.92-15.82,6.84-27.95,15.3-35.44L198.19,139s-4.21,8.6-12.51,13.16c0,0,24.7,58.38,23,76.22S147,344.71,147,344.71Z" style="fill:#37474f"></path><path d="M149.23,335.6c-6.91-3.07-4.88-2.29-11.83-5.28-3.39-1.47-25.73-11.08-29.14-11.89a.08.08,0,0,0-.06.15c3,1.86,25.47,11.08,28.89,12.48,7,2.86,5,2,12,4.75A.11.11,0,0,0,149.23,335.6Z" style="fill:#263238"></path><path d="M193.85,151.23a92.91,92.91,0,0,0-15.15,4.7.16.16,0,0,0,.1.31c5.08-1.42,10.25-2.74,15.25-4.42A.31.31,0,0,0,193.85,151.23Z" style="fill:#263238"></path><path d="M188,149.12a21.47,21.47,0,0,0-1.31,2.63A6.07,6.07,0,0,0,186,154c0,.15.19.19.29.1a7.9,7.9,0,0,0,1.27-2.08c.43-.82.88-1.62,1.29-2.44A.49.49,0,0,0,188,149.12Z" style="fill:#263238"></path><path d="M188.66,144.46c.31-.75.63-1.51,1-2.26s.73-1.55,1-2.35c.05-.13.25,0,.19.09-.31.76-.52,1.57-.77,2.35s-.52,1.57-.79,2.35a45.46,45.46,0,0,1-1.76,4.29,5.54,5.54,0,0,0,2.39-.38,4.32,4.32,0,0,0,1.7-2c.45-.85.86-1.71,1.32-2.55a18.08,18.08,0,0,0,1.41-2.86c0-.13.24,0,.19.09a33.28,33.28,0,0,1-2.71,6.07c-.47.75-.85,1.54-1.69,1.82a6.92,6.92,0,0,1-2.83.16c-.12,0-.27-.05-.23-.19C187.52,147.54,188,146,188.66,144.46Z" style="fill:#263238"></path><path d="M186.43,154.09c1.72,3.75,3.22,7.49,4.82,11.23s3,7.35,4.44,11.07c2.86,7.5,5.42,15.14,7.65,22.85q1.65,5.73,3,11.54a84,84,0,0,1,2.15,11.77,31.2,31.2,0,0,1-1.14,11.77c-1.18,3.89-7.53,17.1-9.34,20.74-1.11,2.22-1.47,1.91-.94.79,1.52-3.18,10.28-21.53,10.73-29.13.24-3.93-1.41-9.5-2.26-13.33s-1.83-7.81-2.9-11.67c-2.11-7.61-4.63-15.07-7.23-22.52-1.46-4.18-3-8.31-4.5-12.48s-3-8-4.68-12.56A.1.1,0,1,1,186.43,154.09Z" style="fill:#263238"></path><path d="M150.11,141.31c.87-.31,2,.23,2.93.39a27.64,27.64,0,0,0,3.4.39,25.44,25.44,0,0,0,3.38-.08,7.26,7.26,0,0,0,3.24-.81,16.41,16.41,0,0,0,4.18-4.33,25.21,25.21,0,0,0,3.28-5.6c0-.12.22,0,.18.08-.38,1.15-.66,2.31-1.13,3.43a21.42,21.42,0,0,1-1.63,3c-1.13,1.81-2.42,3.74-4.33,4.8s-4.58,1-6.8.86a24.78,24.78,0,0,1-3.82-.56c-.91-.2-2.43-.36-3-1.17A.28.28,0,0,1,150.11,141.31Z" style="fill:#263238"></path><path d="M113,315.74c8-11.85,39.43-67.37,47-79.6,1.8-2.92,3.88-5.84,5.06-9.09,1.28-3.53.62-7-.46-10.46a176.46,176.46,0,0,0-7.14-18.73c-2.7-6.14-5.61-12.18-8.47-18.24s-5.86-12.05-8-18.36c-2-6-2.76-12.26-1.06-18.46s5.22-11.66,8.91-16.79c1-1.35,2-2.69,2.94-4.05.08-.1.23,0,.16.13-4.07,5.35-8,11-10.46,17.31a30.56,30.56,0,0,0-2.1,9.75,31.51,31.51,0,0,0,1.44,10c1.87,6.3,4.86,12.29,7.65,18.23s5.77,12.1,8.51,18.22a191.59,191.59,0,0,1,7.44,18.82c.94,2.85,2,5.84,1.88,8.89-.11,3.33-1.74,6.32-3.43,9.11-7.33,12.16-38.54,67.27-46.54,79.07l-3,4.46C113.16,316.15,112.89,315.92,113,315.74Z" style="fill:#263238"></path><path d="M231.24,91c8.87,28.11,19.53,72.61,23.72,80.19,2.84,5.14-25.78,14.47-27.18,10.69-1.8-4.84-9.92-55.91-8.32-87.69C220.12,81.08,228.58,82.65,231.24,91Z" style="fill:#d3766a"></path><path d="M227,179c.65,3.26,3.77,14.62,6.05,16s14.3,1.09,20.35,1.09,7.24-1.69,7.14-3.77-12.8-2.48-12.8-2.48,17,4.86,21.23,5.65,14.09,3.28,15.51-.26c.64-1.6-2.05-3.21-2.05-3.21s4.12,1.21,4.78-.84c.75-2.34-2.53-3.62-2.53-3.62s2.57.52,2.63-1.38c.14-4.25-16-6.34-16-6.34s12.35,6,12.74,2.54c.55-4.8-24.75-10.06-27.39-12.15a18.13,18.13,0,0,1-4.22-5.21Z" style="fill:#d3766a"></path><path d="M260.48,193.38a1.85,1.85,0,0,0-.58-1.62,5,5,0,0,0-1.47-1,20.12,20.12,0,0,0-3.47-1.13c-2.38-.6-4.83-1-7.26-1.66a29.43,29.43,0,0,1,7.47.84,13.51,13.51,0,0,1,3.57,1.37,4.79,4.79,0,0,1,1.49,1.28A1.94,1.94,0,0,1,260.48,193.38Z" style="fill:#263238"></path><path d="M282.46,192c-1.75-.42-3.46-.92-5.18-1.41s-3.42-1-5.13-1.54l-5.11-1.6c-1.7-.54-3.41-1.06-5.13-1.58a39.48,39.48,0,0,1,5.3,1c1.75.4,3.47.9,5.19,1.42s3.41,1.09,5.08,1.73S280.83,191.26,282.46,192Z" style="fill:#263238"></path><path d="M266,181.66a33.43,33.43,0,0,1,4.89.67,46.77,46.77,0,0,1,4.79,1.24,43,43,0,0,1,4.63,1.73,35,35,0,0,1,4.39,2.26c-1.56-.54-3.08-1.14-4.63-1.66s-3.09-1.05-4.65-1.52-3.12-.95-4.68-1.41S267.6,182.09,266,181.66Z" style="fill:#263238"></path><path d="M268.5,177.61a32.73,32.73,0,0,1,14.95,5.11c-2.5-.89-4.94-1.83-7.43-2.66S271,178.42,268.5,177.61Z" style="fill:#263238"></path><path d="M256.55,169.93l-32.35,9.93s-6.14-61.54-5.19-83.7c.69-16.27,9.37-14.82,13.54-3.66C238.25,107.76,256.55,169.93,256.55,169.93Z" style="fill:#BA68C8"></path><path d="M256.55,169.93l-32.35,9.93s-6.14-61.54-5.19-83.7c.69-16.27,9.37-14.82,13.54-3.66C238.25,107.76,256.55,169.93,256.55,169.93Z" style="opacity:0.1"></path><path d="M226.12,172.35c4.36-1,22-5.81,25.76-7.11.26-.08.26-.27,0-.21-13.11,2.72-21.55,5.93-25.77,7.14C226,172.2,226,172.37,226.12,172.35Z" style="fill:#263238"></path><path d="M201.92,151.27,139.67,122.7c-.24-1.1,25.16-22.81,49.53-35.61,8.24-4.33,24.67-7.07,30.57-6,7,1.29,14,14.09,10.14,21-1.81,3.18-13,11.59-14.77,14.9-.76,1.47-2.33,9.61-2.81,11.18C207,145.93,202.6,151,201.92,151.27Z" style="fill:#BA68C8"></path><path d="M211.16,119.61c-.82-1.21-1.71-2.37-2.6-3.52a13.18,13.18,0,0,0-3-2.91,52.89,52.89,0,0,0-7.55-3.72c-.1,0-.15.11-.06.16a31,31,0,0,1,6.95,4.53c1,.9,2.09,1.77,3.11,2.68s2,1.94,2.95,2.91A.1.1,0,1,0,211.16,119.61Z" style="fill:#263238"></path><path d="M212.56,116.09a10.33,10.33,0,0,0-.7-.77,12.12,12.12,0,0,0-1.62-1.32,12.75,12.75,0,0,0-3.77-1.72.08.08,0,0,0-.05.16,19.1,19.1,0,0,1,3.47,2.08c.54.4,1.05.84,1.55,1.28l.71.66.76.64c.1.08.23,0,.18-.16A5.75,5.75,0,0,0,212.56,116.09Z" style="fill:#263238"></path><path d="M226,97.62c-3.55-1.31-6.11-10.33-5.66-15.51,0-.36,2.26-2.83,4.82-6,1.54-1.91,3.22-4.08,4.6-6.16l11,11.88A39.55,39.55,0,0,0,234.15,89a5.07,5.07,0,0,0-.48.92,1.15,1.15,0,0,1-.08.15C232.78,91.89,229.44,98.89,226,97.62Z" style="fill:#d3766a"></path><path d="M230.16,70.4c-1.35,2.43-6.49,12.88,2,18.87a11.81,11.81,0,0,0,1.39.83c0-.07.06-.13.08-.17a4.25,4.25,0,0,1,.49-.91,39.9,39.9,0,0,1,6.58-7.17Z" style="fill:#263238"></path><path d="M231.86,56c-3.23,4.84-5.06,21.09-2.3,25.67,4,6.64,12.86,9.82,19.08,4.49,6-5.17,8-26.39,4.74-30.79C248.52,48.89,236.64,48.85,231.86,56Z" style="fill:#d3766a"></path><path d="M244.72,70.05s-.09,0-.1.08c-.12,1.1-.45,2.33-1.49,2.55,0,0,0,.06,0,.06C244.36,72.75,244.78,71.1,244.72,70.05Z" style="fill:#263238"></path><path d="M243.91,68.77c-1.73-.39-2.38,3.1-.77,3.46S245.37,69.09,243.91,68.77Z" style="fill:#263238"></path><path d="M250.48,71s.08.07.07.11c-.24,1.08-.33,2.35.58,2.89,0,0,0,.08,0,.06C250,73.68,250.08,72,250.48,71Z" style="fill:#263238"></path><path d="M251.66,70.06c1.76.19,1.25,3.71-.39,3.53S250.18,69.9,251.66,70.06Z" style="fill:#263238"></path><path d="M242.83,66.91a14.09,14.09,0,0,0,1.45-.22,2.39,2.39,0,0,0,1.42-.51.75.75,0,0,0,.05-.92,1.85,1.85,0,0,0-1.81-.53,2.73,2.73,0,0,0-1.77.87A.8.8,0,0,0,242.83,66.91Z" style="fill:#263238"></path><path d="M253.34,68.55a12.23,12.23,0,0,1-1.32-.62,2.31,2.31,0,0,1-1.23-.88.76.76,0,0,1,.21-.9,1.88,1.88,0,0,1,1.89,0,2.73,2.73,0,0,1,1.45,1.33A.8.8,0,0,1,253.34,68.55Z" style="fill:#263238"></path><path d="M241.59,79.62c.21.3.41.7.79.8a2.79,2.79,0,0,0,1.22,0,0,0,0,0,1,0,.06,1.46,1.46,0,0,1-1.49.33,1.15,1.15,0,0,1-.67-1.11C241.47,79.58,241.56,79.57,241.59,79.62Z" style="fill:#263238"></path><path d="M243.33,76.59a3.77,3.77,0,0,0,2.16,2.1,4.81,4.81,0,0,0,1.31.3.78.78,0,0,0,.26,0h.25a.27.27,0,0,0,.26-.2h0a.41.41,0,0,0,0-.11h0l0-.1c.18-.82.33-2.11.33-2.11.28.21,1.7,1.2,1.76.76a57.38,57.38,0,0,0,.65-11.43.11.11,0,0,0-.21,0c-.57,3.48-.53,7-1.06,10.56a6.44,6.44,0,0,0-1.64-.85c-.13,0-.26,2.48-.37,2.85v0a5.26,5.26,0,0,1-3.6-1.9C243.38,76.43,243.28,76.49,243.33,76.59Z" style="fill:#263238"></path><path d="M246.39,78.48a4.41,4.41,0,0,1-2,1,2,2,0,0,1-1.21-.15c-.83-.38-.7-1.18-.41-1.83a4.57,4.57,0,0,1,.58-1A5.73,5.73,0,0,0,246.39,78.48Z" style="fill:#263238"></path><path d="M244.39,79.51a2,2,0,0,1-1.21-.15c-.83-.38-.7-1.18-.41-1.83A2.07,2.07,0,0,1,244.39,79.51Z" style="fill:#ff98b9"></path><path d="M228.74,68.29s-1.77-10.17.55-14.74c1.05-2.07,4.54-2.37,4.54-2.37a5.21,5.21,0,0,1,3.44-4.29c3.47-1.4,9.42,1.54,9.42,1.54s6.23-4.21,11,.28-1.42,9.45-1.42,9.45.93,3.75-5,4.07c-5.79.32-15-5.81-15-5.81A37.56,37.56,0,0,1,232,66.78,3.41,3.41,0,0,1,228.74,68.29Z" style="fill:#263238"></path><path d="M247.63,48.89a10.68,10.68,0,0,0-3.69-2.28,11.26,11.26,0,0,0-3.79-.83,6.33,6.33,0,0,0-5.91,2.82A4.47,4.47,0,0,0,233.8,52s.09,0,.08,0c-.68-2.12,1-4.37,2.86-5.19a9.6,9.6,0,0,1,6.82.12,19.1,19.1,0,0,1,4,2.06A.06.06,0,0,0,247.63,48.89Z" style="fill:#263238"></path><path d="M260.65,53a5.2,5.2,0,0,0-2.15-4.39,8.77,8.77,0,0,0-5.41-1.89,11,11,0,0,0-5.63,1.53s0,.09,0,.07a9.78,9.78,0,0,1,10,.15,5.41,5.41,0,0,1,2.66,3.88,5.32,5.32,0,0,1-1.77,4.14,10,10,0,0,1-5,2.23,0,0,0,1,0,0,.06,10.39,10.39,0,0,0,4.82-1.67A5.83,5.83,0,0,0,260.65,53Z" style="fill:#263238"></path><path d="M252.34,63a18,18,0,0,1-7.58-1.54,37,37,0,0,1-7.07-3.93c-1.29-.9-2.54-1.85-3.78-2.82,0,0-.09,0,0,.06a40.75,40.75,0,0,0,6.72,5.34,20.56,20.56,0,0,0,7.4,2.81,17.75,17.75,0,0,0,4.37.14S252.38,63,252.34,63Z" style="fill:#263238"></path><path d="M231.37,69.55s-2.1-6-4.72-5.38-2,8.61.37,10.35a2.83,2.83,0,0,0,4-.44Z" style="fill:#d3766a"></path><path d="M226.88,66.46s-.07,0,0,.07c1.66,1.28,2.16,3.29,2.35,5.28a1.56,1.56,0,0,0-2.13-1c-.06,0,0,.11,0,.12A1.74,1.74,0,0,1,228.76,72a8,8,0,0,1,.46,1.74c.05.19.37.18.36,0v0C230.29,71.27,229.37,67.41,226.88,66.46Z" style="fill:#263238"></path><path d="M233.78,89.89,225.87,96l-4-15.93-4.71,1.58s.24,21.75.72,21.06l7.35-4.94,1.92,7.58,6.7-12.23Z" style="fill:#ebebeb"></path><path d="M230.84,99.46c1-2,2.14-4.1,3.08-6.2,0-.07,0-.17-.12-.1-1.52,1.68-5.45,9.57-6.53,11.38v0c-.08-.33-1.92-6.81-2-6.77-1.36.67-6.73,4.26-7.16,4.62,0-3.45-.45-16.18-.84-19.66a.08.08,0,0,0-.16,0c-.23,3.49.19,20.54.33,20.58A89.28,89.28,0,0,0,225.16,98c.2,1.29,1.78,8.3,2,8A72.37,72.37,0,0,0,230.84,99.46Z" style="fill:#263238"></path><path d="M215.72,90.21C227.44,117.26,242,165.33,247,172.44c3.35,4.83-24.15,17.05-25.94,13.43-2.29-4.63-15-59.5-16.71-91.27C203.64,81.44,212.22,82.14,215.72,90.21Z" style="fill:#d3766a"></path><path d="M228,195.31c-5.36-1.82-7-9.44-7-9.44l21.45-17.81s4.4,6.05,10.15,6.85c1.41.2,8.39.15,15.55,1.22,8.13,1.22,16.5,3.53,17.12,4.3,1.2,1.49-.55,4.15-6.21,4.62s-16.88-.5-17.56-.39c-.09,0-.31.11-.66.25h0c-.24.2-5.79,7.72-8.59,10.07-1.69,1.43-8.91,1.93-13.13,2C232.37,197.14,228.91,195.85,228,195.31Z" style="fill:#d3766a"></path><path d="M251,181.36s13.23-4.07,16-3.19,20,3.66,21.25,5.12-.55,4.14-6.22,4.62-16.87-.51-17.56-.39-11.61,5.55-12.76,5.75S251,181.36,251,181.36Z" style="fill:#d3766a"></path><path d="M258.11,178c1.51-.11,3-.17,4.54-.23.76,0,1.52,0,2.28,0l1.15,0,.58,0,.6.1c2.95.6,5.93,1.21,8.89,1.83s5.92,1.26,8.89,2a9.35,9.35,0,0,1,2.17.86,4.12,4.12,0,0,1,1,.71,1.94,1.94,0,0,1,.59,1.11,1.59,1.59,0,0,1-.37,1.18,3.25,3.25,0,0,1-.9.76,8.13,8.13,0,0,1-2.11.88,9.48,9.48,0,0,0,2-1.06,3.27,3.27,0,0,0,.77-.76,1.22,1.22,0,0,0,.23-.94,2.38,2.38,0,0,0-1.4-1.43,8.81,8.81,0,0,0-2.08-.71c-3-.57-5.94-1.18-8.9-1.8s-5.92-1.27-8.88-2a10.94,10.94,0,0,0-2.19-.26c-.75,0-1.51-.06-2.27-.09Z" style="fill:#263238"></path><path d="M249.34,183.64s14.53-4.41,17.27-3.53,20,3.66,21.25,5.12-.55,4.15-6.21,4.63-16.87-.52-17.56-.4-11.61,5.56-12.77,5.76S249.34,183.64,249.34,183.64Z" style="fill:#d3766a"></path><path d="M256,179.5c1.86-.06,3.72,0,5.58,0,.93,0,1.86.05,2.8.1.46,0,.93.06,1.4.11a10.91,10.91,0,0,1,1.41.23c3.63.77,7.27,1.55,10.89,2.36l5.44,1.25,1.36.33a11.17,11.17,0,0,1,1.38.4,5.79,5.79,0,0,1,1.31.67,2.55,2.55,0,0,1,1,1.23,1.48,1.48,0,0,1,0,.86,2,2,0,0,1-.41.7,4.36,4.36,0,0,1-1.19.89,13.1,13.1,0,0,1-2.65,1,16.13,16.13,0,0,1-5.57.45,17,17,0,0,0,5.46-.83,12.69,12.69,0,0,0,2.51-1.06,3.71,3.71,0,0,0,1-.81,1,1,0,0,0,.25-1,1.93,1.93,0,0,0-.79-.87,5.26,5.26,0,0,0-1.17-.56c-.83-.28-1.77-.44-2.67-.65l-5.44-1.2c-3.63-.82-7.25-1.63-10.87-2.53a10.82,10.82,0,0,0-1.33-.27c-.45-.07-.91-.12-1.37-.16-.93-.09-1.85-.16-2.78-.22Z" style="fill:#263238"></path><path d="M249.38,183.59s13.51-.88,16.06-.06,14.47,2,15.62,3.34-.52,3.86-5.79,4.3-11.53,1-12.18,1.06-10.79,2-11.87,2.13S249.38,183.59,249.38,183.59Z" style="fill:#d3766a"></path><path d="M252.91,182.24c2.39,0,4.79,0,7.18,0,1.2,0,2.4,0,3.6.07l.9,0a6.84,6.84,0,0,1,.91.09c.61.09,1.2.19,1.79.31,2.35.47,4.69,1,7,1.58,1.16.3,2.32.61,3.47.95.58.16,1.16.34,1.73.53a11.22,11.22,0,0,1,1.74.69,1.4,1.4,0,0,1,.55,2,4.37,4.37,0,0,1-1.37,1.4,7.74,7.74,0,0,1-3.49,1.34c-2.4.27-4.78.48-7.16.7s-4.8.43-7.14.6c-1.17.15-2.36.34-3.55.52s-2.37.33-3.56.45c2.32-.62,4.64-1.16,7-1.64l7.17-.67c2.38-.24,4.77-.47,7.13-.76a7.08,7.08,0,0,0,3.15-1.18,3.72,3.72,0,0,0,1.14-1.13.66.66,0,0,0-.26-1,11,11,0,0,0-1.59-.64c-.56-.19-1.13-.37-1.7-.54-1.14-.34-2.29-.66-3.45-1-2.31-.6-4.62-1.21-6.95-1.72-.59-.13-1.17-.25-1.75-.35a12.79,12.79,0,0,0-1.76-.15l-3.59-.19Z" style="fill:#263238"></path><path d="M248.43,171l-31.16,13.19s-11.85-65.48-13.19-87.62c-1-16.25,7.81-15.71,13.1-5C224.42,106.12,248.43,171,248.43,171Z" style="fill:#BA68C8"></path><path d="M218.41,176.51c4.23-1.45,21.3-8,24.89-9.71.25-.11.24-.3,0-.21-12.76,4-20.83,8.11-24.9,9.75C218.26,176.38,218.31,176.55,218.41,176.51Z" style="fill:#263238"></path><path d="M204.92,106.11c0,1.61.12,3.21.21,4.81-.08-.28-.16-.56-.22-.84s-.11-.6-.17-.89-.1-.62-.17-.93a.09.09,0,0,0-.18,0,5.61,5.61,0,0,0,.15,1.47,14.51,14.51,0,0,0,.41,1.47,3,3,0,0,0,.24.62c.18,2.67.42,5.34.76,8,.28,2.29.65,4.57,1,6.84s1.73,8.36,2.19,10.67a.08.08,0,0,0,.16,0C209,135,208,129,207.64,126.67s-.61-4.57-.91-6.86c-.6-4.56-1.16-9.13-1.71-13.7A.05.05,0,0,0,204.92,106.11Z" style="fill:#263238"></path></g><g id="freepik--speech-bubble--inject-435"><path d="M312.16,57A21.73,21.73,0,0,1,275.84,70.7L265,72.29l5.44-9.4A21.74,21.74,0,0,1,292.8,33.06,21.75,21.75,0,0,1,312.16,57Z" style="fill:#fff"></path><path d="M312.16,57a21.86,21.86,0,0,1-4.38,11,25,25,0,0,1-2,2.27,25.09,25.09,0,0,1-2.3,1.94,21.89,21.89,0,0,1-11.1,4.31,20.28,20.28,0,0,1-3,.06,18.84,18.84,0,0,1-3-.31,21.92,21.92,0,0,1-10.76-5.31l.26.08L265,72.68l-.79.12.4-.7L270,62.68l0,.37a22,22,0,0,1,17.42-30.11A21.74,21.74,0,0,1,305.66,39,21.87,21.87,0,0,1,312.16,57Zm0,0a21.49,21.49,0,0,0-24.65-23.53,21.33,21.33,0,0,0-9,3.55,22.26,22.26,0,0,0-6.5,7.09,21.44,21.44,0,0,0-1.23,18.67l.08.2-.11.17-5.47,9.39-.39-.58,10.89-1.52.15,0,.1.1a21.39,21.39,0,0,0,10.41,5.36,18.43,18.43,0,0,0,3,.36,21.06,21.06,0,0,0,8.78-1.28,20.19,20.19,0,0,0,5.25-2.83,20.05,20.05,0,0,0,4.27-4.16A21.8,21.8,0,0,0,312.16,57Z" style="fill:#263238"></path><polygon points="288 67.08 278.71 57.68 281.83 54.6 287.26 60.09 298.52 42.43 302.22 44.78 288 67.08" style="fill:#BA68C8"></polygon></g><g id="freepik--Chart--inject-435"><path d="M243,244.78v50.5L115.52,325c-20.4-9-30.19-19.41-30.13-29.73.09-15.58,22.63-30.94,65-40.8C178.56,247.86,208.22,244.78,243,244.78Z" style="fill:#BA68C8"></path><g style="opacity:0.4"><path d="M243,244.78v50.5L115.52,325c-20.4-9-30.19-19.41-30.13-29.73.09-15.58,22.63-30.94,65-40.8C178.56,247.86,208.22,244.78,243,244.78Z" style="fill:#fff"></path></g><path d="M115.52,325V409.3c-20.4-9-30.19-19.41-30.13-29.74V295.22C85.33,305.54,95.12,316,115.52,325Z" style="fill:#BA68C8"></path><polygon points="243.04 295.25 243.04 379.59 115.52 409.27 115.52 324.93 243.04 295.25" style="fill:#BA68C8"></polygon><g style="opacity:0.1"><polygon points="243.04 295.25 243.04 379.59 115.52 409.27 115.52 324.93 243.04 295.25"></polygon></g><path d="M243,333.08l-48.71,48c-33.12-3.45-58.34-9.32-78.81-18.35Z" style="fill:#455a64"></path><path d="M194.33,381.1v74.34C161.21,452,136,446.12,115.52,437.1V362.75C136,371.78,161.21,377.65,194.33,381.1Z" style="fill:#263238"></path><polygon points="243.04 333.08 243.04 407.42 194.33 455.44 194.33 381.1 243.04 333.08" style="fill:#37474f"></polygon><path d="M414.61,354c0,27.88-70.58,50.49-157.66,50.49A450.84,450.84,0,0,1,208.24,402L257,354Z" style="fill:#BA68C8"></path><path d="M414.61,354v54.34c0,27.89-70.58,50.49-157.66,50.49a448.3,448.3,0,0,1-48.71-2.47V402A450.84,450.84,0,0,0,257,404.5C344,404.5,414.61,381.89,414.61,354Z" style="fill:#BA68C8"></path><g style="opacity:0.1"><path d="M414.61,354v54.34c0,27.89-70.58,50.49-157.66,50.49a448.3,448.3,0,0,1-48.71-2.47V402A450.84,450.84,0,0,0,257,404.5C344,404.5,414.61,381.89,414.61,354Z"></path></g><path d="M243,192c87.08,0,157.65,22.61,157.65,50.5H243Z" style="fill:#37474f"></path><rect x="243.04" y="242.54" width="157.65" height="178.43" style="fill:#263238"></rect></g><g id="freepik--Icons--inject-435"><path d="M301.85,207.69l.27.06a2.56,2.56,0,0,1,2,2.47,2.59,2.59,0,0,1-4.27,2,2.42,2.42,0,0,1-.82-2.63,2.5,2.5,0,0,1,2.08-1.87l.13,0Z" style="fill:#BA68C8"></path><path d="M301.82,233.55v-4.27c0-.22,0-.22-.21-.22s-.31,0-.31.31v8.34a1.37,1.37,0,0,1-.54,1.13.77.77,0,0,1-.58.21,1.93,1.93,0,0,0-.34,0c-.51.08-1-.53-1.08-1,0-.22,0-.44,0-.66v-8a.75.75,0,0,1,0-.15c0-.12-.05-.17-.17-.16h-2.85c-.22,0-.22,0-.16-.22l2.49-8.67c.28-1,.56-2,.85-3,.05-.17,0-.18-.14-.18-.42,0-.34-.06-.45.33q-.93,3.22-1.85,6.46a1.06,1.06,0,0,1-.77.83,1.18,1.18,0,0,1-1.16-.35,1,1,0,0,1-.2-1c.22-.78.44-1.55.67-2.33.47-1.65.94-3.32,1.43-5a3.57,3.57,0,0,1,1.72-2.21,2.92,2.92,0,0,1,1.41-.38h3.84a3.22,3.22,0,0,1,2.93,1.76,8,8,0,0,1,.63,1.75l1.77,6.18a1.83,1.83,0,0,1,0,.9.89.89,0,0,1-.66.62,1.08,1.08,0,0,1-1.43-.78c-.62-2.22-1.27-4.44-1.9-6.66a.18.18,0,0,0-.2-.15c-.39,0-.39,0-.29.36L307,227c.18.62.36,1.24.53,1.85.06.21.06.21-.15.21h-2.83c-.21,0-.21,0-.21.22v8.56a1.23,1.23,0,0,1-.69,1.14.59.59,0,0,1-.29.07h-.32a1.23,1.23,0,0,1-1.25-1.25Z" style="fill:#BA68C8"></path><path d="M301.85,207.69l.27.06a2.56,2.56,0,0,1,2,2.47,2.59,2.59,0,0,1-4.27,2,2.42,2.42,0,0,1-.82-2.63,2.5,2.5,0,0,1,2.08-1.87l.13,0Z" style="fill:#fff;opacity:0.7000000000000001"></path><path d="M301.82,233.55v-4.27c0-.22,0-.22-.21-.22s-.31,0-.31.31v8.34a1.37,1.37,0,0,1-.54,1.13.77.77,0,0,1-.58.21,1.93,1.93,0,0,0-.34,0c-.51.08-1-.53-1.08-1,0-.22,0-.44,0-.66v-8a.75.75,0,0,1,0-.15c0-.12-.05-.17-.17-.16h-2.85c-.22,0-.22,0-.16-.22l2.49-8.67c.28-1,.56-2,.85-3,.05-.17,0-.18-.14-.18-.42,0-.34-.06-.45.33q-.93,3.22-1.85,6.46a1.06,1.06,0,0,1-.77.83,1.18,1.18,0,0,1-1.16-.35,1,1,0,0,1-.2-1c.22-.78.44-1.55.67-2.33.47-1.65.94-3.32,1.43-5a3.57,3.57,0,0,1,1.72-2.21,2.92,2.92,0,0,1,1.41-.38h3.84a3.22,3.22,0,0,1,2.93,1.76,8,8,0,0,1,.63,1.75l1.77,6.18a1.83,1.83,0,0,1,0,.9.89.89,0,0,1-.66.62,1.08,1.08,0,0,1-1.43-.78c-.62-2.22-1.27-4.44-1.9-6.66a.18.18,0,0,0-.2-.15c-.39,0-.39,0-.29.36L307,227c.18.62.36,1.24.53,1.85.06.21.06.21-.15.21h-2.83c-.21,0-.21,0-.21.22v8.56a1.23,1.23,0,0,1-.69,1.14.59.59,0,0,1-.29.07h-.32a1.23,1.23,0,0,1-1.25-1.25Z" style="fill:#fff;opacity:0.7000000000000001"></path><path d="M347.64,198.83l.27.06a2.56,2.56,0,0,1,2,2.48,2.44,2.44,0,0,1-1.5,2.37,2.48,2.48,0,0,1-2.77-.37,2.43,2.43,0,0,1-.82-2.64,2.5,2.5,0,0,1,2.08-1.86l.13,0Z" style="fill:#BA68C8"></path><path d="M347.61,224.69v-4.27c0-.21,0-.21-.21-.21s-.31,0-.31.3v8.35a1.37,1.37,0,0,1-.54,1.13.77.77,0,0,1-.58.21,1.29,1.29,0,0,0-.34,0c-.51.07-1.05-.53-1.08-1,0-.22,0-.44,0-.66v-8a.75.75,0,0,1,0-.15c0-.13,0-.17-.17-.16h-2.85c-.22,0-.22,0-.16-.23l2.49-8.66c.28-1,.56-2,.85-3,.05-.18,0-.19-.14-.18-.42,0-.34-.06-.45.32-.62,2.16-1.24,4.31-1.85,6.47a1,1,0,0,1-.77.82,1.15,1.15,0,0,1-1.16-.34,1,1,0,0,1-.2-1c.22-.77.44-1.55.67-2.32.47-1.66.94-3.32,1.44-5a3.52,3.52,0,0,1,1.71-2.21,2.92,2.92,0,0,1,1.41-.38h3.84a3.2,3.2,0,0,1,2.93,1.76,7.61,7.61,0,0,1,.63,1.75l1.77,6.18a2,2,0,0,1,0,.9.9.9,0,0,1-.67.61,1.07,1.07,0,0,1-1.43-.78c-.62-2.22-1.27-4.43-1.9-6.65a.18.18,0,0,0-.2-.16c-.39,0-.39,0-.29.37l2.76,9.61c.18.62.36,1.23.53,1.85.06.2.06.21-.15.21h-2.83c-.21,0-.21,0-.21.21V229a1.22,1.22,0,0,1-.69,1.15.59.59,0,0,1-.29.07h-.32a1.24,1.24,0,0,1-1.25-1.25Z" style="fill:#BA68C8"></path><path d="M347.64,198.83l.27.06a2.56,2.56,0,0,1,2,2.48,2.44,2.44,0,0,1-1.5,2.37,2.48,2.48,0,0,1-2.77-.37,2.43,2.43,0,0,1-.82-2.64,2.5,2.5,0,0,1,2.08-1.86l.13,0Z" style="fill:#fff;opacity:0.7000000000000001"></path><path d="M347.61,224.69v-4.27c0-.21,0-.21-.21-.21s-.31,0-.31.3v8.35a1.37,1.37,0,0,1-.54,1.13.77.77,0,0,1-.58.21,1.29,1.29,0,0,0-.34,0c-.51.07-1.05-.53-1.08-1,0-.22,0-.44,0-.66v-8a.75.75,0,0,1,0-.15c0-.13,0-.17-.17-.16h-2.85c-.22,0-.22,0-.16-.23l2.49-8.66c.28-1,.56-2,.85-3,.05-.18,0-.19-.14-.18-.42,0-.34-.06-.45.32-.62,2.16-1.24,4.31-1.85,6.47a1,1,0,0,1-.77.82,1.15,1.15,0,0,1-1.16-.34,1,1,0,0,1-.2-1c.22-.77.44-1.55.67-2.32.47-1.66.94-3.32,1.44-5a3.52,3.52,0,0,1,1.71-2.21,2.92,2.92,0,0,1,1.41-.38h3.84a3.2,3.2,0,0,1,2.93,1.76,7.61,7.61,0,0,1,.63,1.75l1.77,6.18a2,2,0,0,1,0,.9.9.9,0,0,1-.67.61,1.07,1.07,0,0,1-1.43-.78c-.62-2.22-1.27-4.43-1.9-6.65a.18.18,0,0,0-.2-.16c-.39,0-.39,0-.29.37l2.76,9.61c.18.62.36,1.23.53,1.85.06.2.06.21-.15.21h-2.83c-.21,0-.21,0-.21.21V229a1.22,1.22,0,0,1-.69,1.15.59.59,0,0,1-.29.07h-.32a1.24,1.24,0,0,1-1.25-1.25Z" style="fill:#fff;opacity:0.7000000000000001"></path><path d="M252.56,177.45l.27.07a2.55,2.55,0,0,1,2,2.47,2.44,2.44,0,0,1-1.5,2.37,2.48,2.48,0,0,1-2.77-.37,2.43,2.43,0,0,1-.82-2.64,2.5,2.5,0,0,1,2.08-1.86l.13,0Z" style="fill:#BA68C8"></path><path d="M252.53,203.32V199c0-.21,0-.21-.21-.21s-.31,0-.31.3v8.35a1.37,1.37,0,0,1-.54,1.13.77.77,0,0,1-.58.21,1.29,1.29,0,0,0-.34,0c-.51.08-1.05-.53-1.08-1,0-.22,0-.44,0-.66v-8a.75.75,0,0,1,0-.15c0-.12,0-.17-.17-.16h-2.85c-.22,0-.22,0-.16-.23l2.49-8.66c.28-1,.56-2,.85-3,0-.17,0-.18-.14-.18-.42,0-.34-.06-.45.33q-.93,3.23-1.85,6.46a1,1,0,0,1-.77.82,1.15,1.15,0,0,1-1.16-.34,1,1,0,0,1-.2-1c.22-.78.44-1.55.67-2.33.47-1.66.94-3.32,1.43-5a3.57,3.57,0,0,1,1.72-2.21,2.92,2.92,0,0,1,1.41-.38h3.84a3.2,3.2,0,0,1,2.93,1.76,7.78,7.78,0,0,1,.63,1.75l1.77,6.18a2,2,0,0,1,0,.9.92.92,0,0,1-.67.62,1.08,1.08,0,0,1-1.43-.78c-.62-2.23-1.27-4.44-1.9-6.66a.19.19,0,0,0-.2-.16c-.39,0-.39,0-.29.37l2.76,9.61c.18.62.36,1.23.53,1.85.06.21.06.21-.15.21h-2.83c-.21,0-.21,0-.21.22v8.56a1.24,1.24,0,0,1-.69,1.14.59.59,0,0,1-.29.07h-.32a1.23,1.23,0,0,1-1.25-1.25Z" style="fill:#BA68C8"></path><path d="M252.56,177.45l.27.07a2.55,2.55,0,0,1,2,2.47,2.44,2.44,0,0,1-1.5,2.37,2.48,2.48,0,0,1-2.77-.37,2.43,2.43,0,0,1-.82-2.64,2.5,2.5,0,0,1,2.08-1.86l.13,0Z" style="fill:#fff;opacity:0.7000000000000001"></path><path d="M252.53,203.32V199c0-.21,0-.21-.21-.21s-.31,0-.31.3v8.35a1.37,1.37,0,0,1-.54,1.13.77.77,0,0,1-.58.21,1.29,1.29,0,0,0-.34,0c-.51.08-1.05-.53-1.08-1,0-.22,0-.44,0-.66v-8a.75.75,0,0,1,0-.15c0-.12,0-.17-.17-.16h-2.85c-.22,0-.22,0-.16-.23l2.49-8.66c.28-1,.56-2,.85-3,0-.17,0-.18-.14-.18-.42,0-.34-.06-.45.33q-.93,3.23-1.85,6.46a1,1,0,0,1-.77.82,1.15,1.15,0,0,1-1.16-.34,1,1,0,0,1-.2-1c.22-.78.44-1.55.67-2.33.47-1.66.94-3.32,1.43-5a3.57,3.57,0,0,1,1.72-2.21,2.92,2.92,0,0,1,1.41-.38h3.84a3.2,3.2,0,0,1,2.93,1.76,7.78,7.78,0,0,1,.63,1.75l1.77,6.18a2,2,0,0,1,0,.9.92.92,0,0,1-.67.62,1.08,1.08,0,0,1-1.43-.78c-.62-2.23-1.27-4.44-1.9-6.66a.19.19,0,0,0-.2-.16c-.39,0-.39,0-.29.37l2.76,9.61c.18.62.36,1.23.53,1.85.06.21.06.21-.15.21h-2.83c-.21,0-.21,0-.21.22v8.56a1.24,1.24,0,0,1-.69,1.14.59.59,0,0,1-.29.07h-.32a1.23,1.23,0,0,1-1.25-1.25Z" style="fill:#fff;opacity:0.7000000000000001"></path><path d="M127.55,249.86l.27.06a2.56,2.56,0,0,1,2,2.47,2.59,2.59,0,0,1-4.27,2,2.41,2.41,0,0,1-.82-2.63,2.5,2.5,0,0,1,2.08-1.87l.13,0Z" style="fill:#BA68C8"></path><path d="M127.52,275.72v-4.27c0-.22,0-.22-.21-.22s-.31,0-.31.31v8.34a1.37,1.37,0,0,1-.54,1.13.74.74,0,0,1-.58.21,1.93,1.93,0,0,0-.34,0c-.51.08-1.05-.52-1.08-1,0-.22,0-.44,0-.66v-8a.75.75,0,0,1,0-.15c0-.12,0-.17-.17-.16h-2.85c-.22,0-.23,0-.16-.22l2.49-8.67c.28-1,.56-2,.85-3,.05-.17,0-.18-.14-.18-.42,0-.34-.06-.45.33-.62,2.15-1.24,4.31-1.85,6.46a1.06,1.06,0,0,1-.77.83,1.15,1.15,0,0,1-1.16-.35,1,1,0,0,1-.2-1c.22-.78.44-1.55.67-2.33.47-1.65.94-3.31,1.43-5a3.57,3.57,0,0,1,1.72-2.21,3,3,0,0,1,1.41-.38h3.84a3.22,3.22,0,0,1,2.93,1.76,7.86,7.86,0,0,1,.63,1.76l1.77,6.18a1.79,1.79,0,0,1,0,.89.87.87,0,0,1-.66.62,1.08,1.08,0,0,1-1.43-.78c-.62-2.22-1.27-4.44-1.9-6.66a.18.18,0,0,0-.2-.15c-.39,0-.39,0-.29.36l2.76,9.61c.18.62.36,1.24.53,1.86.06.2.06.2-.15.2h-2.83c-.21,0-.21,0-.21.22V280a1.22,1.22,0,0,1-.69,1.14.5.5,0,0,1-.29.07h-.32a1.22,1.22,0,0,1-1.25-1.24Z" style="fill:#BA68C8"></path><path d="M127.55,249.86l.27.06a2.56,2.56,0,0,1,2,2.47,2.59,2.59,0,0,1-4.27,2,2.41,2.41,0,0,1-.82-2.63,2.5,2.5,0,0,1,2.08-1.87l.13,0Z" style="fill:#fff;opacity:0.7000000000000001"></path><path d="M127.52,275.72v-4.27c0-.22,0-.22-.21-.22s-.31,0-.31.31v8.34a1.37,1.37,0,0,1-.54,1.13.74.74,0,0,1-.58.21,1.93,1.93,0,0,0-.34,0c-.51.08-1.05-.52-1.08-1,0-.22,0-.44,0-.66v-8a.75.75,0,0,1,0-.15c0-.12,0-.17-.17-.16h-2.85c-.22,0-.23,0-.16-.22l2.49-8.67c.28-1,.56-2,.85-3,.05-.17,0-.18-.14-.18-.42,0-.34-.06-.45.33-.62,2.15-1.24,4.31-1.85,6.46a1.06,1.06,0,0,1-.77.83,1.15,1.15,0,0,1-1.16-.35,1,1,0,0,1-.2-1c.22-.78.44-1.55.67-2.33.47-1.65.94-3.31,1.43-5a3.57,3.57,0,0,1,1.72-2.21,3,3,0,0,1,1.41-.38h3.84a3.22,3.22,0,0,1,2.93,1.76,7.86,7.86,0,0,1,.63,1.76l1.77,6.18a1.79,1.79,0,0,1,0,.89.87.87,0,0,1-.66.62,1.08,1.08,0,0,1-1.43-.78c-.62-2.22-1.27-4.44-1.9-6.66a.18.18,0,0,0-.2-.15c-.39,0-.39,0-.29.36l2.76,9.61c.18.62.36,1.24.53,1.86.06.2.06.2-.15.2h-2.83c-.21,0-.21,0-.21.22V280a1.22,1.22,0,0,1-.69,1.14.5.5,0,0,1-.29.07h-.32a1.22,1.22,0,0,1-1.25-1.24Z" style="fill:#fff;opacity:0.7000000000000001"></path><path d="M160,276l.27.06a2.56,2.56,0,0,1,2,2.48,2.45,2.45,0,0,1-1.5,2.37,2.48,2.48,0,0,1-2.77-.37,2.43,2.43,0,0,1-.82-2.64,2.49,2.49,0,0,1,2.08-1.86l.13,0Z" style="fill:#BA68C8"></path><path d="M160,301.89v-4.27c0-.21,0-.21-.21-.21s-.31,0-.31.3v8.35a1.4,1.4,0,0,1-.54,1.13.77.77,0,0,1-.58.21,1.29,1.29,0,0,0-.34,0c-.51.07-1.05-.53-1.08-1,0-.21,0-.43,0-.65,0-2.67,0-5.34,0-8a.85.85,0,0,1,0-.16c0-.12-.05-.16-.17-.15h-2.85c-.22,0-.23,0-.16-.23l2.49-8.67c.28-1,.56-2,.85-2.95,0-.18,0-.19-.14-.19-.42,0-.34-.05-.45.33-.62,2.16-1.24,4.31-1.85,6.47a1,1,0,0,1-.77.82,1.15,1.15,0,0,1-1.16-.34,1,1,0,0,1-.2-1c.22-.77.44-1.55.67-2.32.47-1.66.94-3.32,1.43-5a3.59,3.59,0,0,1,1.72-2.22,3,3,0,0,1,1.41-.37h3.84a3.21,3.21,0,0,1,2.93,1.76,8.11,8.11,0,0,1,.63,1.75l1.77,6.18a1.83,1.83,0,0,1,0,.9c-.06.33-.35.5-.66.61a1.09,1.09,0,0,1-1.44-.78c-.61-2.22-1.26-4.43-1.89-6.65a.19.19,0,0,0-.21-.16c-.38,0-.38,0-.28.37l2.76,9.61c.18.61.36,1.23.53,1.85.06.2.06.21-.15.21h-2.83c-.21,0-.21,0-.21.21v8.56a1.24,1.24,0,0,1-.69,1.15.73.73,0,0,1-.29.07h-.33a1.22,1.22,0,0,1-1.24-1.24Z" style="fill:#BA68C8"></path><path d="M160,276l.27.06a2.56,2.56,0,0,1,2,2.48,2.45,2.45,0,0,1-1.5,2.37,2.48,2.48,0,0,1-2.77-.37,2.43,2.43,0,0,1-.82-2.64,2.49,2.49,0,0,1,2.08-1.86l.13,0Z" style="fill:#fff;opacity:0.7000000000000001"></path><path d="M160,301.89v-4.27c0-.21,0-.21-.21-.21s-.31,0-.31.3v8.35a1.4,1.4,0,0,1-.54,1.13.77.77,0,0,1-.58.21,1.29,1.29,0,0,0-.34,0c-.51.07-1.05-.53-1.08-1,0-.21,0-.43,0-.65,0-2.67,0-5.34,0-8a.85.85,0,0,1,0-.16c0-.12-.05-.16-.17-.15h-2.85c-.22,0-.23,0-.16-.23l2.49-8.67c.28-1,.56-2,.85-2.95,0-.18,0-.19-.14-.19-.42,0-.34-.05-.45.33-.62,2.16-1.24,4.31-1.85,6.47a1,1,0,0,1-.77.82,1.15,1.15,0,0,1-1.16-.34,1,1,0,0,1-.2-1c.22-.77.44-1.55.67-2.32.47-1.66.94-3.32,1.43-5a3.59,3.59,0,0,1,1.72-2.22,3,3,0,0,1,1.41-.37h3.84a3.21,3.21,0,0,1,2.93,1.76,8.11,8.11,0,0,1,.63,1.75l1.77,6.18a1.83,1.83,0,0,1,0,.9c-.06.33-.35.5-.66.61a1.09,1.09,0,0,1-1.44-.78c-.61-2.22-1.26-4.43-1.89-6.65a.19.19,0,0,0-.21-.16c-.38,0-.38,0-.28.37l2.76,9.61c.18.61.36,1.23.53,1.85.06.2.06.21-.15.21h-2.83c-.21,0-.21,0-.21.21v8.56a1.24,1.24,0,0,1-.69,1.15.73.73,0,0,1-.29.07h-.33a1.22,1.22,0,0,1-1.24-1.24Z" style="fill:#fff;opacity:0.7000000000000001"></path><path d="M181,247.76l.27.06a2.56,2.56,0,0,1,2,2.48,2.59,2.59,0,0,1-4.27,2,2.41,2.41,0,0,1-.82-2.63,2.52,2.52,0,0,1,2.08-1.87l.13,0Z" style="fill:#BA68C8"></path><path d="M181,273.62v-4.27c0-.21,0-.21-.21-.21s-.31,0-.31.3v8.34a1.37,1.37,0,0,1-.54,1.13.75.75,0,0,1-.59.21,1.22,1.22,0,0,0-.33,0c-.51.07-1.05-.53-1.08-1,0-.22,0-.44,0-.65q0-4,0-8a.86.86,0,0,1,0-.16c0-.12-.05-.16-.17-.15h-2.85c-.22,0-.23,0-.16-.23l2.49-8.67.84-2.95c0-.18,0-.19-.13-.19-.42,0-.34-.06-.45.33q-.93,3.24-1.85,6.46a1.06,1.06,0,0,1-.77.83,1.13,1.13,0,0,1-1.16-.35,1,1,0,0,1-.2-1c.22-.77.44-1.55.67-2.32.47-1.66.94-3.32,1.43-5a3.59,3.59,0,0,1,1.72-2.22,3,3,0,0,1,1.41-.37q1.92,0,3.84,0a3.22,3.22,0,0,1,2.93,1.75,7.84,7.84,0,0,1,.62,1.76q.9,3.09,1.78,6.18a1.79,1.79,0,0,1,0,.89.87.87,0,0,1-.66.62,1.09,1.09,0,0,1-1.44-.78c-.61-2.22-1.26-4.43-1.89-6.65a.19.19,0,0,0-.21-.16c-.38,0-.38,0-.28.37l2.76,9.6c.18.62.35,1.24.53,1.86.06.2.06.21-.15.21h-2.83c-.21,0-.21,0-.21.21v8.56a1.22,1.22,0,0,1-.69,1.14.5.5,0,0,1-.29.07h-.33a1.22,1.22,0,0,1-1.24-1.24Z" style="fill:#BA68C8"></path><path d="M181,247.76l.27.06a2.56,2.56,0,0,1,2,2.48,2.59,2.59,0,0,1-4.27,2,2.41,2.41,0,0,1-.82-2.63,2.52,2.52,0,0,1,2.08-1.87l.13,0Z" style="fill:#fff;opacity:0.7000000000000001"></path><path d="M181,273.62v-4.27c0-.21,0-.21-.21-.21s-.31,0-.31.3v8.34a1.37,1.37,0,0,1-.54,1.13.75.75,0,0,1-.59.21,1.22,1.22,0,0,0-.33,0c-.51.07-1.05-.53-1.08-1,0-.22,0-.44,0-.65q0-4,0-8a.86.86,0,0,1,0-.16c0-.12-.05-.16-.17-.15h-2.85c-.22,0-.23,0-.16-.23l2.49-8.67.84-2.95c0-.18,0-.19-.13-.19-.42,0-.34-.06-.45.33q-.93,3.24-1.85,6.46a1.06,1.06,0,0,1-.77.83,1.13,1.13,0,0,1-1.16-.35,1,1,0,0,1-.2-1c.22-.77.44-1.55.67-2.32.47-1.66.94-3.32,1.43-5a3.59,3.59,0,0,1,1.72-2.22,3,3,0,0,1,1.41-.37q1.92,0,3.84,0a3.22,3.22,0,0,1,2.93,1.75,7.84,7.84,0,0,1,.62,1.76q.9,3.09,1.78,6.18a1.79,1.79,0,0,1,0,.89.87.87,0,0,1-.66.62,1.09,1.09,0,0,1-1.44-.78c-.61-2.22-1.26-4.43-1.89-6.65a.19.19,0,0,0-.21-.16c-.38,0-.38,0-.28.37l2.76,9.6c.18.62.35,1.24.53,1.86.06.2.06.21-.15.21h-2.83c-.21,0-.21,0-.21.21v8.56a1.22,1.22,0,0,1-.69,1.14.5.5,0,0,1-.29.07h-.33a1.22,1.22,0,0,1-1.24-1.24Z" style="fill:#fff;opacity:0.7000000000000001"></path><path d="M224.92,244.9l.26.06a2.54,2.54,0,0,1,2,2.47,2.58,2.58,0,0,1-4.26,2,2.4,2.4,0,0,1-.82-2.63,2.48,2.48,0,0,1,2.07-1.87l.14,0Z" style="fill:#BA68C8"></path><path d="M224.89,270.76v-4.27c0-.21,0-.22-.22-.22s-.3,0-.3.31q0,4.17,0,8.34a1.4,1.4,0,0,1-.54,1.13.76.76,0,0,1-.59.21h-.34c-.5.08-1.05-.52-1.08-1,0-.22,0-.44,0-.66v-8.16c0-.12-.05-.16-.16-.16h-2.85c-.23,0-.23,0-.17-.22l2.49-8.67c.28-1,.57-2,.85-3,0-.17,0-.18-.14-.18-.41,0-.34-.06-.45.33L219.53,261a1.06,1.06,0,0,1-.77.83,1.15,1.15,0,0,1-1.16-.35,1,1,0,0,1-.2-1c.21-.78.44-1.55.66-2.33.48-1.65.95-3.31,1.44-5a3.53,3.53,0,0,1,1.72-2.21,2.84,2.84,0,0,1,1.4-.37h3.85a3.21,3.21,0,0,1,2.92,1.76,7.4,7.4,0,0,1,.63,1.76c.59,2.06,1.19,4.12,1.78,6.18a2.06,2.06,0,0,1,0,.89.9.9,0,0,1-.67.62,1.09,1.09,0,0,1-1.43-.78c-.62-2.22-1.26-4.44-1.9-6.65a.17.17,0,0,0-.2-.16c-.39,0-.39,0-.28.36q1.38,4.82,2.75,9.61l.54,1.86c.06.2.05.2-.16.2h-2.83c-.21,0-.21,0-.21.22v8.56a1.2,1.2,0,0,1-.69,1.14.48.48,0,0,1-.29.07h-.32a1.22,1.22,0,0,1-1.24-1.24C224.88,273.6,224.89,272.18,224.89,270.76Z" style="fill:#BA68C8"></path><path d="M224.92,244.9l.26.06a2.54,2.54,0,0,1,2,2.47,2.58,2.58,0,0,1-4.26,2,2.4,2.4,0,0,1-.82-2.63,2.48,2.48,0,0,1,2.07-1.87l.14,0Z" style="fill:#fff;opacity:0.7000000000000001"></path><path d="M224.89,270.76v-4.27c0-.21,0-.22-.22-.22s-.3,0-.3.31q0,4.17,0,8.34a1.4,1.4,0,0,1-.54,1.13.76.76,0,0,1-.59.21h-.34c-.5.08-1.05-.52-1.08-1,0-.22,0-.44,0-.66v-8.16c0-.12-.05-.16-.16-.16h-2.85c-.23,0-.23,0-.17-.22l2.49-8.67c.28-1,.57-2,.85-3,0-.17,0-.18-.14-.18-.41,0-.34-.06-.45.33L219.53,261a1.06,1.06,0,0,1-.77.83,1.15,1.15,0,0,1-1.16-.35,1,1,0,0,1-.2-1c.21-.78.44-1.55.66-2.33.48-1.65.95-3.31,1.44-5a3.53,3.53,0,0,1,1.72-2.21,2.84,2.84,0,0,1,1.4-.37h3.85a3.21,3.21,0,0,1,2.92,1.76,7.4,7.4,0,0,1,.63,1.76c.59,2.06,1.19,4.12,1.78,6.18a2.06,2.06,0,0,1,0,.89.9.9,0,0,1-.67.62,1.09,1.09,0,0,1-1.43-.78c-.62-2.22-1.26-4.44-1.9-6.65a.17.17,0,0,0-.2-.16c-.39,0-.39,0-.28.36q1.38,4.82,2.75,9.61l.54,1.86c.06.2.05.2-.16.2h-2.83c-.21,0-.21,0-.21.22v8.56a1.2,1.2,0,0,1-.69,1.14.48.48,0,0,1-.29.07h-.32a1.22,1.22,0,0,1-1.24-1.24C224.88,273.6,224.89,272.18,224.89,270.76Z" style="fill:#fff;opacity:0.7000000000000001"></path><g id="freepik--1jhwpttif--inject-435"><path d="M92,277.35a3.79,3.79,0,0,1,.27-1,3.17,3.17,0,0,1,2.94-2c2,0,3.92,0,5.88,0a3.28,3.28,0,0,1,3.19,3,5.62,5.62,0,0,1,0,.58v7.64a1.13,1.13,0,0,1-.54,1.05,1.12,1.12,0,0,1-1.69-1v-6.88c0-.36,0-.32-.32-.32h-.09c-.14,0-.19.05-.17.18v19.74a1.52,1.52,0,0,1-.87,1.45.59.59,0,0,1-.29.07,4.86,4.86,0,0,0-.54,0,1.13,1.13,0,0,1-1-.51,1.49,1.49,0,0,1-.31-1V288.24c0-.41,0-.81,0-1.22,0-.13,0-.18-.17-.18-.45,0-.45,0-.45.43v11.12a1.5,1.5,0,0,1-.86,1.43l-.07,0a2.11,2.11,0,0,1-1.42-.15,1.47,1.47,0,0,1-.67-1.28c0-1.86,0-3.73,0-5.6q0-7.05,0-14.1c0-.28,0-.28-.27-.28s-.31,0-.31.3v6.86a1.12,1.12,0,0,1-2.18.38,1,1,0,0,0,0-.16Z" style="fill:#BA68C8"></path><path d="M98.16,273.7a2.55,2.55,0,0,1-2.58-2.55,2.57,2.57,0,1,1,2.58,2.55Z" style="fill:#BA68C8"></path></g><g id="freepik--1jhwpttif--inject-435"><path d="M92,277.35a3.79,3.79,0,0,1,.27-1,3.17,3.17,0,0,1,2.94-2c2,0,3.92,0,5.88,0a3.28,3.28,0,0,1,3.19,3,5.62,5.62,0,0,1,0,.58v7.64a1.13,1.13,0,0,1-.54,1.05,1.12,1.12,0,0,1-1.69-1v-6.88c0-.36,0-.32-.32-.32h-.09c-.14,0-.19.05-.17.18v19.74a1.52,1.52,0,0,1-.87,1.45.59.59,0,0,1-.29.07,4.86,4.86,0,0,0-.54,0,1.13,1.13,0,0,1-1-.51,1.49,1.49,0,0,1-.31-1V288.24c0-.41,0-.81,0-1.22,0-.13,0-.18-.17-.18-.45,0-.45,0-.45.43v11.12a1.5,1.5,0,0,1-.86,1.43l-.07,0a2.11,2.11,0,0,1-1.42-.15,1.47,1.47,0,0,1-.67-1.28c0-1.86,0-3.73,0-5.6q0-7.05,0-14.1c0-.28,0-.28-.27-.28s-.31,0-.31.3v6.86a1.12,1.12,0,0,1-2.18.38,1,1,0,0,0,0-.16Z" style="fill:#fff;opacity:0.7000000000000001"></path><path d="M98.16,273.7a2.55,2.55,0,0,1-2.58-2.55,2.57,2.57,0,1,1,2.58,2.55Z" style="fill:#fff;opacity:0.7000000000000001"></path></g><g id="freepik--1jhwpttif--inject-435"><path d="M194.26,273.47a4.24,4.24,0,0,1,.28-1,3.17,3.17,0,0,1,2.93-2c2,0,3.92,0,5.88,0a3.27,3.27,0,0,1,3.19,3,5.63,5.63,0,0,1,0,.58v7.64a1.14,1.14,0,0,1-.55,1.05,1.12,1.12,0,0,1-1.69-1v-6.88c0-.36,0-.32-.32-.32h-.09c-.14,0-.18.05-.17.18a1,1,0,0,1,0,.17v19.57a1.51,1.51,0,0,1-.86,1.45.63.63,0,0,1-.3.07,4.68,4.68,0,0,0-.53,0,1.14,1.14,0,0,1-1-.51,1.51,1.51,0,0,1-.32-1V283.14c0-.13,0-.18-.17-.18-.44,0-.44,0-.44.43V294.5a1.5,1.5,0,0,1-.87,1.44.15.15,0,0,1-.07,0c-.48,0-1,.17-1.42-.14a1.47,1.47,0,0,1-.67-1.28V274.84c0-.27,0-.27-.28-.27s-.3,0-.3.3v6.86a1.12,1.12,0,0,1-2.18.38l-.06-.16Z" style="fill:#BA68C8"></path><path d="M200.42,269.82a2.56,2.56,0,0,1-2.58-2.56,2.58,2.58,0,1,1,2.58,2.56Z" style="fill:#BA68C8"></path></g><g id="freepik--1jhwpttif--inject-435"><path d="M194.26,273.47a4.24,4.24,0,0,1,.28-1,3.17,3.17,0,0,1,2.93-2c2,0,3.92,0,5.88,0a3.27,3.27,0,0,1,3.19,3,5.63,5.63,0,0,1,0,.58v7.64a1.14,1.14,0,0,1-.55,1.05,1.12,1.12,0,0,1-1.69-1v-6.88c0-.36,0-.32-.32-.32h-.09c-.14,0-.18.05-.17.18a1,1,0,0,1,0,.17v19.57a1.51,1.51,0,0,1-.86,1.45.63.63,0,0,1-.3.07,4.68,4.68,0,0,0-.53,0,1.14,1.14,0,0,1-1-.51,1.51,1.51,0,0,1-.32-1V283.14c0-.13,0-.18-.17-.18-.44,0-.44,0-.44.43V294.5a1.5,1.5,0,0,1-.87,1.44.15.15,0,0,1-.07,0c-.48,0-1,.17-1.42-.14a1.47,1.47,0,0,1-.67-1.28V274.84c0-.27,0-.27-.28-.27s-.3,0-.3.3v6.86a1.12,1.12,0,0,1-2.18.38l-.06-.16Z" style="fill:#fff;opacity:0.7000000000000001"></path><path d="M200.42,269.82a2.56,2.56,0,0,1-2.58-2.56,2.58,2.58,0,1,1,2.58,2.56Z" style="fill:#fff;opacity:0.7000000000000001"></path></g><path d="M240.52,364.72l.27.06a2.56,2.56,0,0,1,2,2.47,2.59,2.59,0,0,1-4.27,2,2.41,2.41,0,0,1-.82-2.63,2.5,2.5,0,0,1,2.08-1.87l.13,0Z" style="fill:#BA68C8"></path><path d="M240.49,390.58v-4.27c0-.22,0-.22-.21-.22s-.31,0-.31.31v8.34a1.37,1.37,0,0,1-.54,1.13.74.74,0,0,1-.58.21h-.34c-.51.08-1-.53-1.08-1,0-.22,0-.44,0-.66,0-2.67,0-5.34,0-8a.75.75,0,0,1,0-.15c0-.12,0-.17-.17-.16a1.08,1.08,0,0,1-.18,0h-2.67c-.22,0-.23,0-.16-.22l2.49-8.67c.28-1,.56-2,.85-3,0-.17,0-.18-.14-.18-.42,0-.34-.06-.45.33q-.93,3.23-1.85,6.46a1.06,1.06,0,0,1-.77.83,1.17,1.17,0,0,1-1.16-.35,1,1,0,0,1-.2-1c.22-.78.44-1.55.67-2.33.47-1.65.94-3.31,1.43-5a3.57,3.57,0,0,1,1.72-2.21,3,3,0,0,1,1.41-.38h3.84A3.23,3.23,0,0,1,245,372.2a8.51,8.51,0,0,1,.63,1.75l1.77,6.18a1.83,1.83,0,0,1,0,.9.89.89,0,0,1-.66.62,1.1,1.1,0,0,1-1.44-.78c-.61-2.22-1.26-4.44-1.89-6.66a.18.18,0,0,0-.21-.15c-.38,0-.38,0-.28.36L245.7,384c.18.62.36,1.24.53,1.86.06.2.06.2-.15.2h-2.83c-.21,0-.21,0-.21.22v8.56a1.23,1.23,0,0,1-.69,1.14.59.59,0,0,1-.29.07h-.33a1.22,1.22,0,0,1-1.24-1.25Z" style="fill:#BA68C8"></path><path d="M240.52,364.72l.27.06a2.56,2.56,0,0,1,2,2.47,2.59,2.59,0,0,1-4.27,2,2.41,2.41,0,0,1-.82-2.63,2.5,2.5,0,0,1,2.08-1.87l.13,0Z" style="fill:#fff;opacity:0.7000000000000001"></path><path d="M240.49,390.58v-4.27c0-.22,0-.22-.21-.22s-.31,0-.31.31v8.34a1.37,1.37,0,0,1-.54,1.13.74.74,0,0,1-.58.21h-.34c-.51.08-1-.53-1.08-1,0-.22,0-.44,0-.66,0-2.67,0-5.34,0-8a.75.75,0,0,1,0-.15c0-.12,0-.17-.17-.16a1.08,1.08,0,0,1-.18,0h-2.67c-.22,0-.23,0-.16-.22l2.49-8.67c.28-1,.56-2,.85-3,0-.17,0-.18-.14-.18-.42,0-.34-.06-.45.33q-.93,3.23-1.85,6.46a1.06,1.06,0,0,1-.77.83,1.17,1.17,0,0,1-1.16-.35,1,1,0,0,1-.2-1c.22-.78.44-1.55.67-2.33.47-1.65.94-3.31,1.43-5a3.57,3.57,0,0,1,1.72-2.21,3,3,0,0,1,1.41-.38h3.84A3.23,3.23,0,0,1,245,372.2a8.51,8.51,0,0,1,.63,1.75l1.77,6.18a1.83,1.83,0,0,1,0,.9.89.89,0,0,1-.66.62,1.1,1.1,0,0,1-1.44-.78c-.61-2.22-1.26-4.44-1.89-6.66a.18.18,0,0,0-.21-.15c-.38,0-.38,0-.28.36L245.7,384c.18.62.36,1.24.53,1.86.06.2.06.2-.15.2h-2.83c-.21,0-.21,0-.21.22v8.56a1.23,1.23,0,0,1-.69,1.14.59.59,0,0,1-.29.07h-.33a1.22,1.22,0,0,1-1.24-1.25Z" style="fill:#fff;opacity:0.7000000000000001"></path><path d="M268.54,336.45l.27.06a2.55,2.55,0,0,1,2,2.47,2.6,2.6,0,0,1-4.27,2,2.4,2.4,0,0,1-.82-2.63,2.48,2.48,0,0,1,2.08-1.87l.13,0Z" style="fill:#BA68C8"></path><path d="M268.51,362.31V358c0-.21,0-.21-.22-.21s-.3,0-.3.3v8.35a1.37,1.37,0,0,1-.54,1.13.8.8,0,0,1-.59.21,1.22,1.22,0,0,0-.33,0c-.51.08-1-.53-1.08-1q0-.33,0-.66V358c0-.12-.05-.17-.16-.16h-2.85c-.22,0-.23,0-.17-.22l2.49-8.67c.29-1,.57-2,.85-3,.05-.17.05-.18-.13-.18-.42,0-.34-.06-.45.33q-.93,3.22-1.85,6.46a1,1,0,0,1-.77.82,1.15,1.15,0,0,1-1.16-.34,1,1,0,0,1-.2-1c.21-.78.44-1.55.66-2.33.48-1.66.95-3.32,1.44-5a3.51,3.51,0,0,1,1.72-2.21,2.88,2.88,0,0,1,1.4-.38h3.85a3.23,3.23,0,0,1,2.93,1.76,7.93,7.93,0,0,1,.62,1.75q.9,3.09,1.78,6.18a2,2,0,0,1,0,.9.88.88,0,0,1-.67.62,1.09,1.09,0,0,1-1.43-.78c-.61-2.23-1.26-4.44-1.9-6.66a.17.17,0,0,0-.2-.15c-.38,0-.39,0-.28.36l2.76,9.61c.17.62.35,1.24.53,1.85.06.21.05.21-.15.21h-2.84c-.21,0-.21,0-.21.22v8.56a1.22,1.22,0,0,1-.68,1.14.63.63,0,0,1-.3.07h-.32a1.22,1.22,0,0,1-1.24-1.25Z" style="fill:#BA68C8"></path><path d="M268.54,336.45l.27.06a2.55,2.55,0,0,1,2,2.47,2.6,2.6,0,0,1-4.27,2,2.4,2.4,0,0,1-.82-2.63,2.48,2.48,0,0,1,2.08-1.87l.13,0Z" style="fill:#fff;opacity:0.7000000000000001"></path><path d="M268.51,362.31V358c0-.21,0-.21-.22-.21s-.3,0-.3.3v8.35a1.37,1.37,0,0,1-.54,1.13.8.8,0,0,1-.59.21,1.22,1.22,0,0,0-.33,0c-.51.08-1-.53-1.08-1q0-.33,0-.66V358c0-.12-.05-.17-.16-.16h-2.85c-.22,0-.23,0-.17-.22l2.49-8.67c.29-1,.57-2,.85-3,.05-.17.05-.18-.13-.18-.42,0-.34-.06-.45.33q-.93,3.22-1.85,6.46a1,1,0,0,1-.77.82,1.15,1.15,0,0,1-1.16-.34,1,1,0,0,1-.2-1c.21-.78.44-1.55.66-2.33.48-1.66.95-3.32,1.44-5a3.51,3.51,0,0,1,1.72-2.21,2.88,2.88,0,0,1,1.4-.38h3.85a3.23,3.23,0,0,1,2.93,1.76,7.93,7.93,0,0,1,.62,1.75q.9,3.09,1.78,6.18a2,2,0,0,1,0,.9.88.88,0,0,1-.67.62,1.09,1.09,0,0,1-1.43-.78c-.61-2.23-1.26-4.44-1.9-6.66a.17.17,0,0,0-.2-.15c-.38,0-.39,0-.28.36l2.76,9.61c.17.62.35,1.24.53,1.85.06.21.05.21-.15.21h-2.84c-.21,0-.21,0-.21.22v8.56a1.22,1.22,0,0,1-.68,1.14.63.63,0,0,1-.3.07h-.32a1.22,1.22,0,0,1-1.24-1.25Z" style="fill:#fff;opacity:0.7000000000000001"></path><path d="M324.69,331.21l.27.06a2.56,2.56,0,0,1,2,2.48,2.59,2.59,0,0,1-4.27,2,2.4,2.4,0,0,1-.82-2.63,2.49,2.49,0,0,1,2.08-1.87l.13,0Z" style="fill:#BA68C8"></path><path d="M324.66,357.07V352.8c0-.21,0-.21-.22-.21s-.3,0-.3.3v8.35a1.4,1.4,0,0,1-.54,1.13.8.8,0,0,1-.59.21.92.92,0,0,0-.33,0c-.51.07-1.05-.53-1.08-1,0-.22,0-.44,0-.65v-8.17c0-.12-.05-.16-.16-.15h-2.85c-.22,0-.23,0-.17-.23l2.49-8.67c.29-1,.57-2,.85-2.95,0-.18,0-.19-.13-.19-.42,0-.34-.05-.45.33-.62,2.16-1.24,4.31-1.85,6.47a1.06,1.06,0,0,1-.77.82,1.13,1.13,0,0,1-1.16-.35,1,1,0,0,1-.2-1c.21-.77.44-1.55.66-2.32.48-1.66.95-3.32,1.44-5a3.53,3.53,0,0,1,1.72-2.22,3,3,0,0,1,1.4-.37h3.85a3.22,3.22,0,0,1,2.93,1.75,7.84,7.84,0,0,1,.62,1.76q.9,3.09,1.78,6.18a1.92,1.92,0,0,1,0,.89.88.88,0,0,1-.67.62,1.08,1.08,0,0,1-1.43-.78c-.61-2.22-1.26-4.43-1.9-6.65a.18.18,0,0,0-.2-.16c-.38,0-.39,0-.28.37l2.76,9.61c.17.61.35,1.23.53,1.85.06.2.05.21-.15.21h-2.84c-.21,0-.21,0-.21.21v8.56a1.21,1.21,0,0,1-.68,1.14.53.53,0,0,1-.3.07h-.32a1.22,1.22,0,0,1-1.24-1.24Z" style="fill:#BA68C8"></path><g style="opacity:0.8"><path d="M324.69,331.21l.27.06a2.56,2.56,0,0,1,2,2.48,2.59,2.59,0,0,1-4.27,2,2.4,2.4,0,0,1-.82-2.63,2.49,2.49,0,0,1,2.08-1.87l.13,0Z" style="fill:#fff"></path><path d="M324.66,357.07V352.8c0-.21,0-.21-.22-.21s-.3,0-.3.3v8.35a1.4,1.4,0,0,1-.54,1.13.8.8,0,0,1-.59.21.92.92,0,0,0-.33,0c-.51.07-1.05-.53-1.08-1,0-.22,0-.44,0-.65v-8.17c0-.12-.05-.16-.16-.15h-2.85c-.22,0-.23,0-.17-.23l2.49-8.67c.29-1,.57-2,.85-2.95,0-.18,0-.19-.13-.19-.42,0-.34-.05-.45.33-.62,2.16-1.24,4.31-1.85,6.47a1.06,1.06,0,0,1-.77.82,1.13,1.13,0,0,1-1.16-.35,1,1,0,0,1-.2-1c.21-.77.44-1.55.66-2.32.48-1.66.95-3.32,1.44-5a3.53,3.53,0,0,1,1.72-2.22,3,3,0,0,1,1.4-.37h3.85a3.22,3.22,0,0,1,2.93,1.75,7.84,7.84,0,0,1,.62,1.76q.9,3.09,1.78,6.18a1.92,1.92,0,0,1,0,.89.88.88,0,0,1-.67.62,1.08,1.08,0,0,1-1.43-.78c-.61-2.22-1.26-4.43-1.9-6.65a.18.18,0,0,0-.2-.16c-.38,0-.39,0-.28.37l2.76,9.61c.17.61.35,1.23.53,1.85.06.2.05.21-.15.21h-2.84c-.21,0-.21,0-.21.21v8.56a1.21,1.21,0,0,1-.68,1.14.53.53,0,0,1-.3.07h-.32a1.22,1.22,0,0,1-1.24-1.24Z" style="fill:#fff"></path></g><path d="M379.59,338.32l.26.06a2.55,2.55,0,0,1,2,2.48,2.58,2.58,0,0,1-4.26,2,2.4,2.4,0,0,1-.82-2.63,2.49,2.49,0,0,1,2.07-1.87l.13,0Z" style="fill:#BA68C8"></path><path d="M379.55,364.18v-4.27c0-.21,0-.21-.21-.21s-.31,0-.31.3q0,4.17,0,8.34a1.4,1.4,0,0,1-.54,1.13.77.77,0,0,1-.59.21,1.29,1.29,0,0,0-.34,0c-.5.07-1.05-.53-1.08-1,0-.22,0-.44,0-.65v-8a.86.86,0,0,1,0-.16c0-.12-.05-.16-.17-.15h-2.84c-.23,0-.23,0-.17-.23l2.49-8.67.85-2.95c.05-.18,0-.19-.14-.19-.41,0-.34-.06-.45.33-.62,2.16-1.24,4.31-1.84,6.46a1.05,1.05,0,0,1-.78.83,1.12,1.12,0,0,1-1.15-.35,1,1,0,0,1-.21-1l.67-2.32c.48-1.66.94-3.32,1.44-5a3.53,3.53,0,0,1,1.72-2.22,3,3,0,0,1,1.4-.37h3.84a3.19,3.19,0,0,1,2.93,1.75,7.4,7.4,0,0,1,.63,1.76l1.77,6.18a1.92,1.92,0,0,1,0,.89.9.9,0,0,1-.67.62,1.08,1.08,0,0,1-1.43-.78c-.62-2.22-1.27-4.43-1.9-6.65a.18.18,0,0,0-.2-.16c-.39,0-.39,0-.28.37q1.37,4.8,2.75,9.6l.54,1.86c.05.2.05.21-.16.21h-2.83c-.21,0-.21,0-.21.21v8.56a1.2,1.2,0,0,1-.69,1.14.48.48,0,0,1-.29.07h-.32a1.22,1.22,0,0,1-1.24-1.24C379.55,367,379.55,365.6,379.55,364.18Z" style="fill:#BA68C8"></path><g style="opacity:0.8"><path d="M379.59,338.32l.26.06a2.55,2.55,0,0,1,2,2.48,2.58,2.58,0,0,1-4.26,2,2.4,2.4,0,0,1-.82-2.63,2.49,2.49,0,0,1,2.07-1.87l.13,0Z" style="fill:#fff"></path><path d="M379.55,364.18v-4.27c0-.21,0-.21-.21-.21s-.31,0-.31.3q0,4.17,0,8.34a1.4,1.4,0,0,1-.54,1.13.77.77,0,0,1-.59.21,1.29,1.29,0,0,0-.34,0c-.5.07-1.05-.53-1.08-1,0-.22,0-.44,0-.65v-8a.86.86,0,0,1,0-.16c0-.12-.05-.16-.17-.15h-2.84c-.23,0-.23,0-.17-.23l2.49-8.67.85-2.95c.05-.18,0-.19-.14-.19-.41,0-.34-.06-.45.33-.62,2.16-1.24,4.31-1.84,6.46a1.05,1.05,0,0,1-.78.83,1.12,1.12,0,0,1-1.15-.35,1,1,0,0,1-.21-1l.67-2.32c.48-1.66.94-3.32,1.44-5a3.53,3.53,0,0,1,1.72-2.22,3,3,0,0,1,1.4-.37h3.84a3.19,3.19,0,0,1,2.93,1.75,7.4,7.4,0,0,1,.63,1.76l1.77,6.18a1.92,1.92,0,0,1,0,.89.9.9,0,0,1-.67.62,1.08,1.08,0,0,1-1.43-.78c-.62-2.22-1.27-4.43-1.9-6.65a.18.18,0,0,0-.2-.16c-.39,0-.39,0-.28.37q1.37,4.8,2.75,9.6l.54,1.86c.05.2.05.21-.16.21h-2.83c-.21,0-.21,0-.21.21v8.56a1.2,1.2,0,0,1-.69,1.14.48.48,0,0,1-.29.07h-.32a1.22,1.22,0,0,1-1.24-1.24C379.55,367,379.55,365.6,379.55,364.18Z" style="fill:#fff"></path></g><g id="freepik--1jhwpttif--inject-435"><path d="M292.8,365.05a4.38,4.38,0,0,1,.28-1,3.2,3.2,0,0,1,2.94-2c2,0,3.92,0,5.88,0a3.3,3.3,0,0,1,3.19,3,5.82,5.82,0,0,1,0,.59v7.64a1.12,1.12,0,0,1-.55,1,1.11,1.11,0,0,1-1.68-1c0-2.29,0-4.58,0-6.87,0-.36,0-.32-.32-.32h-.09c-.14,0-.19.05-.18.18a1,1,0,0,1,0,.17v19.57a1.52,1.52,0,0,1-.86,1.46.73.73,0,0,1-.29.07,3.25,3.25,0,0,0-.54,0,1.14,1.14,0,0,1-1-.51,1.53,1.53,0,0,1-.32-1c0-3.38,0-6.77,0-10.15,0-.41,0-.82,0-1.23,0-.13,0-.18-.18-.18-.44,0-.44,0-.44.43v11.12a1.5,1.5,0,0,1-.87,1.44l-.06,0a2.2,2.2,0,0,1-1.43-.14,1.5,1.5,0,0,1-.66-1.28c0-1.87,0-3.74,0-5.61v-14.1c0-.27,0-.28-.27-.27s-.31,0-.31.3v6.86a1.12,1.12,0,0,1-.73,1.08,1.1,1.1,0,0,1-1.45-.71l-.06-.15Z" style="fill:#BA68C8"></path><path d="M299,361.41a2.57,2.57,0,1,1,0-5.14,2.57,2.57,0,1,1,0,5.14Z" style="fill:#BA68C8"></path></g><g id="freepik--1jhwpttif--inject-435"><path d="M292.8,365.05a4.38,4.38,0,0,1,.28-1,3.2,3.2,0,0,1,2.94-2c2,0,3.92,0,5.88,0a3.3,3.3,0,0,1,3.19,3,5.82,5.82,0,0,1,0,.59v7.64a1.12,1.12,0,0,1-.55,1,1.11,1.11,0,0,1-1.68-1c0-2.29,0-4.58,0-6.87,0-.36,0-.32-.32-.32h-.09c-.14,0-.19.05-.18.18a1,1,0,0,1,0,.17v19.57a1.52,1.52,0,0,1-.86,1.46.73.73,0,0,1-.29.07,3.25,3.25,0,0,0-.54,0,1.14,1.14,0,0,1-1-.51,1.53,1.53,0,0,1-.32-1c0-3.38,0-6.77,0-10.15,0-.41,0-.82,0-1.23,0-.13,0-.18-.18-.18-.44,0-.44,0-.44.43v11.12a1.5,1.5,0,0,1-.87,1.44l-.06,0a2.2,2.2,0,0,1-1.43-.14,1.5,1.5,0,0,1-.66-1.28c0-1.87,0-3.74,0-5.61v-14.1c0-.27,0-.28-.27-.27s-.31,0-.31.3v6.86a1.12,1.12,0,0,1-.73,1.08,1.1,1.1,0,0,1-1.45-.71l-.06-.15Z" style="fill:#fff;opacity:0.7000000000000001"></path><path d="M299,361.41a2.57,2.57,0,1,1,0-5.14,2.57,2.57,0,1,1,0,5.14Z" style="fill:#fff;opacity:0.7000000000000001"></path></g><g id="freepik--1jhwpttif--inject-435"><path d="M395.7,339.74a3.79,3.79,0,0,1,.27-1,3.2,3.2,0,0,1,2.94-2c2,0,3.92,0,5.88,0a3.29,3.29,0,0,1,3.19,3,5.62,5.62,0,0,1,0,.58V348a1.14,1.14,0,0,1-.55,1.05,1.11,1.11,0,0,1-1.68-1c0-2.29,0-4.59,0-6.88,0-.36,0-.32-.32-.32h-.09c-.14,0-.19.05-.18.18a.91.91,0,0,1,0,.17v19.57a1.52,1.52,0,0,1-.87,1.45.59.59,0,0,1-.29.07,4.86,4.86,0,0,0-.54,0,1.12,1.12,0,0,1-1-.51,1.49,1.49,0,0,1-.31-1V350.63c0-.4,0-.81,0-1.22,0-.13,0-.18-.18-.18-.44,0-.44,0-.44.43v11.12a1.5,1.5,0,0,1-.86,1.43l-.07,0a2.14,2.14,0,0,1-1.43-.15,1.49,1.49,0,0,1-.66-1.28c0-1.86,0-3.73,0-5.6v-14.1c0-.28,0-.28-.27-.28s-.31,0-.31.3V348a1.12,1.12,0,0,1-2.18.38,1,1,0,0,1-.05-.16Z" style="fill:#BA68C8"></path><path d="M401.85,336.09a2.55,2.55,0,0,1-2.57-2.55,2.57,2.57,0,1,1,2.57,2.55Z" style="fill:#BA68C8"></path></g><g id="freepik--1jhwpttif--inject-435"><path d="M395.7,339.74a3.79,3.79,0,0,1,.27-1,3.2,3.2,0,0,1,2.94-2c2,0,3.92,0,5.88,0a3.29,3.29,0,0,1,3.19,3,5.62,5.62,0,0,1,0,.58V348a1.14,1.14,0,0,1-.55,1.05,1.11,1.11,0,0,1-1.68-1c0-2.29,0-4.59,0-6.88,0-.36,0-.32-.32-.32h-.09c-.14,0-.19.05-.18.18a.91.91,0,0,1,0,.17v19.57a1.52,1.52,0,0,1-.87,1.45.59.59,0,0,1-.29.07,4.86,4.86,0,0,0-.54,0,1.12,1.12,0,0,1-1-.51,1.49,1.49,0,0,1-.31-1V350.63c0-.4,0-.81,0-1.22,0-.13,0-.18-.18-.18-.44,0-.44,0-.44.43v11.12a1.5,1.5,0,0,1-.86,1.43l-.07,0a2.14,2.14,0,0,1-1.43-.15,1.49,1.49,0,0,1-.66-1.28c0-1.86,0-3.73,0-5.6v-14.1c0-.28,0-.28-.27-.28s-.31,0-.31.3V348a1.12,1.12,0,0,1-2.18.38,1,1,0,0,1-.05-.16Z" style="fill:#fff;opacity:0.7000000000000001"></path><path d="M401.85,336.09a2.55,2.55,0,0,1-2.57-2.55,2.57,2.57,0,1,1,2.57,2.55Z" style="fill:#fff;opacity:0.7000000000000001"></path></g><g id="freepik--1jhwpttif--inject-435"><path d="M343.79,364a3.46,3.46,0,0,1,.28-1,3.17,3.17,0,0,1,2.93-2c2,0,3.92,0,5.88,0a3.28,3.28,0,0,1,3.19,3,5.63,5.63,0,0,1,0,.58v7.64a1.14,1.14,0,0,1-.55,1.05,1.12,1.12,0,0,1-1.69-1v-6.88c0-.36,0-.32-.32-.32h-.09c-.14,0-.18.05-.17.18V385a1.5,1.5,0,0,1-.87,1.45.57.57,0,0,1-.29.07,4.86,4.86,0,0,0-.54,0,1.12,1.12,0,0,1-1-.51,1.45,1.45,0,0,1-.32-1V373.63c0-.13,0-.18-.17-.18-.45,0-.45,0-.45.43,0,3.7,0,7.41,0,11.12a1.51,1.51,0,0,1-.86,1.43l-.07,0c-.48,0-1,.17-1.42-.14a1.47,1.47,0,0,1-.67-1.28c0-1.87,0-3.73,0-5.6q0-7.05,0-14.11c0-.27,0-.27-.27-.27s-.31,0-.31.3v6.86a1.12,1.12,0,0,1-2.18.38,1,1,0,0,0,0-.16Z" style="fill:#BA68C8"></path><path d="M350,360.31a2.55,2.55,0,0,1-2.58-2.56,2.57,2.57,0,1,1,5.14,0A2.55,2.55,0,0,1,350,360.31Z" style="fill:#BA68C8"></path></g><g id="freepik--1jhwpttif--inject-435"><path d="M343.79,364a3.46,3.46,0,0,1,.28-1,3.17,3.17,0,0,1,2.93-2c2,0,3.92,0,5.88,0a3.28,3.28,0,0,1,3.19,3,5.63,5.63,0,0,1,0,.58v7.64a1.14,1.14,0,0,1-.55,1.05,1.12,1.12,0,0,1-1.69-1v-6.88c0-.36,0-.32-.32-.32h-.09c-.14,0-.18.05-.17.18V385a1.5,1.5,0,0,1-.87,1.45.57.57,0,0,1-.29.07,4.86,4.86,0,0,0-.54,0,1.12,1.12,0,0,1-1-.51,1.45,1.45,0,0,1-.32-1V373.63c0-.13,0-.18-.17-.18-.45,0-.45,0-.45.43,0,3.7,0,7.41,0,11.12a1.51,1.51,0,0,1-.86,1.43l-.07,0c-.48,0-1,.17-1.42-.14a1.47,1.47,0,0,1-.67-1.28c0-1.87,0-3.73,0-5.6q0-7.05,0-14.11c0-.27,0-.27-.27-.27s-.31,0-.31.3v6.86a1.12,1.12,0,0,1-2.18.38,1,1,0,0,0,0-.16Z" style="fill:#fff;opacity:0.7000000000000001"></path><path d="M350,360.31a2.55,2.55,0,0,1-2.58-2.56,2.57,2.57,0,1,1,5.14,0A2.55,2.55,0,0,1,350,360.31Z" style="fill:#fff;opacity:0.7000000000000001"></path></g><g id="freepik--1jhwpttif--inject-435"><path d="M118.5,295.53a4.38,4.38,0,0,1,.28-1,3.17,3.17,0,0,1,2.94-2c2,0,3.92,0,5.88,0a3.3,3.3,0,0,1,3.19,3c0,.2,0,.39,0,.58v7.64a1.13,1.13,0,0,1-.55,1.05,1.11,1.11,0,0,1-1.68-1c0-2.29,0-4.58,0-6.88,0-.36,0-.31-.31-.32h-.1c-.13,0-.18.05-.17.18a1,1,0,0,1,0,.17v19.57a1.51,1.51,0,0,1-.86,1.45.5.5,0,0,1-.29.07,4.87,4.87,0,0,0-.54,0,1.15,1.15,0,0,1-1-.52,1.5,1.5,0,0,1-.32-1c0-3.39,0-6.77,0-10.15,0-.41,0-.82,0-1.23,0-.13,0-.18-.18-.18-.44,0-.44,0-.44.43v11.12a1.5,1.5,0,0,1-.87,1.44l-.06,0a2.14,2.14,0,0,1-1.43-.15,1.47,1.47,0,0,1-.66-1.27c0-1.87,0-3.74,0-5.61v-14.1c0-.28,0-.28-.27-.28s-.31,0-.31.3v6.87a1.12,1.12,0,0,1-.73,1.08,1.1,1.1,0,0,1-1.45-.71l-.06-.16Z" style="fill:#BA68C8"></path><path d="M124.66,291.89a2.58,2.58,0,0,1,0-5.15,2.58,2.58,0,0,1,0,5.15Z" style="fill:#BA68C8"></path></g><g id="freepik--1jhwpttif--inject-435"><path d="M118.5,295.53a4.38,4.38,0,0,1,.28-1,3.17,3.17,0,0,1,2.94-2c2,0,3.92,0,5.88,0a3.3,3.3,0,0,1,3.19,3c0,.2,0,.39,0,.58v7.64a1.13,1.13,0,0,1-.55,1.05,1.11,1.11,0,0,1-1.68-1c0-2.29,0-4.58,0-6.88,0-.36,0-.31-.31-.32h-.1c-.13,0-.18.05-.17.18a1,1,0,0,1,0,.17v19.57a1.51,1.51,0,0,1-.86,1.45.5.5,0,0,1-.29.07,4.87,4.87,0,0,0-.54,0,1.15,1.15,0,0,1-1-.52,1.5,1.5,0,0,1-.32-1c0-3.39,0-6.77,0-10.15,0-.41,0-.82,0-1.23,0-.13,0-.18-.18-.18-.44,0-.44,0-.44.43v11.12a1.5,1.5,0,0,1-.87,1.44l-.06,0a2.14,2.14,0,0,1-1.43-.15,1.47,1.47,0,0,1-.66-1.27c0-1.87,0-3.74,0-5.61v-14.1c0-.28,0-.28-.27-.28s-.31,0-.31.3v6.87a1.12,1.12,0,0,1-.73,1.08,1.1,1.1,0,0,1-1.45-.71l-.06-.16Z" style="fill:#fff;opacity:0.7000000000000001"></path><path d="M124.66,291.89a2.58,2.58,0,0,1,0-5.15,2.58,2.58,0,0,1,0,5.15Z" style="fill:#fff;opacity:0.7000000000000001"></path></g><g id="freepik--1jhwpttif--inject-435"><path d="M372,208a4.16,4.16,0,0,1,.28-1,3.19,3.19,0,0,1,2.94-2c1.95,0,3.92,0,5.87,0a3.31,3.31,0,0,1,3.2,3c0,.19,0,.38,0,.58v7.64a1.12,1.12,0,0,1-.55,1,1.11,1.11,0,0,1-1.68-1q0-3.44,0-6.87c0-.36,0-.32-.31-.32h-.1c-.13,0-.18.05-.17.17a1,1,0,0,1,0,.17V229a1.52,1.52,0,0,1-.86,1.46.78.78,0,0,1-.3.07,3.13,3.13,0,0,0-.53,0,1.14,1.14,0,0,1-1-.51,1.53,1.53,0,0,1-.32-1V218.85c0-.41,0-.82,0-1.23,0-.13,0-.17-.18-.17-.44,0-.44,0-.44.42V229a1.5,1.5,0,0,1-.87,1.44.15.15,0,0,1-.07,0,2.17,2.17,0,0,1-1.42-.14,1.53,1.53,0,0,1-.67-1.28V209.33c0-.27,0-.27-.27-.27s-.31,0-.31.3v6.86a1.12,1.12,0,0,1-.73,1.08,1.11,1.11,0,0,1-1.45-.7l-.06-.16Z" style="fill:#BA68C8"></path><path d="M378.2,204.31a2.57,2.57,0,1,1,2.57-2.57A2.57,2.57,0,0,1,378.2,204.31Z" style="fill:#BA68C8"></path></g><g id="freepik--1jhwpttif--inject-435"><path d="M372,208a4.16,4.16,0,0,1,.28-1,3.19,3.19,0,0,1,2.94-2c1.95,0,3.92,0,5.87,0a3.31,3.31,0,0,1,3.2,3c0,.19,0,.38,0,.58v7.64a1.12,1.12,0,0,1-.55,1,1.11,1.11,0,0,1-1.68-1q0-3.44,0-6.87c0-.36,0-.32-.31-.32h-.1c-.13,0-.18.05-.17.17a1,1,0,0,1,0,.17V229a1.52,1.52,0,0,1-.86,1.46.78.78,0,0,1-.3.07,3.13,3.13,0,0,0-.53,0,1.14,1.14,0,0,1-1-.51,1.53,1.53,0,0,1-.32-1V218.85c0-.41,0-.82,0-1.23,0-.13,0-.17-.18-.17-.44,0-.44,0-.44.42V229a1.5,1.5,0,0,1-.87,1.44.15.15,0,0,1-.07,0,2.17,2.17,0,0,1-1.42-.14,1.53,1.53,0,0,1-.67-1.28V209.33c0-.27,0-.27-.27-.27s-.31,0-.31.3v6.86a1.12,1.12,0,0,1-.73,1.08,1.11,1.11,0,0,1-1.45-.7l-.06-.16Z" style="fill:#fff;opacity:0.7000000000000001"></path><path d="M378.2,204.31a2.57,2.57,0,1,1,2.57-2.57A2.57,2.57,0,0,1,378.2,204.31Z" style="fill:#fff;opacity:0.7000000000000001"></path></g><g id="freepik--1jhwpttif--inject-435"><path d="M264.64,210.4a4.16,4.16,0,0,1,.28-1,3.17,3.17,0,0,1,2.93-2c2,0,3.92,0,5.88,0a3.31,3.31,0,0,1,3.2,3c0,.19,0,.38,0,.58v7.64a1.12,1.12,0,0,1-.55,1,1.11,1.11,0,0,1-1.69-1v-6.87c0-.36,0-.32-.32-.32h-.09c-.14,0-.18.05-.17.18a.86.86,0,0,1,0,.16v19.57a1.52,1.52,0,0,1-.86,1.46.78.78,0,0,1-.3.07,3.13,3.13,0,0,0-.53,0,1.14,1.14,0,0,1-1-.51,1.53,1.53,0,0,1-.32-1V220.08c0-.14,0-.18-.17-.18-.44,0-.44,0-.44.43v11.11a1.5,1.5,0,0,1-.87,1.44.15.15,0,0,1-.07,0,2.17,2.17,0,0,1-1.42-.14,1.48,1.48,0,0,1-.67-1.28V211.78c0-.27,0-.27-.28-.27s-.3,0-.3.3v6.86a1.12,1.12,0,0,1-2.18.38l-.06-.16Z" style="fill:#BA68C8"></path><path d="M270.8,206.76a2.57,2.57,0,1,1,2.57-2.57A2.56,2.56,0,0,1,270.8,206.76Z" style="fill:#BA68C8"></path></g><g id="freepik--1jhwpttif--inject-435"><path d="M264.64,210.4a4.16,4.16,0,0,1,.28-1,3.17,3.17,0,0,1,2.93-2c2,0,3.92,0,5.88,0a3.31,3.31,0,0,1,3.2,3c0,.19,0,.38,0,.58v7.64a1.12,1.12,0,0,1-.55,1,1.11,1.11,0,0,1-1.69-1v-6.87c0-.36,0-.32-.32-.32h-.09c-.14,0-.18.05-.17.18a.86.86,0,0,1,0,.16v19.57a1.52,1.52,0,0,1-.86,1.46.78.78,0,0,1-.3.07,3.13,3.13,0,0,0-.53,0,1.14,1.14,0,0,1-1-.51,1.53,1.53,0,0,1-.32-1V220.08c0-.14,0-.18-.17-.18-.44,0-.44,0-.44.43v11.11a1.5,1.5,0,0,1-.87,1.44.15.15,0,0,1-.07,0,2.17,2.17,0,0,1-1.42-.14,1.48,1.48,0,0,1-.67-1.28V211.78c0-.27,0-.27-.28-.27s-.3,0-.3.3v6.86a1.12,1.12,0,0,1-2.18.38l-.06-.16Z" style="fill:#fff;opacity:0.7000000000000001"></path><path d="M270.8,206.76a2.57,2.57,0,1,1,2.57-2.57A2.56,2.56,0,0,1,270.8,206.76Z" style="fill:#fff;opacity:0.7000000000000001"></path></g><path d="M209.29,319.37l.26.06a2.54,2.54,0,0,1,2,2.47,2.58,2.58,0,0,1-4.26,2,2.4,2.4,0,0,1-.82-2.63,2.49,2.49,0,0,1,2.07-1.87l.14,0Z" style="fill:#BA68C8"></path><path d="M209.26,345.23V341c0-.21,0-.21-.22-.21s-.31,0-.31.3q0,4.17,0,8.34a1.4,1.4,0,0,1-.54,1.13.76.76,0,0,1-.59.21h-.34c-.5.08-1.05-.52-1.08-1,0-.22,0-.44,0-.66V340.9c0-.12,0-.16-.16-.15h-2.85c-.23,0-.23,0-.17-.23l2.49-8.67c.28-1,.57-2,.85-3,0-.17,0-.18-.14-.18-.41,0-.34-.06-.45.33-.62,2.15-1.24,4.31-1.84,6.46a1.06,1.06,0,0,1-.77.83A1.13,1.13,0,0,1,202,336a1,1,0,0,1-.2-1c.21-.78.44-1.55.66-2.32.48-1.66.94-3.32,1.44-5a3.53,3.53,0,0,1,1.72-2.21,2.84,2.84,0,0,1,1.4-.37q1.92,0,3.84,0a3.19,3.19,0,0,1,2.93,1.75,7.4,7.4,0,0,1,.63,1.76q.88,3.09,1.78,6.18a2.06,2.06,0,0,1,0,.89.9.9,0,0,1-.67.62,1.08,1.08,0,0,1-1.43-.78c-.62-2.22-1.27-4.44-1.9-6.65a.18.18,0,0,0-.2-.16c-.39,0-.39,0-.28.36q1.36,4.81,2.75,9.61l.54,1.86c.06.2.05.21-.16.21H212c-.21,0-.21,0-.21.21v8.56a1.2,1.2,0,0,1-.69,1.14.48.48,0,0,1-.29.07h-.32a1.22,1.22,0,0,1-1.24-1.24C209.25,348.07,209.26,346.65,209.26,345.23Z" style="fill:#BA68C8"></path><path d="M209.29,319.37l.26.06a2.54,2.54,0,0,1,2,2.47,2.58,2.58,0,0,1-4.26,2,2.4,2.4,0,0,1-.82-2.63,2.49,2.49,0,0,1,2.07-1.87l.14,0Z" style="fill:#fff;opacity:0.7000000000000001"></path><path d="M209.26,345.23V341c0-.21,0-.21-.22-.21s-.31,0-.31.3q0,4.17,0,8.34a1.4,1.4,0,0,1-.54,1.13.76.76,0,0,1-.59.21h-.34c-.5.08-1.05-.52-1.08-1,0-.22,0-.44,0-.66V340.9c0-.12,0-.16-.16-.15h-2.85c-.23,0-.23,0-.17-.23l2.49-8.67c.28-1,.57-2,.85-3,0-.17,0-.18-.14-.18-.41,0-.34-.06-.45.33-.62,2.15-1.24,4.31-1.84,6.46a1.06,1.06,0,0,1-.77.83A1.13,1.13,0,0,1,202,336a1,1,0,0,1-.2-1c.21-.78.44-1.55.66-2.32.48-1.66.94-3.32,1.44-5a3.53,3.53,0,0,1,1.72-2.21,2.84,2.84,0,0,1,1.4-.37q1.92,0,3.84,0a3.19,3.19,0,0,1,2.93,1.75,7.4,7.4,0,0,1,.63,1.76q.88,3.09,1.78,6.18a2.06,2.06,0,0,1,0,.89.9.9,0,0,1-.67.62,1.08,1.08,0,0,1-1.43-.78c-.62-2.22-1.27-4.44-1.9-6.65a.18.18,0,0,0-.2-.16c-.39,0-.39,0-.28.36q1.36,4.81,2.75,9.61l.54,1.86c.06.2.05.21-.16.21H212c-.21,0-.21,0-.21.21v8.56a1.2,1.2,0,0,1-.69,1.14.48.48,0,0,1-.29.07h-.32a1.22,1.22,0,0,1-1.24-1.24C209.25,348.07,209.26,346.65,209.26,345.23Z" style="fill:#fff;opacity:0.7000000000000001"></path><path d="M148.6,336.38l.26.06a2.55,2.55,0,0,1,2,2.47,2.58,2.58,0,0,1-4.26,2,2.4,2.4,0,0,1-.82-2.63,2.48,2.48,0,0,1,2.07-1.87l.13,0Z" style="fill:#BA68C8"></path><path d="M148.56,362.24V358c0-.22,0-.22-.21-.22s-.31,0-.31.31q0,4.17,0,8.34a1.4,1.4,0,0,1-.54,1.13.81.81,0,0,1-.59.21h-.34c-.5.08-1.05-.53-1.08-1,0-.22,0-.44,0-.66v-8.16c0-.12,0-.17-.17-.16h-2.84c-.23,0-.23,0-.17-.22l2.49-8.67c.28-1,.57-2,.85-3,.05-.17,0-.18-.14-.18-.41,0-.34-.06-.45.33-.62,2.15-1.24,4.3-1.84,6.46a1.06,1.06,0,0,1-.77.83,1.17,1.17,0,0,1-1.16-.35,1,1,0,0,1-.21-1c.22-.78.45-1.55.67-2.33.48-1.65.94-3.31,1.44-5a3.51,3.51,0,0,1,1.72-2.21,3,3,0,0,1,1.4-.38h3.84a3.22,3.22,0,0,1,2.93,1.76,7.48,7.48,0,0,1,.63,1.75l1.77,6.18a2,2,0,0,1,0,.9.92.92,0,0,1-.67.62,1.09,1.09,0,0,1-1.43-.78c-.62-2.22-1.27-4.44-1.9-6.66a.17.17,0,0,0-.2-.15c-.39,0-.39,0-.28.36q1.36,4.82,2.75,9.61l.54,1.86c.05.2.05.2-.16.2h-2.83c-.21,0-.21,0-.21.22v8.56a1.21,1.21,0,0,1-.69,1.14.57.57,0,0,1-.29.07h-.32a1.22,1.22,0,0,1-1.24-1.25C148.56,365.08,148.56,363.66,148.56,362.24Z" style="fill:#BA68C8"></path><path d="M148.6,336.38l.26.06a2.55,2.55,0,0,1,2,2.47,2.58,2.58,0,0,1-4.26,2,2.4,2.4,0,0,1-.82-2.63,2.48,2.48,0,0,1,2.07-1.87l.13,0Z" style="fill:#fff;opacity:0.7000000000000001"></path><path d="M148.56,362.24V358c0-.22,0-.22-.21-.22s-.31,0-.31.31q0,4.17,0,8.34a1.4,1.4,0,0,1-.54,1.13.81.81,0,0,1-.59.21h-.34c-.5.08-1.05-.53-1.08-1,0-.22,0-.44,0-.66v-8.16c0-.12,0-.17-.17-.16h-2.84c-.23,0-.23,0-.17-.22l2.49-8.67c.28-1,.57-2,.85-3,.05-.17,0-.18-.14-.18-.41,0-.34-.06-.45.33-.62,2.15-1.24,4.3-1.84,6.46a1.06,1.06,0,0,1-.77.83,1.17,1.17,0,0,1-1.16-.35,1,1,0,0,1-.21-1c.22-.78.45-1.55.67-2.33.48-1.65.94-3.31,1.44-5a3.51,3.51,0,0,1,1.72-2.21,3,3,0,0,1,1.4-.38h3.84a3.22,3.22,0,0,1,2.93,1.76,7.48,7.48,0,0,1,.63,1.75l1.77,6.18a2,2,0,0,1,0,.9.92.92,0,0,1-.67.62,1.09,1.09,0,0,1-1.43-.78c-.62-2.22-1.27-4.44-1.9-6.66a.17.17,0,0,0-.2-.15c-.39,0-.39,0-.28.36q1.36,4.82,2.75,9.61l.54,1.86c.05.2.05.2-.16.2h-2.83c-.21,0-.21,0-.21.22v8.56a1.21,1.21,0,0,1-.69,1.14.57.57,0,0,1-.29.07h-.32a1.22,1.22,0,0,1-1.24-1.25C148.56,365.08,148.56,363.66,148.56,362.24Z" style="fill:#fff;opacity:0.7000000000000001"></path><g id="freepik--1jhwpttif--inject-435"><path d="M176.4,346.89a4.38,4.38,0,0,1,.28-1,3.17,3.17,0,0,1,2.94-2c2,0,3.92,0,5.88,0a3.3,3.3,0,0,1,3.19,3,5.72,5.72,0,0,1,0,.58v7.64a1.13,1.13,0,0,1-.55,1,1.11,1.11,0,0,1-1.68-1c0-2.29,0-4.58,0-6.88,0-.36,0-.31-.32-.32h-.09c-.14,0-.19.05-.18.18a1,1,0,0,1,0,.17v19.57a1.51,1.51,0,0,1-.86,1.45.59.59,0,0,1-.29.07h-.54a1.12,1.12,0,0,1-1-.51,1.5,1.5,0,0,1-.32-1q0-5.08,0-10.15c0-.41,0-.82,0-1.23,0-.13,0-.18-.18-.18-.44,0-.44,0-.44.43v11.12a1.51,1.51,0,0,1-.86,1.44l-.07,0a2.14,2.14,0,0,1-1.43-.15,1.47,1.47,0,0,1-.66-1.27c0-1.87,0-3.74,0-5.61v-14.1c0-.28,0-.28-.27-.28s-.31,0-.31.3v6.86a1.12,1.12,0,0,1-.73,1.09,1.1,1.1,0,0,1-1.45-.71l-.06-.16Z" style="fill:#BA68C8"></path><path d="M182.56,343.25a2.58,2.58,0,0,1,0-5.15,2.58,2.58,0,0,1,0,5.15Z" style="fill:#BA68C8"></path></g><g id="freepik--1jhwpttif--inject-435"><path d="M176.4,346.89a4.38,4.38,0,0,1,.28-1,3.17,3.17,0,0,1,2.94-2c2,0,3.92,0,5.88,0a3.3,3.3,0,0,1,3.19,3,5.72,5.72,0,0,1,0,.58v7.64a1.13,1.13,0,0,1-.55,1,1.11,1.11,0,0,1-1.68-1c0-2.29,0-4.58,0-6.88,0-.36,0-.31-.32-.32h-.09c-.14,0-.19.05-.18.18a1,1,0,0,1,0,.17v19.57a1.51,1.51,0,0,1-.86,1.45.59.59,0,0,1-.29.07h-.54a1.12,1.12,0,0,1-1-.51,1.5,1.5,0,0,1-.32-1q0-5.08,0-10.15c0-.41,0-.82,0-1.23,0-.13,0-.18-.18-.18-.44,0-.44,0-.44.43v11.12a1.51,1.51,0,0,1-.86,1.44l-.07,0a2.14,2.14,0,0,1-1.43-.15,1.47,1.47,0,0,1-.66-1.27c0-1.87,0-3.74,0-5.61v-14.1c0-.28,0-.28-.27-.28s-.31,0-.31.3v6.86a1.12,1.12,0,0,1-.73,1.09,1.1,1.1,0,0,1-1.45-.71l-.06-.16Z" style="fill:#fff;opacity:0.7000000000000001"></path><path d="M182.56,343.25a2.58,2.58,0,0,1,0-5.15,2.58,2.58,0,0,1,0,5.15Z" style="fill:#fff;opacity:0.7000000000000001"></path></g><g id="freepik--1jhwpttif--inject-435"><path d="M307.88,186.84a4.38,4.38,0,0,1,.28-1,3.18,3.18,0,0,1,2.93-2c2,0,3.92,0,5.88,0a3.29,3.29,0,0,1,3.19,3,5.78,5.78,0,0,1,0,.58v7.65a1.12,1.12,0,1,1-2.24.08v-6.87c0-.37,0-.32-.32-.33h-.09c-.14,0-.18.05-.17.18v19.74a1.51,1.51,0,0,1-.86,1.45.53.53,0,0,1-.3.07,4.64,4.64,0,0,0-.53,0,1.16,1.16,0,0,1-1-.51,1.49,1.49,0,0,1-.32-1V196.51c0-.13,0-.18-.17-.18-.44,0-.44,0-.44.43v11.12a1.52,1.52,0,0,1-.87,1.44.15.15,0,0,1-.07,0,2.11,2.11,0,0,1-1.42-.15,1.45,1.45,0,0,1-.67-1.27V188.22c0-.28,0-.28-.28-.28s-.3,0-.3.31v6.86a1.15,1.15,0,0,1-.73,1.08,1.1,1.1,0,0,1-1.45-.71l-.06-.15Z" style="fill:#BA68C8"></path><path d="M314,183.2a2.58,2.58,0,1,1,0-5.15,2.61,2.61,0,0,1,2.57,2.57A2.57,2.57,0,0,1,314,183.2Z" style="fill:#BA68C8"></path></g><g id="freepik--1jhwpttif--inject-435"><path d="M307.88,186.84a4.38,4.38,0,0,1,.28-1,3.18,3.18,0,0,1,2.93-2c2,0,3.92,0,5.88,0a3.29,3.29,0,0,1,3.19,3,5.78,5.78,0,0,1,0,.58v7.65a1.12,1.12,0,1,1-2.24.08v-6.87c0-.37,0-.32-.32-.33h-.09c-.14,0-.18.05-.17.18v19.74a1.51,1.51,0,0,1-.86,1.45.53.53,0,0,1-.3.07,4.64,4.64,0,0,0-.53,0,1.16,1.16,0,0,1-1-.51,1.49,1.49,0,0,1-.32-1V196.51c0-.13,0-.18-.17-.18-.44,0-.44,0-.44.43v11.12a1.52,1.52,0,0,1-.87,1.44.15.15,0,0,1-.07,0,2.11,2.11,0,0,1-1.42-.15,1.45,1.45,0,0,1-.67-1.27V188.22c0-.28,0-.28-.28-.28s-.3,0-.3.31v6.86a1.15,1.15,0,0,1-.73,1.08,1.1,1.1,0,0,1-1.45-.71l-.06-.15Z" style="fill:#fff;opacity:0.7000000000000001"></path><path d="M314,183.2a2.58,2.58,0,1,1,0-5.15,2.61,2.61,0,0,1,2.57,2.57A2.57,2.57,0,0,1,314,183.2Z" style="fill:#fff;opacity:0.7000000000000001"></path></g></g></svg>
