<svg xmlns="http://www.w3.org/2000/svg" viewBox="0 0 500 500"><g id="freepik--background-complete--inject-6"><path d="M414.79,382.89l13.36-.28,6.58-.11c2.19-.05,4.36,0,6.54-.06l-.44.45-.06-11.19.5.5L428,372.14c-4.41,0-8.82-.12-13.24-.17l.28-.27c0,1.83-.09,3.67-.14,5.54Zm0,0-.14-5.54c0-1.86-.11-3.75-.13-5.65v-.27h.27c4.42-.05,8.83-.16,13.24-.17l13.24-.06h.5v.5l0,11.19v.45h-.45c-2.23,0-4.47,0-6.69-.06l-6.66-.11Z" style="fill:#ebebeb"></path><path d="M429.56,397l13.36-.28,6.58-.11c2.19-.05,4.36,0,6.54-.06l-.44.45-.05-11.19.49.5-13.24-.06c-4.41,0-8.82-.12-13.24-.17l.28-.27c0,1.83-.09,3.67-.13,5.54Zm0,0-.14-5.54c0-1.86-.11-3.75-.13-5.65v-.27h.27c4.42-.05,8.83-.16,13.24-.17l13.24-.06h.51v.5L456.49,397v.45H456c-2.23,0-4.46,0-6.69-.06l-6.66-.11Z" style="fill:#ebebeb"></path><rect x="400.02" y="385.81" width="26.48" height="11.19" transform="translate(826.52 782.81) rotate(180)" style="fill:#ebebeb"></rect><path d="M312.24,128.35l13.35-.28,6.58-.11c2.19,0,4.37,0,6.55-.06l-.45.45,0-11.19.5.5-13.24-.07c-4.42,0-8.83-.11-13.24-.16l.27-.27c0,1.83-.09,3.67-.13,5.53Zm0,0-.15-5.54c0-1.87-.11-3.76-.13-5.65v-.27h.28c4.41,0,8.82-.16,13.24-.16l13.24-.06h.5v.51l-.06,11.19v.45h-.44c-2.23,0-4.47,0-6.7,0l-6.66-.12Z" style="fill:#ebebeb"></path><path d="M327,142.46l13.35-.28,6.58-.11c2.19,0,4.37,0,6.55-.06l-.45.45L353,131.27l.5.5-13.24-.07c-4.41,0-8.83-.11-13.24-.16l.27-.27c0,1.83-.08,3.67-.13,5.53Zm0,0-.14-5.54c-.05-1.87-.12-3.76-.13-5.65V131H327c4.41-.05,8.83-.16,13.24-.16l13.24-.06h.5v.51l-.06,11.19v.44h-.44c-2.23,0-4.47,0-6.7-.05l-6.66-.12Z" style="fill:#ebebeb"></path><rect x="297.46" y="131.27" width="26.48" height="11.19" transform="translate(621.41 273.72) rotate(180)" style="fill:#ebebeb"></rect><rect x="58.73" y="385.81" width="26.48" height="11.19" transform="translate(143.93 782.81) rotate(180)" style="fill:#ebebeb"></rect><rect x="58.73" y="44.58" width="26.48" height="11.19" transform="translate(143.93 100.34) rotate(180)" style="fill:#ebebeb"></rect><path d="M44,69.88l13.35-.28,6.58-.12c2.19,0,4.36,0,6.55,0l-.45.45,0-11.19.5.49L57.2,59.12C52.78,59.12,48.37,59,44,59l.27-.27c0,1.83-.09,3.67-.13,5.53Zm0,0-.15-5.54c0-1.87-.11-3.76-.13-5.65v-.27H44c4.41,0,8.82-.16,13.24-.16l13.24-.06h.5v.51l-.06,11.19v.44h-.44c-2.24,0-4.47,0-6.7,0l-6.66-.12Z" style="fill:#ebebeb"></path><path d="M429.56,55.78l13.36-.28,6.58-.11c2.19,0,4.36,0,6.54-.06l-.44.45-.05-11.19.49.5L442.8,45c-4.41,0-8.82-.11-13.24-.16l.28-.27c0,1.83-.09,3.67-.13,5.53Zm0,0-.14-5.54c0-1.87-.11-3.75-.13-5.65v-.27h.27c4.42-.05,8.83-.15,13.24-.16L456,44.09h.51v.5l-.05,11.19v.45H456c-2.23,0-4.46,0-6.69,0l-6.66-.11Z" style="fill:#ebebeb"></path><rect x="255.8" y="344.42" width="26.48" height="11.19" style="fill:#ebebeb"></rect><path d="M267.51,330.31l-13.36.28-6.57.11c-2.19.05-4.37,0-6.55.06l.45-.45.05,11.19-.5-.5,13.24.07c4.41,0,8.83.11,13.24.16l-.27.27c0-1.83.08-3.67.13-5.53Zm0,0,.14,5.54c.05,1.87.11,3.75.13,5.65v.27h-.28c-4.41.05-8.83.15-13.24.16L241,342h-.5v-.5l.05-11.19v-.45H241c2.23,0,4.47,0,6.69.05l6.67.11Z" style="fill:#ebebeb"></path><path d="M448.89,247.64H205.12V63.49H448.89Zm-242.77-1H447.89V64.49H206.12Z" style="fill:#ebebeb"></path><path d="M214.23,68.64a2.31,2.31,0,1,1-2.3-2.31A2.3,2.3,0,0,1,214.23,68.64Z" style="fill:#a6a6a6"></path><path d="M223.66,68.64a2.31,2.31,0,1,1-2.31-2.31A2.31,2.31,0,0,1,223.66,68.64Z" style="fill:#ebebeb"></path><path d="M233.08,68.64a2.31,2.31,0,1,1-2.31-2.31A2.3,2.3,0,0,1,233.08,68.64Z" style="fill:#ebebeb"></path><rect x="205.63" y="72.66" width="242.77" height="1" style="fill:#ebebeb"></rect><polygon points="160.72 392.2 160.72 362.38 191.36 377.29 160.72 392.2" style="fill:#ebebeb"></polygon><polygon points="249.05 384.58 249.05 370.01 264.02 377.29 249.05 384.58" style="fill:#ebebeb"></polygon><polygon points="237.09 384.58 237.09 370.01 252.05 377.29 237.09 384.58" style="fill:#ebebeb"></polygon><polygon points="103.03 370.01 103.03 384.58 88.06 377.29 103.03 370.01" style="fill:#ebebeb"></polygon><polygon points="114.99 370.01 114.99 384.58 100.03 377.29 114.99 370.01" style="fill:#ebebeb"></polygon><rect x="85.07" y="364.87" width="2.99" height="24.86" style="fill:#ebebeb"></rect><rect x="264.05" y="364.87" width="2.99" height="24.86" style="fill:#ebebeb"></rect></g><g id="freepik--Screen--inject-6"><rect x="59.2" y="89.68" width="340.34" height="228.24" style="fill:#263238"></rect><rect x="59.2" y="89.68" width="340.34" height="9.46" style="fill:#455a64"></rect><path d="M66.72,94.41a2.35,2.35,0,1,1-2.35-2.34A2.35,2.35,0,0,1,66.72,94.41Z" style="fill:#c7c7c7"></path><path d="M76.3,94.41A2.35,2.35,0,1,1,74,92.07,2.35,2.35,0,0,1,76.3,94.41Z" style="fill:#fff"></path><path d="M85.88,94.41a2.35,2.35,0,1,1-2.35-2.34A2.35,2.35,0,0,1,85.88,94.41Z" style="fill:#BA68C8"></path><rect x="59.2" y="308.41" width="340.34" height="9.51" style="fill:#a6a6a6"></rect><path d="M375.05,312.14H80.81a.91.91,0,1,0,0,1.82H375.05a.91.91,0,1,0,0-1.82Z" style="fill:#fff"></path><path d="M79.23,313.05a1.82,1.82,0,1,1,1.82,1.82A1.83,1.83,0,0,1,79.23,313.05Z" style="fill:#BA68C8"></path><polygon points="390.01 310.11 390.01 310.95 390.01 312.75 390.84 312.75 390.84 310.95 392.65 310.95 392.65 310.11 390.84 310.11 390.01 310.11" style="fill:#fff"></polygon><polygon points="395.45 310.11 393.64 310.11 393.64 310.95 395.45 310.95 395.45 312.75 396.28 312.75 396.28 310.95 396.28 310.11 395.45 310.11" style="fill:#fff"></polygon><polygon points="395.45 315.39 393.64 315.39 393.64 316.22 395.45 316.22 396.28 316.22 396.28 315.39 396.28 313.58 395.45 313.58 395.45 315.39" style="fill:#fff"></polygon><polygon points="390.84 313.58 390.01 313.58 390.01 315.39 390.01 316.22 390.84 316.22 392.65 316.22 392.65 315.39 390.84 315.39 390.84 313.58" style="fill:#fff"></polygon><polygon points="62.45 310.4 62.45 315.7 66.72 313.05 62.45 310.4" style="fill:#fff"></polygon><path d="M69,313.13a1.14,1.14,0,0,1,.17-.6.53.53,0,0,1,.94,0,1.14,1.14,0,0,1,0,1.2.53.53,0,0,1-.94,0A1.14,1.14,0,0,1,69,313.13Zm1,0a.85.85,0,0,0-.12-.45q-.12-.17-.24-.15t-.24.15a.85.85,0,0,0-.12.45.79.79,0,0,0,.12.44.26.26,0,0,0,.48,0A.79.79,0,0,0,70,313.13Z" style="fill:#fff"></path><path d="M70.82,313.13a1.14,1.14,0,0,1,.17-.6.53.53,0,0,1,.94,0,1.14,1.14,0,0,1,0,1.2.53.53,0,0,1-.94,0A1.14,1.14,0,0,1,70.82,313.13Zm1,0a.85.85,0,0,0-.12-.45q-.12-.17-.24-.15t-.24.15a.85.85,0,0,0-.12.45.79.79,0,0,0,.12.44.26.26,0,0,0,.48,0A.79.79,0,0,0,71.82,313.13Z" style="fill:#fff"></path><path d="M72.86,312.65a.2.2,0,0,1,.19.19.19.19,0,0,1-.19.18.18.18,0,0,1-.19-.18A.19.19,0,0,1,72.86,312.65Zm0,1a.2.2,0,0,1,.19.19.19.19,0,0,1-.19.18.18.18,0,0,1-.19-.18A.19.19,0,0,1,72.86,313.65Z" style="fill:#fff"></path><path d="M73.22,313.13a1.06,1.06,0,0,1,.17-.6.58.58,0,0,1,.47-.28.56.56,0,0,1,.46.28,1.14,1.14,0,0,1,0,1.2.56.56,0,0,1-.46.28.58.58,0,0,1-.47-.28A1.06,1.06,0,0,1,73.22,313.13Zm1,0a.85.85,0,0,0-.12-.45c-.07-.11-.15-.16-.23-.15s-.16,0-.24.15a.85.85,0,0,0-.12.45.79.79,0,0,0,.12.44.31.31,0,0,0,.24.16.29.29,0,0,0,.23-.16A.79.79,0,0,0,74.21,313.13Z" style="fill:#fff"></path><path d="M75,313.13a1.06,1.06,0,0,1,.17-.6.58.58,0,0,1,.47-.28.59.59,0,0,1,.47.28,1.21,1.21,0,0,1,0,1.2.59.59,0,0,1-.47.28.58.58,0,0,1-.47-.28A1.06,1.06,0,0,1,75,313.13Zm1,0a.86.86,0,0,0-.13-.45c-.07-.11-.15-.16-.23-.15s-.16,0-.24.15a.85.85,0,0,0-.12.45.79.79,0,0,0,.12.44.31.31,0,0,0,.24.16.29.29,0,0,0,.23-.16A.79.79,0,0,0,76,313.13Z" style="fill:#fff"></path><path d="M379.85,313.13a1.14,1.14,0,0,1,.17-.6.53.53,0,0,1,.94,0,1.14,1.14,0,0,1,0,1.2.53.53,0,0,1-.94,0A1.14,1.14,0,0,1,379.85,313.13Zm1,0a.85.85,0,0,0-.12-.45q-.12-.17-.24-.15t-.24.15a.85.85,0,0,0-.12.45.79.79,0,0,0,.12.44.26.26,0,0,0,.48,0A.79.79,0,0,0,380.85,313.13Z" style="fill:#fff"></path><path d="M382.57,312.94a.59.59,0,0,1,.19.44.63.63,0,0,1-.19.44.59.59,0,0,1-.44.19h0a.59.59,0,0,1-.44-.19.13.13,0,0,1,0-.2.15.15,0,0,1,.2,0,.33.33,0,0,0,.24.1.34.34,0,0,0,.34-.34.33.33,0,0,0-.1-.24.31.31,0,0,0-.24-.1.34.34,0,0,0-.24.1.13.13,0,0,1-.2,0l0,0h0a0,0,0,0,0,0,0v0h0V313l.08-.65a.11.11,0,0,1,.06-.1h.82a.14.14,0,1,1,0,.28H382l0,.25a.52.52,0,0,1,.17,0A.62.62,0,0,1,382.57,312.94Z" style="fill:#fff"></path><path d="M383.41,312.65a.19.19,0,0,1,.19.19.18.18,0,0,1-.19.18.18.18,0,0,1-.18-.18A.19.19,0,0,1,383.41,312.65Zm0,1a.19.19,0,0,1,.19.19.18.18,0,0,1-.19.18.18.18,0,0,1-.18-.18A.19.19,0,0,1,383.41,313.65Z" style="fill:#fff"></path><path d="M384.73,312.94a.63.63,0,0,1,0,.88.6.6,0,0,1-.88,0,.14.14,0,0,1,.2-.2.31.31,0,0,0,.24.1.34.34,0,0,0,.24-.1.34.34,0,0,0-.24-.58.12.12,0,0,1-.1-.05h0a.15.15,0,0,1,0-.2l.25-.26H384a.14.14,0,0,1,0-.28h.74a.14.14,0,0,1,.14.14.14.14,0,0,1,0,.06.05.05,0,0,1,0,0l-.32.33A.57.57,0,0,1,384.73,312.94Z" style="fill:#fff"></path><path d="M386.23,312.94a.63.63,0,0,1,0,.88.59.59,0,0,1-.44.19h0a.59.59,0,0,1-.43-.19.13.13,0,0,1,0-.2.15.15,0,0,1,.2,0,.31.31,0,0,0,.24.1.33.33,0,0,0,.24-.1.35.35,0,0,0,.1-.24.34.34,0,0,0-.34-.34.31.31,0,0,0-.24.1.13.13,0,0,1-.2,0l0,0h0v0h0V313l.07-.65a.14.14,0,0,1,.07-.1h.82a.14.14,0,0,1,0,.28h-.62l0,.25a.5.5,0,0,1,.17,0A.62.62,0,0,1,386.23,312.94Z" style="fill:#fff"></path></g><g id="freepik--Button--inject-6"><circle cx="229.37" cy="203.81" r="36.41" style="fill:#BA68C8"></circle><path d="M207.21,240.31a1,1,0,0,1-.54-.15,42.89,42.89,0,0,1-14.82-57.07,1,1,0,0,1,1.8,1,40.82,40.82,0,0,0,14.1,54.33,1,1,0,0,1,.33,1.41A1,1,0,0,1,207.21,240.31Z" style="fill:#BA68C8"></path><path d="M229.37,246.66a43,43,0,0,1-12.06-1.72,1,1,0,0,1-.69-1.27,1,1,0,0,1,1.27-.7A40.88,40.88,0,0,0,251,238.42a1,1,0,0,1,1.09,1.74A42.78,42.78,0,0,1,229.37,246.66Z" style="fill:#BA68C8"></path><path d="M257.07,236.17a1,1,0,0,1-.76-.35,1,1,0,0,1,.08-1.45,40.7,40.7,0,0,0,13.78-30.56,1,1,0,0,1,2.05,0,42.75,42.75,0,0,1-14.47,32.1A1,1,0,0,1,257.07,236.17Z" style="fill:#BA68C8"></path><path d="M269.52,193.11a1,1,0,0,1-1-.74,39.86,39.86,0,0,0-3.18-7.78,1,1,0,1,1,1.81-1,43.1,43.1,0,0,1,3.34,8.18,1,1,0,0,1-.7,1.27A.92.92,0,0,1,269.52,193.11Z" style="fill:#BA68C8"></path><path d="M197.1,178.23a1,1,0,0,1-.66-.23,1,1,0,0,1-.13-1.44,42.83,42.83,0,0,1,66-.16,1,1,0,0,1-.13,1.44,1,1,0,0,1-1.45-.13,40.77,40.77,0,0,0-62.83.15A1,1,0,0,1,197.1,178.23Z" style="fill:#BA68C8"></path><path d="M276.29,191.28a1,1,0,0,1-1-.73,47.89,47.89,0,0,0-56.73-33.34,1,1,0,0,1-.45-2A49.86,49.86,0,0,1,277.25,190a1,1,0,0,1-.69,1.24A1.26,1.26,0,0,1,276.29,191.28Z" style="fill:#BA68C8"></path><path d="M181.8,193.81l-.23,0a1,1,0,0,1-.75-1.2,50,50,0,0,1,24.65-32.51,1,1,0,1,1,1,1.76A47.93,47.93,0,0,0,182.77,193,1,1,0,0,1,181.8,193.81Z" style="fill:#BA68C8"></path><path d="M194.85,239.33a1,1,0,0,1-.71-.29,49.73,49.73,0,0,1-14.5-38.28,1,1,0,1,1,2,.12,47.72,47.72,0,0,0,13.91,36.75,1,1,0,0,1,0,1.41A1,1,0,0,1,194.85,239.33Z" style="fill:#BA68C8"></path><path d="M215.18,251.53a.92.92,0,0,1-.29,0,48.93,48.93,0,0,1-9.47-4,1,1,0,1,1,1-1.75,48.05,48.05,0,0,0,9.09,3.82,1,1,0,0,1,.66,1.24A1,1,0,0,1,215.18,251.53Z" style="fill:#BA68C8"></path><path d="M229.39,253.64c-1.51,0-3-.07-4.55-.21a1,1,0,0,1-.91-1.09,1,1,0,0,1,1.09-.9,47.79,47.79,0,0,0,52-52.21,1,1,0,0,1,.9-1.09,1,1,0,0,1,1.09.9,49.83,49.83,0,0,1-49.57,54.6Z" style="fill:#BA68C8"></path><polygon points="216.09 217.73 216.09 189.89 248.41 203.81 216.09 217.73" style="fill:#fff"></polygon></g><g id="freepik--Character--inject-6"><path d="M288.65,443.11h81.07c.54-2.12,1.09-4.24,1.63-6.37s1-4,1.55-6c1.06-4.12,2.13-8.25,3.19-12.36l1.29-5c1.15-4.45,2.29-8.87,3.42-13.23q.68-2.57,1.32-5.09c2.46-9.49,4.83-18.64,7.05-27.15.27-1.06.54-2.12.81-3.16l.21-.78.39-1.51q.19-.76.39-1.5c.11-.41.22-.82.32-1.22s.27-1,.4-1.55.26-1,.4-1.53h0a.31.31,0,0,1,0-.08c.23-.88.45-1.75.68-2.61l.78-3c.23-.91.47-1.81.7-2.69a0,0,0,0,1,0,0c.22-.88.45-1.74.67-2.59a.74.74,0,0,1,0-.14c.21-.81.41-1.61.62-2.39.13-.52.26-1,.4-1.54.29-1.12.57-2.21.85-3.28.7-2.7,1.36-5.22,2-7.53.15-.57.29-1.13.44-1.68.36-1.38.7-2.68,1-3.89l.34-1.29c.09-.34.17-.68.26-1,.12-.48.24-.94.36-1.39l1.61-6.19.11-.4c.09-.34.13-.51.13-.51H328s-8.76,27.76-19.8,63.88C302,398.44,295.11,421.15,288.65,443.11Z" style="fill:#455a64"></path><path d="M353.62,443.11h2.29q4.38-14.61,8.73-29.23,2.7-9.08,5.39-18.17,5.79-19.57,11.53-39.17c.27-.94.55-1.87.81-2.81.39-1.33.77-2.66,1.15-4,1.24-4.34,2.45-8.69,3.68-13,.93-3.28.54-4.7-.19-2.12-1.29,4.59-2.82,9.13-4.31,13.67-.45,1.36-.89,2.71-1.33,4.07l-.36,1.14q-3,9.64-6,19.32-5.32,17.29-10.58,34.64l-1.11,3.65Q358.48,427.1,353.62,443.11Z" style="fill:#263238"></path><path d="M336.48,314.44c2.22,17.18,5.29,40.74,8.65,66.4h0l.36,2.64c.13,1.08.28,2.16.42,3.25l.06.46c.07.53.14,1.07.2,1.6,2.34,17.8,4.79,36.37,7.16,54.31h16.39c.54-2.12,1.09-4.24,1.63-6.37s1-4,1.55-6c1.06-4.12,2.13-8.25,3.19-12.36l1.29-5c1.15-4.45,2.29-8.87,3.42-13.23q.68-2.57,1.32-5.09c2.46-9.49,4.83-18.64,7.05-27.15.27-1.06.54-2.12.81-3.16l.21-.78.39-1.51q.19-.76.39-1.5c.1-.41.21-.81.31-1.22s.27-1,.41-1.55.26-1,.4-1.53h0a.31.31,0,0,1,0-.08c.23-.88.45-1.75.68-2.61l.78-3c.23-.91.47-1.81.7-2.69a0,0,0,0,1,0,0c.22-.88.45-1.74.67-2.59a.74.74,0,0,1,0-.14c.21-.81.41-1.61.62-2.39.13-.52.26-1,.4-1.54.29-1.12.57-2.21.85-3.28.7-2.7,1.36-5.22,2-7.53.15-.57.29-1.13.44-1.68.36-1.38.7-2.68,1-3.89l.34-1.29c.09-.34.17-.68.26-1,.12-.48.24-.94.36-1.39l1.61-6.19.11-.4c.09-.34.13-.51.13-.51Z" style="fill:#263238"></path><path d="M330.38,314.44A372.67,372.67,0,0,0,335,354.69a227.88,227.88,0,0,0,5,22.78s0,0,0,0c.12.45.25.9.38,1.34q.89,3.18,1.9,6.2l.24.7s1.24.45,3.49,1.44l1.15.52,1.24.57a163.63,163.63,0,0,1,14.57,7.86c.41.24.81.49,1.21.74,0,0,0,.17,0,.5,0,1.25.14,4.81.29,10,.06,1.93.12,4.09.19,6.45.23,7.94.52,18.09.82,29.23H434c-1.17-28.13-2-51.39-1.57-52.6,14.26-37.32-4.6-76.07-4.6-76.07Z" style="fill:#455a64"></path><path d="M338.8,383.62a163.79,163.79,0,0,1,25.34,13.27.29.29,0,0,1-.26.52c-8.55-4.16-17.28-8.16-25.6-12.78A.57.57,0,0,1,338.8,383.62Z" style="fill:#263238"></path><path d="M352.15,371.56c-.28-4.06-.58-8.11-.94-12.16-.81-9.23-1.77-18.5-3.39-27.63-.13-.72-1.14-.45-1.08.24.63,7.17,1.45,14.33,2.12,21.5s1.53,14.31,1.66,21.44c0,2.15-.11,5.8-2.75,6.4-3.55.79-5.23-3.87-6.08-6.41a119.92,119.92,0,0,1-4.45-19.54c-1.17-7.53-1.78-15.16-2.51-22.73,0-.28-.48-.23-.48,0-.05,15,.17,30.77,5.79,45,1.09,2.76,3,5.57,6.22,5.95h.16a.8.8,0,0,0-.05.26c.07.43.18.84.26,1.26a9.75,9.75,0,0,0,.21,1c.14.73.25,1.47.44,2.2a.55.55,0,0,0,1.09-.13.47.47,0,0,0,.31-.44,11.87,11.87,0,0,0-1-4.26,5.32,5.32,0,0,0,3.89-3.27C352.77,377.58,352.34,374.42,352.15,371.56Z" style="fill:#263238"></path><path d="M423.08,443.11H425c.08-23.94.16-43,.05-47.81-.14-6.22,4.46-23.6,5.11-29.31,1.38-12-1.19-28.6-4.73-40.06-.11-.35-.69-.22-.6.13,3.54,13.46,5.74,32.19,2.47,46-1.45,6.09-3.14,12.26-3.87,18.49C423.11,393.42,423,415.31,423.08,443.11Z" style="fill:#263238"></path><path d="M379.7,329.13c.39,4.28.55,8.58,1.18,12.85.56,3.78,1.79,7.54,4.79,10.39a25.68,25.68,0,0,0,10,5.68c4.87,1.45,19.68,1.48,24.73.76,1.27-.18,1.15.8-1.25,1.32-2.68.59-13.59,1.19-16.34,1.19a36,36,0,0,1-8-.55,22.33,22.33,0,0,1-11.57-6,18.59,18.59,0,0,1-4.76-11.64,70.34,70.34,0,0,1,.54-14C379.08,328.78,379.66,328.78,379.7,329.13Z" style="fill:#263238"></path><path d="M336.77,177.51c-1.53,7.5-3.08,15-4.32,22.6-.76,4.62-1.22,9.22-1.56,13.85a30,30,0,0,0,4.55,5.17c.08-1.18.16-2.35.24-3.5.39-5.55,1.22-11,2.11-16.44,0-.19.27-.11.24.08-.73,5.65-1.07,11.41-1.35,17.11-.06,1.25-.09,2.49-.1,3.73a41.17,41.17,0,0,0,5.12,3.67c0-1.37.1-2.73.15-4.07.12-3.15.3-6.29.57-9.44A177.79,177.79,0,0,1,345,191.85c.05-.25.36-.14.33.11-.85,6.32-1.48,12.69-1.93,19.07-.2,3-.37,6-.47,9.06-.05,1.45-.05,2.91-.06,4.37a63.36,63.36,0,0,0,10.28,4.65c10.12,3.61,21.33,3.44,31.83,1.83a55.33,55.33,0,0,0,25.55-10.71,61.27,61.27,0,0,1-4.94-15.7c0-.18.19-.24.24-.08q1.65,5.24,3.7,10.28c.65,1.58,1.36,3.11,2.07,4.65l.33-.28c.74-.6,1.52-1.25,2.29-2a94.37,94.37,0,0,1-3.47-9.81,89.12,89.12,0,0,1-3.37-14.42c0-.33.34-.46.43-.14,1.39,4.6,2.66,9.24,4.11,13.82,1,3.22,2.23,6.37,3.33,9.56,2.23-2.25,4.13-5,4.23-8.56.07-2.93-1-5.65-1.91-8.29q-1.49-4.45-2.53-9.08a101.77,101.77,0,0,1-2.55-19.43c-.21-6.09.5-12.18.18-18.26-.26-5.22-1.62-10.14-4.76-13.85a21.75,21.75,0,0,0-9.65-6.4c0-.16-17.14-18.81-41.16-9.13-19.6,7.9-30.79,69.64-30.8,75.9a25.81,25.81,0,0,0,3.39,13c.31-3.92.87-7.82,1.49-11.58,1.3-7.84,3.25-15.45,5.26-23.08C336.51,177.16,336.82,177.26,336.77,177.51Z" style="fill:#c7c7c7"></path><path d="M432.78,317.47H325.31l6.75-29.75S321,280.07,324.38,267c4.73-18.31,31.45-55.55,33.76-57.53,9.28-7.95,23.48-7.72,30.73-1.64C421.89,235.55,432.78,317.47,432.78,317.47Z" style="fill:#ebebeb"></path><path d="M369.26,281a99.92,99.92,0,0,0-14.68-.25c-2.43.18-4.84.46-7.25.8-1.2.17-2.4.29-3.61.41a15.59,15.59,0,0,1-3.8,0,.09.09,0,0,0,0,.17,26.53,26.53,0,0,0,3.55.58,27.1,27.1,0,0,0,3.49,0c2.47-.16,4.92-.42,7.39-.6,5-.36,9.94-.71,14.93-.71C369.48,281.42,369.49,281,369.26,281Z" style="fill:#263238"></path><path d="M380.36,287.42a110.5,110.5,0,0,0-11.81-2.74c-2-.33-4-.55-6-.72-1-.08-1.93-.14-2.89-.2s-2.13,0-3.19,0c-.11,0-.14.16,0,.17,1,.1,2,.37,3,.52l3,.46c2,.31,4,.65,6,.94,4,.59,8,1.21,11.94,1.94C380.52,287.79,380.56,287.48,380.36,287.42Z" style="fill:#263238"></path><path d="M384.55,205.25s-10.24,64.8-8.62,76.44,12.43,147.84,12.43,147.84c44.42.28,74.81-14.24,74.81-14.24s-9.11-57.6-26.72-97.82C436.45,317.47,420.7,221,384.55,205.25Z" style="fill:#BA68C8"></path><path d="M358.14,209.5s-15.33,43.3-16.79,58-23.54,160-23.54,160-15.7-3.55-23.35-12.19l33.36-128.37S319,276.12,322,265.38,343.34,217.9,358.14,209.5Z" style="fill:#BA68C8"></path><path d="M383.71,208.05c-.72,2.07-9.86,14.51-21.35,11.56-6.68-1.71-1.92-13.84-1.92-13.84l-2.29-19.56,25.57-12.74S384,207.17,383.71,208.05Z" style="fill: rgb(247, 169, 160);"></path><path d="M383.77,186.06a37.61,37.61,0,0,1-23.45,18.63l-2.18-18.47,25.57-12.75S383.74,179.15,383.77,186.06Z" style="fill:#263238"></path><path d="M339,154.3c-7.37,31.41,10.61,39.37,17.38,40.95,6.15,1.44,27.28,5.55,37.85-24.93s-1.69-43.84-15.59-47.87S346.37,122.89,339,154.3Z" style="fill: rgb(247, 169, 160);"></path><path d="M345.41,150.73a18.64,18.64,0,0,0,2.24-.08,3.57,3.57,0,0,0,2.26-.52,1.15,1.15,0,0,0,.24-1.39,2.87,2.87,0,0,0-2.67-1.13,4.19,4.19,0,0,0-2.85,1A1.23,1.23,0,0,0,345.41,150.73Z" style="fill:#c7c7c7"></path><path d="M367.24,155.88a22,22,0,0,1-2.08-.83,3.65,3.65,0,0,1-2-1.25,1.16,1.16,0,0,1,.24-1.39,2.87,2.87,0,0,1,2.89-.18,4.24,4.24,0,0,1,2.35,1.91A1.24,1.24,0,0,1,367.24,155.88Z" style="fill:#c7c7c7"></path><path d="M361,163.43c0-.08.15.14.13.22-.5,2.16-.7,4.71,1.12,5.81,0,0,0,.14-.05.12C359.85,168.77,360.15,165.39,361,163.43Z" style="fill:#263238"></path><path d="M363.35,161.55c3.53.42,2.43,7.46-.85,7.07S360.38,161.2,363.35,161.55Z" style="fill:#263238"></path><path d="M364.67,162.14c.55.49,1.05,1.29,1.78,1.48s1.61-.42,2.28-1c.07-.06.12,0,.1.1-.19,1.35-.92,2.66-2.4,2.63s-2.11-1.37-2.23-2.77C364.17,162.27,364.45,161.94,364.67,162.14Z" style="fill:#263238"></path><path d="M349,160.46c0-.08-.19.08-.2.17-.25,2.2-.91,4.67-3,5.1-.06,0-.07.12,0,.12C348.3,165.87,349.15,162.58,349,160.46Z" style="fill:#263238"></path><path d="M347.43,157.89c-3.48-.79-4.8,6.22-1.58,7S350.34,158.55,347.43,157.89Z" style="fill:#263238"></path><path d="M345.88,158.08c-.62.26-1.3.84-2,.75s-1.2-1-1.55-1.77c0-.09-.1,0-.12.05-.29,1.33-.11,2.81,1.13,3.31s2.2-.53,2.77-1.8C346.25,158.38,346.13,158,345.88,158.08Z" style="fill:#263238"></path><path d="M358.12,180.32c-.59.46-1.19,1.11-2,1.09a6,6,0,0,1-2.3-.81.08.08,0,0,0-.11.1,3,3,0,0,0,2.66,1.5,2.38,2.38,0,0,0,1.94-1.75C358.36,180.32,358.2,180.26,358.12,180.32Z" style="fill:#263238"></path><path d="M350.34,170.92s-1,3.18-1.26,4.71c0,.14.34.27.85.39,0,0,0,0,.06,0a7.37,7.37,0,0,0,7.54-1.53c.14-.13,0-.32-.19-.25a11.13,11.13,0,0,1-7,.79c0-.44,1.89-5.38,1.65-5.44a12.93,12.93,0,0,0-3.61.2c1.88-6.68,4.82-13,6.6-19.68.06-.23-.28-.37-.38-.16-3.55,6.4-5.89,14-8,20.88C346.33,171.7,349.68,171.08,350.34,170.92Z" style="fill:#263238"></path><path d="M351.49,176a7.61,7.61,0,0,0,2.79,2.63,3.29,3.29,0,0,0,2,.33c1.53-.24,1.7-1.6,1.55-2.8a8.53,8.53,0,0,0-.49-1.86A9.79,9.79,0,0,1,351.49,176Z" style="fill:#263238"></path><path d="M354.28,178.67a3.29,3.29,0,0,0,2,.33c1.53-.24,1.7-1.6,1.55-2.8C356.25,176.21,354.57,177.13,354.28,178.67Z" style="fill:#ff97b8"></path><g style="opacity:0.2"><path d="M359.49,147.81a25.87,25.87,0,0,1-3.8-.68c-1.26-.37-2.43-1-3.69-1.32a21.14,21.14,0,0,0-7.37-.27c-.22,0-.22.16,0,.15a18.12,18.12,0,0,1,7.67.87,22.9,22.9,0,0,0,6.16,1.68c4.89.51,9.61,1.62,13.39,4.93,0,0,.06,0,0,0C368.49,150,364,148.48,359.49,147.81Z"></path><path d="M360.42,144.48a27.56,27.56,0,0,1-3.61-.64c-1.19-.35-2.3-.93-3.5-1.25a19.88,19.88,0,0,0-7-.26c-.21,0-.21.15,0,.14a17.22,17.22,0,0,1,7.27.82,21.64,21.64,0,0,0,5.84,1.6c4.63.48,9.11,1.53,12.7,4.68,0,0,.06,0,0,0C369,146.58,364.68,145.11,360.42,144.48Z"></path></g><path d="M390.15,173.63c-2.69-1.75-1.24-10.6-1.24-10.6A46.81,46.81,0,0,1,373,145.59,42,42,0,0,1,368.51,131s-7.51,5.69-12.41,8.86-14.27,4.9-14.27,4.9,4.08-14.21,13-19.41,24.49-9.12,38.29,4.44c0,0,10.27,9.44,9.69,20.67S393.8,176,390.15,173.63Z" style="fill:#c7c7c7"></path><path d="M368.9,128.89a.09.09,0,0,1,.16.07c-2.64,8.1,1.46,16.4,6.46,22.68,4.68,5.86,10.38,9.56,17,12.91a.17.17,0,0,1-.14.3c-7.28-2.46-13.91-8.15-18.38-14.28S365.84,136.41,368.9,128.89Z" style="fill:#c7c7c7"></path><path d="M355,163.56l.95-.8c-1.12-1.46-3.93-3.69-6.57-1.69l.71,1C352.44,160.3,354.89,163.43,355,163.56Z" style="fill:#455a64"></path><path d="M396.27,174.16l1.21-.35c-.16-.57-1.68-5.58-4.37-6.58-2.52-.92-19.51-2.66-20.23-2.73l-.13,1.26c4.87.5,18,1.94,19.91,2.66C394.44,169.08,395.86,172.79,396.27,174.16Z" style="fill:#455a64"></path><path d="M355.41,168.58c-1.1-1.46-1.59-6,.46-7.55,3.82-2.93,18.83-1.36,19.47-1.29l.83.08-.27.8c-.11.34-2.87,8.5-6.12,10.43a9.89,9.89,0,0,1-5.24.82C360.89,171.66,356.77,170.38,355.41,168.58Zm1.28-6.48c-1.32,1-1,4.65-.2,5.66,1.59,2.12,9.78,3.81,12.61,2.13,2.09-1.24,4.28-6.27,5.25-8.9C369.63,160.55,359.34,160.07,356.69,162.1Z" style="fill:#455a64"></path><path d="M342.36,166.65a5.16,5.16,0,0,1-3.76-2.76c-1-2.65-.3-10.49-.27-10.82l.08-.81.77.22c1,.28,10,2.86,10.94,6.72a7.49,7.49,0,0,1-2.05,6.69,5.66,5.66,0,0,1-3.95,1A10.16,10.16,0,0,1,342.36,166.65Zm-2.5-3.24a3.93,3.93,0,0,0,2.83,1.93c1.78.46,3.63.26,4.5-.48a6.2,6.2,0,0,0,1.63-5.34c-.6-2.39-6.27-4.6-9.21-5.51C339.41,156.62,339.2,161.66,339.86,163.41Z" style="fill:#455a64"></path><path d="M388.18,169.35s8.41-9,12.58-5.82-3.18,16.83-8.77,18a5.46,5.46,0,0,1-6.82-3.95Z" style="fill: rgb(247, 169, 160);"></path><path d="M398.56,167.4c.08,0,.08.13,0,.15-3.94,1-6.4,4.13-8.29,7.51,1.31-1.21,2.92-1.75,4.58-.17.09.09,0,.23-.13.19a3.35,3.35,0,0,0-3.82.63,15.72,15.72,0,0,0-2.18,2.7c-.22.31-.8,0-.62-.32l0-.08C388.74,173.25,393.39,167.14,398.56,167.4Z" style="fill:#263238"></path><path d="M356.91,171.9c.47,1.23,1,2.42,1.57,3.58a30.18,30.18,0,0,0,1.94,3.31,17.43,17.43,0,0,0,5.53,5.27,9.94,9.94,0,0,1-3.59-1.76,13.1,13.1,0,0,1-2.77-2.94A15.74,15.74,0,0,1,356.91,171.9Z" style="opacity:0.1"></path><path d="M345,181.81a20.84,20.84,0,0,0,2.82-4.37,18.19,18.19,0,0,0,.93-2.39c.27-.82.44-1.68.68-2.56a7.82,7.82,0,0,1,.08,2.73,9.2,9.2,0,0,1-.79,2.65,9.3,9.3,0,0,1-1.54,2.29A6.91,6.91,0,0,1,345,181.81Z" style="opacity:0.1"></path><path d="M399,238.92c-1.66,17.11-15,82-30,88.18-14.55,6-71.64-15.92-90.68-26-5.6-3,26.26-45.07,32.24-41.91,7.24,3.81,39,18.14,41.14,19.53,1.48.95,16.15-33.11,26.42-49C394.26,204.74,401,219.06,399,238.92Z" style="fill: rgb(247, 169, 160);"></path><path d="M320.92,272.38a86.65,86.65,0,0,0-18-28.31c-5.47-5.78-18.08-13.38-23.38-15.64-7.92-3.37-43.21-12.43-45.59-3.92-2.16,7.7,29.15,11.63,29.15,11.63s-31.24-6.76-32.13,3,35.07,9.5,35.07,9.5-32.25-6.23-31.58,4c.51,7.71,33.1,9.31,33.1,9.31s-27.76-5.16-27.58,2.79c.2,8.78,30.19,12.15,30.19,12.15-.85,3.62-1.44,18,9.38,24.9C281.46,303,320.92,272.38,320.92,272.38Z" style="fill: rgb(247, 169, 160);"></path><path d="M274.08,237.79c-3.64-.93-7.32-1.89-11-2.49s-7.44-1.07-11.19-1.32a64.81,64.81,0,0,0-14.69.4c8.73-.6,22,1.34,25.76,1.94s7.43,1,11.14,1.61C274.16,238,274.17,237.81,274.08,237.79Z" style="fill:#263238"></path><path d="M272.16,251.23c-4.7-1-9.33-2.13-14.07-2.91s-9.27-1.09-14-1.53c-.36,0-.26.17.11.22,4.74.64,9.07,1.59,13.8,2.28s9.5,1.19,14.19,2.05C272.22,251.36,272.23,251.24,272.16,251.23Z" style="fill:#263238"></path><path d="M272.58,263.06A110.38,110.38,0,0,0,250.42,260c-.36,0-.2.23.17.27,7.29.8,13.31,1.68,21.93,3.09C272.65,263.33,272.73,263.1,272.58,263.06Z" style="fill:#263238"></path><path d="M323.73,264.19l-26.17,52.5s64.06,22.18,74.82,11.94,24.13-59.41,27.62-87.89c3.21-26.21-10.32-36.12-25.25-8.18s-20.27,42.79-23.15,42.66S323.73,264.19,323.73,264.19Z" style="fill:#BA68C8"></path><path d="M310.29,320.78c5.73,1.54,11.46,3.05,17.24,4.37s11.56,2.58,17.37,3.6a99.94,99.94,0,0,0,17.5,1.76c.73,0,1.45,0,2.16-.1s1.42-.16,2.12-.26a10,10,0,0,0,3.75-1.33,23,23,0,0,0,5.34-6.54,104.3,104.3,0,0,0,7.32-16c2.1-5.51,3.93-11.14,5.68-16.79s3.34-11.35,4.85-17.08,2.92-11.49,4.12-17.3a274.54,274.54,0,0,1-7.47,34.82q-2.38,8.6-5.4,17a104.26,104.26,0,0,1-7.39,16.36,24.61,24.61,0,0,1-5.92,7.1,11.65,11.65,0,0,1-4.55,1.64,22.85,22.85,0,0,1-2.3.27c-.76.07-1.52.08-2.28.08a68.93,68.93,0,0,1-9-.65c-3-.38-5.9-.89-8.82-1.47A271.63,271.63,0,0,1,310.29,320.78Z" style="fill:#263238"></path><path d="M399.21,262.21a23.36,23.36,0,0,1-1.88,5,17.45,17.45,0,0,1-3,4.41c.78-1.61,1.56-3.17,2.35-4.75S398.26,263.73,399.21,262.21Z" style="fill:#263238"></path><path d="M323.19,265.28l.51-1.1v0l0,0,7.94,3.31c2.64,1.11,5.3,2.2,8,3.24s5.33,2.11,8,3c.68.22,1.36.43,2,.62.34.09.68.18,1,.25a7.42,7.42,0,0,0,.94.15,1.5,1.5,0,0,0,.64-.38,8,8,0,0,0,.69-.73c.44-.53.85-1.1,1.25-1.68a148.24,148.24,0,0,0,8.27-15c1.29-2.56,2.55-5.13,3.8-7.71l3.75-7.75c-2.12,5.33-4.43,10.59-6.86,15.79-1.21,2.61-2.5,5.18-3.82,7.73a86.5,86.5,0,0,1-4.32,7.5,19.82,19.82,0,0,1-1.33,1.76,7.69,7.69,0,0,1-.8.82,2.2,2.2,0,0,1-1.22.61,7.14,7.14,0,0,1-1.19-.18c-.36-.08-.71-.18-1.07-.28q-1.05-.3-2.07-.66c-2.73-.95-5.4-2-8-3.13-5.28-2.27-10.49-4.66-15.63-7.22l0,0Z" style="fill:#263238"></path><path d="M331.74,274.07c-4.23,7.43-15.11,27.91-20.34,42.19,0,.08.29.25.34.17,6.22-11.17,16.95-34.33,20.49-42.11C332.29,274.18,331.82,273.93,331.74,274.07Z" style="fill:#263238"></path></g><g id="freepik--Plant--inject-6"><path d="M74.13,329.05c-6.68,0-20.17-5.25-17.89-9.65s9.21,1.25,9.5,1.42c-.19-.33-4.7-9.12-.69-10.65s8.07,2.71,9.08,7.59c1-4.88,5-9.16,9.07-7.59s-.5,10.32-.69,10.65c.29-.17,7.28-5.73,9.51-1.42S80.8,329.05,74.13,329.05Z" style="fill:#455a64"></path><path d="M107.8,365A82.43,82.43,0,0,1,106.1,376c-1.58,7.16-4.19,14.12-7.91,18.77a68.94,68.94,0,0,1-24.14,4.55,68.91,68.91,0,0,1-24.13-4.55c-8-9.94-10.79-30.38-9.66-40.89,2.05-19,13.39-26.25,23.24-28.85h0a42.18,42.18,0,0,1,10.54-1.34c9.66,0,30.91,3.48,33.8,30.2A59.73,59.73,0,0,1,107.8,365Z" style="fill:#BA68C8"></path><path d="M74.75,323.63c.27,6.3.43,12.61.55,18.91s.14,12.62.17,18.93-.06,12.61-.25,18.92S74.91,393,73.9,399.27l.25-2.35.13-2.36c.1-1.58.1-3.15.15-4.73q.12-4.72.14-9.45c.05-6.31.08-12.61.05-18.92l0-18.91C74.66,336.24,74.67,329.93,74.75,323.63Z" style="fill:#fff"></path><path d="M70.66,323.75a78.48,78.48,0,0,0-2.26,9.16c-.63,3.08-1.09,6.19-1.48,9.31a176.32,176.32,0,0,0-1.3,18.8l-.05,4.71c0,1.57.06,3.14.08,4.71,0,3.15.28,6.28.43,9.42.06,1.58.22,3.14.35,4.71l.42,4.7,1.07,9.38c-.52-3.1-1-6.22-1.48-9.33l-.54-4.7c-.18-1.57-.38-3.13-.47-4.71-.26-3.14-.49-6.29-.55-9.44,0-1.58-.14-3.16-.13-4.74l0-4.73a161,161,0,0,1,1.5-18.87A92,92,0,0,1,70.66,323.75Z" style="fill:#fff"></path><path d="M65.19,324.54a39,39,0,0,0-4.79,8.33c-.31.74-.65,1.46-.94,2.21l-.81,2.26-.4,1.13c-.12.38-.22.77-.33,1.16l-.64,2.31a74.36,74.36,0,0,0-2.18,19l.1,4.81.47,4.78.24,2.39c.11.8.27,1.58.4,2.37l.81,4.75a21.42,21.42,0,0,0,.51,2.35l.57,2.34,1.14,4.68,2.85,9.22c-1.11-3-2.17-6.06-3.25-9.1l-1.26-4.67-.63-2.34a20.64,20.64,0,0,1-.57-2.35l-.9-4.76c-.14-.79-.3-1.58-.42-2.38l-.26-2.41-.51-4.82L54.25,361a71.89,71.89,0,0,1,2.4-19.2l.71-2.32c.12-.38.22-.77.35-1.16l.44-1.13L59,334.9c.31-.75.67-1.47,1-2.21A36.82,36.82,0,0,1,65.19,324.54Z" style="fill:#fff"></path><path d="M61.17,325.63a35.61,35.61,0,0,0-6.52,7.24A42.87,42.87,0,0,0,50,341.41a49.83,49.83,0,0,0-3.66,19c-.06,1.63.07,3.25.12,4.87s.26,3.24.55,4.84l.37,2.41.49,2.39c.15.8.32,1.6.54,2.38l.59,2.37c.42,1.57.93,3.12,1.39,4.69L52,389l1.82,4.55,2,4.48a97,97,0,0,1-7.47-18.14c-.42-1.59-.92-3.16-1.22-4.77l-.52-2.41-.39-2.43c-.3-1.62-.4-3.27-.59-4.9s-.21-3.29-.16-4.93a49.28,49.28,0,0,1,3.91-19.24,43.07,43.07,0,0,1,4.92-8.53,39.36,39.36,0,0,1,3.18-3.75A27,27,0,0,1,61.17,325.63Z" style="fill:#fff"></path><path d="M78.6,323.8A91.65,91.65,0,0,1,83,342.18,165.46,165.46,0,0,1,84.49,361v4.74c0,1.58-.08,3.15-.12,4.73-.06,3.16-.3,6.3-.55,9.45-.1,1.57-.3,3.14-.47,4.7l-.54,4.7c-.46,3.12-1,6.23-1.49,9.34l1.07-9.39.42-4.7c.14-1.57.3-3.13.36-4.7.14-3.14.4-6.28.42-9.42,0-1.57.12-3.14.09-4.72l0-4.71a179.16,179.16,0,0,0-1.3-18.8c-.4-3.11-.85-6.22-1.48-9.3A78,78,0,0,0,78.6,323.8Z" style="fill:#fff"></path><path d="M84.07,324.58a37,37,0,0,1,5.16,8.16c.34.73.7,1.45,1,2.2l.87,2.26.43,1.14c.13.38.24.77.36,1.16l.7,2.32A71.88,71.88,0,0,1,95,361l-.14,4.85-.51,4.82-.26,2.41c-.12.8-.29,1.59-.43,2.39l-.9,4.76c-.13.79-.35,1.57-.56,2.35l-.63,2.34-1.26,4.66c-1.08,3-2.15,6.09-3.25,9.11l2.85-9.22,1.14-4.69.57-2.34a22.79,22.79,0,0,0,.5-2.35l.82-4.74c.13-.79.29-1.58.4-2.37l.24-2.39.46-4.79.11-4.8A74.27,74.27,0,0,0,92,342l-.64-2.32c-.11-.38-.21-.77-.32-1.15l-.41-1.14-.8-2.26c-.29-.75-.64-1.47-1-2.21A39.19,39.19,0,0,0,84.07,324.58Z" style="fill:#fff"></path><path d="M88.09,325.67a26.34,26.34,0,0,1,3.67,3.25A39.24,39.24,0,0,1,95,332.67a43,43,0,0,1,4.91,8.53,49.11,49.11,0,0,1,3.92,19.24c0,1.65-.09,3.29-.16,4.93s-.29,3.28-.59,4.9l-.4,2.43-.51,2.41c-.3,1.62-.81,3.19-1.23,4.77A96.37,96.37,0,0,1,93.43,398l2-4.48L97.24,389l1.64-4.61c.45-1.56,1-3.11,1.38-4.69l.6-2.37c.21-.78.38-1.58.54-2.37l.49-2.39.37-2.41c.29-1.61.36-3.23.54-4.85s.19-3.24.13-4.86a49.65,49.65,0,0,0-3.67-19,42.83,42.83,0,0,0-4.65-8.54A35.4,35.4,0,0,0,88.09,325.67Z" style="fill:#fff"></path><path d="M72.5,346.17a42,42,0,0,1,2.79,4.21h-.51c.48-.85,1-1.69,1.49-2.52.26-.41.53-.82.8-1.22s.56-.81.86-1.19c-.18.45-.39.89-.59,1.34s-.42.88-.65,1.31c-.44.87-.91,1.73-1.4,2.57l-.26.44-.25-.44A43.13,43.13,0,0,1,72.5,346.17Z" style="fill:#fff"></path><path d="M74.82,344a18,18,0,0,1,.22,6.54,15.73,15.73,0,0,1-.41-3.26A16.47,16.47,0,0,1,74.82,344Z" style="fill:#fff"></path><path d="M94.35,323.82a40.54,40.54,0,0,1,.05,5.05l-.43-.28c.87-.45,1.74-.88,2.62-1.29l1.34-.6c.46-.18.91-.37,1.37-.53-.4.29-.82.54-1.23.81l-1.25.75q-1.27.72-2.58,1.38l-.45.23,0-.5A42.52,42.52,0,0,1,94.35,323.82Z" style="fill:#fff"></path><path d="M97.49,323.25a16.21,16.21,0,0,1-1.44,3,16,16,0,0,1-1.94,2.64,16.4,16.4,0,0,1,1.43-3A16.58,16.58,0,0,1,97.49,323.25Z" style="fill:#fff"></path><path d="M89.12,338.92a40.4,40.4,0,0,1,2.28,4.5l-.5-.06c.57-.79,1.16-1.56,1.77-2.32.31-.38.62-.76.94-1.13s.64-.74,1-1.09c-.23.44-.5.85-.74,1.27s-.53.83-.8,1.23c-.54.81-1.1,1.61-1.69,2.39l-.3.41-.2-.47A43.94,43.94,0,0,1,89.12,338.92Z" style="fill:#fff"></path><path d="M91.68,337a18.5,18.5,0,0,1-.54,6.52,17.95,17.95,0,0,1,.54-6.52Z" style="fill:#fff"></path><path d="M79.64,388.76A42,42,0,0,1,82.43,393h-.51c.48-.85,1-1.69,1.49-2.52.26-.41.53-.82.8-1.22s.56-.81.86-1.2c-.18.46-.39.9-.59,1.35s-.43.88-.65,1.31c-.44.87-.91,1.73-1.4,2.57l-.26.44-.25-.44A43.13,43.13,0,0,1,79.64,388.76Z" style="fill:#fff"></path><path d="M82,386.57a18.28,18.28,0,0,1,.21,6.54,18.28,18.28,0,0,1-.21-6.54Z" style="fill:#fff"></path><path d="M57.45,331.26a45.42,45.42,0,0,1,1.45,4.83l-.49-.14c.7-.68,1.42-1.33,2.16-2l1.12-.94c.38-.3.76-.61,1.16-.89-.3.38-.63.74-1,1.12l-1,1.07c-.68.7-1.37,1.38-2.09,2l-.37.35-.11-.49A41.68,41.68,0,0,1,57.45,331.26Z" style="fill:#fff"></path><path d="M60.3,329.84a16.77,16.77,0,0,1-.56,3.24,15.83,15.83,0,0,1-1.13,3.08,16.77,16.77,0,0,1,.56-3.24A15.83,15.83,0,0,1,60.3,329.84Z" style="fill:#fff"></path><path d="M109.28,349.43a42.08,42.08,0,0,1-.53,5l-.39-.32c.91-.36,1.83-.68,2.75-1l1.4-.44c.47-.12.94-.26,1.42-.37-.43.24-.87.44-1.31.66s-.89.41-1.34.6c-.89.38-1.8.75-2.71,1.09l-.48.17.09-.5A44.17,44.17,0,0,1,109.28,349.43Z" style="fill:#fff"></path><path d="M112.46,349.22a18.2,18.2,0,0,1-4,5.18,18.2,18.2,0,0,1,4-5.18Z" style="fill:#fff"></path><path d="M62.9,368a44.94,44.94,0,0,1,2.83,4.17h-.51c.47-.85,1-1.7,1.47-2.53.25-.41.51-.83.78-1.23s.55-.81.85-1.21c-.18.46-.39.91-.58,1.36s-.41.88-.63,1.32q-.66,1.31-1.38,2.58l-.25.44-.25-.44A41.19,41.19,0,0,1,62.9,368Z" style="fill:#fff"></path><path d="M65.19,365.78a18.23,18.23,0,0,1,.29,6.53,15,15,0,0,1-.44-3.25A15.71,15.71,0,0,1,65.19,365.78Z" style="fill:#fff"></path><path d="M45.47,379.14A42.61,42.61,0,0,1,49.66,382l-.47.19c.11-1,.25-1.93.41-2.89q.12-.72.27-1.44c.11-.48.2-1,.33-1.43,0,.49,0,1,0,1.47s-.05,1-.09,1.46c-.08,1-.18,1.94-.31,2.91l-.07.5-.4-.31A43.93,43.93,0,0,1,45.47,379.14Z" style="fill:#fff"></path><path d="M46.77,376.24a16.14,16.14,0,0,1,1.63,2.85,16.48,16.48,0,0,1,1.08,3.1,18.38,18.38,0,0,1-2.71-5.95Z" style="fill:#fff"></path><path d="M41.14,334.86a41.56,41.56,0,0,1,4.65,2l-.42.28c-.07-1-.12-1.94-.14-2.92,0-.49,0-1,0-1.46s0-1,.05-1.47c.11.48.17,1,.25,1.45s.13,1,.19,1.45c.1,1,.19,1.94.24,2.91l0,.51-.45-.23A40.53,40.53,0,0,1,41.14,334.86Z" style="fill:#fff"></path><path d="M41.88,331.76A16.21,16.21,0,0,1,44,334.25a16.69,16.69,0,0,1,1.65,2.84,15.68,15.68,0,0,1-2.13-2.49A16.06,16.06,0,0,1,41.88,331.76Z" style="fill:#fff"></path><path d="M100.63,366.86a43.4,43.4,0,0,1,2.38,4.46l-.51-.05c.56-.8,1.13-1.59,1.72-2.36.3-.39.61-.77.92-1.15s.63-.75,1-1.1c-.22.44-.47.85-.71,1.28s-.51.84-.77,1.25c-.53.82-1.07,1.63-1.64,2.42l-.3.41-.2-.46A42.46,42.46,0,0,1,100.63,366.86Z" style="fill:#fff"></path><path d="M103.15,364.91a18.26,18.26,0,0,1-.41,6.53,18.26,18.26,0,0,1,.41-6.53Z" style="fill:#fff"></path><polygon points="45.69 395.19 103.01 395.19 97.24 443.11 51.46 443.11 45.69 395.19" style="fill:#455a64"></polygon><polygon points="45.69 395.19 46.99 406 102.03 403.35 103.01 395.19 45.69 395.19" style="fill:#263238"></polygon><rect x="42.09" y="389.13" width="64.52" height="8.57" style="fill:#455a64"></rect></g><g id="freepik--Table--inject-6"><polygon points="459.98 443.11 407.49 443.36 354.99 443.44 250 443.61 145.01 443.45 92.52 443.36 40.02 443.11 92.52 442.87 145.01 442.78 250 442.62 354.99 442.78 407.49 442.87 459.98 443.11" style="fill:#263238"></polygon></g></svg>