<svg width="157" height="157" viewBox="0 0 157 157" fill="none" xmlns="http://www.w3.org/2000/svg">
<g clip-path="url(#clip0_108_25)">
<path d="M38.6196 86.0188C40.0702 84.2073 41.6222 82.4795 43.2683 80.8436C45.787 78.3296 48.5171 76.0824 51.7167 74.4657C53.9077 73.3558 56.2066 72.6409 58.7004 72.698C58.8021 72.6908 58.9028 72.6741 59.0013 72.6481C59.0182 71.9005 59.019 71.1607 59.0522 70.4217C59.1707 67.7617 59.6513 65.1658 60.6104 62.6832C60.8894 61.9592 60.7849 61.519 60.2608 60.9831C57.0943 57.7464 55.7764 52.0537 58.624 47.0527C62.6512 39.9705 71.9861 39.0056 77.3842 44.3964C77.7812 44.793 78.1998 45.1663 78.4991 45.6506C78.6551 45.9045 78.8475 45.9731 79.1266 45.8903C79.3651 45.821 79.6082 45.7661 79.8515 45.7151C87.252 44.1753 94.2363 45.3063 100.436 49.639C109.261 55.8047 113.06 64.4206 111.952 75.1397C111.881 75.8372 112.002 76.247 112.552 76.7118C117.883 81.2524 118.348 89.2578 113.702 94.495C109.914 98.7665 103.542 100.09 98.3944 97.3296C97.846 97.0347 97.3045 96.7282 96.8284 96.3207C96.5746 96.1037 96.3407 96.0373 95.9851 96.1574C90.8738 97.8818 90.8717 97.8772 86.1991 98.2977C86.1722 98.3516 86.1188 98.4066 86.1216 98.46C86.2568 101.538 85.3466 104.359 83.9469 107.035C81.9075 110.93 79.144 114.28 76.0565 117.376C74.7366 118.699 73.377 119.97 71.9418 121.168C71.3855 121.631 71.3956 121.584 70.8928 121.118L62.3869 113.247C53.881 105.376 45.3739 97.5067 36.8655 89.6386C35.5787 88.4478 34.4321 87.1426 33.5083 85.6516C31.8681 83.0016 31.248 80.0843 31.2642 77.0065C31.2839 73.4625 31.9214 70.0092 32.7925 66.5991C34.3549 60.4661 37.1939 54.7328 41.1242 49.7738C42.3214 48.2544 43.6381 46.8507 44.9484 45.4361C45.646 44.6821 45.7599 43.9262 45.2771 43.2645C44.7707 42.5732 43.8887 42.3843 43.0083 42.7592C42.5921 42.9338 42.2956 43.2446 41.9816 43.5508C39.898 45.5755 38.1065 47.8528 36.4855 50.2458C31.8905 57.028 29.023 64.4888 28.0896 72.6364C26.5583 85.9776 29.7274 98.1122 37.5962 109.041C40.4728 113.029 43.9488 116.454 47.8549 119.451C64.4199 132.161 87.6922 133.481 105.842 122.054C111.16 118.705 115.743 114.54 119.452 109.458C128.887 96.5286 131.713 82.2181 128.067 66.6545C126.331 59.2472 122.89 52.6431 118.09 46.723C106.879 32.8861 88.7933 25.8513 71.1631 28.5166C70.433 28.6272 70.433 28.6272 70.3102 29.408C70.1018 30.7908 69.5556 32.1006 68.72 33.2215C67.8844 34.3424 66.7852 35.2398 65.5197 35.8343C64.2542 36.4289 62.8613 36.7022 61.4644 36.6302C60.0675 36.5581 58.7096 36.1429 57.5109 35.4213C53.5629 33.0759 52.1411 27.7183 54.5911 23.8405C56.3016 21.132 58.7937 19.526 62.1333 19.657C65.4225 19.7861 67.8395 21.3903 69.4516 24.2344C69.843 24.9248 69.8266 24.93 70.552 24.8341C71.8493 24.6707 73.1414 24.5127 74.5508 24.3436C74.434 23.2177 74.3141 22.0827 74.2002 20.948C74.1657 20.6069 73.875 20.6115 73.6543 20.5459C71.9305 20.0307 70.4178 18.9745 69.3399 17.5337C68.2621 16.0928 67.6763 14.3437 67.6692 12.5451C67.6645 11.3517 67.9149 10.1714 68.4035 9.083C68.59 8.65282 68.8507 8.25885 69.1737 7.9191C69.6718 7.40553 70.176 6.89371 70.6289 6.33956C71.2844 5.53901 72.1364 5.06277 73.081 4.70792C75.0913 3.95043 77.3169 3.99661 79.2954 4.83686C81.2739 5.67711 82.8534 7.24686 83.7057 9.22009C84.5581 11.1933 84.6179 13.4184 83.8726 15.4332C83.1274 17.448 81.6344 19.0976 79.7037 20.0396C78.8593 20.454 78.8586 20.4534 78.9554 21.4221C79.0276 22.1339 79.0965 22.8465 79.1753 23.5581C79.2497 24.2249 79.2539 24.2314 79.9627 24.2498C90.2874 24.5076 100.33 27.6885 108.924 33.4231C112.727 35.9625 116.196 38.8901 119.227 42.3059C128.514 52.7725 133.261 65.0195 133.319 79.0093C133.364 89.4694 130.585 99.185 124.999 108.019C109.409 132.675 78.5021 140.119 53.9803 127.694C48.185 124.768 42.961 120.826 38.5567 116.056C22.4316 98.6307 19.3587 72.954 30.8884 52.1924C32.4605 49.361 34.3319 46.7277 36.3426 44.1901C37.4128 42.8396 38.6286 41.644 39.864 40.4768C41.4609 38.9672 43.4205 38.4498 45.5659 39.1476C47.57 39.7985 48.8008 41.2109 49.1698 43.2877C49.4699 44.9751 49.0434 46.4901 47.8526 47.7646C46.4099 49.31 44.9546 50.8399 43.6669 52.5274C40.0567 57.2244 37.4932 62.6399 36.1484 68.4106C35.6099 70.7112 35.1782 73.0368 35.0084 75.4013C34.9159 76.6125 34.9336 77.8296 35.0611 79.0377C35.3328 81.5347 36.3587 83.69 38.0087 85.5617C38.1697 85.7399 38.3017 85.9715 38.6196 86.0188ZM73.1127 67.7447C72.8725 67.8239 72.6968 67.8776 72.524 67.9378C69.5529 68.9772 67.8001 71.0613 67.2907 74.1547C66.9486 76.2376 67.336 78.2449 68.1403 80.1774C69.3844 83.1632 71.403 85.5324 74.0531 87.3485C76.4395 88.9829 79.0649 89.9697 82.0002 89.9378C85.9266 89.8956 89.2152 87.6118 89.9731 83.4875C89.9798 83.4571 89.9845 83.4262 89.9873 83.3951C90.0093 83.0452 90.128 82.8688 90.5162 83.0423C90.747 83.1356 90.9859 83.2073 91.23 83.2562C94.6689 84.0657 97.7249 83.3198 100.292 80.8938C101.805 79.481 102.818 77.6144 103.177 75.5751C103.537 73.5358 103.224 71.4344 102.285 69.5874C100.378 65.802 96.2475 63.7597 91.9816 64.4852C91.7491 64.5246 91.5199 64.6484 91.2735 64.5514C91.7555 59.3767 88.9208 55.9686 85.6968 54.47C82.2998 52.8902 78.0262 53.5221 75.334 56.0765C71.854 59.3804 71.2689 63.2918 73.1127 67.7447ZM64.7527 30.7092C65.4316 29.965 65.7897 28.9831 65.7492 27.9761C65.7088 26.9691 65.2731 26.0184 64.5365 25.3299C63.7849 24.6347 62.7893 24.2645 61.7665 24.2999C60.7437 24.3352 59.7767 24.7734 59.0762 25.5188C57.6429 27.0678 57.7478 29.5427 59.305 30.9836C60.8621 32.4244 63.3168 32.2939 64.7527 30.7092ZM78.7321 15.0515C79.4013 14.3387 79.7602 13.3895 79.7302 12.4118C79.7002 11.4342 79.2836 10.5081 78.5719 9.83657C77.8603 9.16504 76.9115 8.80293 75.9338 8.82967C74.9561 8.8564 74.0292 9.26979 73.3564 9.97917C71.9054 11.5142 71.9661 13.7879 73.4943 15.2173C75.0397 16.6613 77.3056 16.589 78.7335 15.0528L78.7321 15.0515ZM66.3134 55.1083L66.5191 55.2987C67.4232 56.1353 67.3388 55.8867 67.9436 55.2097C69.2955 53.6936 70.7551 52.3089 72.6764 51.522C72.9861 51.3951 73.0065 51.2244 72.8892 50.9453C72.6761 50.4262 72.3902 49.9402 72.0399 49.5017C71.1674 48.4233 70.05 47.9149 68.6614 48.2266C67.3509 48.5227 66.2425 49.1688 65.4076 50.2499C64.6515 51.2308 64.5332 52.2778 65.0405 53.3987C65.34 54.0516 65.7737 54.6341 66.3134 55.1083ZM103.842 87.1203C103.588 87.3944 103.343 87.6762 103.081 87.9427C102.869 88.1538 102.826 88.3432 103.051 88.5752C103.793 89.3446 104.593 90.0272 105.646 90.3326C106.649 90.6246 107.552 90.4426 108.354 89.7713C109.479 88.8304 110.105 87.6033 110.299 86.168C110.449 85.0424 110.073 84.0877 109.21 83.3315C108.661 82.8515 108.021 82.5521 107.342 82.3032C107.01 82.1817 106.847 82.2422 106.729 82.6037C106.156 84.3517 105.038 85.7616 103.842 87.1203Z" fill="#2C2727"/>
<path d="M91.1664 77.0568C89.2253 75.2466 89.1072 72.0979 90.9034 70.1622C92.7363 68.1815 95.8791 68.0973 97.8556 69.9683C99.7932 71.8045 99.8881 74.9355 98.0634 76.8538C96.2387 78.7721 93.1111 78.8715 91.1664 77.0568ZM86.0517 59.0456C86.7648 59.6973 87.2685 60.546 87.4988 61.4839C87.7292 62.4218 87.6758 63.4068 87.3455 64.3139C87.0152 65.221 86.423 66.0093 85.6438 66.579C84.8646 67.1487 83.9336 67.4741 82.9688 67.514C82.004 67.5537 81.0489 67.3061 80.2245 66.8025C79.4002 66.2989 78.7437 65.5621 78.3384 64.6853C77.933 63.8085 77.7971 62.8314 77.9478 61.8777C78.0986 60.9241 78.5291 60.037 79.185 59.3288C79.6168 58.8591 80.1369 58.4792 80.7158 58.2108C81.2946 57.9423 81.9208 57.7906 82.5585 57.7643C83.1962 57.7379 83.8329 57.8375 84.4323 58.0574C85.0317 58.2773 85.582 58.6131 86.0517 59.0456ZM80.8315 71.6015C81.4578 72.2154 81.4783 73.345 80.8712 73.9626C80.2501 74.5939 79.1466 74.6072 78.515 73.9921C78.2061 73.6821 78.0302 73.264 78.0244 72.8266C78.0186 72.3892 78.1834 71.9669 78.484 71.6493C79.1079 71.0066 80.2018 70.9845 80.8315 71.6015ZM85.0771 77.7782C84.78 78.0995 84.3692 78.2922 83.932 78.3152C83.4948 78.3383 83.0656 78.1899 82.7358 77.9017C82.0793 77.3095 82.0209 76.2071 82.6119 75.5491C83.1909 74.9056 84.3218 74.8503 84.9701 75.4349C85.6184 76.0195 85.6784 77.1133 85.0771 77.7782Z" fill="#2C2727"/>
</g>
<defs>
<clipPath id="clip0_108_25">
<rect width="110" height="110" fill="white" transform="translate(75.6575 0.797852) rotate(42.7795)"/>
</clipPath>
</defs>
</svg>
